<svg width="40" height="40" viewBox="0 0 40 40" fill="none" xmlns="http://www.w3.org/2000/svg">
<path d="M34.9354 5.20175H34.4608C35.3655 3.72889 35.0314 1.7515 33.5795 0.67426C32.015 -0.486343 29.7919 -0.112756 28.7001 1.51877L26.2356 5.20183H5.0644C3.3242 5.20183 1.90845 6.61758 1.90845 8.35778V28.535C1.90845 30.2752 3.3242 31.691 5.0644 31.691H17.3231L16.3968 35.5813H14.3977C13.0949 35.5813 12.0349 36.6412 12.0349 37.9441V38.4374H9.57048C9.13901 38.4374 8.78925 38.7873 8.78925 39.2187C8.78925 39.6501 9.13901 39.9999 9.57048 39.9999H30.4294C30.8609 39.9999 31.2106 39.6501 31.2106 39.2187C31.2106 38.7873 30.8609 38.4374 30.4294 38.4374H27.965V37.9441C27.965 36.6412 26.905 35.5813 25.6021 35.5813H23.603L22.6768 31.691H34.9355C36.6757 31.691 38.0914 30.2752 38.0914 28.535V24.0953V8.3577C38.0914 6.6175 36.6757 5.20175 34.9354 5.20175ZM23.7417 18.9358C22.5202 19.7908 20.2319 18.6286 18.0466 19.7947C17.5135 17.0248 17.8496 14.4198 20.625 13.8448C20.9836 13.77 21.3698 13.7362 21.6985 13.7428C22.6379 14.4397 23.588 15.1446 24.5247 15.8397C24.9348 17.0325 24.7809 18.2084 23.7417 18.9358ZM24.529 10.5619L26.7405 12.2026L25.0398 14.2761C24.3396 13.7567 23.7378 13.3101 23.0376 12.7906C23.183 12.5733 24.3961 10.7604 24.529 10.5619ZM29.9988 2.38774C30.5905 1.50331 31.7972 1.29753 32.6485 1.92916C33.5 2.56086 33.6525 3.77537 32.9778 4.59809C31.7805 6.05767 28.9342 9.52799 27.7324 10.9932L25.3988 9.26183L29.9988 2.38774ZM26.4024 37.9441V38.4374H13.5974V37.9441C13.5974 37.5028 13.9564 37.1438 14.3977 37.1438H25.602C26.0434 37.1438 26.4024 37.5028 26.4024 37.9441ZM21.9968 35.5813H18.003L18.9292 31.691H21.0706L21.9968 35.5813ZM36.5289 28.535C36.5289 29.4137 35.8141 30.1285 34.9355 30.1285C33.6953 30.1285 6.45883 30.1285 5.06448 30.1285C4.18582 30.1285 3.47099 29.4137 3.47099 28.535V24.8765H5.70345C6.13493 24.8765 6.48469 24.5267 6.48469 24.0953C6.48469 23.6639 6.13493 23.3141 5.70345 23.3141H3.47084V8.3577C3.47084 7.47905 4.18567 6.76422 5.06432 6.76422H25.1901C24.4417 7.88271 22.2582 11.1458 21.5666 12.1793C20.0356 12.1931 18.5071 12.7264 17.5065 13.8945C16.1449 15.484 15.9057 17.9814 16.7955 21.3174C16.9476 21.8879 17.6594 22.0923 18.0901 21.6809C20.1101 19.7507 22.626 21.8561 24.879 20.0326C26.2543 18.9193 26.5798 17.1495 26.0612 15.4945C26.7622 14.6398 32.5192 7.62092 33.2218 6.76422H34.9353C35.814 6.76422 36.5288 7.47905 36.5288 8.3577V23.314H11.9532C11.5217 23.314 11.1719 23.6638 11.1719 24.0952C11.1719 24.5266 11.5217 24.8764 11.9532 24.8764H36.5289V28.535Z" fill="#F8F8F8"/>
<path d="M8.67744 23.3293C8.30135 23.4061 8.04932 23.7312 8.04932 24.0957C8.04932 24.5844 8.49611 24.9586 8.98291 24.8614C9.41549 24.7736 9.679 24.3567 9.59619 23.9426C9.50924 23.5153 9.09471 23.2453 8.67744 23.3293Z" fill="#F8F8F8"/>
</svg>
