<svg width="96" height="73" viewBox="0 0 96 73" fill="none" xmlns="http://www.w3.org/2000/svg">
<rect width="96" height="73" rx="10" fill="#F8F8F8"/>
<path d="M20.4198 50.4557C19.8765 50.4557 19.3992 49.9948 19.3992 49.4681C19.3992 48.5133 20.2716 48.3158 21.1111 48.1183C21.4238 48.0524 21.7202 47.9701 21.9671 47.8714V48.4969C21.9671 49.4681 21.4403 50.4557 20.4362 50.4557H20.4198ZM23.2839 49.5998V47.8549C23.2839 47.8549 23.2839 47.7726 23.2839 47.7232C23.2839 47.394 23.2839 47.0648 23.1852 46.7685C22.8724 45.8302 21.7037 45.501 20.716 45.501C19.8601 45.501 19.0535 45.715 18.5432 46.0771H18.5103L18.3621 47.2294L18.5103 47.0977C18.8889 46.7355 19.6625 46.1265 20.6502 46.1265C21.6378 46.1265 21.9506 46.5874 21.9506 46.9166C21.9506 47.5092 20.9959 47.608 20.3539 47.6738C20.1728 47.6903 20.0247 47.7067 19.9095 47.7232C18.642 47.9701 18 48.5463 18 49.4516C18 49.9619 18.2469 50.4228 18.6913 50.7685C19.0864 51.0812 19.6132 51.2623 20.1235 51.2623C20.7654 51.2623 21.3909 50.9166 21.9835 50.2582C22 50.538 22.0494 50.8508 22.1975 51.1142V51.1471H23.8601L23.7942 51.0318C23.4485 50.5216 23.3004 50.11 23.3004 49.6162" fill="#485963"/>
<path d="M25.4729 45.0566C25.9009 45.0566 26.2465 44.7109 26.2465 44.2829C26.2465 43.855 25.8844 43.5093 25.4729 43.5093C25.0614 43.5093 24.6992 43.855 24.6992 44.2829C24.6992 44.7109 25.0614 45.0566 25.4729 45.0566Z" fill="#485963"/>
<path d="M26.3622 45.6986L26.4116 45.5999H24.5515L24.6009 45.6986C24.7655 46.0443 24.8313 46.3406 24.8313 46.7357V50.0608C24.8313 50.4723 24.782 50.6369 24.6009 51.032L24.5515 51.1307H26.4116L26.3622 51.032C26.1976 50.6863 26.1317 50.39 26.1317 49.9949V46.7192C26.1317 46.3406 26.1976 46.0443 26.3622 45.6822" fill="#485963"/>
<path d="M30.8887 45.4844C30.148 45.4844 29.4895 45.8301 28.9957 46.472C28.9957 46.1757 28.9793 45.8465 28.8476 45.649V45.6161H27.2344L27.3167 45.7313C27.5472 46.0605 27.6789 46.5049 27.6789 46.9658V50.0441C27.6789 50.4885 27.613 50.6531 27.4484 51.0482L27.4155 51.1469H29.2591L29.2097 51.0482C29.0451 50.6696 28.9792 50.3897 28.9792 50.0111V48.184C28.9792 47.4926 29.6377 46.4062 30.5101 46.4062C30.6583 46.4062 30.8064 46.4391 30.9546 46.4885H31.0039L31.7117 45.6161L31.613 45.5831C31.3661 45.5173 31.1192 45.4844 30.8723 45.4844" fill="#485963"/>
<path d="M42.0327 45.4844C41.292 45.4844 40.6335 45.8301 40.1397 46.472C40.1397 46.1757 40.1232 45.8465 39.9916 45.649V45.6161H38.3784L38.4607 45.7313C38.6912 46.0605 38.8228 46.5049 38.8228 46.9658V50.0441C38.8228 50.4885 38.7735 50.6531 38.5924 51.0482L38.5595 51.1469H40.4031L40.3537 51.0482C40.1891 50.6696 40.1233 50.3897 40.1233 50.0111V48.184C40.1233 47.4926 40.7817 46.4062 41.6541 46.4062C41.8023 46.4062 41.9504 46.4391 42.0986 46.4885H42.1479L42.8558 45.6161L42.757 45.5831C42.5101 45.5173 42.2632 45.4844 42.0163 45.4844" fill="#485963"/>
<path d="M34.6582 50.6039C34.329 50.6039 33.9669 50.5216 33.6048 50.357V48.0031C33.6048 47.1965 34.2632 46.2912 35.1521 46.2912C36.0409 46.2912 36.3208 47.5916 36.3208 48.3488C36.3208 49.3858 35.8764 50.6039 34.6582 50.6039ZM35.4813 45.4681C34.7241 45.4681 34.0327 45.8138 33.5883 46.4228C33.5718 46.1266 33.5224 45.8796 33.3743 45.6327V45.5998H31.8928L31.9751 45.715C32.3043 46.1595 32.3702 46.5216 32.3702 47.1307V52.5134C32.3702 52.9908 32.3373 53.2871 32.1397 53.715L32.0903 53.8138H33.8517L33.8023 53.715C33.6048 53.2871 33.5718 53.0566 33.5718 52.5792V51.0648C33.901 51.1471 34.2467 51.1801 34.5924 51.1801C36.4854 51.1801 37.7035 49.962 37.7035 48.0854C37.7035 46.8179 37.0121 45.4517 35.4648 45.4517" fill="#485963"/>
<path d="M45.0284 45.6986L45.0778 45.5999H43.2178L43.2672 45.6986C43.4318 46.0443 43.4976 46.3406 43.4976 46.7357V50.0608C43.4976 50.4723 43.4482 50.6369 43.2672 51.032L43.2178 51.1307H45.0778L45.0284 51.032C44.8638 50.6863 44.798 50.39 44.798 49.9949V46.7192C44.798 46.3406 44.8638 46.0443 45.0284 45.6822" fill="#485963"/>
<path d="M44.1401 45.0566C44.5681 45.0566 44.9138 44.7109 44.9138 44.2829C44.9138 43.855 44.5516 43.5093 44.1401 43.5093C43.7286 43.5093 43.3665 43.855 43.3665 44.2829C43.3665 44.7109 43.7286 45.0566 44.1401 45.0566Z" fill="#485963"/>
<path d="M48.6833 47.6901C47.9755 47.3774 47.3171 47.0646 47.3171 46.6202C47.3171 46.258 47.7616 46.0605 48.0908 46.0605C48.9961 46.0605 49.8521 46.7519 50.1813 47.0317L50.313 47.1634L50.1813 46.0276H50.1484C49.457 45.6654 48.7821 45.4844 48.1566 45.4844C47.1196 45.4844 46.0825 45.9453 46.0825 46.9658C46.0825 47.9864 47.0537 48.3815 47.9097 48.7436C48.6175 49.0399 49.2924 49.3362 49.2924 49.8959C49.2924 50.4556 48.4529 50.7189 48.0249 50.7189C47.3006 50.7189 46.4282 50.1757 45.9179 49.6819L45.7698 49.5337L45.9014 50.686H45.9344C46.5928 51.0976 47.3171 51.3115 48.0414 51.3115C49.1278 51.3115 50.6258 50.686 50.6258 49.5173C50.6258 48.579 49.5887 48.1181 48.6833 47.7066" fill="#485963"/>
<path d="M56.996 49.8631V47.1635C56.996 46.6533 56.996 46.3569 56.5516 45.9619C56.0907 45.5668 55.3664 45.5175 55.0866 45.5175C54.3294 45.5175 53.6545 45.8467 53.0619 46.4886C53.0619 45.9784 53.0619 45.4681 53.0619 44.9742C53.0619 44.7109 53.0619 44.4146 53.0619 44.1183C53.0619 43.6409 53.0948 43.4269 53.2923 42.9989L53.3417 42.9001H51.531L51.5804 42.9989C51.745 43.3775 51.8109 43.6903 51.8109 44.0689V50.0277C51.8109 50.4557 51.7615 50.6203 51.5804 51.0154L51.5475 51.1142H53.3417L53.2923 51.0154C53.1442 50.7026 53.0619 50.3405 53.0619 49.929V48.1512C53.0619 47.2129 54.0001 46.2088 54.8726 46.2088C55.1359 46.2088 55.3335 46.2746 55.4652 46.4063C55.7286 46.6862 55.7285 47.2129 55.7285 47.6738C55.7285 47.6738 55.7285 47.8055 55.7285 47.8549V50.0442C55.7285 50.4722 55.6792 50.6203 55.5146 51.0154L55.4652 51.1142H57.2594L57.21 51.0154C57.0619 50.6697 56.996 50.3405 56.996 49.8467" fill="#485963"/>
<path d="M61.9507 49.6987C61.5721 50.1432 61.1441 50.637 60.5515 50.637C59.9589 50.637 59.6133 50.2748 59.6133 49.6658V46.2584H61.7696V45.5999H59.6133V44.6123L58.1318 44.9744L58.1647 45.0403C58.2305 45.2378 58.2799 45.4024 58.2799 45.5999H57.9836V46.2584H58.2964V49.5341C58.2964 50.3571 58.7902 51.2296 60.1894 51.2296C60.8149 51.2296 61.2923 51.0814 61.819 50.7358H61.8355L62.1318 49.6L62.0659 49.567L61.9507 49.7152" fill="#485963"/>
<path d="M63.6135 45.0566C64.0415 45.0566 64.3872 44.7109 64.3872 44.2829C64.3872 43.855 64.025 43.5093 63.6135 43.5093C63.202 43.5093 62.8398 43.855 62.8398 44.2829C62.8398 44.7109 63.202 45.0566 63.6135 45.0566Z" fill="#485963"/>
<path d="M64.5019 45.6986L64.5513 45.5999H62.6912L62.7405 45.6986C62.9052 46.0443 62.971 46.3406 62.971 46.7357V50.0608C62.971 50.4723 62.9216 50.6369 62.7405 51.032L62.6912 51.1307H64.5513L64.5019 51.032C64.3373 50.6863 64.2714 50.39 64.2714 49.9949V46.7192C64.2714 46.3406 64.3373 46.0443 64.5019 45.6822" fill="#485963"/>
<path d="M71.136 49.863V47.3116C71.136 46.6861 71.1195 46.3897 70.6421 45.9618C70.1812 45.5667 69.4569 45.5173 69.1771 45.5173C68.4199 45.5173 67.745 45.8465 67.1524 46.4885C67.1524 46.1593 67.1524 45.8465 67.0043 45.6325V45.5996H65.3911L65.4734 45.7149C65.7039 46.0441 65.8355 46.4885 65.8355 46.9494V50.0605C65.8355 50.4885 65.7861 50.6531 65.6051 51.0482L65.5722 51.147H67.4323L67.3829 51.0482C67.2347 50.7354 67.1524 50.3733 67.1524 49.9618V48.184C67.1524 47.2457 68.0907 46.2416 68.9631 46.2416C69.2265 46.2416 69.424 46.3075 69.5557 46.4391C69.8191 46.719 69.8191 47.2457 69.8191 47.7066C69.8191 47.7066 69.8191 47.8383 69.8191 47.8877V50.077C69.8191 50.505 69.7697 50.6531 69.6051 51.0482L69.5557 51.147H71.3993L71.35 51.0482C71.2018 50.7025 71.136 50.3733 71.136 49.8795" fill="#485963"/>
<path d="M74.5599 50.4556C74.0167 50.4556 73.5393 49.9947 73.5393 49.4679C73.5393 48.5132 74.4118 48.3157 75.2513 48.1181C75.564 48.0523 75.8603 47.97 76.1072 47.8712V48.4967C76.1072 49.4679 75.5805 50.4556 74.5764 50.4556H74.5599ZM77.9179 51.0152C77.5723 50.505 77.4241 50.0934 77.4241 49.5996V47.8548C77.4241 47.8548 77.4241 47.756 77.4241 47.7066C77.4241 47.3939 77.4241 47.0646 77.3254 46.7519C77.0126 45.8136 75.8439 45.4844 74.8562 45.4844C74.0003 45.4844 73.1937 45.6984 72.6834 46.0605H72.6504L72.5023 47.2128L72.6504 47.0811C73.029 46.7189 73.8027 46.1099 74.7904 46.1099C75.778 46.1099 76.0908 46.5708 76.0908 46.9C76.0908 47.4926 75.1361 47.5914 74.4941 47.6572C74.313 47.6737 74.1648 47.6901 74.0496 47.7066C72.7821 47.9535 72.1401 48.5296 72.1401 49.435C72.1401 49.9453 72.3871 50.4062 72.8315 50.7519C73.2266 51.0646 73.7533 51.2457 74.2636 51.2457C74.9056 51.2457 75.5311 50.9 76.1237 50.2416C76.1402 50.5214 76.1896 50.8342 76.3377 51.0976V51.1305H78.0002L77.9344 51.0152" fill="#485963"/>
<path d="M50.9543 34.3734C49.2424 32.5463 47.4811 28.8097 47.6786 25.4516C47.6786 24.6286 47.9091 23.6903 48.2712 22.7685C50.3782 17.3858 41.4893 20.0854 44.9955 28.8426C46.0984 31.5092 48.156 33.6327 50.9543 34.9496C51.1025 35.0154 51.2671 35.0977 51.4317 35.1636L51.547 34.9331C51.3494 34.7685 51.1519 34.5874 50.9543 34.3734Z" fill="#E31E27"/>
<path d="M50.2468 35.1636C47.7941 34.1101 45.934 32.9414 44.9958 31.8879C43.4814 30.3735 43.004 29.0895 42.5431 27.4434L42.1974 26.2747C41.6048 22.7685 37.0616 27.6739 41.8517 32.464C44.4526 34.9496 47.6954 35.9043 50.9711 35.8714C51.0863 35.8714 51.2015 35.8714 51.3168 35.8714V35.641" fill="#E31E27"/>
<path d="M40.2055 32.2334C38.5758 30.719 37.2754 33.0564 39.2672 34.9165C40.7816 36.4309 43.4812 37.2539 45.2261 37.3692C47.5964 37.6984 48.8804 37.3856 50.9544 36.6449L51.1849 36.5626V36.4474H50.9544C46.4277 36.6613 44.1067 36.0358 40.2055 32.2334Z" fill="#E31E27"/>
<path d="M54.1155 35.3939C54.1155 35.3939 54.2801 35.3116 54.3624 35.2458C54.5435 35.1141 54.741 34.933 54.8233 34.6861C55.0538 34.2252 54.9385 33.7478 54.7081 33.5174C54.8233 33.4022 54.8233 33.1717 54.8233 32.9248C54.9056 32.612 54.6752 32.217 54.3624 31.8713C54.099 31.575 53.7698 31.3116 53.4735 31.1306C53.0949 30.8837 52.7822 30.7684 52.8315 30.9495C52.9138 31.2129 52.8809 31.3446 52.634 31.3939C52.5682 31.3939 52.4694 31.4104 52.3542 31.4104C52.1072 31.3939 51.8768 31.4104 51.6793 31.4104C51.383 31.4433 51.1525 31.5256 50.955 31.6244C50.5105 31.8384 50.313 32.1347 50.3788 32.2005C50.5599 32.6285 50.741 33.1223 50.955 33.5503C51.1525 33.9454 51.3829 34.3075 51.6628 34.538H51.6957C52.0414 34.8507 52.1237 33.8137 52.6504 33.5833C52.7986 33.5174 52.9632 33.5174 53.1937 33.6162C53.2925 33.6655 53.3912 33.7314 53.49 33.7972C54.0003 34.1594 54.2307 34.6861 54.1319 35.3775M54.3624 32.431C54.3624 32.431 54.4612 32.5297 54.4612 32.5956C54.6916 32.9413 54.5764 33.0565 54.4612 33.1717V33.0565C54.4612 32.9577 54.4611 32.9413 54.3459 32.826C54.3459 32.6944 54.2307 32.6943 54.2307 32.4639L54.1155 32.2334C54.1155 32.2334 54.2801 32.3651 54.3624 32.431Z" fill="#E31E27"/>
<path d="M53.473 37.9619L53.292 37.8467L53.6377 38.5545C53.7529 38.7849 54.0492 38.8179 54.0986 38.6697C54.1479 38.538 54.0985 38.4228 53.9833 38.324L53.4566 37.9784" fill="#E31E27"/>
<path d="M53.4239 38.5545C53.177 38.2253 52.8807 37.9948 52.6502 37.7808L52.6008 37.7314L52.6502 37.8961C52.7325 38.1759 52.8148 38.9825 52.8642 39.2623C52.9136 39.5586 53.1934 39.608 53.1934 39.608C53.3251 39.608 53.4074 39.5915 53.4897 39.5422C53.5885 39.4928 53.6708 39.4105 53.6708 39.3117C53.6708 39.1306 53.6214 38.7849 53.4239 38.5545Z" fill="#E31E27"/>
<path d="M42.7572 38.8014C43.6296 39.9043 46.0987 40.9577 49.4567 38.8014C49.9341 38.4886 50.428 38.1265 50.9382 37.682C51.1358 37.5174 51.3333 37.3363 51.5308 37.1553L51.4156 37.04L50.9382 37.2047C47.9259 38.2252 46.9053 38.4063 43.465 37.5174C42.2963 37.254 42.1316 38.0442 42.7407 38.8178" fill="#E31E27"/>
<path d="M50.3292 38.8013C50.0988 38.9988 49.8354 39.1963 49.5556 39.3774C48.3045 40.0687 48.321 40.8589 48.8477 41.1223C49.0782 41.2375 49.391 41.2539 49.7366 41.1223C50.0988 40.9906 50.4938 40.6943 50.856 40.2004C50.8889 40.151 50.9383 40.0852 50.9712 40.0358C51.2181 39.6572 51.3827 39.2457 51.5144 38.8177C51.5967 38.5543 51.6461 38.2745 51.6955 37.9947C51.7284 37.7642 51.7613 37.5338 51.7943 37.2869H51.679C51.4486 37.5996 51.2181 37.9124 50.9712 38.1922C50.7737 38.4062 50.5761 38.6202 50.3457 38.8177" fill="#E31E27"/>
<path d="M52.5677 38.8014C52.4854 38.4722 52.3372 38.11 52.1068 37.7314C51.9421 38.143 52.008 38.3734 51.9421 38.8014C51.9092 38.9825 51.8599 39.2129 51.7611 39.4928C51.7282 39.5915 51.6952 39.6903 51.6623 39.7891C51.5306 40.2829 51.547 40.5957 51.6623 40.7603C51.8927 41.073 52.4524 40.7109 52.617 39.9207C52.6664 39.6574 52.6829 39.3446 52.617 38.9989C52.617 38.9331 52.5841 38.8673 52.5677 38.8179" fill="#E31E27"/>
<path d="M56.6012 38.8013C56.6012 38.8013 56.6671 38.8672 56.7 38.9001C56.7 38.8672 56.667 38.8343 56.667 38.8013C56.5353 38.4886 56.3214 38.1923 56.0086 38.0935C55.8934 38.0935 55.7782 38.0935 55.5477 38.2087C55.4709 38.2087 55.4325 38.1703 55.4325 38.0935C55.5477 37.9783 55.5477 37.8631 55.5477 37.6326C55.3502 37.2211 56.0415 37.4351 56.2061 37.5832C55.9428 37.254 55.3008 36.9742 55.0703 37.6326C54.9551 37.8631 54.8399 38.0935 54.7247 38.0935C54.4942 38.0935 54.1485 37.9783 53.7864 37.8631C54.2144 38.1923 54.5436 38.4063 54.6918 38.8178C54.6918 38.8178 54.7082 38.8836 54.7247 38.9166C54.7247 39.6244 54.379 39.7396 55.1856 40.2005C55.1856 40.3157 55.3008 40.3157 55.5312 40.431C54.593 39.7231 55.416 39.9701 55.1856 39.2622C55.1856 39.147 55.3008 39.147 55.3008 39.147C55.7617 39.7396 56.1238 39.2622 56.3543 39.7396V40.0853C56.3543 40.0853 56.3543 39.9701 56.4695 39.8548C56.5847 39.3939 56.0086 38.8013 55.416 38.9166C55.3831 38.8836 55.3502 38.8507 55.3502 38.8178C55.3337 38.7519 55.3831 38.6861 55.5477 38.6861C55.7782 38.6861 56.0086 38.4557 56.1403 38.4557C56.4366 38.5544 56.486 38.6532 56.6177 38.8178" fill="#E31E27"/>
</svg>
