<svg width="40" height="40" viewBox="0 0 40 40" fill="none" xmlns="http://www.w3.org/2000/svg">
<g clip-path="url(#clip0_455_297)">
<path d="M26.2223 34.9822C26.3035 35.0158 26.3901 35.0332 26.4777 35.0329C26.6545 35.0329 26.8242 34.9627 26.9493 34.8375L32.1354 29.6514C32.2453 29.5409 32.3134 29.3956 32.328 29.2406L32.7776 24.2938L37.3215 19.7496C39.6361 17.4353 39.4114 12.8359 39.4013 12.6411C39.3824 12.302 39.1117 12.0313 38.7726 12.0124C38.5772 12.0017 33.979 11.7783 31.6638 14.0922L27.1199 18.6361L22.1731 19.0857C22.0181 19.1 21.8728 19.1684 21.7623 19.2783L16.5762 24.4644C16.3842 24.6549 16.3262 24.9427 16.4294 25.1927C16.5328 25.4427 16.777 25.6053 17.0475 25.6047H20.8375L20.1873 27.5563C20.147 27.6797 20.1434 27.8124 20.1772 27.9376C19.4227 28.6973 18.8944 31.1483 18.7512 31.8823C18.7143 32.0777 18.7668 32.2791 18.8938 32.432C19.0207 32.5847 19.2094 32.6729 19.4081 32.6726C19.4508 32.6726 19.4938 32.6683 19.536 32.6597C20.2694 32.5166 22.7265 31.9876 23.4841 31.2304L23.488 31.2255C23.5405 31.2435 23.5952 31.2542 23.6507 31.2581C23.7225 31.2581 23.7939 31.2465 23.8619 31.2236L25.8136 30.5735V34.366C25.8133 34.6352 25.9744 34.8781 26.2223 34.9822ZM23.8287 29.8306L21.5828 27.585L22.0538 26.1706L25.2428 29.3599L23.8287 29.8306ZM24.1202 23.5216L27.8922 27.2935L26.4759 28.7086L22.7051 24.9378L24.1202 23.5216ZM31.022 28.8792L27.1425 32.7565V29.9273L31.3025 25.7668L31.022 28.8792ZM31.706 23.4782L28.839 26.3455L25.067 22.5735L32.1354 15.5063L35.9074 19.2783L31.706 23.4782ZM36.8014 18.2854L33.1268 14.6108C34.6459 13.544 36.969 13.3593 38.0751 13.338C38.055 14.4447 37.8703 16.766 36.8014 18.2866V18.2854ZM18.6572 24.2712L22.5345 20.3939L25.6469 20.111L21.4864 24.2712H18.6572ZM21.0642 28.9546L22.4603 30.3513C21.7751 30.7075 21.0441 30.9679 20.288 31.1257C20.4465 30.3693 20.7074 29.638 21.0642 28.9525V28.9546Z" fill="#F8F8F8"/>
<path d="M31.664 17.8639C31.404 18.1245 31.404 18.5464 31.664 18.8067L32.6102 19.7496C32.8718 20.0023 33.2878 19.9986 33.5451 19.7416C33.8021 19.4843 33.8058 19.0686 33.5531 18.8067L32.6102 17.8639C32.4851 17.7381 32.3148 17.667 32.1371 17.667C31.9595 17.667 31.7895 17.7381 31.664 17.8639Z" fill="#F8F8F8"/>
<path d="M30.7214 19.7492C30.4595 19.4965 30.0438 19.5001 29.7864 19.7574C29.5294 20.0147 29.5258 20.4304 29.7785 20.692L30.7214 21.6349C30.9829 21.8876 31.3987 21.8839 31.656 21.6269C31.913 21.3696 31.9166 20.9536 31.6639 20.692L30.7214 19.7492Z" fill="#F8F8F8"/>
<path d="M35.594 34.5799C38.2248 31.5875 38.8227 27.317 37.115 23.7172C37.0124 23.502 36.803 23.358 36.5655 23.339C36.3278 23.3201 36.0982 23.4294 35.963 23.6256C35.8278 23.8219 35.8077 24.0755 35.9102 24.2907C36.4627 25.4506 36.7478 26.72 36.7441 28.0047C36.7447 31.527 34.6139 34.6996 31.3529 36.031C28.0918 37.3627 24.3495 36.5883 21.8844 34.0723C21.6256 33.8156 21.2084 33.8147 20.9483 34.0699C20.688 34.3251 20.6809 34.742 20.9321 35.006C24.6403 38.7985 30.6676 39.0262 34.6512 35.524L38.9399 39.8127C39.2015 40.0654 39.6175 40.0618 39.8745 39.8045C40.1318 39.5475 40.1355 39.1315 39.8827 38.8699L35.594 34.5799Z" fill="#F8F8F8"/>
<path d="M2.07199 31.339H16.7409C17.1093 31.339 17.4078 31.0405 17.4078 30.6721C17.4078 30.304 17.1093 30.0055 16.7409 30.0055H2.07199C1.70358 30.0055 1.40507 29.707 1.40507 29.3385V22.6709C1.40507 22.3025 1.70358 22.004 2.07199 22.004H16.7409C17.1093 22.004 17.4078 21.7054 17.4078 21.3373C17.4078 20.9689 17.1093 20.6704 16.7409 20.6704H4.07214V18.0033C4.07214 17.6352 3.77363 17.3364 3.40552 17.3364C3.03712 17.3364 2.7386 17.6352 2.7386 18.0033V20.6704H2.07199C0.967068 20.6704 0.0715332 21.566 0.0715332 22.6709V29.3385C0.0715332 30.4435 0.967068 31.339 2.07199 31.339Z" fill="#F8F8F8"/>
<path d="M2.73853 24.0043V28.0049C2.73853 28.373 3.03704 28.6718 3.40545 28.6718C3.77355 28.6718 4.07206 28.373 4.07206 28.0049V24.0043C4.07206 23.6359 3.77355 23.3374 3.40545 23.3374C3.03704 23.3374 2.73853 23.6359 2.73853 24.0043Z" fill="#F8F8F8"/>
<path d="M18.0744 4.66755C18.4428 4.66755 18.7413 4.36904 18.7413 4.00094V2.6674H22.198C22.5228 3.58583 23.462 4.13676 24.4222 3.97194C25.3825 3.80742 26.0842 2.97476 26.0842 2.00048C26.0842 1.0262 25.3825 0.193843 24.4222 0.0290209C23.462 -0.135802 22.5228 0.415133 22.198 1.33386H16.0743C15.3377 1.33386 14.7407 1.93089 14.7407 2.6674V4.00094C14.7407 4.36904 15.0392 4.66755 15.4073 4.66755C15.7757 4.66755 16.0743 4.36904 16.0743 4.00094V2.6674H17.4078V4.00094C17.4078 4.36904 17.7063 4.66755 18.0744 4.66755ZM24.0755 1.33386C24.4439 1.33386 24.7424 1.63238 24.7424 2.00048C24.7424 2.36889 24.4439 2.6674 24.0755 2.6674C23.7074 2.6674 23.4089 2.36889 23.4089 2.00048C23.4089 1.63238 23.7074 1.33386 24.0755 1.33386Z" fill="#F8F8F8"/>
<path d="M14.7407 9.33482C14.7407 9.70323 15.0392 10.0017 15.4073 10.0017C15.7757 10.0017 16.0743 9.70323 16.0743 9.33482V8.00129H17.4078V9.33482C17.4078 9.70323 17.7063 10.0017 18.0744 10.0017C18.4428 10.0017 18.7413 9.70323 18.7413 9.33482V8.00129H22.198C22.5228 8.91972 23.462 9.47065 24.4222 9.30613C25.3825 9.14131 26.0842 8.30865 26.0842 7.33437C26.0842 6.36039 25.3825 5.52773 24.4222 5.36291C23.462 5.19839 22.5228 5.74933 22.198 6.66775H16.0743C15.3377 6.66775 14.7407 7.26478 14.7407 8.00129V9.33482ZM24.0755 6.66775C24.4439 6.66775 24.7424 6.96627 24.7424 7.33437C24.7424 7.70278 24.4439 8.00129 24.0755 8.00129C23.7074 8.00129 23.4089 7.70278 23.4089 7.33437C23.4089 6.96627 23.7074 6.66775 24.0755 6.66775Z" fill="#F8F8F8"/>
<path d="M3.40545 13.3354C3.03704 13.3354 2.73853 13.634 2.73853 14.0024V15.3359C2.73853 15.704 3.03704 16.0025 3.40545 16.0025C3.77355 16.0025 4.07206 15.704 4.07206 15.3359V14.0024C4.07206 13.634 3.77355 13.3354 3.40545 13.3354Z" fill="#F8F8F8"/>
<path d="M4.07206 10.0019C4.07206 9.63347 3.77355 9.33496 3.40545 9.33496C3.03704 9.33496 2.73853 9.63347 2.73853 10.0019V11.3354C2.73853 11.7035 3.03704 12.002 3.40545 12.002C3.77355 12.002 4.07206 11.7035 4.07206 11.3354V10.0019Z" fill="#F8F8F8"/>
<path d="M4.07206 6.00109C4.07206 5.63298 3.77355 5.33447 3.40545 5.33447C3.03704 5.33447 2.73853 5.63298 2.73853 6.00109V7.33462C2.73853 7.70303 3.03704 8.00154 3.40545 8.00154C3.77355 8.00154 4.07206 7.70303 4.07206 7.33462V6.00109Z" fill="#F8F8F8"/>
<path d="M12.7401 1.33374H11.4066C11.0385 1.33374 10.74 1.63225 10.74 2.00036C10.74 2.36876 11.0385 2.66728 11.4066 2.66728H12.7401C13.1085 2.66728 13.4071 2.36876 13.4071 2.00036C13.4071 1.63225 13.1085 1.33374 12.7401 1.33374Z" fill="#F8F8F8"/>
<path d="M8.73947 1.33374H7.40593C7.03753 1.33374 6.73901 1.63225 6.73901 2.00036C6.73901 2.36876 7.03753 2.66728 7.40593 2.66728H8.73947C9.10757 2.66728 9.40639 2.36876 9.40639 2.00036C9.40639 1.63225 9.10757 1.33374 8.73947 1.33374Z" fill="#F8F8F8"/>
<path d="M12.7401 6.66797H11.4066C11.0385 6.66797 10.74 6.96648 10.74 7.33458C10.74 7.70299 11.0385 8.0015 11.4066 8.0015H12.7401C13.1085 8.0015 13.4071 7.70299 13.4071 7.33458C13.4071 6.96648 13.1085 6.66797 12.7401 6.66797Z" fill="#F8F8F8"/>
<path d="M8.73951 6.66797H6.07244C5.70403 6.66797 5.40552 6.96648 5.40552 7.33458C5.40552 7.70299 5.70403 8.0015 6.07244 8.0015H8.73951C9.10761 8.0015 9.40643 7.70299 9.40643 7.33458C9.40643 6.96648 9.10761 6.66797 8.73951 6.66797Z" fill="#F8F8F8"/>
<path d="M18.0744 15.336C18.4428 15.336 18.7413 15.0375 18.7413 14.6691V13.3356H22.198C22.5228 14.2543 23.462 14.8052 24.4222 14.6404C25.3825 14.4756 26.0842 13.6432 26.0842 12.6689C26.0842 11.6947 25.3825 10.862 24.4222 10.6975C23.462 10.5327 22.5228 11.0836 22.198 12.002H16.0743C15.3377 12.002 14.7407 12.599 14.7407 13.3356V14.6691C14.7407 15.0375 15.0392 15.336 15.4073 15.336C15.7757 15.336 16.0743 15.0375 16.0743 14.6691V13.3356H17.4078V14.6691C17.4078 15.0375 17.7063 15.336 18.0744 15.336ZM24.0755 12.002C24.4439 12.002 24.7424 12.3005 24.7424 12.6689C24.7424 13.037 24.4439 13.3356 24.0755 13.3356C23.7074 13.3356 23.4089 13.037 23.4089 12.6689C23.4089 12.3005 23.7074 12.002 24.0755 12.002Z" fill="#F8F8F8"/>
<path d="M12.7401 12.002H11.4066C11.0385 12.002 10.74 12.3005 10.74 12.6689C10.74 13.037 11.0385 13.3355 11.4066 13.3355H12.7401C13.1085 13.3355 13.4071 13.037 13.4071 12.6689C13.4071 12.3005 13.1085 12.002 12.7401 12.002Z" fill="#F8F8F8"/>
<path d="M8.73951 12.002H6.07244C5.70403 12.002 5.40552 12.3005 5.40552 12.6689C5.40552 13.037 5.70403 13.3355 6.07244 13.3355H8.73951C9.10761 13.3355 9.40643 13.037 9.40643 12.6689C9.40643 12.3005 9.10761 12.002 8.73951 12.002Z" fill="#F8F8F8"/>
<path d="M4.73898 2.66728C5.10708 2.66728 5.4056 2.36876 5.4056 2.00036C5.4056 1.63225 5.10708 1.33374 4.73898 1.33374C3.63406 1.33374 2.73853 2.22928 2.73853 3.33389C2.73853 3.57227 2.8658 3.79234 3.07183 3.91138C3.27817 4.03042 3.53242 4.03042 3.73875 3.91138C3.94509 3.79234 4.07206 3.57227 4.07206 3.33389C4.07206 2.96579 4.37057 2.66728 4.73898 2.66728Z" fill="#F8F8F8"/>
</g>
<defs>
<clipPath id="clip0_455_297">
<rect width="40" height="40" fill="white"/>
</clipPath>
</defs>
</svg>
