<svg width="40" height="40" viewBox="0 0 40 40" fill="none" xmlns="http://www.w3.org/2000/svg">
<path d="M12.5 16.25C12.8452 16.25 13.125 15.9702 13.125 15.625C13.125 15.2798 12.8452 15 12.5 15C12.1548 15 11.875 15.2798 11.875 15.625C11.875 15.9702 12.1548 16.25 12.5 16.25Z" fill="#F8F8F8"/>
<path d="M15 16.25C15.3452 16.25 15.625 15.9702 15.625 15.625C15.625 15.2798 15.3452 15 15 15C14.6548 15 14.375 15.2798 14.375 15.625C14.375 15.9702 14.6548 16.25 15 16.25Z" fill="#F8F8F8"/>
<path d="M36.2787 25H28.75C28.6251 25 28.503 25.0374 28.3996 25.1075C28.2962 25.1775 28.2161 25.2769 28.1697 25.3929L27.6289 26.745L20.2903 19.4064C19.5007 18.613 18.4353 18.155 17.3162 18.1279C17.4382 17.7215 17.5001 17.2994 17.5 16.875V15.8142L18.6425 14.1005L18.6441 14.0981L18.645 14.0967C18.7137 13.9941 18.7502 13.8734 18.75 13.75V11.875C18.7485 10.5494 18.2212 9.27849 17.2839 8.34114C16.3465 7.40378 15.0756 6.87651 13.75 6.87502H12.0226C11.5506 6.87344 11.0856 6.98837 10.6688 7.20959C10.2519 7.43082 9.89608 7.75151 9.63287 8.14321C8.7068 8.23544 7.84798 8.66828 7.22294 9.35779C6.59789 10.0473 6.25117 10.9444 6.25 11.875V13.125C6.25209 13.9979 6.45632 14.8585 6.84668 15.6392C7.23704 16.4199 7.80293 17.0996 8.49998 17.6251L8.75 17.8126V18.125H7.17827C5.60653 18.1268 4.09968 18.7519 2.9883 19.8633C1.87691 20.9747 1.25176 22.4816 1.25 24.0533V38.75H2.5V27.6931C2.65069 27.8869 2.81309 28.0713 2.9863 28.2453L9.5266 34.7856C9.98982 35.2513 10.5408 35.6206 11.1477 35.8719C11.7546 36.1233 12.4053 36.2518 13.0622 36.25H13.1879C13.3329 36.9553 13.7166 37.5891 14.2744 38.0445C14.8322 38.4999 15.5299 38.7491 16.25 38.75H31.8555C32.3556 38.7516 32.8445 38.6026 33.2585 38.3223C33.6725 38.0419 33.9925 37.6434 34.1767 37.1785L38.0196 27.5714C38.1334 27.2869 38.1757 26.9788 38.1429 26.6742C38.1101 26.3695 38.0031 26.0776 37.8313 25.8238C37.6596 25.5701 37.4282 25.3623 37.1575 25.2187C36.8868 25.0751 36.5851 25 36.2787 25ZM25.3963 32.3263L25.3933 32.3079C25.2857 31.6516 24.9932 31.0396 24.5501 30.5436C24.1069 30.0476 23.5316 29.6882 22.8915 29.5076L20.5714 27.1875L23.4375 24.3214L27.1238 28.0077L25.3963 32.3263ZM21.0937 29.4777C20.8404 29.5395 20.5948 29.6293 20.3613 29.7456L18.6024 30.625H17.5V25.8839L21.0937 29.4777ZM10 19.9327C10.5379 20.4837 11.2118 20.8828 11.9535 21.0895C12.6952 21.2963 13.4784 21.3034 14.2238 21.1101C14.038 21.5848 13.6922 21.9796 13.2463 22.2265C12.8003 22.4733 12.2822 22.5566 11.7813 22.462C11.2804 22.3675 10.8283 22.1009 10.5031 21.7084C10.1779 21.316 9.99991 20.8222 10 20.3125V19.9327ZM13.125 20C12.2965 19.9991 11.5022 19.6695 10.9163 19.0837C10.3305 18.4978 10.0009 17.7035 10 16.875V13.8615C10.5521 13.5321 11.0073 13.0626 11.3194 12.5006C11.8011 13.0888 12.4079 13.5623 13.0957 13.8866C13.7834 14.2108 14.5348 14.3777 15.2951 14.375H16.25V16.875C16.2491 17.7035 15.9195 18.4978 15.3337 19.0837C14.7478 19.6695 13.9535 19.9991 13.125 20ZM12.0226 8.12502H13.75C14.7442 8.12613 15.6974 8.52158 16.4004 9.2246C17.1034 9.92762 17.4989 10.8808 17.5 11.875V13.125H15.2951C14.5708 13.1275 13.8602 12.9269 13.2441 12.5461C12.6279 12.1653 12.1307 11.6195 11.809 10.9705L10.7138 8.78004C10.8655 8.57612 11.063 8.41063 11.2903 8.29687C11.5176 8.18311 11.7684 8.12425 12.0226 8.12502ZM7.5 13.125V11.875C7.50076 11.2767 7.71573 10.6984 8.106 10.2449C8.49626 9.79143 9.03602 9.49265 9.62753 9.40271L10.5512 11.25L10.2795 11.7935C10.0807 12.1945 9.77343 12.5319 9.39262 12.7672C9.01181 13.0026 8.57267 13.1265 8.125 13.125V14.375C8.33451 14.3744 8.54359 14.3561 8.75 14.3202V16.1834C7.95169 15.3652 7.50336 14.2682 7.5 13.125ZM2.5 24.0533C2.5014 22.813 2.99474 21.6239 3.87178 20.7468C4.74882 19.8698 5.93794 19.3764 7.17827 19.375H8.75V20.3125C8.74993 21.211 9.10165 22.0737 9.72984 22.7161C10.358 23.3584 11.2128 23.7292 12.111 23.7492C13.0092 23.7691 13.8795 23.4366 14.5356 22.8227C15.1917 22.2089 15.5813 21.3626 15.6211 20.465C16.046 20.1686 16.4154 19.7996 16.7122 19.375H17.1967C17.6073 19.3739 18.0139 19.4542 18.3932 19.6113C18.7725 19.7684 19.1169 19.9992 19.4064 20.2903L22.5536 23.4375L19.6875 26.3036L17.317 23.9331C17.2296 23.8457 17.1182 23.7861 16.997 23.762C16.8757 23.7379 16.75 23.7503 16.6358 23.7976C16.5216 23.8449 16.424 23.925 16.3553 24.0278C16.2867 24.1306 16.25 24.2514 16.25 24.375V30.625H14.0089L7.31697 23.9331L6.43303 24.8169L8.80359 27.1875L6.24998 29.7411L3.87024 27.3614C3.43445 26.928 3.08895 26.4124 2.85375 25.8446C2.61855 25.2768 2.49831 24.6679 2.5 24.0533ZM10.4105 33.9017L7.13388 30.625L9.6875 28.0714L13.308 31.692C13.4252 31.8092 13.5842 31.875 13.75 31.875H18.75C18.847 31.875 18.9427 31.8524 19.0295 31.809L20.9204 30.8636C21.2367 30.7054 21.5857 30.6237 21.9394 30.625C22.293 30.6263 22.6415 30.7106 22.9566 30.8711C23.2717 31.0316 23.5448 31.2638 23.7539 31.5491C23.9629 31.8343 24.1021 32.1646 24.1602 32.5135L24.3306 33.5355L23.125 34.7412L21.692 33.3081C21.5992 33.2153 21.4796 33.1541 21.3501 33.1331C21.2206 33.1121 21.0878 33.1323 20.9705 33.191L17.3524 35H13.0622C12.5696 35.0014 12.0815 34.905 11.6264 34.7165C11.1712 34.5279 10.7579 34.251 10.4105 33.9017ZM21.6161 35H20.1475L21.1266 34.5105L21.6161 35ZM14.4821 36.25H23.8269L23.3269 37.5H16.25C15.8624 37.4996 15.4843 37.3792 15.1678 37.1554C14.8513 36.9316 14.6118 36.6153 14.4821 36.25ZM24.6732 37.5L29.1731 26.25H29.4037C29.5058 26.25 29.6064 26.2751 29.6966 26.3229C29.7868 26.3708 29.8639 26.4401 29.9212 26.5246C29.9785 26.6092 30.0141 26.7065 30.0251 26.8081C30.036 26.9096 30.0219 27.0123 29.984 27.1071L26.1411 36.7143C26.049 36.9467 25.889 37.146 25.682 37.2861C25.475 37.4263 25.2306 37.5008 24.9805 37.5H24.6732ZM36.859 27.1071L33.0161 36.7143C32.924 36.9467 32.764 37.146 32.557 37.2861C32.35 37.4263 32.1056 37.5008 31.8555 37.5H27.1453C27.2049 37.3967 27.2572 37.2892 27.3017 37.1785L31.1446 27.5714C31.3138 27.1488 31.3232 26.6791 31.1712 26.25H36.2787C36.3808 26.25 36.4814 26.2751 36.5716 26.3229C36.6618 26.3708 36.7389 26.4401 36.7962 26.5246C36.8535 26.6092 36.8891 26.7065 36.9001 26.8081C36.911 26.9096 36.8969 27.0123 36.859 27.1071Z" fill="#F8F8F8"/>
<path d="M36.875 1.25H21.875C21.3779 1.25056 20.9013 1.44829 20.5498 1.7998C20.1983 2.1513 20.0006 2.62789 20 3.125V17.5H21.25V6.25H37.5V19.375C37.4998 19.5407 37.4339 19.6996 37.3167 19.8167C37.1996 19.9339 37.0407 19.9998 36.875 20H35.625C35.4592 20 35.3003 20.0659 35.1831 20.1831C35.0659 20.3003 35 20.4592 35 20.625V22.5355L31.6132 20.1164C31.5073 20.0407 31.3803 20 31.25 20H23.125V21.25H31.0497L35.2618 24.2586C35.3552 24.3253 35.4652 24.365 35.5798 24.3734C35.6943 24.3817 35.8089 24.3583 35.911 24.3057C36.0131 24.2532 36.0988 24.1735 36.1586 24.0755C36.2184 23.9774 36.25 23.8648 36.25 23.75V21.25H36.875C37.3721 21.2494 37.8487 21.0517 38.2002 20.7002C38.5517 20.3487 38.7494 19.8721 38.75 19.375V3.125C38.7494 2.62789 38.5517 2.1513 38.2002 1.7998C37.8487 1.44829 37.3721 1.25056 36.875 1.25ZM21.25 5V3.125C21.2502 2.9593 21.3161 2.80044 21.4333 2.68327C21.5504 2.5661 21.7093 2.50019 21.875 2.5H36.875C37.0407 2.50019 37.1996 2.5661 37.3167 2.68327C37.4339 2.80044 37.4998 2.9593 37.5 3.125V5H21.25Z" fill="#F8F8F8"/>
<path d="M23.125 4.375C23.4702 4.375 23.75 4.09518 23.75 3.75C23.75 3.40482 23.4702 3.125 23.125 3.125C22.7798 3.125 22.5 3.40482 22.5 3.75C22.5 4.09518 22.7798 4.375 23.125 4.375Z" fill="#F8F8F8"/>
<path d="M25 4.375C25.3452 4.375 25.625 4.09518 25.625 3.75C25.625 3.40482 25.3452 3.125 25 3.125C24.6548 3.125 24.375 3.40482 24.375 3.75C24.375 4.09518 24.6548 4.375 25 4.375Z" fill="#F8F8F8"/>
<path d="M26.875 4.375C27.2202 4.375 27.5 4.09518 27.5 3.75C27.5 3.40482 27.2202 3.125 26.875 3.125C26.5298 3.125 26.25 3.40482 26.25 3.75C26.25 4.09518 26.5298 4.375 26.875 4.375Z" fill="#F8F8F8"/>
<path d="M23.125 12.5H26.875C27.0408 12.5 27.1997 12.4342 27.3169 12.317C27.4341 12.1998 27.5 12.0408 27.5 11.875V8.38394L28.567 7.31697L27.683 6.43311L26.6161 7.50004H23.125C22.9592 7.50004 22.8003 7.56589 22.6831 7.6831C22.5659 7.80031 22.5 7.95928 22.5 8.12504V11.875C22.5 12.0408 22.5659 12.1998 22.6831 12.317C22.8003 12.4342 22.9592 12.5 23.125 12.5ZM23.75 8.75004H25.3661L24.558 9.55811L25.442 10.442L26.25 9.63394V11.25H23.75V8.75004Z" fill="#F8F8F8"/>
<path d="M30.625 8.125H29.375V9.375H30.625V8.125Z" fill="#F8F8F8"/>
<path d="M36.25 8.125H31.875V9.375H36.25V8.125Z" fill="#F8F8F8"/>
<path d="M33.125 10.625H29.375V11.875H33.125V10.625Z" fill="#F8F8F8"/>
<path d="M22.5 18.125C22.5 18.2908 22.5659 18.4498 22.6831 18.567C22.8003 18.6842 22.9592 18.75 23.125 18.75H26.875C27.0408 18.75 27.1997 18.6842 27.3169 18.567C27.4341 18.4498 27.5 18.2908 27.5 18.125V14.6339L28.567 13.567L27.683 12.6831L26.6161 13.75H23.125C22.9592 13.75 22.8003 13.8159 22.6831 13.9331C22.5659 14.0503 22.5 14.2093 22.5 14.375V18.125ZM23.75 15H25.3661L24.558 15.8081L25.442 16.692L26.25 15.8839V17.5H23.75V15Z" fill="#F8F8F8"/>
<path d="M31.875 14.375H29.375V15.625H31.875V14.375Z" fill="#F8F8F8"/>
<path d="M36.25 14.375H33.125V15.625H36.25V14.375Z" fill="#F8F8F8"/>
<path d="M34.375 16.875H29.375V18.125H34.375V16.875Z" fill="#F8F8F8"/>
</svg>
