<svg width="24" height="24" viewBox="0 0 24 24" fill="none" xmlns="http://www.w3.org/2000/svg">
<path d="M0 12.0671C0 18.0331 4.33309 22.9966 9.99821 24L10.0631 23.9482C10.0414 23.9439 10.0198 23.9396 9.99823 23.9352V15.4199H6.99998V12.0681H9.99823V9.38637C9.99823 6.36959 11.9323 4.69318 14.6655 4.69318C15.5336 4.69318 16.4661 4.82647 17.3333 4.96069V8.04412H15.7996C14.3332 8.04412 13.9999 8.78188 13.9999 9.72052V12.0671H17.1998L16.6668 15.419L13.9981 15.4218V23.9352C13.977 23.9395 13.9559 23.9437 13.9349 23.9479L13.9999 24C19.6669 22.9947 24 18.0331 24 12.0671C24 5.43001 18.6009 0 12.0005 0C5.40002 0 0 5.43001 0 12.0671Z" fill="#E800A1"/>
</svg>
