<svg width="96" height="72" viewBox="0 0 96 72" fill="none" xmlns="http://www.w3.org/2000/svg">
<rect width="96" height="72" rx="10" fill="#F8F8F8"/>
<path fill-rule="evenodd" clip-rule="evenodd" d="M68 36C68 47.0549 59.0549 56 48 56C36.9451 56 28 47.0549 28 36C28 24.9451 36.9451 16 48 16C59.0549 16 68 24.9451 68 36Z" fill="#DA2229"/>
<path fill-rule="evenodd" clip-rule="evenodd" d="M51.4064 41.5824C51.4064 42.0439 51.0328 42.4176 50.5712 42.4176C50.1097 42.4176 49.7361 42.0439 49.7361 41.5824V36.9011C49.7361 36.4395 50.1097 36.0659 50.5712 36.0659C51.0328 36.0659 51.4064 36.4395 51.4064 36.9011V41.5824Z" fill="white"/>
<path fill-rule="evenodd" clip-rule="evenodd" d="M54.0879 38.813L55.978 36.5493C56.2857 36.1976 56.2197 35.6701 55.8681 35.3624C55.5164 35.0548 54.989 35.1207 54.6813 35.4723L52.3516 38.2855C52.0879 38.5932 52.0879 39.0548 52.3516 39.3624L54.6373 42.1317C54.945 42.4833 55.4725 42.5273 55.8241 42.2416C56.1758 41.9339 56.2198 41.4064 55.934 41.0548L54.0659 38.835L54.0879 38.813Z" fill="white"/>
<path fill-rule="evenodd" clip-rule="evenodd" d="M39.6925 41.5824C39.6925 42.0439 39.3189 42.4176 38.8574 42.4176C38.3958 42.4176 38.0222 42.0439 38.0222 41.5824V36.9011C38.0222 36.4395 38.3958 36.0659 38.8574 36.0659C39.3189 36.0659 39.6925 36.4395 39.6925 36.9011V41.5824Z" fill="white"/>
<path fill-rule="evenodd" clip-rule="evenodd" d="M44.7912 40.7912C43.6923 40.7912 42.7912 39.8901 42.7912 38.7912C42.7912 37.6923 43.6923 36.7912 44.7912 36.7912C45.8901 36.7912 46.7912 37.6923 46.7912 38.7912C46.7912 39.8901 45.8901 40.7912 44.7912 40.7912ZM44.7912 35.1648C42.7912 35.1648 41.1648 36.7912 41.1648 38.7912V43.934C41.1648 44.3956 41.5384 44.7692 42 44.7692C42.4615 44.7692 42.8351 44.3956 42.8351 43.934V41.8681C43.4065 42.2197 44.0659 42.4395 44.7912 42.4395C46.7912 42.4395 48.4175 40.8131 48.4175 38.8131C48.4175 36.8131 46.7912 35.1868 44.7912 35.1868V35.1648Z" fill="white"/>
<path fill-rule="evenodd" clip-rule="evenodd" d="M60.5492 40.7912C59.4503 40.7912 58.5492 39.8901 58.5492 38.7912C58.5492 37.6923 59.4503 36.7912 60.5492 36.7912C61.6481 36.7912 62.5492 37.6923 62.5492 38.7912C62.5492 39.8901 61.6481 40.7912 60.5492 40.7912ZM60.5492 35.1648C58.5492 35.1648 56.9229 36.7912 56.9229 38.7912C56.9229 40.7912 58.5492 42.4175 60.5492 42.4175C62.5492 42.4175 64.1756 40.7912 64.1756 38.7912C64.1756 36.7912 62.5492 35.1648 60.5492 35.1648Z" fill="white"/>
<path fill-rule="evenodd" clip-rule="evenodd" d="M37.6263 43.6922C37.6263 44.2856 37.1427 44.7691 36.5493 44.7691C35.9559 44.7691 35.4724 44.2856 35.4724 43.6922C35.4724 43.0988 35.9559 42.6152 36.5493 42.6152C37.1427 42.6152 37.6263 43.0988 37.6263 43.6922Z" fill="#0E0E1A"/>
</svg>
