<svg width="95" height="72" viewBox="0 0 95 72" fill="none" xmlns="http://www.w3.org/2000/svg">
<rect width="95" height="72" rx="10" fill="#F8F8F8"/>
<path d="M43.1459 37.3617C43.1459 36.1051 42.3808 35.2848 41.3607 34.866C42.1938 34.4122 42.7039 33.6268 42.7039 32.6495C42.7039 30.6948 41.1397 29.6476 38.6574 29.6476H32.8087V41.0442H38.6064C41.3437 41.0442 43.1459 39.7527 43.1459 37.3617ZM40.1366 32.8415C40.1366 33.4698 39.7625 33.9235 38.6914 33.9235H35.325V31.7594H38.5724C39.6775 31.7594 40.1366 32.1259 40.1366 32.8415ZM40.5276 37.3966C40.5276 38.2867 39.9495 38.8801 38.7084 38.8801H35.325V35.9306H38.7084C39.9495 35.9306 40.5276 36.4193 40.5276 37.3966ZM54.7243 41.0442L49.8787 29.6476H47.3964L42.5168 41.0442H45.2542L46.2573 38.5136H50.9158L51.9189 41.0442H54.7243ZM50.0487 36.3495H47.1244L47.9405 34.29C48.1955 33.6268 48.4506 32.9462 48.5696 32.5099C48.6886 32.9287 48.9606 33.6094 49.1986 34.29L50.0147 36.3495H50.0487ZM65.3845 41.0442V29.6476H62.8682V34.4646C62.8682 35.0929 62.9022 36.524 62.9022 36.9603C62.7322 36.6636 62.3242 36.1051 62.0011 35.6688L57.4786 29.6476H55.0303V41.0442H57.5466V36.0353C57.5466 35.407 57.5126 33.9759 57.5126 33.5396C57.6826 33.8363 58.0906 34.3947 58.4137 34.8311L63.1063 41.0442H65.3845ZM78 41.0442L73.3074 33.5919L77.0479 29.6476H73.9705L70.4001 33.5396C70.0601 33.9061 69.584 34.4297 69.397 34.6914C69.414 34.3249 69.431 33.3127 69.431 32.8938V29.6476H66.8807V41.0442H69.431V37.6933L71.4712 35.5466L74.9396 41.0442H78ZM18 27.466C18 26.6632 18.6461 26 19.4282 26C20.2103 26 20.8563 26.6632 20.8563 27.466C20.8563 28.2689 20.2103 28.9321 19.4282 28.9321C18.6461 28.9321 18 28.2689 18 27.466ZM20.7033 29.6476H18.153V41.0442H20.7033V29.6476ZM31.6866 37.4141C31.6866 39.4037 30.3945 40.7999 27.4701 41.0093C27.9972 41.306 28.3202 41.9169 28.2862 42.5277C28.2352 43.3829 27.6401 44.3428 27.011 44.9013C26.943 44.9711 26.569 45.0409 26.484 44.9711C26.416 44.9187 26.637 44.7442 26.8921 44.3428C27.1641 43.9414 27.198 43.6796 27.215 43.5574C27.215 43.4352 27.2321 43.3305 27.1471 43.3305C27.0621 43.3305 26.892 43.4003 26.722 43.4352C26.552 43.4702 26.3139 43.4702 26.3139 43.4702C25.6679 43.4178 25.2768 42.772 25.2768 42.1787C25.2768 41.6725 25.5658 41.2362 25.9909 40.9919C24.1547 40.8348 22.5905 40.0843 21.7234 38.9499L23.5596 37.4839C24.4607 38.4089 25.5999 38.7928 26.824 38.7928C28.3372 38.7928 29.0513 38.4263 29.0513 37.5537C29.0513 36.8207 28.6092 36.4891 26.2119 36.0004C23.8657 35.5117 22.2165 34.8485 22.2165 32.5971C22.2165 30.5377 24.2567 29.2637 26.773 29.2637C28.7623 29.2637 30.2244 29.9269 31.4145 31.0613L29.5783 32.6495C28.7622 31.899 27.8441 31.4801 26.688 31.4801C25.3278 31.4801 24.8688 32.0037 24.8688 32.5099C24.8688 33.2254 25.4128 33.4523 27.4361 33.8712C29.4593 34.29 31.7036 34.9183 31.7036 37.3792" fill="#194174"/>
</svg>
