<svg width="493" height="204" viewBox="0 0 493 204" fill="none" xmlns="http://www.w3.org/2000/svg">
<g clip-path="url(#clip0_455_248)">
<rect width="493" height="204" rx="20" fill="#1D1D1F" fill-opacity="0.5"/>
<g filter="url(#filter1_f_455_248)">
<ellipse cx="102.825" cy="88.2838" rx="102.825" ry="88.2838" transform="matrix(-0.816113 -0.577892 -0.577892 0.816113 426.871 240.844)" fill="#E800A1" fill-opacity="0.5"/>
</g>
<path d="M106.38 51.24C102.34 51.24 99.36 48.06 99.36 44.04V44C99.36 40.04 102.34 36.76 106.44 36.76C108.98 36.76 110.52 37.64 111.9 38.98L110.82 40.14C109.62 39.02 108.34 38.22 106.42 38.22C103.32 38.22 101 40.74 101 43.96V44C101 47.24 103.32 49.78 106.42 49.78C108.34 49.78 109.6 49.04 110.94 47.76L111.98 48.78C110.54 50.26 108.9 51.24 106.38 51.24ZM114.564 51V40.66H116.104V43.36C116.864 41.64 118.364 40.42 120.324 40.48V42.14H120.204C117.944 42.14 116.104 43.76 116.104 46.88V51H114.564ZM126.74 51.24C123.92 51.24 121.58 49.06 121.58 45.86V45.82C121.58 42.84 123.66 40.44 126.54 40.44C129.6 40.44 131.36 42.88 131.36 45.9C131.36 46.12 131.36 46.22 131.34 46.4H123.14C123.36 48.64 124.94 49.9 126.78 49.9C128.22 49.9 129.18 49.32 130.04 48.44L131 49.3C129.96 50.48 128.72 51.24 126.74 51.24ZM123.14 45.26H129.8C129.64 43.4 128.58 41.74 126.5 41.74C124.68 41.74 123.36 43.26 123.14 45.26ZM137.136 51.22C135.216 51.22 133.276 50.14 133.276 48V47.96C133.276 45.8 135.076 44.62 137.696 44.62C139.036 44.62 139.936 44.8 140.876 45.06V44.7C140.876 42.84 139.736 41.88 137.796 41.88C136.576 41.88 135.616 42.18 134.656 42.64L134.196 41.38C135.336 40.84 136.436 40.52 137.956 40.52C139.416 40.52 140.536 40.9 141.296 41.66C141.996 42.36 142.356 43.38 142.356 44.68V51H140.876V49.44C140.156 50.38 138.976 51.22 137.136 51.22ZM137.436 50C139.356 50 140.896 48.84 140.896 47.2V46.2C140.116 45.98 139.136 45.76 137.856 45.76C135.916 45.76 134.836 46.6 134.836 47.9V47.94C134.836 49.24 136.056 50 137.436 50ZM149 51.18C147.32 51.18 146.08 50.36 146.08 48.26V42.02H144.64V40.66H146.08V37.54H147.62V40.66H150.9V42.02H147.62V48.06C147.62 49.34 148.32 49.78 149.36 49.78C149.9 49.78 150.32 49.68 150.86 49.42V50.74C150.32 51.04 149.74 51.18 149 51.18ZM153.666 38.4V36.7H155.426V38.4H153.666ZM153.766 51V40.66H155.306V51H153.766ZM162.34 51.08L157.86 40.66H159.56L163.04 49.24L166.54 40.66H168.2L163.7 51.08H162.34ZM174.533 51.24C171.713 51.24 169.373 49.06 169.373 45.86V45.82C169.373 42.84 171.453 40.44 174.333 40.44C177.393 40.44 179.153 42.88 179.153 45.9C179.153 46.12 179.153 46.22 179.133 46.4H170.933C171.153 48.64 172.733 49.9 174.573 49.9C176.013 49.9 176.973 49.32 177.833 48.44L178.793 49.3C177.753 50.48 176.513 51.24 174.533 51.24ZM170.933 45.26H177.593C177.433 43.4 176.373 41.74 174.293 41.74C172.473 41.74 171.153 43.26 170.933 45.26ZM188.105 51V37H192.965C197.365 37 200.405 40.02 200.405 43.96V44C200.405 47.94 197.365 51 192.965 51H188.105ZM192.965 38.46H189.685V49.54H192.965C196.505 49.54 198.765 47.16 198.765 44.04V44C198.765 40.9 196.505 38.46 192.965 38.46ZM208.01 51.24C205.19 51.24 202.85 49.06 202.85 45.86V45.82C202.85 42.84 204.93 40.44 207.81 40.44C210.87 40.44 212.63 42.88 212.63 45.9C212.63 46.12 212.63 46.22 212.61 46.4H204.41C204.63 48.64 206.21 49.9 208.05 49.9C209.49 49.9 210.45 49.32 211.31 48.44L212.27 49.3C211.23 50.48 209.99 51.24 208.01 51.24ZM204.41 45.26H211.07C210.91 43.4 209.85 41.74 207.77 41.74C205.95 41.74 204.63 43.26 204.41 45.26ZM218.745 51.2C217.245 51.2 215.645 50.62 214.465 49.68L215.245 48.58C216.365 49.44 217.605 49.9 218.825 49.9C220.085 49.9 220.965 49.28 220.965 48.26V48.22C220.965 47.2 219.745 46.78 218.385 46.4C216.785 45.92 214.965 45.4 214.965 43.48V43.44C214.965 41.66 216.445 40.48 218.485 40.48C219.765 40.48 221.145 40.92 222.205 41.62L221.505 42.78C220.545 42.16 219.465 41.78 218.445 41.78C217.225 41.78 216.445 42.42 216.445 43.28V43.32C216.445 44.3 217.725 44.68 219.105 45.1C220.705 45.58 222.425 46.2 222.425 48.06V48.1C222.425 50.06 220.805 51.2 218.745 51.2ZM225.326 38.4V36.7H227.086V38.4H225.326ZM225.426 51V40.66H226.966V51H225.426ZM235.12 54.24C233.38 54.24 231.8 53.76 230.42 52.8L231.12 51.6C232.32 52.46 233.6 52.92 235.1 52.92C237.4 52.92 238.86 51.66 238.86 49.24V48.02C237.96 49.22 236.7 50.2 234.8 50.2C232.32 50.2 229.94 48.32 229.94 45.36V45.32C229.94 42.3 232.32 40.44 234.8 40.44C236.74 40.44 237.98 41.4 238.84 42.52V40.66H240.38V49.2C240.38 50.8 239.92 52 239.06 52.86C238.12 53.8 236.78 54.24 235.12 54.24ZM235.1 48.84C237.06 48.84 238.9 47.42 238.9 45.34V45.3C238.9 43.18 237.06 41.8 235.1 41.8C233.12 41.8 231.52 43.16 231.52 45.28V45.32C231.52 47.4 233.18 48.84 235.1 48.84ZM243.822 51V40.66H245.362V42.46C246.062 41.34 247.122 40.44 248.902 40.44C251.382 40.44 252.862 42.12 252.862 44.58V51H251.322V44.96C251.322 43.04 250.302 41.84 248.462 41.84C246.682 41.84 245.362 43.14 245.362 45.08V51H243.822Z" fill="#E800A1"/>
<path d="M34.256 103.07L30.7 93.2H31.512L34.592 101.922L37.462 93.172H38.022L40.892 101.922L43.972 93.2H44.728L41.172 103.07H40.584L37.714 94.558L34.844 103.07H34.256ZM48.8179 103.168C46.9419 103.168 45.3179 101.684 45.3179 99.444V99.416C45.3179 97.358 46.7739 95.692 48.7059 95.692C50.7079 95.692 51.9819 97.316 51.9819 99.43C51.9819 99.556 51.9819 99.598 51.9679 99.71H46.0459C46.1579 101.488 47.4599 102.524 48.8459 102.524C49.9659 102.524 50.6939 102.034 51.2959 101.404L51.7719 101.824C51.0439 102.608 50.1759 103.168 48.8179 103.168ZM46.0459 99.094H51.2399C51.1279 97.652 50.3159 96.322 48.6779 96.322C47.2639 96.322 46.1579 97.512 46.0459 99.094ZM63.7246 103.168C62.0026 103.168 60.2526 101.782 60.2526 99.458V99.43C60.2526 97.12 62.0026 95.692 63.7246 95.692C65.1526 95.692 66.0626 96.504 66.6646 97.4V92.78H67.3506V103H66.6646V101.404C66.0346 102.342 65.1526 103.168 63.7246 103.168ZM63.7946 102.51C65.2926 102.51 66.7066 101.264 66.7066 99.444V99.416C66.7066 97.582 65.2926 96.35 63.7946 96.35C62.2266 96.35 60.9946 97.498 60.9946 99.402V99.43C60.9946 101.306 62.2826 102.51 63.7946 102.51ZM72.9668 103.168C71.0908 103.168 69.4668 101.684 69.4668 99.444V99.416C69.4668 97.358 70.9228 95.692 72.8548 95.692C74.8568 95.692 76.1308 97.316 76.1308 99.43C76.1308 99.556 76.1308 99.598 76.1168 99.71H70.1948C70.3068 101.488 71.6088 102.524 72.9948 102.524C74.1148 102.524 74.8428 102.034 75.4448 101.404L75.9208 101.824C75.1928 102.608 74.3248 103.168 72.9668 103.168ZM70.1948 99.094H75.3888C75.2768 97.652 74.4648 96.322 72.8268 96.322C71.4128 96.322 70.3068 97.512 70.1948 99.094ZM80.4426 103.14C79.3926 103.14 78.2866 102.72 77.5166 102.104L77.9226 101.558C78.7066 102.16 79.5746 102.496 80.4846 102.496C81.4506 102.496 82.2066 101.978 82.2066 101.138V101.11C82.2066 100.27 81.3106 99.976 80.3166 99.682C79.1406 99.346 77.8666 99.01 77.8666 97.722V97.694C77.8666 96.546 78.8326 95.72 80.2186 95.72C81.0726 95.72 82.0386 96.014 82.7526 96.504L82.3886 97.078C81.7306 96.644 80.9606 96.364 80.1906 96.364C79.1966 96.364 78.5666 96.896 78.5666 97.61V97.638C78.5666 98.436 79.5326 98.716 80.5546 99.024C81.7026 99.36 82.9066 99.766 82.9066 101.026V101.054C82.9066 102.328 81.8286 103.14 80.4426 103.14ZM85.1056 93.998V93.06H85.9596V93.998H85.1056ZM85.1896 103V95.86H85.8756V103H85.1896ZM91.7139 105.268C90.5099 105.268 89.4179 104.904 88.4379 104.176L88.8439 103.616C89.7119 104.288 90.6779 104.624 91.7279 104.624C93.3519 104.624 94.5279 103.686 94.5279 101.852V100.816C93.8979 101.698 92.9739 102.468 91.5459 102.468C89.8239 102.468 88.1159 101.152 88.1159 99.108V99.08C88.1159 97.008 89.8239 95.692 91.5459 95.692C92.9879 95.692 93.9259 96.448 94.5279 97.288V95.86H95.2139V101.894C95.2139 102.944 94.8779 103.742 94.3039 104.316C93.6879 104.932 92.7779 105.268 91.7139 105.268ZM91.6159 101.81C93.1139 101.81 94.5699 100.718 94.5699 99.094V99.066C94.5699 97.414 93.1139 96.35 91.6159 96.35C90.1039 96.35 88.8579 97.386 88.8579 99.052V99.08C88.8579 100.69 90.1459 101.81 91.6159 101.81ZM97.8201 103V95.86H98.5061V97.19C98.9961 96.35 99.7801 95.692 101.082 95.692C102.888 95.692 103.938 96.91 103.938 98.632V103H103.252V98.758C103.252 97.288 102.44 96.322 100.984 96.322C99.5841 96.322 98.5061 97.372 98.5061 98.87V103H97.8201ZM116.147 103.168C114.271 103.168 112.647 101.684 112.647 99.444V99.416C112.647 97.358 114.103 95.692 116.035 95.692C118.037 95.692 119.311 97.316 119.311 99.43C119.311 99.556 119.311 99.598 119.297 99.71H113.375C113.487 101.488 114.789 102.524 116.175 102.524C117.295 102.524 118.023 102.034 118.625 101.404L119.101 101.824C118.373 102.608 117.505 103.168 116.147 103.168ZM113.375 99.094H118.569C118.457 97.652 117.645 96.322 116.007 96.322C114.593 96.322 113.487 97.512 113.375 99.094ZM123.967 102.244L126.543 95.86H127.299L124.205 103.252C123.575 104.75 122.847 105.282 121.825 105.282C121.279 105.282 120.901 105.184 120.411 104.974L120.649 104.372C121.027 104.554 121.321 104.638 121.867 104.638C122.623 104.638 123.099 104.204 123.631 102.958L120.201 95.86H120.999L123.967 102.244ZM131.774 103.168C129.898 103.168 128.274 101.684 128.274 99.444V99.416C128.274 97.358 129.73 95.692 131.662 95.692C133.664 95.692 134.938 97.316 134.938 99.43C134.938 99.556 134.938 99.598 134.924 99.71H129.002C129.114 101.488 130.416 102.524 131.802 102.524C132.922 102.524 133.65 102.034 134.252 101.404L134.728 101.824C134 102.608 133.132 103.168 131.774 103.168ZM129.002 99.094H134.196C134.084 97.652 133.272 96.322 131.634 96.322C130.22 96.322 129.114 97.512 129.002 99.094ZM136.618 99.234V98.45H140.37V99.234H136.618ZM145.805 103.168C143.747 103.168 142.165 101.46 142.165 99.458V99.43C142.165 97.428 143.747 95.692 145.805 95.692C147.149 95.692 147.989 96.294 148.661 97.008L148.171 97.512C147.555 96.882 146.855 96.336 145.791 96.336C144.167 96.336 142.907 97.68 142.907 99.402V99.43C142.907 101.166 144.223 102.524 145.847 102.524C146.855 102.524 147.639 102.006 148.241 101.334L148.717 101.754C147.989 102.58 147.107 103.168 145.805 103.168ZM152.823 103.168C151.493 103.168 150.065 102.426 150.065 100.928V100.9C150.065 99.402 151.339 98.576 153.187 98.576C154.195 98.576 154.867 98.702 155.553 98.884V98.576C155.553 97.12 154.671 96.392 153.201 96.392C152.319 96.392 151.619 96.63 150.961 96.966L150.709 96.364C151.493 95.986 152.249 95.748 153.243 95.748C154.223 95.748 154.979 96.014 155.497 96.532C155.987 97.022 156.225 97.694 156.225 98.548V103H155.553V101.81C155.063 102.482 154.181 103.168 152.823 103.168ZM152.865 102.524C154.321 102.524 155.567 101.628 155.567 100.326V99.514C154.965 99.36 154.167 99.192 153.145 99.192C151.633 99.192 150.793 99.85 150.793 100.858V100.886C150.793 101.922 151.773 102.524 152.865 102.524ZM161.003 103.126C159.883 103.126 159.001 102.524 159.001 101.166V96.49H157.965V95.86H159.001V93.578H159.687V95.86H162.193V96.49H159.687V101.096C159.687 102.118 160.275 102.482 161.115 102.482C161.465 102.482 161.759 102.412 162.165 102.23V102.874C161.787 103.042 161.451 103.126 161.003 103.126ZM167.174 103.168C165.116 103.168 163.534 101.46 163.534 99.458V99.43C163.534 97.428 165.116 95.692 167.174 95.692C168.518 95.692 169.358 96.294 170.03 97.008L169.54 97.512C168.924 96.882 168.224 96.336 167.16 96.336C165.536 96.336 164.276 97.68 164.276 99.402V99.43C164.276 101.166 165.592 102.524 167.216 102.524C168.224 102.524 169.008 102.006 169.61 101.334L170.086 101.754C169.358 102.58 168.476 103.168 167.174 103.168ZM172.022 103V92.78H172.708V97.19C173.198 96.35 173.982 95.692 175.284 95.692C177.09 95.692 178.14 96.91 178.14 98.632V103H177.454V98.758C177.454 97.288 176.642 96.322 175.186 96.322C173.786 96.322 172.708 97.372 172.708 98.87V103H172.022ZM180.622 93.998V93.06H181.476V93.998H180.622ZM180.706 103V95.86H181.392V103H180.706ZM184.094 103V95.86H184.78V97.19C185.27 96.35 186.054 95.692 187.356 95.692C189.162 95.692 190.212 96.91 190.212 98.632V103H189.526V98.758C189.526 97.288 188.714 96.322 187.258 96.322C185.858 96.322 184.78 97.372 184.78 98.87V103H184.094ZM195.816 105.268C194.612 105.268 193.52 104.904 192.54 104.176L192.946 103.616C193.814 104.288 194.78 104.624 195.83 104.624C197.454 104.624 198.63 103.686 198.63 101.852V100.816C198 101.698 197.076 102.468 195.648 102.468C193.926 102.468 192.218 101.152 192.218 99.108V99.08C192.218 97.008 193.926 95.692 195.648 95.692C197.09 95.692 198.028 96.448 198.63 97.288V95.86H199.316V101.894C199.316 102.944 198.98 103.742 198.406 104.316C197.79 104.932 196.88 105.268 195.816 105.268ZM195.718 101.81C197.216 101.81 198.672 100.718 198.672 99.094V99.066C198.672 97.414 197.216 96.35 195.718 96.35C194.206 96.35 192.96 97.386 192.96 99.052V99.08C192.96 100.69 194.248 101.81 195.718 101.81ZM211.131 103.056L207.925 95.86H208.723L211.425 102.23L214.155 95.86H214.925L211.719 103.056H211.131ZM216.816 93.998V93.06H217.67V93.998H216.816ZM216.9 103V95.86H217.586V103H216.9ZM222.598 103.14C221.548 103.14 220.442 102.72 219.672 102.104L220.078 101.558C220.862 102.16 221.73 102.496 222.64 102.496C223.606 102.496 224.362 101.978 224.362 101.138V101.11C224.362 100.27 223.466 99.976 222.472 99.682C221.296 99.346 220.022 99.01 220.022 97.722V97.694C220.022 96.546 220.988 95.72 222.374 95.72C223.228 95.72 224.194 96.014 224.908 96.504L224.544 97.078C223.886 96.644 223.116 96.364 222.346 96.364C221.352 96.364 220.722 96.896 220.722 97.61V97.638C220.722 98.436 221.688 98.716 222.71 99.024C223.858 99.36 225.062 99.766 225.062 101.026V101.054C225.062 102.328 223.984 103.14 222.598 103.14ZM229.963 103.168C228.157 103.168 227.107 101.95 227.107 100.228V95.86H227.793V100.102C227.793 101.572 228.605 102.538 230.061 102.538C231.461 102.538 232.539 101.488 232.539 99.99V95.86H233.225V103H232.539V101.67C232.049 102.51 231.265 103.168 229.963 103.168ZM238.003 103.168C236.673 103.168 235.245 102.426 235.245 100.928V100.9C235.245 99.402 236.519 98.576 238.367 98.576C239.375 98.576 240.047 98.702 240.733 98.884V98.576C240.733 97.12 239.851 96.392 238.381 96.392C237.499 96.392 236.799 96.63 236.141 96.966L235.889 96.364C236.673 95.986 237.429 95.748 238.423 95.748C239.403 95.748 240.159 96.014 240.677 96.532C241.167 97.022 241.405 97.694 241.405 98.548V103H240.733V101.81C240.243 102.482 239.361 103.168 238.003 103.168ZM238.045 102.524C239.501 102.524 240.747 101.628 240.747 100.326V99.514C240.145 99.36 239.347 99.192 238.325 99.192C236.813 99.192 235.973 99.85 235.973 100.858V100.886C235.973 101.922 236.953 102.524 238.045 102.524ZM243.97 103V92.78H244.656V103H243.97ZM249.668 103.14C248.618 103.14 247.512 102.72 246.742 102.104L247.148 101.558C247.932 102.16 248.8 102.496 249.71 102.496C250.676 102.496 251.432 101.978 251.432 101.138V101.11C251.432 100.27 250.536 99.976 249.542 99.682C248.366 99.346 247.092 99.01 247.092 97.722V97.694C247.092 96.546 248.058 95.72 249.444 95.72C250.298 95.72 251.264 96.014 251.978 96.504L251.614 97.078C250.956 96.644 250.186 96.364 249.416 96.364C248.422 96.364 247.792 96.896 247.792 97.61V97.638C247.792 98.436 248.758 98.716 249.78 99.024C250.928 99.36 252.132 99.766 252.132 101.026V101.054C252.132 102.328 251.054 103.14 249.668 103.14ZM263.428 103.126C262.308 103.126 261.426 102.524 261.426 101.166V96.49H260.39V95.86H261.426V93.578H262.112V95.86H264.618V96.49H262.112V101.096C262.112 102.118 262.7 102.482 263.54 102.482C263.89 102.482 264.184 102.412 264.59 102.23V102.874C264.212 103.042 263.876 103.126 263.428 103.126ZM266.654 103V92.78H267.34V97.19C267.83 96.35 268.614 95.692 269.916 95.692C271.722 95.692 272.772 96.91 272.772 98.632V103H272.086V98.758C272.086 97.288 271.274 96.322 269.818 96.322C268.418 96.322 267.34 97.372 267.34 98.87V103H266.654ZM277.41 103.168C276.08 103.168 274.652 102.426 274.652 100.928V100.9C274.652 99.402 275.926 98.576 277.774 98.576C278.782 98.576 279.454 98.702 280.14 98.884V98.576C280.14 97.12 279.258 96.392 277.788 96.392C276.906 96.392 276.206 96.63 275.548 96.966L275.296 96.364C276.08 95.986 276.836 95.748 277.83 95.748C278.81 95.748 279.566 96.014 280.084 96.532C280.574 97.022 280.812 97.694 280.812 98.548V103H280.14V101.81C279.65 102.482 278.768 103.168 277.41 103.168ZM277.452 102.524C278.908 102.524 280.154 101.628 280.154 100.326V99.514C279.552 99.36 278.754 99.192 277.732 99.192C276.22 99.192 275.38 99.85 275.38 100.858V100.886C275.38 101.922 276.36 102.524 277.452 102.524ZM285.59 103.126C284.47 103.126 283.588 102.524 283.588 101.166V96.49H282.552V95.86H283.588V93.578H284.274V95.86H286.78V96.49H284.274V101.096C284.274 102.118 284.862 102.482 285.702 102.482C286.052 102.482 286.346 102.412 286.752 102.23V102.874C286.374 103.042 286.038 103.126 285.59 103.126ZM295.547 103V95.86H296.233V97.134C296.681 96.392 297.339 95.692 298.613 95.692C299.873 95.692 300.615 96.406 301.021 97.232C301.483 96.434 302.267 95.692 303.597 95.692C305.291 95.692 306.341 96.882 306.341 98.674V103H305.655V98.758C305.655 97.204 304.871 96.322 303.541 96.322C302.337 96.322 301.287 97.232 301.287 98.842V103H300.601V98.716C300.601 97.218 299.803 96.322 298.515 96.322C297.227 96.322 296.233 97.442 296.233 98.884V103H295.547ZM310.978 103.168C309.648 103.168 308.22 102.426 308.22 100.928V100.9C308.22 99.402 309.494 98.576 311.342 98.576C312.35 98.576 313.022 98.702 313.708 98.884V98.576C313.708 97.12 312.826 96.392 311.356 96.392C310.474 96.392 309.774 96.63 309.116 96.966L308.864 96.364C309.648 95.986 310.404 95.748 311.398 95.748C312.378 95.748 313.134 96.014 313.652 96.532C314.142 97.022 314.38 97.694 314.38 98.548V103H313.708V101.81C313.218 102.482 312.336 103.168 310.978 103.168ZM311.02 102.524C312.476 102.524 313.722 101.628 313.722 100.326V99.514C313.12 99.36 312.322 99.192 311.3 99.192C309.788 99.192 308.948 99.85 308.948 100.858V100.886C308.948 101.922 309.928 102.524 311.02 102.524ZM316.847 103V92.78H317.533V100.438L321.957 95.86H322.867L319.745 99.024L322.965 103H322.097L319.269 99.514L317.533 101.264V103H316.847ZM327.336 103.168C325.46 103.168 323.836 101.684 323.836 99.444V99.416C323.836 97.358 325.292 95.692 327.224 95.692C329.226 95.692 330.5 97.316 330.5 99.43C330.5 99.556 330.5 99.598 330.486 99.71H324.564C324.676 101.488 325.978 102.524 327.364 102.524C328.484 102.524 329.212 102.034 329.814 101.404L330.29 101.824C329.562 102.608 328.694 103.168 327.336 103.168ZM324.564 99.094H329.758C329.646 97.652 328.834 96.322 327.196 96.322C325.782 96.322 324.676 97.512 324.564 99.094ZM342.243 102.244L344.819 95.86H345.575L342.481 103.252C341.851 104.75 341.123 105.282 340.101 105.282C339.555 105.282 339.177 105.184 338.687 104.974L338.925 104.372C339.303 104.554 339.597 104.638 340.143 104.638C340.899 104.638 341.375 104.204 341.907 102.958L338.477 95.86H339.275L342.243 102.244ZM350.203 103.168C348.089 103.168 346.549 101.46 346.549 99.458V99.43C346.549 97.428 348.103 95.692 350.231 95.692C352.345 95.692 353.885 97.4 353.885 99.402V99.43C353.885 101.432 352.331 103.168 350.203 103.168ZM350.231 102.524C351.925 102.524 353.143 101.138 353.143 99.458V99.43C353.143 97.694 351.855 96.336 350.203 96.336C348.509 96.336 347.291 97.722 347.291 99.402V99.43C347.291 101.166 348.579 102.524 350.231 102.524ZM358.71 103.168C356.904 103.168 355.854 101.95 355.854 100.228V95.86H356.54V100.102C356.54 101.572 357.352 102.538 358.808 102.538C360.208 102.538 361.286 101.488 361.286 99.99V95.86H361.972V103H361.286V101.67C360.796 102.51 360.012 103.168 358.71 103.168ZM364.58 103V95.86H365.266V97.89C365.84 96.602 367.002 95.706 368.43 95.748V96.504H368.36C366.722 96.504 365.266 97.764 365.266 100.074V103H364.58ZM380.543 103.168C379.115 103.168 378.205 102.356 377.603 101.46V103H376.917V92.78H377.603V97.456C378.205 96.518 379.129 95.692 380.543 95.692C382.265 95.692 384.015 97.078 384.015 99.402V99.43C384.015 101.74 382.265 103.168 380.543 103.168ZM380.473 102.51C382.041 102.51 383.273 101.362 383.273 99.458V99.43C383.273 97.554 381.985 96.35 380.473 96.35C378.975 96.35 377.561 97.596 377.561 99.416V99.444C377.561 101.278 378.975 102.51 380.473 102.51ZM386.159 103V95.86H386.845V97.89C387.419 96.602 388.581 95.706 390.009 95.748V96.504H389.939C388.301 96.504 386.845 97.764 386.845 100.074V103H386.159ZM393.579 103.168C392.249 103.168 390.821 102.426 390.821 100.928V100.9C390.821 99.402 392.095 98.576 393.943 98.576C394.951 98.576 395.623 98.702 396.309 98.884V98.576C396.309 97.12 395.427 96.392 393.957 96.392C393.075 96.392 392.375 96.63 391.717 96.966L391.465 96.364C392.249 95.986 393.005 95.748 393.999 95.748C394.979 95.748 395.735 96.014 396.253 96.532C396.743 97.022 396.981 97.694 396.981 98.548V103H396.309V101.81C395.819 102.482 394.937 103.168 393.579 103.168ZM393.621 102.524C395.077 102.524 396.323 101.628 396.323 100.326V99.514C395.721 99.36 394.923 99.192 393.901 99.192C392.389 99.192 391.549 99.85 391.549 100.858V100.886C391.549 101.922 392.529 102.524 393.621 102.524ZM399.448 103V95.86H400.134V97.19C400.624 96.35 401.408 95.692 402.71 95.692C404.516 95.692 405.566 96.91 405.566 98.632V103H404.88V98.758C404.88 97.288 404.068 96.322 402.612 96.322C401.212 96.322 400.134 97.372 400.134 98.87V103H399.448ZM411.044 103.168C409.322 103.168 407.572 101.782 407.572 99.458V99.43C407.572 97.12 409.322 95.692 411.044 95.692C412.472 95.692 413.382 96.504 413.984 97.4V92.78H414.67V103H413.984V101.404C413.354 102.342 412.472 103.168 411.044 103.168ZM411.114 102.51C412.612 102.51 414.026 101.264 414.026 99.444V99.416C414.026 97.582 412.612 96.35 411.114 96.35C409.546 96.35 408.314 97.498 408.314 99.402V99.43C408.314 101.306 409.602 102.51 411.114 102.51ZM426.317 103.14C425.267 103.14 424.161 102.72 423.391 102.104L423.797 101.558C424.581 102.16 425.449 102.496 426.359 102.496C427.325 102.496 428.081 101.978 428.081 101.138V101.11C428.081 100.27 427.185 99.976 426.191 99.682C425.015 99.346 423.741 99.01 423.741 97.722V97.694C423.741 96.546 424.707 95.72 426.093 95.72C426.947 95.72 427.913 96.014 428.627 96.504L428.263 97.078C427.605 96.644 426.835 96.364 426.065 96.364C425.071 96.364 424.441 96.896 424.441 97.61V97.638C424.441 98.436 425.407 98.716 426.429 99.024C427.577 99.36 428.781 99.766 428.781 101.026V101.054C428.781 102.328 427.703 103.14 426.317 103.14ZM433.209 103.126C432.089 103.126 431.207 102.524 431.207 101.166V96.49H430.171V95.86H431.207V93.578H431.893V95.86H434.399V96.49H431.893V101.096C431.893 102.118 432.481 102.482 433.321 102.482C433.671 102.482 433.965 102.412 434.371 102.23V102.874C433.993 103.042 433.657 103.126 433.209 103.126ZM438.605 103.168C437.275 103.168 435.847 102.426 435.847 100.928V100.9C435.847 99.402 437.121 98.576 438.969 98.576C439.977 98.576 440.649 98.702 441.335 98.884V98.576C441.335 97.12 440.453 96.392 438.983 96.392C438.101 96.392 437.401 96.63 436.743 96.966L436.491 96.364C437.275 95.986 438.031 95.748 439.025 95.748C440.005 95.748 440.761 96.014 441.279 96.532C441.769 97.022 442.007 97.694 442.007 98.548V103H441.335V101.81C440.845 102.482 439.963 103.168 438.605 103.168ZM438.647 102.524C440.103 102.524 441.349 101.628 441.349 100.326V99.514C440.747 99.36 439.949 99.192 438.927 99.192C437.415 99.192 436.575 99.85 436.575 100.858V100.886C436.575 101.922 437.555 102.524 438.647 102.524ZM444.474 103V95.86H445.16V97.19C445.65 96.35 446.434 95.692 447.736 95.692C449.542 95.692 450.592 96.91 450.592 98.632V103H449.906V98.758C449.906 97.288 449.094 96.322 447.638 96.322C446.238 96.322 445.16 97.372 445.16 98.87V103H444.474ZM456.07 103.168C454.348 103.168 452.598 101.782 452.598 99.458V99.43C452.598 97.12 454.348 95.692 456.07 95.692C457.498 95.692 458.408 96.504 459.01 97.4V92.78H459.696V103H459.01V101.404C458.38 102.342 457.498 103.168 456.07 103.168ZM456.14 102.51C457.638 102.51 459.052 101.264 459.052 99.444V99.416C459.052 97.582 457.638 96.35 456.14 96.35C454.572 96.35 453.34 97.498 453.34 99.402V99.43C453.34 101.306 454.628 102.51 456.14 102.51ZM34.466 123.168C32.352 123.168 30.812 121.46 30.812 119.458V119.43C30.812 117.428 32.366 115.692 34.494 115.692C36.608 115.692 38.148 117.4 38.148 119.402V119.43C38.148 121.432 36.594 123.168 34.466 123.168ZM34.494 122.524C36.188 122.524 37.406 121.138 37.406 119.458V119.43C37.406 117.694 36.118 116.336 34.466 116.336C32.772 116.336 31.554 117.722 31.554 119.402V119.43C31.554 121.166 32.842 122.524 34.494 122.524ZM42.9731 123.168C41.1671 123.168 40.1171 121.95 40.1171 120.228V115.86H40.8031V120.102C40.8031 121.572 41.6151 122.538 43.0711 122.538C44.4711 122.538 45.5491 121.488 45.5491 119.99V115.86H46.2351V123H45.5491V121.67C45.0591 122.51 44.2751 123.168 42.9731 123.168ZM51.223 123.126C50.103 123.126 49.221 122.524 49.221 121.166V116.49H48.185V115.86H49.221V113.578H49.907V115.86H52.413V116.49H49.907V121.096C49.907 122.118 50.495 122.482 51.335 122.482C51.685 122.482 51.979 122.412 52.385 122.23V122.874C52.007 123.042 51.671 123.126 51.223 123.126ZM54.2945 123V121.81H55.2185V123H54.2945ZM72.5399 123.07L68.9839 113.2H69.7959L72.8759 121.922L75.7459 113.172H76.3059L79.1759 121.922L82.2559 113.2H83.0119L79.4559 123.07H78.8679L75.9979 114.558L73.1279 123.07H72.5399ZM84.8711 123V112.78H85.5571V117.19C86.0471 116.35 86.8311 115.692 88.1331 115.692C89.9391 115.692 90.9891 116.91 90.9891 118.632V123H90.3031V118.758C90.3031 117.288 89.4911 116.322 88.0351 116.322C86.6351 116.322 85.5571 117.372 85.5571 118.87V123H84.8711ZM96.467 123.168C94.591 123.168 92.967 121.684 92.967 119.444V119.416C92.967 117.358 94.423 115.692 96.355 115.692C98.357 115.692 99.631 117.316 99.631 119.43C99.631 119.556 99.631 119.598 99.617 119.71H93.695C93.807 121.488 95.109 122.524 96.495 122.524C97.615 122.524 98.343 122.034 98.945 121.404L99.421 121.824C98.693 122.608 97.825 123.168 96.467 123.168ZM93.695 119.094H98.889C98.777 117.652 97.965 116.322 96.327 116.322C94.913 116.322 93.807 117.512 93.695 119.094ZM104.013 123.126C102.893 123.126 102.011 122.524 102.011 121.166V116.49H100.975V115.86H102.011V113.578H102.697V115.86H105.203V116.49H102.697V121.096C102.697 122.118 103.285 122.482 104.125 122.482C104.475 122.482 104.769 122.412 105.175 122.23V122.874C104.797 123.042 104.461 123.126 104.013 123.126ZM107.238 123V112.78H107.924V117.19C108.414 116.35 109.198 115.692 110.5 115.692C112.306 115.692 113.356 116.91 113.356 118.632V123H112.67V118.758C112.67 117.288 111.858 116.322 110.402 116.322C109.002 116.322 107.924 117.372 107.924 118.87V123H107.238ZM118.834 123.168C116.958 123.168 115.334 121.684 115.334 119.444V119.416C115.334 117.358 116.79 115.692 118.722 115.692C120.724 115.692 121.998 117.316 121.998 119.43C121.998 119.556 121.998 119.598 121.984 119.71H116.062C116.174 121.488 117.476 122.524 118.862 122.524C119.982 122.524 120.71 122.034 121.312 121.404L121.788 121.824C121.06 122.608 120.192 123.168 118.834 123.168ZM116.062 119.094H121.256C121.144 117.652 120.332 116.322 118.694 116.322C117.28 116.322 116.174 117.512 116.062 119.094ZM124 123V115.86H124.686V117.89C125.26 116.602 126.422 115.706 127.85 115.748V116.504H127.78C126.142 116.504 124.686 117.764 124.686 120.074V123H124ZM141.53 113.998V113.06H142.384V113.998H141.53ZM141.614 123V115.86H142.3V123H141.614ZM147.383 123.126C146.263 123.126 145.381 122.524 145.381 121.166V116.49H144.345V115.86H145.381V113.578H146.067V115.86H148.573V116.49H146.067V121.096C146.067 122.118 146.655 122.482 147.495 122.482C147.845 122.482 148.139 122.412 148.545 122.23V122.874C148.167 123.042 147.831 123.126 147.383 123.126ZM150.286 115.888L150.118 115.538C150.72 115.216 150.944 114.936 150.902 114.39H150.524V113.2H151.448V114.236C151.448 115.118 151.126 115.566 150.286 115.888ZM155.721 123.14C154.671 123.14 153.565 122.72 152.795 122.104L153.201 121.558C153.985 122.16 154.853 122.496 155.763 122.496C156.729 122.496 157.485 121.978 157.485 121.138V121.11C157.485 120.27 156.589 119.976 155.595 119.682C154.419 119.346 153.145 119.01 153.145 117.722V117.694C153.145 116.546 154.111 115.72 155.497 115.72C156.351 115.72 157.317 116.014 158.031 116.504L157.667 117.078C157.009 116.644 156.239 116.364 155.469 116.364C154.475 116.364 153.845 116.896 153.845 117.61V117.638C153.845 118.436 154.811 118.716 155.833 119.024C156.981 119.36 158.185 119.766 158.185 121.026V121.054C158.185 122.328 157.107 123.14 155.721 123.14ZM172.379 123V112.78H173.065V123H172.379ZM178.931 123.168C176.817 123.168 175.277 121.46 175.277 119.458V119.43C175.277 117.428 176.831 115.692 178.959 115.692C181.073 115.692 182.613 117.4 182.613 119.402V119.43C182.613 121.432 181.059 123.168 178.931 123.168ZM178.959 122.524C180.653 122.524 181.871 121.138 181.871 119.458V119.43C181.871 117.694 180.583 116.336 178.931 116.336C177.237 116.336 176.019 117.722 176.019 119.402V119.43C176.019 121.166 177.307 122.524 178.959 122.524ZM187.858 125.268C186.654 125.268 185.562 124.904 184.582 124.176L184.988 123.616C185.856 124.288 186.822 124.624 187.872 124.624C189.496 124.624 190.672 123.686 190.672 121.852V120.816C190.042 121.698 189.118 122.468 187.69 122.468C185.968 122.468 184.26 121.152 184.26 119.108V119.08C184.26 117.008 185.968 115.692 187.69 115.692C189.132 115.692 190.07 116.448 190.672 117.288V115.86H191.358V121.894C191.358 122.944 191.022 123.742 190.448 124.316C189.832 124.932 188.922 125.268 187.858 125.268ZM187.76 121.81C189.258 121.81 190.714 120.718 190.714 119.094V119.066C190.714 117.414 189.258 116.35 187.76 116.35C186.248 116.35 185.002 117.386 185.002 119.052V119.08C185.002 120.69 186.29 121.81 187.76 121.81ZM197.128 123.168C195.014 123.168 193.474 121.46 193.474 119.458V119.43C193.474 117.428 195.028 115.692 197.156 115.692C199.27 115.692 200.81 117.4 200.81 119.402V119.43C200.81 121.432 199.256 123.168 197.128 123.168ZM197.156 122.524C198.85 122.524 200.068 121.138 200.068 119.458V119.43C200.068 117.694 198.78 116.336 197.128 116.336C195.434 116.336 194.216 117.722 194.216 119.402V119.43C194.216 121.166 195.504 122.524 197.156 122.524ZM205.229 123.14C204.179 123.14 203.073 122.72 202.303 122.104L202.709 121.558C203.493 122.16 204.361 122.496 205.271 122.496C206.237 122.496 206.993 121.978 206.993 121.138V121.11C206.993 120.27 206.097 119.976 205.103 119.682C203.927 119.346 202.653 119.01 202.653 117.722V117.694C202.653 116.546 203.619 115.72 205.005 115.72C205.859 115.72 206.825 116.014 207.539 116.504L207.175 117.078C206.517 116.644 205.747 116.364 204.977 116.364C203.983 116.364 203.353 116.896 203.353 117.61V117.638C203.353 118.436 204.319 118.716 205.341 119.024C206.489 119.36 207.693 119.766 207.693 121.026V121.054C207.693 122.328 206.615 123.14 205.229 123.14ZM209.486 124.498L209.318 124.148C209.92 123.826 210.144 123.546 210.102 123H209.724V121.81H210.648V122.846C210.648 123.728 210.326 124.176 209.486 124.498ZM227.326 123.14C226.276 123.14 225.17 122.72 224.4 122.104L224.806 121.558C225.59 122.16 226.458 122.496 227.368 122.496C228.334 122.496 229.09 121.978 229.09 121.138V121.11C229.09 120.27 228.194 119.976 227.2 119.682C226.024 119.346 224.75 119.01 224.75 117.722V117.694C224.75 116.546 225.716 115.72 227.102 115.72C227.956 115.72 228.922 116.014 229.636 116.504L229.272 117.078C228.614 116.644 227.844 116.364 227.074 116.364C226.08 116.364 225.45 116.896 225.45 117.61V117.638C225.45 118.436 226.416 118.716 227.438 119.024C228.586 119.36 229.79 119.766 229.79 121.026V121.054C229.79 122.328 228.712 123.14 227.326 123.14ZM235.139 123.168C233.025 123.168 231.485 121.46 231.485 119.458V119.43C231.485 117.428 233.039 115.692 235.167 115.692C237.281 115.692 238.821 117.4 238.821 119.402V119.43C238.821 121.432 237.267 123.168 235.139 123.168ZM235.167 122.524C236.861 122.524 238.079 121.138 238.079 119.458V119.43C238.079 117.694 236.791 116.336 235.139 116.336C233.445 116.336 232.227 117.722 232.227 119.402V119.43C232.227 121.166 233.515 122.524 235.167 122.524ZM244.08 123.168C242.022 123.168 240.44 121.46 240.44 119.458V119.43C240.44 117.428 242.022 115.692 244.08 115.692C245.424 115.692 246.264 116.294 246.936 117.008L246.446 117.512C245.83 116.882 245.13 116.336 244.066 116.336C242.442 116.336 241.182 117.68 241.182 119.402V119.43C241.182 121.166 242.498 122.524 244.122 122.524C245.13 122.524 245.914 122.006 246.516 121.334L246.992 121.754C246.264 122.58 245.382 123.168 244.08 123.168ZM248.942 113.998V113.06H249.796V113.998H248.942ZM249.026 123V115.86H249.712V123H249.026ZM254.584 123.168C253.254 123.168 251.826 122.426 251.826 120.928V120.9C251.826 119.402 253.1 118.576 254.948 118.576C255.956 118.576 256.628 118.702 257.314 118.884V118.576C257.314 117.12 256.432 116.392 254.962 116.392C254.08 116.392 253.38 116.63 252.722 116.966L252.47 116.364C253.254 115.986 254.01 115.748 255.004 115.748C255.984 115.748 256.74 116.014 257.258 116.532C257.748 117.022 257.986 117.694 257.986 118.548V123H257.314V121.81C256.824 122.482 255.942 123.168 254.584 123.168ZM254.626 122.524C256.082 122.524 257.328 121.628 257.328 120.326V119.514C256.726 119.36 255.928 119.192 254.906 119.192C253.394 119.192 252.554 119.85 252.554 120.858V120.886C252.554 121.922 253.534 122.524 254.626 122.524ZM260.551 123V112.78H261.237V123H260.551ZM275.851 123V115.86H276.537V117.134C276.985 116.392 277.643 115.692 278.917 115.692C280.177 115.692 280.919 116.406 281.325 117.232C281.787 116.434 282.571 115.692 283.901 115.692C285.595 115.692 286.645 116.882 286.645 118.674V123H285.959V118.758C285.959 117.204 285.175 116.322 283.845 116.322C282.641 116.322 281.591 117.232 281.591 118.842V123H280.905V118.716C280.905 117.218 280.107 116.322 278.819 116.322C277.531 116.322 276.537 117.442 276.537 118.884V123H275.851ZM292.122 123.168C290.246 123.168 288.622 121.684 288.622 119.444V119.416C288.622 117.358 290.078 115.692 292.01 115.692C294.012 115.692 295.286 117.316 295.286 119.43C295.286 119.556 295.286 119.598 295.272 119.71H289.35C289.462 121.488 290.764 122.524 292.15 122.524C293.27 122.524 293.998 122.034 294.6 121.404L295.076 121.824C294.348 122.608 293.48 123.168 292.122 123.168ZM289.35 119.094H294.544C294.432 117.652 293.62 116.322 291.982 116.322C290.568 116.322 289.462 117.512 289.35 119.094ZM300.298 123.168C298.576 123.168 296.826 121.782 296.826 119.458V119.43C296.826 117.12 298.576 115.692 300.298 115.692C301.726 115.692 302.636 116.504 303.238 117.4V112.78H303.924V123H303.238V121.404C302.608 122.342 301.726 123.168 300.298 123.168ZM300.368 122.51C301.866 122.51 303.28 121.264 303.28 119.444V119.416C303.28 117.582 301.866 116.35 300.368 116.35C298.8 116.35 297.568 117.498 297.568 119.402V119.43C297.568 121.306 298.856 122.51 300.368 122.51ZM306.544 113.998V113.06H307.398V113.998H306.544ZM306.628 123V115.86H307.314V123H306.628ZM312.187 123.168C310.857 123.168 309.429 122.426 309.429 120.928V120.9C309.429 119.402 310.703 118.576 312.551 118.576C313.559 118.576 314.231 118.702 314.917 118.884V118.576C314.917 117.12 314.035 116.392 312.565 116.392C311.683 116.392 310.983 116.63 310.325 116.966L310.073 116.364C310.857 115.986 311.613 115.748 312.607 115.748C313.587 115.748 314.343 116.014 314.861 116.532C315.351 117.022 315.589 117.694 315.589 118.548V123H314.917V121.81C314.427 122.482 313.545 123.168 312.187 123.168ZM312.229 122.524C313.685 122.524 314.931 121.628 314.931 120.326V119.514C314.329 119.36 313.531 119.192 312.509 119.192C310.997 119.192 310.157 119.85 310.157 120.858V120.886C310.157 121.922 311.137 122.524 312.229 122.524ZM329.967 125.24V115.86H330.653V117.456C331.255 116.518 332.179 115.692 333.593 115.692C335.315 115.692 337.065 117.078 337.065 119.402V119.43C337.065 121.74 335.315 123.168 333.593 123.168C332.165 123.168 331.255 122.356 330.653 121.46V125.24H329.967ZM333.523 122.51C335.091 122.51 336.323 121.362 336.323 119.458V119.43C336.323 117.554 335.035 116.35 333.523 116.35C332.025 116.35 330.611 117.596 330.611 119.416V119.444C330.611 121.278 332.025 122.51 333.523 122.51ZM342.373 123.168C340.259 123.168 338.719 121.46 338.719 119.458V119.43C338.719 117.428 340.273 115.692 342.401 115.692C344.515 115.692 346.055 117.4 346.055 119.402V119.43C346.055 121.432 344.501 123.168 342.373 123.168ZM342.401 122.524C344.095 122.524 345.313 121.138 345.313 119.458V119.43C345.313 117.694 344.025 116.336 342.373 116.336C340.679 116.336 339.461 117.722 339.461 119.402V119.43C339.461 121.166 340.749 122.524 342.401 122.524ZM350.474 123.14C349.424 123.14 348.318 122.72 347.548 122.104L347.954 121.558C348.738 122.16 349.606 122.496 350.516 122.496C351.482 122.496 352.238 121.978 352.238 121.138V121.11C352.238 120.27 351.342 119.976 350.348 119.682C349.172 119.346 347.898 119.01 347.898 117.722V117.694C347.898 116.546 348.864 115.72 350.25 115.72C351.104 115.72 352.07 116.014 352.784 116.504L352.42 117.078C351.762 116.644 350.992 116.364 350.222 116.364C349.228 116.364 348.598 116.896 348.598 117.61V117.638C348.598 118.436 349.564 118.716 350.586 119.024C351.734 119.36 352.938 119.766 352.938 121.026V121.054C352.938 122.328 351.86 123.14 350.474 123.14ZM357.366 123.126C356.246 123.126 355.364 122.524 355.364 121.166V116.49H354.328V115.86H355.364V113.578H356.05V115.86H358.556V116.49H356.05V121.096C356.05 122.118 356.638 122.482 357.478 122.482C357.828 122.482 358.122 122.412 358.528 122.23V122.874C358.15 123.042 357.814 123.126 357.366 123.126ZM362.902 123.14C361.852 123.14 360.746 122.72 359.976 122.104L360.382 121.558C361.166 122.16 362.034 122.496 362.944 122.496C363.91 122.496 364.666 121.978 364.666 121.138V121.11C364.666 120.27 363.77 119.976 362.776 119.682C361.6 119.346 360.326 119.01 360.326 117.722V117.694C360.326 116.546 361.292 115.72 362.678 115.72C363.532 115.72 364.498 116.014 365.212 116.504L364.848 117.078C364.19 116.644 363.42 116.364 362.65 116.364C361.656 116.364 361.026 116.896 361.026 117.61V117.638C361.026 118.436 361.992 118.716 363.014 119.024C364.162 119.36 365.366 119.766 365.366 121.026V121.054C365.366 122.328 364.288 123.14 362.902 123.14ZM367.159 124.498L366.991 124.148C367.593 123.826 367.817 123.546 367.775 123H367.397V121.81H368.321V122.846C368.321 123.728 367.999 124.176 367.159 124.498ZM385.852 123.168C383.738 123.168 382.198 121.46 382.198 119.458V119.43C382.198 117.428 383.752 115.692 385.88 115.692C387.994 115.692 389.534 117.4 389.534 119.402V119.43C389.534 121.432 387.98 123.168 385.852 123.168ZM385.88 122.524C387.574 122.524 388.792 121.138 388.792 119.458V119.43C388.792 117.694 387.504 116.336 385.852 116.336C384.158 116.336 382.94 117.722 382.94 119.402V119.43C382.94 121.166 384.228 122.524 385.88 122.524ZM391.643 123V115.86H392.329V117.89C392.903 116.602 394.065 115.706 395.493 115.748V116.504H395.423C393.785 116.504 392.329 117.764 392.329 120.074V123H391.643ZM411.161 123.056L408.543 115.86H409.313L411.469 122.132L413.625 115.832H414.171L416.327 122.132L418.483 115.86H419.225L416.607 123.056H416.019L413.891 116.938L411.749 123.056H411.161ZM423.873 123.168C421.997 123.168 420.373 121.684 420.373 119.444V119.416C420.373 117.358 421.829 115.692 423.761 115.692C425.763 115.692 427.037 117.316 427.037 119.43C427.037 119.556 427.037 119.598 427.023 119.71H421.101C421.213 121.488 422.515 122.524 423.901 122.524C425.021 122.524 425.749 122.034 426.351 121.404L426.827 121.824C426.099 122.608 425.231 123.168 423.873 123.168ZM421.101 119.094H426.295C426.183 117.652 425.371 116.322 423.733 116.322C422.319 116.322 421.213 117.512 421.101 119.094ZM432.664 123.168C431.236 123.168 430.326 122.356 429.724 121.46V123H429.038V112.78H429.724V117.456C430.326 116.518 431.25 115.692 432.664 115.692C434.386 115.692 436.136 117.078 436.136 119.402V119.43C436.136 121.74 434.386 123.168 432.664 123.168ZM432.594 122.51C434.162 122.51 435.394 121.362 435.394 119.458V119.43C435.394 117.554 434.106 116.35 432.594 116.35C431.096 116.35 429.682 117.596 429.682 119.416V119.444C429.682 121.278 431.096 122.51 432.594 122.51ZM440.591 123.14C439.541 123.14 438.435 122.72 437.665 122.104L438.071 121.558C438.855 122.16 439.723 122.496 440.633 122.496C441.599 122.496 442.355 121.978 442.355 121.138V121.11C442.355 120.27 441.459 119.976 440.465 119.682C439.289 119.346 438.015 119.01 438.015 117.722V117.694C438.015 116.546 438.981 115.72 440.367 115.72C441.221 115.72 442.187 116.014 442.901 116.504L442.537 117.078C441.879 116.644 441.109 116.364 440.339 116.364C439.345 116.364 438.715 116.896 438.715 117.61V117.638C438.715 118.436 439.681 118.716 440.703 119.024C441.851 119.36 443.055 119.766 443.055 121.026V121.054C443.055 122.328 441.977 123.14 440.591 123.14ZM445.254 113.998V113.06H446.108V113.998H445.254ZM445.338 123V115.86H446.024V123H445.338ZM451.106 123.126C449.986 123.126 449.104 122.524 449.104 121.166V116.49H448.068V115.86H449.104V113.578H449.79V115.86H452.296V116.49H449.79V121.096C449.79 122.118 450.378 122.482 451.218 122.482C451.568 122.482 451.862 122.412 452.268 122.23V122.874C451.89 123.042 451.554 123.126 451.106 123.126ZM457.136 123.168C455.26 123.168 453.636 121.684 453.636 119.444V119.416C453.636 117.358 455.092 115.692 457.024 115.692C459.026 115.692 460.3 117.316 460.3 119.43C460.3 119.556 460.3 119.598 460.286 119.71H454.364C454.476 121.488 455.778 122.524 457.164 122.524C458.284 122.524 459.012 122.034 459.614 121.404L460.09 121.824C459.362 122.608 458.494 123.168 457.136 123.168ZM454.364 119.094H459.558C459.446 117.652 458.634 116.322 456.996 116.322C455.582 116.322 454.476 117.512 454.364 119.094ZM34.438 145.268C33.234 145.268 32.142 144.904 31.162 144.176L31.568 143.616C32.436 144.288 33.402 144.624 34.452 144.624C36.076 144.624 37.252 143.686 37.252 141.852V140.816C36.622 141.698 35.698 142.468 34.27 142.468C32.548 142.468 30.84 141.152 30.84 139.108V139.08C30.84 137.008 32.548 135.692 34.27 135.692C35.712 135.692 36.65 136.448 37.252 137.288V135.86H37.938V141.894C37.938 142.944 37.602 143.742 37.028 144.316C36.412 144.932 35.502 145.268 34.438 145.268ZM34.34 141.81C35.838 141.81 37.294 140.718 37.294 139.094V139.066C37.294 137.414 35.838 136.35 34.34 136.35C32.828 136.35 31.582 137.386 31.582 139.052V139.08C31.582 140.69 32.87 141.81 34.34 141.81ZM40.5442 143V135.86H41.2302V137.89C41.8042 136.602 42.9662 135.706 44.3942 135.748V136.504H44.3242C42.6862 136.504 41.2302 137.764 41.2302 140.074V143H40.5442ZM47.9642 143.168C46.6342 143.168 45.2062 142.426 45.2062 140.928V140.9C45.2062 139.402 46.4802 138.576 48.3282 138.576C49.3362 138.576 50.0082 138.702 50.6942 138.884V138.576C50.6942 137.12 49.8122 136.392 48.3422 136.392C47.4602 136.392 46.7602 136.63 46.1022 136.966L45.8502 136.364C46.6342 135.986 47.3902 135.748 48.3842 135.748C49.3642 135.748 50.1202 136.014 50.6382 136.532C51.1282 137.022 51.3662 137.694 51.3662 138.548V143H50.6942V141.81C50.2042 142.482 49.3222 143.168 47.9642 143.168ZM48.0062 142.524C49.4622 142.524 50.7082 141.628 50.7082 140.326V139.514C50.1062 139.36 49.3082 139.192 48.2862 139.192C46.7742 139.192 45.9342 139.85 45.9342 140.858V140.886C45.9342 141.922 46.9142 142.524 48.0062 142.524ZM53.8333 145.24V135.86H54.5193V137.456C55.1213 136.518 56.0453 135.692 57.4593 135.692C59.1813 135.692 60.9313 137.078 60.9313 139.402V139.43C60.9313 141.74 59.1813 143.168 57.4593 143.168C56.0312 143.168 55.1213 142.356 54.5193 141.46V145.24H53.8333ZM57.3893 142.51C58.9573 142.51 60.1893 141.362 60.1893 139.458V139.43C60.1893 137.554 58.9013 136.35 57.3893 136.35C55.8913 136.35 54.4773 137.596 54.4773 139.416V139.444C54.4773 141.278 55.8913 142.51 57.3893 142.51ZM63.0754 143V132.78H63.7614V137.19C64.2514 136.35 65.0354 135.692 66.3374 135.692C68.1434 135.692 69.1934 136.91 69.1934 138.632V143H68.5074V138.758C68.5074 137.288 67.6954 136.322 66.2394 136.322C64.8394 136.322 63.7614 137.372 63.7614 138.87V143H63.0754ZM71.6754 133.998V133.06H72.5294V133.998H71.6754ZM71.7594 143V135.86H72.4454V143H71.7594ZM78.2977 143.168C76.2397 143.168 74.6577 141.46 74.6577 139.458V139.43C74.6577 137.428 76.2397 135.692 78.2977 135.692C79.6417 135.692 80.4817 136.294 81.1537 137.008L80.6637 137.512C80.0477 136.882 79.3477 136.336 78.2837 136.336C76.6597 136.336 75.3997 137.68 75.3997 139.402V139.43C75.3997 141.166 76.7157 142.524 78.3397 142.524C79.3477 142.524 80.1317 142.006 80.7337 141.334L81.2097 141.754C80.4817 142.58 79.5997 143.168 78.2977 143.168ZM85.4558 143.14C84.4058 143.14 83.2998 142.72 82.5298 142.104L82.9358 141.558C83.7198 142.16 84.5878 142.496 85.4978 142.496C86.4638 142.496 87.2198 141.978 87.2198 141.138V141.11C87.2198 140.27 86.3238 139.976 85.3298 139.682C84.1538 139.346 82.8798 139.01 82.8798 137.722V137.694C82.8798 136.546 83.8458 135.72 85.2318 135.72C86.0858 135.72 87.0518 136.014 87.7658 136.504L87.4018 137.078C86.7438 136.644 85.9738 136.364 85.2038 136.364C84.2098 136.364 83.5798 136.896 83.5798 137.61V137.638C83.5798 138.436 84.5458 138.716 85.5678 139.024C86.7158 139.36 87.9198 139.766 87.9198 141.026V141.054C87.9198 142.328 86.8418 143.14 85.4558 143.14ZM89.7127 144.498L89.5447 144.148C90.1467 143.826 90.3707 143.546 90.3287 143H89.9507V141.81H90.8747V142.846C90.8747 143.728 90.5527 144.176 89.7127 144.498ZM102.811 143.056L100.193 135.86H100.963L103.119 142.132L105.275 135.832H105.821L107.977 142.132L110.133 135.86H110.875L108.257 143.056H107.669L105.541 136.938L103.399 143.056H102.811ZM115.522 143.168C113.646 143.168 112.022 141.684 112.022 139.444V139.416C112.022 137.358 113.478 135.692 115.41 135.692C117.412 135.692 118.686 137.316 118.686 139.43C118.686 139.556 118.686 139.598 118.672 139.71H112.75C112.862 141.488 114.164 142.524 115.55 142.524C116.67 142.524 117.398 142.034 118 141.404L118.476 141.824C117.748 142.608 116.88 143.168 115.522 143.168ZM112.75 139.094H117.944C117.832 137.652 117.02 136.322 115.382 136.322C113.968 136.322 112.862 137.512 112.75 139.094ZM131.316 143.168C129.258 143.168 127.676 141.46 127.676 139.458V139.43C127.676 137.428 129.258 135.692 131.316 135.692C132.66 135.692 133.5 136.294 134.172 137.008L133.682 137.512C133.066 136.882 132.366 136.336 131.302 136.336C129.678 136.336 128.418 137.68 128.418 139.402V139.43C128.418 141.166 129.734 142.524 131.358 142.524C132.366 142.524 133.15 142.006 133.752 141.334L134.228 141.754C133.5 142.58 132.618 143.168 131.316 143.168ZM136.164 143V135.86H136.85V137.89C137.424 136.602 138.586 135.706 140.014 135.748V136.504H139.944C138.306 136.504 136.85 137.764 136.85 140.074V143H136.164ZM144.424 143.168C142.548 143.168 140.924 141.684 140.924 139.444V139.416C140.924 137.358 142.38 135.692 144.312 135.692C146.314 135.692 147.588 137.316 147.588 139.43C147.588 139.556 147.588 139.598 147.574 139.71H141.652C141.764 141.488 143.066 142.524 144.452 142.524C145.572 142.524 146.3 142.034 146.902 141.404L147.378 141.824C146.65 142.608 145.782 143.168 144.424 143.168ZM141.652 139.094H146.846C146.734 137.652 145.922 136.322 144.284 136.322C142.87 136.322 141.764 137.512 141.652 139.094ZM151.759 143.168C150.429 143.168 149.001 142.426 149.001 140.928V140.9C149.001 139.402 150.275 138.576 152.123 138.576C153.131 138.576 153.803 138.702 154.489 138.884V138.576C154.489 137.12 153.607 136.392 152.137 136.392C151.255 136.392 150.555 136.63 149.897 136.966L149.645 136.364C150.429 135.986 151.185 135.748 152.179 135.748C153.159 135.748 153.915 136.014 154.433 136.532C154.923 137.022 155.161 137.694 155.161 138.548V143H154.489V141.81C153.999 142.482 153.117 143.168 151.759 143.168ZM151.801 142.524C153.257 142.524 154.503 141.628 154.503 140.326V139.514C153.901 139.36 153.103 139.192 152.081 139.192C150.569 139.192 149.729 139.85 149.729 140.858V140.886C149.729 141.922 150.709 142.524 151.801 142.524ZM159.94 143.126C158.82 143.126 157.938 142.524 157.938 141.166V136.49H156.902V135.86H157.938V133.578H158.624V135.86H161.13V136.49H158.624V141.096C158.624 142.118 159.212 142.482 160.052 142.482C160.402 142.482 160.696 142.412 161.102 142.23V142.874C160.724 143.042 160.388 143.126 159.94 143.126ZM165.97 143.168C164.094 143.168 162.47 141.684 162.47 139.444V139.416C162.47 137.358 163.926 135.692 165.858 135.692C167.86 135.692 169.134 137.316 169.134 139.43C169.134 139.556 169.134 139.598 169.12 139.71H163.198C163.31 141.488 164.612 142.524 165.998 142.524C167.118 142.524 167.846 142.034 168.448 141.404L168.924 141.824C168.196 142.608 167.328 143.168 165.97 143.168ZM163.198 139.094H168.392C168.28 137.652 167.468 136.322 165.83 136.322C164.416 136.322 163.31 137.512 163.198 139.094ZM178.614 145.24V135.86H179.3V137.456C179.902 136.518 180.826 135.692 182.24 135.692C183.962 135.692 185.712 137.078 185.712 139.402V139.43C185.712 141.74 183.962 143.168 182.24 143.168C180.812 143.168 179.902 142.356 179.3 141.46V145.24H178.614ZM182.17 142.51C183.738 142.51 184.97 141.362 184.97 139.458V139.43C184.97 137.554 183.682 136.35 182.17 136.35C180.672 136.35 179.258 137.596 179.258 139.416V139.444C179.258 141.278 180.672 142.51 182.17 142.51ZM187.856 143V135.86H188.542V137.89C189.116 136.602 190.278 135.706 191.706 135.748V136.504H191.636C189.998 136.504 188.542 137.764 188.542 140.074V143H187.856ZM196.27 143.168C194.156 143.168 192.616 141.46 192.616 139.458V139.43C192.616 137.428 194.17 135.692 196.298 135.692C198.412 135.692 199.952 137.4 199.952 139.402V139.43C199.952 141.432 198.398 143.168 196.27 143.168ZM196.298 142.524C197.992 142.524 199.21 141.138 199.21 139.458V139.43C199.21 137.694 197.922 136.336 196.27 136.336C194.576 136.336 193.358 137.722 193.358 139.402V139.43C193.358 141.166 194.646 142.524 196.298 142.524ZM202.481 143V136.49H201.445V135.86H202.481V135.16C202.481 134.334 202.691 133.718 203.111 133.298C203.489 132.92 203.979 132.738 204.609 132.738C205.043 132.738 205.351 132.794 205.673 132.906V133.55C205.267 133.424 204.987 133.368 204.609 133.368C203.643 133.368 203.167 133.97 203.167 135.174V135.86H205.659V136.49H203.167V143H202.481ZM210.007 143.168C208.131 143.168 206.507 141.684 206.507 139.444V139.416C206.507 137.358 207.963 135.692 209.895 135.692C211.897 135.692 213.171 137.316 213.171 139.43C213.171 139.556 213.171 139.598 213.157 139.71H207.235C207.347 141.488 208.649 142.524 210.035 142.524C211.155 142.524 211.883 142.034 212.485 141.404L212.961 141.824C212.233 142.608 211.365 143.168 210.007 143.168ZM207.235 139.094H212.429C212.317 137.652 211.505 136.322 209.867 136.322C208.453 136.322 207.347 137.512 207.235 139.094ZM217.483 143.14C216.433 143.14 215.327 142.72 214.557 142.104L214.963 141.558C215.747 142.16 216.615 142.496 217.525 142.496C218.491 142.496 219.247 141.978 219.247 141.138V141.11C219.247 140.27 218.351 139.976 217.357 139.682C216.181 139.346 214.907 139.01 214.907 137.722V137.694C214.907 136.546 215.873 135.72 217.259 135.72C218.113 135.72 219.079 136.014 219.793 136.504L219.429 137.078C218.771 136.644 218.001 136.364 217.231 136.364C216.237 136.364 215.607 136.896 215.607 137.61V137.638C215.607 138.436 216.573 138.716 217.595 139.024C218.743 139.36 219.947 139.766 219.947 141.026V141.054C219.947 142.328 218.869 143.14 217.483 143.14ZM224.305 143.14C223.255 143.14 222.149 142.72 221.379 142.104L221.785 141.558C222.569 142.16 223.437 142.496 224.347 142.496C225.313 142.496 226.069 141.978 226.069 141.138V141.11C226.069 140.27 225.173 139.976 224.179 139.682C223.003 139.346 221.729 139.01 221.729 137.722V137.694C221.729 136.546 222.695 135.72 224.081 135.72C224.935 135.72 225.901 136.014 226.615 136.504L226.251 137.078C225.593 136.644 224.823 136.364 224.053 136.364C223.059 136.364 222.429 136.896 222.429 137.61V137.638C222.429 138.436 223.395 138.716 224.417 139.024C225.565 139.36 226.769 139.766 226.769 141.026V141.054C226.769 142.328 225.691 143.14 224.305 143.14ZM228.968 133.998V133.06H229.822V133.998H228.968ZM229.052 143V135.86H229.738V143H229.052ZM235.604 143.168C233.49 143.168 231.95 141.46 231.95 139.458V139.43C231.95 137.428 233.504 135.692 235.632 135.692C237.746 135.692 239.286 137.4 239.286 139.402V139.43C239.286 141.432 237.732 143.168 235.604 143.168ZM235.632 142.524C237.326 142.524 238.544 141.138 238.544 139.458V139.43C238.544 137.694 237.256 136.336 235.604 136.336C233.91 136.336 232.692 137.722 232.692 139.402V139.43C232.692 141.166 233.98 142.524 235.632 142.524ZM241.395 143V135.86H242.081V137.19C242.571 136.35 243.355 135.692 244.657 135.692C246.463 135.692 247.513 136.91 247.513 138.632V143H246.827V138.758C246.827 137.288 246.015 136.322 244.559 136.322C243.159 136.322 242.081 137.372 242.081 138.87V143H241.395ZM252.151 143.168C250.821 143.168 249.393 142.426 249.393 140.928V140.9C249.393 139.402 250.667 138.576 252.515 138.576C253.523 138.576 254.195 138.702 254.881 138.884V138.576C254.881 137.12 253.999 136.392 252.529 136.392C251.647 136.392 250.947 136.63 250.289 136.966L250.037 136.364C250.821 135.986 251.577 135.748 252.571 135.748C253.551 135.748 254.307 136.014 254.825 136.532C255.315 137.022 255.553 137.694 255.553 138.548V143H254.881V141.81C254.391 142.482 253.509 143.168 252.151 143.168ZM252.193 142.524C253.649 142.524 254.895 141.628 254.895 140.326V139.514C254.293 139.36 253.495 139.192 252.473 139.192C250.961 139.192 250.121 139.85 250.121 140.858V140.886C250.121 141.922 251.101 142.524 252.193 142.524ZM258.118 143V132.78H258.804V143H258.118ZM271.154 143.168C269.824 143.168 268.396 142.426 268.396 140.928V140.9C268.396 139.402 269.67 138.576 271.518 138.576C272.526 138.576 273.198 138.702 273.884 138.884V138.576C273.884 137.12 273.002 136.392 271.532 136.392C270.65 136.392 269.95 136.63 269.292 136.966L269.04 136.364C269.824 135.986 270.58 135.748 271.574 135.748C272.554 135.748 273.31 136.014 273.828 136.532C274.318 137.022 274.556 137.694 274.556 138.548V143H273.884V141.81C273.394 142.482 272.512 143.168 271.154 143.168ZM271.196 142.524C272.652 142.524 273.898 141.628 273.898 140.326V139.514C273.296 139.36 272.498 139.192 271.476 139.192C269.964 139.192 269.124 139.85 269.124 140.858V140.886C269.124 141.922 270.104 142.524 271.196 142.524ZM277.023 143V135.86H277.709V137.19C278.199 136.35 278.983 135.692 280.285 135.692C282.091 135.692 283.141 136.91 283.141 138.632V143H282.455V138.758C282.455 137.288 281.643 136.322 280.187 136.322C278.787 136.322 277.709 137.372 277.709 138.87V143H277.023ZM288.619 143.168C286.897 143.168 285.147 141.782 285.147 139.458V139.43C285.147 137.12 286.897 135.692 288.619 135.692C290.047 135.692 290.957 136.504 291.559 137.4V132.78H292.245V143H291.559V141.404C290.929 142.342 290.047 143.168 288.619 143.168ZM288.689 142.51C290.187 142.51 291.601 141.264 291.601 139.444V139.416C291.601 137.582 290.187 136.35 288.689 136.35C287.121 136.35 285.889 137.498 285.889 139.402V139.43C285.889 141.306 287.177 142.51 288.689 142.51ZM305.339 143.168C303.463 143.168 301.839 141.684 301.839 139.444V139.416C301.839 137.358 303.295 135.692 305.227 135.692C307.229 135.692 308.503 137.316 308.503 139.43C308.503 139.556 308.503 139.598 308.489 139.71H302.567C302.679 141.488 303.981 142.524 305.367 142.524C306.487 142.524 307.215 142.034 307.817 141.404L308.293 141.824C307.565 142.608 306.697 143.168 305.339 143.168ZM302.567 139.094H307.761C307.649 137.652 306.837 136.322 305.199 136.322C303.785 136.322 302.679 137.512 302.567 139.094ZM310.505 143V135.86H311.191V137.19C311.681 136.35 312.465 135.692 313.767 135.692C315.573 135.692 316.623 136.91 316.623 138.632V143H315.937V138.758C315.937 137.288 315.125 136.322 313.669 136.322C312.269 136.322 311.191 137.372 311.191 138.87V143H310.505ZM322.227 145.268C321.023 145.268 319.931 144.904 318.951 144.176L319.357 143.616C320.225 144.288 321.191 144.624 322.241 144.624C323.865 144.624 325.041 143.686 325.041 141.852V140.816C324.411 141.698 323.487 142.468 322.059 142.468C320.337 142.468 318.629 141.152 318.629 139.108V139.08C318.629 137.008 320.337 135.692 322.059 135.692C323.501 135.692 324.439 136.448 325.041 137.288V135.86H325.727V141.894C325.727 142.944 325.391 143.742 324.817 144.316C324.201 144.932 323.291 145.268 322.227 145.268ZM322.129 141.81C323.627 141.81 325.083 140.718 325.083 139.094V139.066C325.083 137.414 323.627 136.35 322.129 136.35C320.617 136.35 319.371 137.386 319.371 139.052V139.08C319.371 140.69 320.659 141.81 322.129 141.81ZM330.503 143.168C329.173 143.168 327.745 142.426 327.745 140.928V140.9C327.745 139.402 329.019 138.576 330.867 138.576C331.875 138.576 332.547 138.702 333.233 138.884V138.576C333.233 137.12 332.351 136.392 330.881 136.392C329.999 136.392 329.299 136.63 328.641 136.966L328.389 136.364C329.173 135.986 329.929 135.748 330.923 135.748C331.903 135.748 332.659 136.014 333.177 136.532C333.667 137.022 333.905 137.694 333.905 138.548V143H333.233V141.81C332.743 142.482 331.861 143.168 330.503 143.168ZM330.545 142.524C332.001 142.524 333.247 141.628 333.247 140.326V139.514C332.645 139.36 331.847 139.192 330.825 139.192C329.313 139.192 328.473 139.85 328.473 140.858V140.886C328.473 141.922 329.453 142.524 330.545 142.524ZM339.508 145.268C338.304 145.268 337.212 144.904 336.232 144.176L336.638 143.616C337.506 144.288 338.472 144.624 339.522 144.624C341.146 144.624 342.322 143.686 342.322 141.852V140.816C341.692 141.698 340.768 142.468 339.34 142.468C337.618 142.468 335.91 141.152 335.91 139.108V139.08C335.91 137.008 337.618 135.692 339.34 135.692C340.782 135.692 341.72 136.448 342.322 137.288V135.86H343.008V141.894C343.008 142.944 342.672 143.742 342.098 144.316C341.482 144.932 340.572 145.268 339.508 145.268ZM339.41 141.81C340.908 141.81 342.364 140.718 342.364 139.094V139.066C342.364 137.414 340.908 136.35 339.41 136.35C337.898 136.35 336.652 137.386 336.652 139.052V139.08C336.652 140.69 337.94 141.81 339.41 141.81ZM345.628 133.998V133.06H346.482V133.998H345.628ZM345.712 143V135.86H346.398V143H345.712ZM349.101 143V135.86H349.787V137.19C350.277 136.35 351.061 135.692 352.363 135.692C354.169 135.692 355.219 136.91 355.219 138.632V143H354.533V138.758C354.533 137.288 353.721 136.322 352.265 136.322C350.865 136.322 349.787 137.372 349.787 138.87V143H349.101ZM360.822 145.268C359.618 145.268 358.526 144.904 357.546 144.176L357.952 143.616C358.82 144.288 359.786 144.624 360.836 144.624C362.46 144.624 363.636 143.686 363.636 141.852V140.816C363.006 141.698 362.082 142.468 360.654 142.468C358.932 142.468 357.224 141.152 357.224 139.108V139.08C357.224 137.008 358.932 135.692 360.654 135.692C362.096 135.692 363.034 136.448 363.636 137.288V135.86H364.322V141.894C364.322 142.944 363.986 143.742 363.412 144.316C362.796 144.932 361.886 145.268 360.822 145.268ZM360.724 141.81C362.222 141.81 363.678 140.718 363.678 139.094V139.066C363.678 137.414 362.222 136.35 360.724 136.35C359.212 136.35 357.966 137.386 357.966 139.052V139.08C357.966 140.69 359.254 141.81 360.724 141.81ZM377.416 143.168C375.694 143.168 373.944 141.782 373.944 139.458V139.43C373.944 137.12 375.694 135.692 377.416 135.692C378.844 135.692 379.754 136.504 380.356 137.4V132.78H381.042V143H380.356V141.404C379.726 142.342 378.844 143.168 377.416 143.168ZM377.486 142.51C378.984 142.51 380.398 141.264 380.398 139.444V139.416C380.398 137.582 378.984 136.35 377.486 136.35C375.918 136.35 374.686 137.498 374.686 139.402V139.43C374.686 141.306 375.974 142.51 377.486 142.51ZM386.659 143.168C384.783 143.168 383.159 141.684 383.159 139.444V139.416C383.159 137.358 384.615 135.692 386.547 135.692C388.549 135.692 389.823 137.316 389.823 139.43C389.823 139.556 389.823 139.598 389.809 139.71H383.887C383.999 141.488 385.301 142.524 386.687 142.524C387.807 142.524 388.535 142.034 389.137 141.404L389.613 141.824C388.885 142.608 388.017 143.168 386.659 143.168ZM383.887 139.094H389.081C388.969 137.652 388.157 136.322 386.519 136.322C385.105 136.322 383.999 137.512 383.887 139.094ZM394.134 143.14C393.084 143.14 391.978 142.72 391.208 142.104L391.614 141.558C392.398 142.16 393.266 142.496 394.176 142.496C395.142 142.496 395.898 141.978 395.898 141.138V141.11C395.898 140.27 395.002 139.976 394.008 139.682C392.832 139.346 391.558 139.01 391.558 137.722V137.694C391.558 136.546 392.524 135.72 393.91 135.72C394.764 135.72 395.73 136.014 396.444 136.504L396.08 137.078C395.422 136.644 394.652 136.364 393.882 136.364C392.888 136.364 392.258 136.896 392.258 137.61V137.638C392.258 138.436 393.224 138.716 394.246 139.024C395.394 139.36 396.598 139.766 396.598 141.026V141.054C396.598 142.328 395.52 143.14 394.134 143.14ZM398.797 133.998V133.06H399.651V133.998H398.797ZM398.881 143V135.86H399.567V143H398.881ZM405.406 145.268C404.202 145.268 403.11 144.904 402.13 144.176L402.536 143.616C403.404 144.288 404.37 144.624 405.42 144.624C407.044 144.624 408.22 143.686 408.22 141.852V140.816C407.59 141.698 406.666 142.468 405.238 142.468C403.516 142.468 401.808 141.152 401.808 139.108V139.08C401.808 137.008 403.516 135.692 405.238 135.692C406.68 135.692 407.618 136.448 408.22 137.288V135.86H408.906V141.894C408.906 142.944 408.57 143.742 407.996 144.316C407.38 144.932 406.47 145.268 405.406 145.268ZM405.308 141.81C406.806 141.81 408.262 140.718 408.262 139.094V139.066C408.262 137.414 406.806 136.35 405.308 136.35C403.796 136.35 402.55 137.386 402.55 139.052V139.08C402.55 140.69 403.838 141.81 405.308 141.81ZM411.512 143V135.86H412.198V137.19C412.688 136.35 413.472 135.692 414.774 135.692C416.58 135.692 417.63 136.91 417.63 138.632V143H416.944V138.758C416.944 137.288 416.132 136.322 414.676 136.322C413.276 136.322 412.198 137.372 412.198 138.87V143H411.512ZM422.408 143.14C421.358 143.14 420.252 142.72 419.482 142.104L419.888 141.558C420.672 142.16 421.54 142.496 422.45 142.496C423.416 142.496 424.172 141.978 424.172 141.138V141.11C424.172 140.27 423.276 139.976 422.282 139.682C421.106 139.346 419.832 139.01 419.832 137.722V137.694C419.832 136.546 420.798 135.72 422.184 135.72C423.038 135.72 424.004 136.014 424.718 136.504L424.354 137.078C423.696 136.644 422.926 136.364 422.156 136.364C421.162 136.364 420.532 136.896 420.532 137.61V137.638C420.532 138.436 421.498 138.716 422.52 139.024C423.668 139.36 424.872 139.766 424.872 141.026V141.054C424.872 142.328 423.794 143.14 422.408 143.14ZM436.914 143.126C435.794 143.126 434.912 142.524 434.912 141.166V136.49H433.876V135.86H434.912V133.578H435.598V135.86H438.104V136.49H435.598V141.096C435.598 142.118 436.186 142.482 437.026 142.482C437.376 142.482 437.67 142.412 438.076 142.23V142.874C437.698 143.042 437.362 143.126 436.914 143.126ZM440.14 143V132.78H440.826V137.19C441.316 136.35 442.1 135.692 443.402 135.692C445.208 135.692 446.258 136.91 446.258 138.632V143H445.572V138.758C445.572 137.288 444.76 136.322 443.304 136.322C441.904 136.322 440.826 137.372 440.826 138.87V143H440.14ZM450.896 143.168C449.566 143.168 448.138 142.426 448.138 140.928V140.9C448.138 139.402 449.412 138.576 451.26 138.576C452.268 138.576 452.94 138.702 453.626 138.884V138.576C453.626 137.12 452.744 136.392 451.274 136.392C450.392 136.392 449.692 136.63 449.034 136.966L448.782 136.364C449.566 135.986 450.322 135.748 451.316 135.748C452.296 135.748 453.052 136.014 453.57 136.532C454.06 137.022 454.298 137.694 454.298 138.548V143H453.626V141.81C453.136 142.482 452.254 143.168 450.896 143.168ZM450.938 142.524C452.394 142.524 453.64 141.628 453.64 140.326V139.514C453.038 139.36 452.24 139.192 451.218 139.192C449.706 139.192 448.866 139.85 448.866 140.858V140.886C448.866 141.922 449.846 142.524 450.938 142.524ZM459.077 143.126C457.957 143.126 457.075 142.524 457.075 141.166V136.49H456.039V135.86H457.075V133.578H457.761V135.86H460.267V136.49H457.761V141.096C457.761 142.118 458.349 142.482 459.189 142.482C459.539 142.482 459.833 142.412 460.239 142.23V142.874C459.861 143.042 459.525 143.126 459.077 143.126ZM34.452 163.168C32.394 163.168 30.812 161.46 30.812 159.458V159.43C30.812 157.428 32.394 155.692 34.452 155.692C35.796 155.692 36.636 156.294 37.308 157.008L36.818 157.512C36.202 156.882 35.502 156.336 34.438 156.336C32.814 156.336 31.554 157.68 31.554 159.402V159.43C31.554 161.166 32.87 162.524 34.494 162.524C35.502 162.524 36.286 162.006 36.888 161.334L37.364 161.754C36.636 162.58 35.754 163.168 34.452 163.168ZM42.259 163.168C40.145 163.168 38.605 161.46 38.605 159.458V159.43C38.605 157.428 40.159 155.692 42.287 155.692C44.401 155.692 45.941 157.4 45.941 159.402V159.43C45.941 161.432 44.387 163.168 42.259 163.168ZM42.287 162.524C43.981 162.524 45.199 161.138 45.199 159.458V159.43C45.199 157.694 43.911 156.336 42.259 156.336C40.565 156.336 39.347 157.722 39.347 159.402V159.43C39.347 161.166 40.635 162.524 42.287 162.524ZM48.05 163V155.86H48.736V157.19C49.226 156.35 50.01 155.692 51.312 155.692C53.118 155.692 54.168 156.91 54.168 158.632V163H53.482V158.758C53.482 157.288 52.67 156.322 51.214 156.322C49.814 156.322 48.736 157.372 48.736 158.87V163H48.05ZM56.636 163V155.86H57.322V157.19C57.812 156.35 58.596 155.692 59.898 155.692C61.704 155.692 62.754 156.91 62.754 158.632V163H62.068V158.758C62.068 157.288 61.256 156.322 59.8 156.322C58.4 156.322 57.322 157.372 57.322 158.87V163H56.636ZM68.2319 163.168C66.3559 163.168 64.7319 161.684 64.7319 159.444V159.416C64.7319 157.358 66.1879 155.692 68.1199 155.692C70.1219 155.692 71.3959 157.316 71.3959 159.43C71.3959 159.556 71.3959 159.598 71.3819 159.71H65.4599C65.5719 161.488 66.8739 162.524 68.2599 162.524C69.3799 162.524 70.1079 162.034 70.7099 161.404L71.1859 161.824C70.4579 162.608 69.5899 163.168 68.2319 163.168ZM65.4599 159.094H70.6539C70.5419 157.652 69.7299 156.322 68.0919 156.322C66.6779 156.322 65.5719 157.512 65.4599 159.094ZM76.5477 163.168C74.4897 163.168 72.9077 161.46 72.9077 159.458V159.43C72.9077 157.428 74.4897 155.692 76.5477 155.692C77.8917 155.692 78.7317 156.294 79.4037 157.008L78.9137 157.512C78.2977 156.882 77.5977 156.336 76.5337 156.336C74.9097 156.336 73.6497 157.68 73.6497 159.402V159.43C73.6497 161.166 74.9657 162.524 76.5897 162.524C77.5977 162.524 78.3817 162.006 78.9837 161.334L79.4597 161.754C78.7317 162.58 77.8497 163.168 76.5477 163.168ZM83.7758 163.126C82.6558 163.126 81.7738 162.524 81.7738 161.166V156.49H80.7378V155.86H81.7738V153.578H82.4598V155.86H84.9658V156.49H82.4598V161.096C82.4598 162.118 83.0478 162.482 83.8878 162.482C84.2378 162.482 84.5318 162.412 84.9378 162.23V162.874C84.5598 163.042 84.2238 163.126 83.7758 163.126ZM93.2005 163.056L90.5825 155.86H91.3525L93.5085 162.132L95.6645 155.832H96.2105L98.3665 162.132L100.522 155.86H101.264L98.6465 163.056H98.0585L95.9305 156.938L93.7885 163.056H93.2005ZM103.271 153.998V153.06H104.125V153.998H103.271ZM103.355 163V155.86H104.041V163H103.355ZM109.123 163.126C108.003 163.126 107.121 162.524 107.121 161.166V156.49H106.085V155.86H107.121V153.578H107.807V155.86H110.313V156.49H107.807V161.096C107.807 162.118 108.395 162.482 109.235 162.482C109.585 162.482 109.879 162.412 110.285 162.23V162.874C109.907 163.042 109.571 163.126 109.123 163.126ZM112.349 163V152.78H113.035V157.19C113.525 156.35 114.309 155.692 115.611 155.692C117.417 155.692 118.467 156.91 118.467 158.632V163H117.781V158.758C117.781 157.288 116.969 156.322 115.513 156.322C114.113 156.322 113.035 157.372 113.035 158.87V163H112.349ZM128.142 162.244L130.718 155.86H131.474L128.38 163.252C127.75 164.75 127.022 165.282 126 165.282C125.454 165.282 125.076 165.184 124.586 164.974L124.824 164.372C125.202 164.554 125.496 164.638 126.042 164.638C126.798 164.638 127.274 164.204 127.806 162.958L124.376 155.86H125.174L128.142 162.244ZM136.103 163.168C133.989 163.168 132.449 161.46 132.449 159.458V159.43C132.449 157.428 134.003 155.692 136.131 155.692C138.245 155.692 139.785 157.4 139.785 159.402V159.43C139.785 161.432 138.231 163.168 136.103 163.168ZM136.131 162.524C137.825 162.524 139.043 161.138 139.043 159.458V159.43C139.043 157.694 137.755 156.336 136.103 156.336C134.409 156.336 133.191 157.722 133.191 159.402V159.43C133.191 161.166 134.479 162.524 136.131 162.524ZM144.61 163.168C142.804 163.168 141.754 161.95 141.754 160.228V155.86H142.44V160.102C142.44 161.572 143.252 162.538 144.708 162.538C146.108 162.538 147.186 161.488 147.186 159.99V155.86H147.872V163H147.186V161.67C146.696 162.51 145.912 163.168 144.61 163.168ZM150.48 163V155.86H151.166V157.89C151.74 156.602 152.902 155.706 154.33 155.748V156.504H154.26C152.622 156.504 151.166 157.764 151.166 160.074V163H150.48ZM162.452 163.168C161.122 163.168 159.694 162.426 159.694 160.928V160.9C159.694 159.402 160.968 158.576 162.816 158.576C163.824 158.576 164.496 158.702 165.182 158.884V158.576C165.182 157.12 164.3 156.392 162.83 156.392C161.948 156.392 161.248 156.63 160.59 156.966L160.338 156.364C161.122 155.986 161.878 155.748 162.872 155.748C163.852 155.748 164.608 156.014 165.126 156.532C165.616 157.022 165.854 157.694 165.854 158.548V163H165.182V161.81C164.692 162.482 163.81 163.168 162.452 163.168ZM162.494 162.524C163.95 162.524 165.196 161.628 165.196 160.326V159.514C164.594 159.36 163.796 159.192 162.774 159.192C161.262 159.192 160.422 159.85 160.422 160.858V160.886C160.422 161.922 161.402 162.524 162.494 162.524ZM171.038 163.168C169.232 163.168 168.182 161.95 168.182 160.228V155.86H168.868V160.102C168.868 161.572 169.68 162.538 171.136 162.538C172.536 162.538 173.614 161.488 173.614 159.99V155.86H174.3V163H173.614V161.67C173.124 162.51 172.34 163.168 171.038 163.168ZM179.917 163.168C178.195 163.168 176.445 161.782 176.445 159.458V159.43C176.445 157.12 178.195 155.692 179.917 155.692C181.345 155.692 182.255 156.504 182.857 157.4V152.78H183.543V163H182.857V161.404C182.227 162.342 181.345 163.168 179.917 163.168ZM179.987 162.51C181.485 162.51 182.899 161.264 182.899 159.444V159.416C182.899 157.582 181.485 156.35 179.987 156.35C178.419 156.35 177.187 157.498 177.187 159.402V159.43C177.187 161.306 178.475 162.51 179.987 162.51ZM186.164 153.998V153.06H187.018V153.998H186.164ZM186.248 163V155.86H186.934V163H186.248ZM192.646 163.168C190.77 163.168 189.146 161.684 189.146 159.444V159.416C189.146 157.358 190.602 155.692 192.534 155.692C194.536 155.692 195.81 157.316 195.81 159.43C195.81 159.556 195.81 159.598 195.796 159.71H189.874C189.986 161.488 191.288 162.524 192.674 162.524C193.794 162.524 194.522 162.034 195.124 161.404L195.6 161.824C194.872 162.608 194.004 163.168 192.646 163.168ZM189.874 159.094H195.068C194.956 157.652 194.144 156.322 192.506 156.322C191.092 156.322 189.986 157.512 189.874 159.094ZM197.812 163V155.86H198.498V157.19C198.988 156.35 199.772 155.692 201.074 155.692C202.88 155.692 203.93 156.91 203.93 158.632V163H203.244V158.758C203.244 157.288 202.432 156.322 200.976 156.322C199.576 156.322 198.498 157.372 198.498 158.87V163H197.812ZM209.548 163.168C207.49 163.168 205.908 161.46 205.908 159.458V159.43C205.908 157.428 207.49 155.692 209.548 155.692C210.892 155.692 211.732 156.294 212.404 157.008L211.914 157.512C211.298 156.882 210.598 156.336 209.534 156.336C207.91 156.336 206.65 157.68 206.65 159.402V159.43C206.65 161.166 207.966 162.524 209.59 162.524C210.598 162.524 211.382 162.006 211.984 161.334L212.46 161.754C211.732 162.58 210.85 163.168 209.548 163.168ZM217.201 163.168C215.325 163.168 213.701 161.684 213.701 159.444V159.416C213.701 157.358 215.157 155.692 217.089 155.692C219.091 155.692 220.365 157.316 220.365 159.43C220.365 159.556 220.365 159.598 220.351 159.71H214.429C214.541 161.488 215.843 162.524 217.229 162.524C218.349 162.524 219.077 162.034 219.679 161.404L220.155 161.824C219.427 162.608 218.559 163.168 217.201 163.168ZM214.429 159.094H219.623C219.511 157.652 218.699 156.322 217.061 156.322C215.647 156.322 214.541 157.512 214.429 159.094ZM222.076 163V161.81H223V163H222.076Z" fill="#F8F8F8"/>
<path d="M68.9354 29.2017H68.4608C69.3655 27.7289 69.0314 25.7515 67.5795 24.6743C66.015 23.5137 63.7919 23.8872 62.7001 25.5188L60.2356 29.2018H39.0644C37.3242 29.2018 35.9084 30.6176 35.9084 32.3578V52.535C35.9084 54.2752 37.3242 55.691 39.0644 55.691H51.3231L50.3968 59.5813H48.3977C47.0949 59.5813 46.0349 60.6412 46.0349 61.9441V62.4374H43.5705C43.139 62.4374 42.7892 62.7873 42.7892 63.2187C42.7892 63.6501 43.139 63.9999 43.5705 63.9999H64.4294C64.8609 63.9999 65.2106 63.6501 65.2106 63.2187C65.2106 62.7873 64.8609 62.4374 64.4294 62.4374H61.965V61.9441C61.965 60.6412 60.905 59.5813 59.6021 59.5813H57.603L56.6768 55.691H68.9355C70.6757 55.691 72.0914 54.2752 72.0914 52.535V48.0953V32.3577C72.0914 30.6175 70.6757 29.2017 68.9354 29.2017ZM57.7417 42.9358C56.5202 43.7908 54.2319 42.6286 52.0466 43.7947C51.5135 41.0248 51.8496 38.4198 54.625 37.8448C54.9836 37.77 55.3698 37.7362 55.6985 37.7428C56.6379 38.4397 57.588 39.1446 58.5247 39.8397C58.9348 41.0325 58.7809 42.2084 57.7417 42.9358ZM58.529 34.5619L60.7405 36.2026L59.0398 38.2761C58.3396 37.7567 57.7378 37.3101 57.0376 36.7906C57.183 36.5733 58.3961 34.7604 58.529 34.5619ZM63.9988 26.3877C64.5905 25.5033 65.7972 25.2975 66.6485 25.9292C67.5 26.5609 67.6525 27.7754 66.9778 28.5981C65.7805 30.0577 62.9342 33.528 61.7324 34.9932L59.3988 33.2618L63.9988 26.3877ZM60.4024 61.9441V62.4374H47.5974V61.9441C47.5974 61.5028 47.9564 61.1438 48.3977 61.1438H59.602C60.0434 61.1438 60.4024 61.5028 60.4024 61.9441ZM55.9968 59.5813H52.003L52.9292 55.691H55.0706L55.9968 59.5813ZM70.5289 52.535C70.5289 53.4137 69.8141 54.1285 68.9355 54.1285C67.6953 54.1285 40.4588 54.1285 39.0645 54.1285C38.1858 54.1285 37.471 53.4137 37.471 52.535V48.8765H39.7035C40.1349 48.8765 40.4847 48.5267 40.4847 48.0953C40.4847 47.6639 40.1349 47.3141 39.7035 47.3141H37.4708V32.3577C37.4708 31.479 38.1857 30.7642 39.0643 30.7642H59.1901C58.4417 31.8827 56.2582 35.1458 55.5666 36.1793C54.0356 36.1931 52.5071 36.7264 51.5065 37.8945C50.1449 39.484 49.9057 41.9814 50.7955 45.3174C50.9476 45.8879 51.6594 46.0923 52.0901 45.6809C54.1101 43.7507 56.626 45.8561 58.879 44.0326C60.2543 42.9193 60.5798 41.1495 60.0612 39.4945C60.7622 38.6398 66.5192 31.6209 67.2218 30.7642H68.9353C69.814 30.7642 70.5288 31.479 70.5288 32.3577V47.314H45.9532C45.5217 47.314 45.1719 47.6638 45.1719 48.0952C45.1719 48.5266 45.5217 48.8764 45.9532 48.8764H70.5289V52.535Z" fill="#F8F8F8"/>
<path d="M42.6774 47.3293C42.3013 47.4061 42.0493 47.7312 42.0493 48.0957C42.0493 48.5844 42.4961 48.9586 42.9829 48.8614C43.4155 48.7736 43.679 48.3567 43.5962 47.9426C43.5092 47.5153 43.0947 47.2453 42.6774 47.3293Z" fill="#F8F8F8"/>
</g>
<rect x="0.5" y="0.5" width="492" height="203" rx="19.5" stroke="#404040"/>
<defs>
<filter id="filter1_f_455_248" x="-56.2876" y="-89.9233" width="696.446" height="686.79" filterUnits="userSpaceOnUse" color-interpolation-filters="sRGB">
<feFlood flood-opacity="0" result="BackgroundImageFix"/>
<feBlend mode="normal" in="SourceGraphic" in2="BackgroundImageFix" result="shape"/>
<feGaussianBlur stdDeviation="125" result="effect1_foregroundBlur_455_248"/>
</filter>
<clipPath id="clip0_455_248">
<rect width="493" height="204" rx="20" fill="white"/>
</clipPath>
</defs>
</svg>
