<svg width="493" height="204" viewBox="0 0 493 204" fill="none" xmlns="http://www.w3.org/2000/svg">
<g clip-path="url(#clip0_455_253)">
<rect width="493" height="204" rx="20" fill="#1D1D1F" fill-opacity="0.5"/>
<g filter="url(#filter1_f_455_253)">
<ellipse cx="102.825" cy="88.2838" rx="102.825" ry="88.2838" transform="matrix(-0.816113 -0.577892 -0.577892 0.816113 426.871 240.844)" fill="#E800A1" fill-opacity="0.5"/>
</g>
<path d="M99.98 39V25H104.84C109.24 25 112.28 28.02 112.28 31.96V32C112.28 35.94 109.24 39 104.84 39H99.98ZM104.84 26.46H101.56V37.54H104.84C108.38 37.54 110.64 35.16 110.64 32.04V32C110.64 28.9 108.38 26.46 104.84 26.46ZM115.405 26.4V24.7H117.165V26.4H115.405ZM115.505 39V28.66H117.045V39H115.505ZM125.198 42.24C123.458 42.24 121.878 41.76 120.498 40.8L121.198 39.6C122.398 40.46 123.678 40.92 125.178 40.92C127.478 40.92 128.938 39.66 128.938 37.24V36.02C128.038 37.22 126.778 38.2 124.878 38.2C122.398 38.2 120.018 36.32 120.018 33.36V33.32C120.018 30.3 122.398 28.44 124.878 28.44C126.818 28.44 128.058 29.4 128.918 30.52V28.66H130.458V37.2C130.458 38.8 129.998 40 129.138 40.86C128.198 41.8 126.858 42.24 125.198 42.24ZM125.178 36.84C127.138 36.84 128.978 35.42 128.978 33.34V33.3C128.978 31.18 127.138 29.8 125.178 29.8C123.198 29.8 121.598 31.16 121.598 33.28V33.32C121.598 35.4 123.258 36.84 125.178 36.84ZM133.94 26.4V24.7H135.7V26.4H133.94ZM134.04 39V28.66H135.58V39H134.04ZM142.614 39.18C140.934 39.18 139.694 38.36 139.694 36.26V30.02H138.254V28.66H139.694V25.54H141.234V28.66H144.514V30.02H141.234V36.06C141.234 37.34 141.934 37.78 142.974 37.78C143.514 37.78 143.934 37.68 144.474 37.42V38.74C143.934 39.04 143.354 39.18 142.614 39.18ZM150.32 39.22C148.4 39.22 146.46 38.14 146.46 36V35.96C146.46 33.8 148.26 32.62 150.88 32.62C152.22 32.62 153.12 32.8 154.06 33.06V32.7C154.06 30.84 152.92 29.88 150.98 29.88C149.76 29.88 148.8 30.18 147.84 30.64L147.38 29.38C148.52 28.84 149.62 28.52 151.14 28.52C152.6 28.52 153.72 28.9 154.48 29.66C155.18 30.36 155.54 31.38 155.54 32.68V39H154.06V37.44C153.34 38.38 152.16 39.22 150.32 39.22ZM150.62 38C152.54 38 154.08 36.84 154.08 35.2V34.2C153.3 33.98 152.32 33.76 151.04 33.76C149.1 33.76 148.02 34.6 148.02 35.9V35.94C148.02 37.24 149.24 38 150.62 38ZM158.962 39V24.4H160.502V39H158.962ZM173.972 39V26.46H169.252V25H180.272V26.46H175.552V39H173.972ZM181.165 39V28.66H182.705V31.36C183.465 29.64 184.965 28.42 186.925 28.48V30.14H186.805C184.545 30.14 182.705 31.76 182.705 34.88V39H181.165ZM191.843 39.22C189.923 39.22 187.983 38.14 187.983 36V35.96C187.983 33.8 189.783 32.62 192.403 32.62C193.743 32.62 194.643 32.8 195.583 33.06V32.7C195.583 30.84 194.443 29.88 192.503 29.88C191.283 29.88 190.323 30.18 189.363 30.64L188.903 29.38C190.043 28.84 191.143 28.52 192.663 28.52C194.123 28.52 195.243 28.9 196.003 29.66C196.703 30.36 197.063 31.38 197.063 32.68V39H195.583V37.44C194.863 38.38 193.683 39.22 191.843 39.22ZM192.143 38C194.063 38 195.603 36.84 195.603 35.2V34.2C194.823 33.98 193.843 33.76 192.563 33.76C190.623 33.76 189.543 34.6 189.543 35.9V35.94C189.543 37.24 190.763 38 192.143 38ZM200.345 39V28.66H201.885V30.46C202.585 29.34 203.645 28.44 205.425 28.44C207.905 28.44 209.385 30.12 209.385 32.58V39H207.845V32.96C207.845 31.04 206.825 29.84 204.985 29.84C203.205 29.84 201.885 31.14 201.885 33.08V39H200.345ZM216.089 39.2C214.589 39.2 212.989 38.62 211.809 37.68L212.589 36.58C213.709 37.44 214.949 37.9 216.169 37.9C217.429 37.9 218.309 37.28 218.309 36.26V36.22C218.309 35.2 217.089 34.78 215.729 34.4C214.129 33.92 212.309 33.4 212.309 31.48V31.44C212.309 29.66 213.789 28.48 215.829 28.48C217.109 28.48 218.489 28.92 219.549 29.62L218.849 30.78C217.889 30.16 216.809 29.78 215.789 29.78C214.569 29.78 213.789 30.42 213.789 31.28V31.32C213.789 32.3 215.069 32.68 216.449 33.1C218.049 33.58 219.769 34.2 219.769 36.06V36.1C219.769 38.06 218.149 39.2 216.089 39.2ZM223.21 39V30.02H221.79V28.68H223.21V27.78C223.21 26.6 223.51 25.72 224.11 25.12C224.65 24.58 225.39 24.32 226.33 24.32C227.05 24.32 227.53 24.4 228.03 24.58V25.92C227.47 25.76 227.07 25.66 226.53 25.66C225.33 25.66 224.73 26.4 224.73 27.86V28.7H228.01V30.02H224.75V39H223.21ZM234.499 39.24C231.399 39.24 229.139 36.8 229.139 33.88V33.84C229.139 30.9 231.399 28.44 234.539 28.44C237.659 28.44 239.919 30.88 239.919 33.8V33.84C239.919 36.78 237.619 39.24 234.499 39.24ZM234.539 37.86C236.779 37.86 238.339 36.04 238.339 33.88V33.84C238.339 31.62 236.679 29.8 234.499 29.8C232.259 29.8 230.719 31.62 230.719 33.8V33.84C230.719 36.06 232.359 37.86 234.539 37.86ZM242.708 39V28.66H244.248V31.36C245.008 29.64 246.508 28.42 248.468 28.48V30.14H248.348C246.088 30.14 244.248 31.76 244.248 34.88V39H242.708ZM250.814 39V28.66H252.354V30.4C253.054 29.36 253.954 28.44 255.694 28.44C257.374 28.44 258.454 29.32 259.014 30.5C259.774 29.36 260.834 28.44 262.654 28.44C265.054 28.44 266.494 30.02 266.494 32.6V39H264.954V32.96C264.954 30.96 263.954 29.84 262.274 29.84C260.734 29.84 259.414 31 259.414 33.04V39H257.894V32.92C257.894 30.98 256.894 29.84 255.234 29.84C253.594 29.84 252.354 31.2 252.354 33.1V39H250.814ZM272.859 39.22C270.939 39.22 268.999 38.14 268.999 36V35.96C268.999 33.8 270.799 32.62 273.419 32.62C274.759 32.62 275.659 32.8 276.599 33.06V32.7C276.599 30.84 275.459 29.88 273.519 29.88C272.299 29.88 271.339 30.18 270.379 30.64L269.919 29.38C271.059 28.84 272.159 28.52 273.679 28.52C275.139 28.52 276.259 28.9 277.019 29.66C277.719 30.36 278.079 31.38 278.079 32.68V39H276.599V37.44C275.879 38.38 274.699 39.22 272.859 39.22ZM273.159 38C275.079 38 276.619 36.84 276.619 35.2V34.2C275.839 33.98 274.859 33.76 273.579 33.76C271.639 33.76 270.559 34.6 270.559 35.9V35.94C270.559 37.24 271.779 38 273.159 38ZM284.723 39.18C283.043 39.18 281.803 38.36 281.803 36.26V30.02H280.363V28.66H281.803V25.54H283.343V28.66H286.623V30.02H283.343V36.06C283.343 37.34 284.043 37.78 285.083 37.78C285.623 37.78 286.043 37.68 286.583 37.42V38.74C286.043 39.04 285.463 39.18 284.723 39.18ZM289.389 26.4V24.7H291.149V26.4H289.389ZM289.489 39V28.66H291.029V39H289.489ZM299.323 39.24C296.223 39.24 293.963 36.8 293.963 33.88V33.84C293.963 30.9 296.223 28.44 299.363 28.44C302.483 28.44 304.743 30.88 304.743 33.8V33.84C304.743 36.78 302.443 39.24 299.323 39.24ZM299.363 37.86C301.603 37.86 303.163 36.04 303.163 33.88V33.84C303.163 31.62 301.503 29.8 299.323 29.8C297.083 29.8 295.543 31.62 295.543 33.8V33.84C295.543 36.06 297.183 37.86 299.363 37.86ZM307.533 39V28.66H309.073V30.46C309.773 29.34 310.833 28.44 312.613 28.44C315.093 28.44 316.573 30.12 316.573 32.58V39H315.033V32.96C315.033 31.04 314.013 29.84 312.173 29.84C310.393 29.84 309.073 31.14 309.073 33.08V39H307.533ZM332.513 39.24C328.473 39.24 325.493 36.06 325.493 32.04V32C325.493 28.04 328.473 24.76 332.573 24.76C335.113 24.76 336.653 25.64 338.033 26.98L336.953 28.14C335.753 27.02 334.473 26.22 332.553 26.22C329.453 26.22 327.133 28.74 327.133 31.96V32C327.133 35.24 329.453 37.78 332.553 37.78C334.473 37.78 335.733 37.04 337.073 35.76L338.113 36.78C336.673 38.26 335.033 39.24 332.513 39.24ZM345.221 39.24C342.121 39.24 339.861 36.8 339.861 33.88V33.84C339.861 30.9 342.121 28.44 345.261 28.44C348.381 28.44 350.641 30.88 350.641 33.8V33.84C350.641 36.78 348.341 39.24 345.221 39.24ZM345.261 37.86C347.501 37.86 349.061 36.04 349.061 33.88V33.84C349.061 31.62 347.401 29.8 345.221 29.8C342.981 29.8 341.441 31.62 341.441 33.8V33.84C341.441 36.06 343.081 37.86 345.261 37.86ZM353.431 39V28.66H354.971V30.46C355.671 29.34 356.731 28.44 358.511 28.44C360.991 28.44 362.471 30.12 362.471 32.58V39H360.931V32.96C360.931 31.04 359.911 29.84 358.071 29.84C356.291 29.84 354.971 31.14 354.971 33.08V39H353.431ZM369.175 39.2C367.675 39.2 366.075 38.62 364.895 37.68L365.675 36.58C366.795 37.44 368.035 37.9 369.255 37.9C370.515 37.9 371.395 37.28 371.395 36.26V36.22C371.395 35.2 370.175 34.78 368.815 34.4C367.215 33.92 365.395 33.4 365.395 31.48V31.44C365.395 29.66 366.875 28.48 368.915 28.48C370.195 28.48 371.575 28.92 372.635 29.62L371.935 30.78C370.975 30.16 369.895 29.78 368.875 29.78C367.655 29.78 366.875 30.42 366.875 31.28V31.32C366.875 32.3 368.155 32.68 369.535 33.1C371.135 33.58 372.855 34.2 372.855 36.06V36.1C372.855 38.06 371.235 39.2 369.175 39.2ZM379.516 39.22C377.036 39.22 375.556 37.54 375.556 35.08V28.66H377.096V34.7C377.096 36.62 378.116 37.82 379.956 37.82C381.716 37.82 383.056 36.52 383.056 34.58V28.66H384.576V39H383.056V37.2C382.356 38.32 381.296 39.22 379.516 39.22ZM388.18 39V24.4H389.72V39H388.18ZM396.754 39.18C395.074 39.18 393.834 38.36 393.834 36.26V30.02H392.394V28.66H393.834V25.54H395.374V28.66H398.654V30.02H395.374V36.06C395.374 37.34 396.074 37.78 397.114 37.78C397.654 37.78 398.074 37.68 398.614 37.42V38.74C398.074 39.04 397.494 39.18 396.754 39.18ZM404.46 39.22C402.54 39.22 400.6 38.14 400.6 36V35.96C400.6 33.8 402.4 32.62 405.02 32.62C406.36 32.62 407.26 32.8 408.2 33.06V32.7C408.2 30.84 407.06 29.88 405.12 29.88C403.9 29.88 402.94 30.18 401.98 30.64L401.52 29.38C402.66 28.84 403.76 28.52 405.28 28.52C406.74 28.52 407.86 28.9 408.62 29.66C409.32 30.36 409.68 31.38 409.68 32.68V39H408.2V37.44C407.48 38.38 406.3 39.22 404.46 39.22ZM404.76 38C406.68 38 408.22 36.84 408.22 35.2V34.2C407.44 33.98 406.46 33.76 405.18 33.76C403.24 33.76 402.16 34.6 402.16 35.9V35.94C402.16 37.24 403.38 38 404.76 38ZM412.962 39V28.66H414.502V30.46C415.202 29.34 416.262 28.44 418.042 28.44C420.522 28.44 422.002 30.12 422.002 32.58V39H420.462V32.96C420.462 31.04 419.442 29.84 417.602 29.84C415.822 29.84 414.502 31.14 414.502 33.08V39H412.962ZM429.946 39.24C426.906 39.24 424.646 36.78 424.646 33.88V33.84C424.646 30.9 426.906 28.44 429.946 28.44C431.906 28.44 433.106 29.24 434.086 30.28L433.066 31.36C432.246 30.5 431.346 29.8 429.926 29.8C427.826 29.8 426.226 31.56 426.226 33.8V33.84C426.226 36.08 427.866 37.86 430.026 37.86C431.366 37.86 432.366 37.2 433.186 36.32L434.166 37.24C433.126 38.42 431.886 39.24 429.946 39.24ZM441.035 37.28L444.355 28.66H445.995L441.655 39.34C440.775 41.48 439.755 42.26 438.215 42.26C437.355 42.26 436.715 42.08 436.015 41.74L436.535 40.52C437.035 40.78 437.495 40.9 438.155 40.9C439.095 40.9 439.655 40.42 440.275 38.96L435.575 28.66H437.275L441.035 37.28ZM110.08 63.28L107.88 61.02C106.6 62.4 105.14 63.2 103.3 63.2C100.78 63.2 98.9 61.62 98.9 59.28V59.24C98.9 57.38 100.12 56.06 102.28 55.2C101.32 54.08 100.88 53.24 100.88 52.12V52.08C100.88 50.24 102.36 48.76 104.58 48.76C106.54 48.76 107.98 50.18 107.98 51.92V51.96C107.98 53.74 106.74 54.88 104.68 55.6L107.88 58.86C108.5 57.96 109.06 56.92 109.56 55.74L110.86 56.34C110.24 57.68 109.62 58.84 108.84 59.86L111.28 62.36L110.08 63.28ZM103.8 54.7C105.58 54.08 106.5 53.24 106.5 52.04V52C106.5 50.88 105.66 50.06 104.52 50.06C103.24 50.06 102.4 50.94 102.4 52.08V52.12C102.4 52.94 102.74 53.58 103.8 54.7ZM103.42 61.86C104.76 61.86 105.9 61.16 106.92 60.04L103.18 56.18C101.32 56.88 100.5 57.98 100.5 59.18V59.22C100.5 60.72 101.7 61.86 103.42 61.86ZM120.042 63V49H121.622V63H120.042ZM125.462 63V52.66H127.002V54.4C127.702 53.36 128.602 52.44 130.342 52.44C132.022 52.44 133.102 53.32 133.662 54.5C134.422 53.36 135.482 52.44 137.302 52.44C139.702 52.44 141.142 54.02 141.142 56.6V63H139.602V56.96C139.602 54.96 138.602 53.84 136.922 53.84C135.382 53.84 134.062 55 134.062 57.04V63H132.542V56.92C132.542 54.98 131.542 53.84 129.882 53.84C128.242 53.84 127.002 55.2 127.002 57.1V63H125.462ZM144.427 66.2V52.66H145.967V54.74C146.827 53.52 148.007 52.44 149.927 52.44C152.407 52.44 154.867 54.4 154.867 57.8V57.84C154.867 61.2 152.427 63.22 149.927 63.22C148.007 63.22 146.767 62.2 145.967 61.02V66.2H144.427ZM149.647 61.84C151.647 61.84 153.287 60.36 153.287 57.86V57.82C153.287 55.36 151.627 53.82 149.647 53.82C147.727 53.82 145.907 55.46 145.907 57.8V57.84C145.907 60.24 147.727 61.84 149.647 61.84ZM157.848 63V48.4H159.388V63H157.848ZM167.482 63.24C164.662 63.24 162.322 61.06 162.322 57.86V57.82C162.322 54.84 164.402 52.44 167.282 52.44C170.342 52.44 172.102 54.88 172.102 57.9C172.102 58.12 172.102 58.22 172.082 58.4H163.882C164.102 60.64 165.682 61.9 167.522 61.9C168.962 61.9 169.922 61.32 170.782 60.44L171.742 61.3C170.702 62.48 169.462 63.24 167.482 63.24ZM163.882 57.26H170.542C170.382 55.4 169.322 53.74 167.242 53.74C165.422 53.74 164.102 55.26 163.882 57.26ZM174.798 63V52.66H176.338V54.4C177.038 53.36 177.938 52.44 179.678 52.44C181.358 52.44 182.438 53.32 182.998 54.5C183.758 53.36 184.818 52.44 186.638 52.44C189.038 52.44 190.478 54.02 190.478 56.6V63H188.938V56.96C188.938 54.96 187.938 53.84 186.258 53.84C184.718 53.84 183.398 55 183.398 57.04V63H181.878V56.92C181.878 54.98 180.878 53.84 179.218 53.84C177.578 53.84 176.338 55.2 176.338 57.1V63H174.798ZM198.283 63.24C195.463 63.24 193.123 61.06 193.123 57.86V57.82C193.123 54.84 195.203 52.44 198.083 52.44C201.143 52.44 202.903 54.88 202.903 57.9C202.903 58.12 202.903 58.22 202.883 58.4H194.683C194.903 60.64 196.483 61.9 198.323 61.9C199.763 61.9 200.723 61.32 201.583 60.44L202.543 61.3C201.503 62.48 200.263 63.24 198.283 63.24ZM194.683 57.26H201.343C201.183 55.4 200.123 53.74 198.043 53.74C196.223 53.74 194.903 55.26 194.683 57.26ZM205.599 63V52.66H207.139V54.46C207.839 53.34 208.899 52.44 210.679 52.44C213.159 52.44 214.639 54.12 214.639 56.58V63H213.099V56.96C213.099 55.04 212.079 53.84 210.239 53.84C208.459 53.84 207.139 55.14 207.139 57.08V63H205.599ZM221.383 63.18C219.703 63.18 218.463 62.36 218.463 60.26V54.02H217.023V52.66H218.463V49.54H220.003V52.66H223.283V54.02H220.003V60.06C220.003 61.34 220.703 61.78 221.743 61.78C222.283 61.78 222.703 61.68 223.243 61.42V62.74C222.703 63.04 222.123 63.18 221.383 63.18ZM229.089 63.22C227.169 63.22 225.229 62.14 225.229 60V59.96C225.229 57.8 227.029 56.62 229.649 56.62C230.989 56.62 231.889 56.8 232.829 57.06V56.7C232.829 54.84 231.689 53.88 229.749 53.88C228.529 53.88 227.569 54.18 226.609 54.64L226.149 53.38C227.289 52.84 228.389 52.52 229.909 52.52C231.369 52.52 232.489 52.9 233.249 53.66C233.949 54.36 234.309 55.38 234.309 56.68V63H232.829V61.44C232.109 62.38 230.929 63.22 229.089 63.22ZM229.389 62C231.309 62 232.849 60.84 232.849 59.2V58.2C232.069 57.98 231.089 57.76 229.809 57.76C227.869 57.76 226.789 58.6 226.789 59.9V59.94C226.789 61.24 228.009 62 229.389 62ZM240.953 63.18C239.273 63.18 238.033 62.36 238.033 60.26V54.02H236.593V52.66H238.033V49.54H239.573V52.66H242.853V54.02H239.573V60.06C239.573 61.34 240.273 61.78 241.313 61.78C241.853 61.78 242.273 61.68 242.813 61.42V62.74C242.273 63.04 241.693 63.18 240.953 63.18ZM245.619 50.4V48.7H247.379V50.4H245.619ZM245.719 63V52.66H247.259V63H245.719ZM255.553 63.24C252.453 63.24 250.193 60.8 250.193 57.88V57.84C250.193 54.9 252.453 52.44 255.593 52.44C258.713 52.44 260.973 54.88 260.973 57.8V57.84C260.973 60.78 258.673 63.24 255.553 63.24ZM255.593 61.86C257.833 61.86 259.393 60.04 259.393 57.88V57.84C259.393 55.62 257.733 53.8 255.553 53.8C253.313 53.8 251.773 55.62 251.773 57.8V57.84C251.773 60.06 253.413 61.86 255.593 61.86ZM263.763 63V52.66H265.303V54.46C266.003 53.34 267.063 52.44 268.843 52.44C271.323 52.44 272.803 54.12 272.803 56.58V63H271.263V56.96C271.263 55.04 270.243 53.84 268.403 53.84C266.623 53.84 265.303 55.14 265.303 57.08V63H263.763Z" fill="#E800A1"/>
<path d="M34.256 103.07L30.7 93.2H31.512L34.592 101.922L37.462 93.172H38.022L40.892 101.922L43.972 93.2H44.728L41.172 103.07H40.584L37.714 94.558L34.844 103.07H34.256ZM48.8179 103.168C46.9419 103.168 45.3179 101.684 45.3179 99.444V99.416C45.3179 97.358 46.7739 95.692 48.7059 95.692C50.7079 95.692 51.9819 97.316 51.9819 99.43C51.9819 99.556 51.9819 99.598 51.9679 99.71H46.0459C46.1579 101.488 47.4599 102.524 48.8459 102.524C49.9659 102.524 50.6939 102.034 51.2959 101.404L51.7719 101.824C51.0439 102.608 50.1759 103.168 48.8179 103.168ZM46.0459 99.094H51.2399C51.1279 97.652 50.3159 96.322 48.6779 96.322C47.2639 96.322 46.1579 97.512 46.0459 99.094ZM65.3024 105.268C64.0984 105.268 63.0064 104.904 62.0264 104.176L62.4324 103.616C63.3004 104.288 64.2664 104.624 65.3164 104.624C66.9404 104.624 68.1164 103.686 68.1164 101.852V100.816C67.4864 101.698 66.5624 102.468 65.1344 102.468C63.4124 102.468 61.7044 101.152 61.7044 99.108V99.08C61.7044 97.008 63.4124 95.692 65.1344 95.692C66.5764 95.692 67.5144 96.448 68.1164 97.288V95.86H68.8024V101.894C68.8024 102.944 68.4664 103.742 67.8924 104.316C67.2764 104.932 66.3664 105.268 65.3024 105.268ZM65.2044 101.81C66.7024 101.81 68.1584 100.718 68.1584 99.094V99.066C68.1584 97.414 66.7024 96.35 65.2044 96.35C63.6924 96.35 62.4464 97.386 62.4464 99.052V99.08C62.4464 100.69 63.7344 101.81 65.2044 101.81ZM74.1246 103.168C72.3186 103.168 71.2686 101.95 71.2686 100.228V95.86H71.9546V100.102C71.9546 101.572 72.7666 102.538 74.2226 102.538C75.6226 102.538 76.7006 101.488 76.7006 99.99V95.86H77.3866V103H76.7006V101.67C76.2106 102.51 75.4266 103.168 74.1246 103.168ZM80.0085 93.998V93.06H80.8625V93.998H80.0085ZM80.0925 103V95.86H80.7785V103H80.0925ZM86.4909 103.168C84.7689 103.168 83.0189 101.782 83.0189 99.458V99.43C83.0189 97.12 84.7689 95.692 86.4909 95.692C87.9189 95.692 88.8289 96.504 89.4309 97.4V92.78H90.1169V103H89.4309V101.404C88.8009 102.342 87.9189 103.168 86.4909 103.168ZM86.5609 102.51C88.0589 102.51 89.4729 101.264 89.4729 99.444V99.416C89.4729 97.582 88.0589 96.35 86.5609 96.35C84.9929 96.35 83.7609 97.498 83.7609 99.402V99.43C83.7609 101.306 85.0489 102.51 86.5609 102.51ZM95.733 103.168C93.857 103.168 92.233 101.684 92.233 99.444V99.416C92.233 97.358 93.689 95.692 95.621 95.692C97.623 95.692 98.897 97.316 98.897 99.43C98.897 99.556 98.897 99.598 98.883 99.71H92.961C93.073 101.488 94.375 102.524 95.761 102.524C96.881 102.524 97.609 102.034 98.211 101.404L98.687 101.824C97.959 102.608 97.091 103.168 95.733 103.168ZM92.961 99.094H98.155C98.043 97.652 97.231 96.322 95.593 96.322C94.179 96.322 93.073 97.512 92.961 99.094ZM112.708 103.168C111.28 103.168 110.37 102.356 109.768 101.46V103H109.082V92.78H109.768V97.456C110.37 96.518 111.294 95.692 112.708 95.692C114.43 95.692 116.18 97.078 116.18 99.402V99.43C116.18 101.74 114.43 103.168 112.708 103.168ZM112.638 102.51C114.206 102.51 115.438 101.362 115.438 99.458V99.43C115.438 97.554 114.15 96.35 112.638 96.35C111.14 96.35 109.726 97.596 109.726 99.416V99.444C109.726 101.278 111.14 102.51 112.638 102.51ZM121.04 103.168C119.234 103.168 118.184 101.95 118.184 100.228V95.86H118.87V100.102C118.87 101.572 119.682 102.538 121.138 102.538C122.538 102.538 123.616 101.488 123.616 99.99V95.86H124.302V103H123.616V101.67C123.126 102.51 122.342 103.168 121.04 103.168ZM129.22 103.14C128.17 103.14 127.064 102.72 126.294 102.104L126.7 101.558C127.484 102.16 128.352 102.496 129.262 102.496C130.228 102.496 130.984 101.978 130.984 101.138V101.11C130.984 100.27 130.088 99.976 129.094 99.682C127.918 99.346 126.644 99.01 126.644 97.722V97.694C126.644 96.546 127.61 95.72 128.996 95.72C129.85 95.72 130.816 96.014 131.53 96.504L131.166 97.078C130.508 96.644 129.738 96.364 128.968 96.364C127.974 96.364 127.344 96.896 127.344 97.61V97.638C127.344 98.436 128.31 98.716 129.332 99.024C130.48 99.36 131.684 99.766 131.684 101.026V101.054C131.684 102.328 130.606 103.14 129.22 103.14ZM133.883 93.998V93.06H134.737V93.998H133.883ZM133.967 103V95.86H134.653V103H133.967ZM137.355 103V95.86H138.041V97.19C138.531 96.35 139.315 95.692 140.617 95.692C142.423 95.692 143.473 96.91 143.473 98.632V103H142.787V98.758C142.787 97.288 141.975 96.322 140.519 96.322C139.119 96.322 138.041 97.372 138.041 98.87V103H137.355ZM148.951 103.168C147.075 103.168 145.451 101.684 145.451 99.444V99.416C145.451 97.358 146.907 95.692 148.839 95.692C150.841 95.692 152.115 97.316 152.115 99.43C152.115 99.556 152.115 99.598 152.101 99.71H146.179C146.291 101.488 147.593 102.524 148.979 102.524C150.099 102.524 150.827 102.034 151.429 101.404L151.905 101.824C151.177 102.608 150.309 103.168 148.951 103.168ZM146.179 99.094H151.373C151.261 97.652 150.449 96.322 148.811 96.322C147.397 96.322 146.291 97.512 146.179 99.094ZM156.427 103.14C155.377 103.14 154.271 102.72 153.501 102.104L153.907 101.558C154.691 102.16 155.559 102.496 156.469 102.496C157.435 102.496 158.191 101.978 158.191 101.138V101.11C158.191 100.27 157.295 99.976 156.301 99.682C155.125 99.346 153.851 99.01 153.851 97.722V97.694C153.851 96.546 154.817 95.72 156.203 95.72C157.057 95.72 158.023 96.014 158.737 96.504L158.373 97.078C157.715 96.644 156.945 96.364 156.175 96.364C155.181 96.364 154.551 96.896 154.551 97.61V97.638C154.551 98.436 155.517 98.716 156.539 99.024C157.687 99.36 158.891 99.766 158.891 101.026V101.054C158.891 102.328 157.813 103.14 156.427 103.14ZM163.249 103.14C162.199 103.14 161.093 102.72 160.323 102.104L160.729 101.558C161.513 102.16 162.381 102.496 163.291 102.496C164.257 102.496 165.013 101.978 165.013 101.138V101.11C165.013 100.27 164.117 99.976 163.123 99.682C161.947 99.346 160.673 99.01 160.673 97.722V97.694C160.673 96.546 161.639 95.72 163.025 95.72C163.879 95.72 164.845 96.014 165.559 96.504L165.195 97.078C164.537 96.644 163.767 96.364 162.997 96.364C162.003 96.364 161.373 96.896 161.373 97.61V97.638C161.373 98.436 162.339 98.716 163.361 99.024C164.509 99.36 165.713 99.766 165.713 101.026V101.054C165.713 102.328 164.635 103.14 163.249 103.14ZM170.908 103.168C169.032 103.168 167.408 101.684 167.408 99.444V99.416C167.408 97.358 168.864 95.692 170.796 95.692C172.798 95.692 174.072 97.316 174.072 99.43C174.072 99.556 174.072 99.598 174.058 99.71H168.136C168.248 101.488 169.55 102.524 170.936 102.524C172.056 102.524 172.784 102.034 173.386 101.404L173.862 101.824C173.134 102.608 172.266 103.168 170.908 103.168ZM168.136 99.094H173.33C173.218 97.652 172.406 96.322 170.768 96.322C169.354 96.322 168.248 97.512 168.136 99.094ZM178.384 103.14C177.334 103.14 176.228 102.72 175.458 102.104L175.864 101.558C176.648 102.16 177.516 102.496 178.426 102.496C179.392 102.496 180.148 101.978 180.148 101.138V101.11C180.148 100.27 179.252 99.976 178.258 99.682C177.082 99.346 175.808 99.01 175.808 97.722V97.694C175.808 96.546 176.774 95.72 178.16 95.72C179.014 95.72 179.98 96.014 180.694 96.504L180.33 97.078C179.672 96.644 178.902 96.364 178.132 96.364C177.138 96.364 176.508 96.896 176.508 97.61V97.638C176.508 98.436 177.474 98.716 178.496 99.024C179.644 99.36 180.848 99.766 180.848 101.026V101.054C180.848 102.328 179.77 103.14 178.384 103.14ZM193.595 103.126C192.475 103.126 191.593 102.524 191.593 101.166V96.49H190.557V95.86H191.593V93.578H192.279V95.86H194.785V96.49H192.279V101.096C192.279 102.118 192.867 102.482 193.707 102.482C194.057 102.482 194.351 102.412 194.757 102.23V102.874C194.379 103.042 194.043 103.126 193.595 103.126ZM196.821 103V92.78H197.507V97.19C197.997 96.35 198.781 95.692 200.083 95.692C201.889 95.692 202.939 96.91 202.939 98.632V103H202.253V98.758C202.253 97.288 201.441 96.322 199.985 96.322C198.585 96.322 197.507 97.372 197.507 98.87V103H196.821ZM205.407 103V95.86H206.093V97.89C206.667 96.602 207.829 95.706 209.257 95.748V96.504H209.187C207.549 96.504 206.093 97.764 206.093 100.074V103H205.407ZM213.821 103.168C211.707 103.168 210.167 101.46 210.167 99.458V99.43C210.167 97.428 211.721 95.692 213.849 95.692C215.963 95.692 217.503 97.4 217.503 99.402V99.43C217.503 101.432 215.949 103.168 213.821 103.168ZM213.849 102.524C215.543 102.524 216.761 101.138 216.761 99.458V99.43C216.761 97.694 215.473 96.336 213.821 96.336C212.127 96.336 210.909 97.722 210.909 99.402V99.43C210.909 101.166 212.197 102.524 213.849 102.524ZM222.328 103.168C220.522 103.168 219.472 101.95 219.472 100.228V95.86H220.158V100.102C220.158 101.572 220.97 102.538 222.426 102.538C223.826 102.538 224.904 101.488 224.904 99.99V95.86H225.59V103H224.904V101.67C224.414 102.51 223.63 103.168 222.328 103.168ZM231.334 105.268C230.13 105.268 229.038 104.904 228.058 104.176L228.464 103.616C229.332 104.288 230.298 104.624 231.348 104.624C232.972 104.624 234.148 103.686 234.148 101.852V100.816C233.518 101.698 232.594 102.468 231.166 102.468C229.444 102.468 227.736 101.152 227.736 99.108V99.08C227.736 97.008 229.444 95.692 231.166 95.692C232.608 95.692 233.546 96.448 234.148 97.288V95.86H234.834V101.894C234.834 102.944 234.498 103.742 233.924 104.316C233.308 104.932 232.398 105.268 231.334 105.268ZM231.236 101.81C232.734 101.81 234.19 100.718 234.19 99.094V99.066C234.19 97.414 232.734 96.35 231.236 96.35C229.724 96.35 228.478 97.386 228.478 99.052V99.08C228.478 100.69 229.766 101.81 231.236 101.81ZM237.44 103V92.78H238.126V97.19C238.616 96.35 239.4 95.692 240.702 95.692C242.508 95.692 243.558 96.91 243.558 98.632V103H242.872V98.758C242.872 97.288 242.06 96.322 240.604 96.322C239.204 96.322 238.126 97.372 238.126 98.87V103H237.44ZM256.589 103.126C255.469 103.126 254.587 102.524 254.587 101.166V96.49H253.551V95.86H254.587V93.578H255.273V95.86H257.779V96.49H255.273V101.096C255.273 102.118 255.861 102.482 256.701 102.482C257.051 102.482 257.345 102.412 257.751 102.23V102.874C257.373 103.042 257.037 103.126 256.589 103.126ZM259.814 103V92.78H260.5V97.19C260.99 96.35 261.774 95.692 263.076 95.692C264.882 95.692 265.932 96.91 265.932 98.632V103H265.246V98.758C265.246 97.288 264.434 96.322 262.978 96.322C261.578 96.322 260.5 97.372 260.5 98.87V103H259.814ZM271.41 103.168C269.534 103.168 267.91 101.684 267.91 99.444V99.416C267.91 97.358 269.366 95.692 271.298 95.692C273.3 95.692 274.574 97.316 274.574 99.43C274.574 99.556 274.574 99.598 274.56 99.71H268.638C268.75 101.488 270.052 102.524 271.438 102.524C272.558 102.524 273.286 102.034 273.888 101.404L274.364 101.824C273.636 102.608 272.768 103.168 271.41 103.168ZM268.638 99.094H273.832C273.72 97.652 272.908 96.322 271.27 96.322C269.856 96.322 268.75 97.512 268.638 99.094ZM287.769 103.168C286.047 103.168 284.297 101.782 284.297 99.458V99.43C284.297 97.12 286.047 95.692 287.769 95.692C289.197 95.692 290.107 96.504 290.709 97.4V92.78H291.395V103H290.709V101.404C290.079 102.342 289.197 103.168 287.769 103.168ZM287.839 102.51C289.337 102.51 290.751 101.264 290.751 99.444V99.416C290.751 97.582 289.337 96.35 287.839 96.35C286.271 96.35 285.039 97.498 285.039 99.402V99.43C285.039 101.306 286.327 102.51 287.839 102.51ZM294.015 93.998V93.06H294.869V93.998H294.015ZM294.099 103V95.86H294.785V103H294.099ZM300.623 105.268C299.419 105.268 298.327 104.904 297.347 104.176L297.753 103.616C298.621 104.288 299.587 104.624 300.637 104.624C302.261 104.624 303.437 103.686 303.437 101.852V100.816C302.807 101.698 301.883 102.468 300.455 102.468C298.733 102.468 297.025 101.152 297.025 99.108V99.08C297.025 97.008 298.733 95.692 300.455 95.692C301.897 95.692 302.835 96.448 303.437 97.288V95.86H304.123V101.894C304.123 102.944 303.787 103.742 303.213 104.316C302.597 104.932 301.687 105.268 300.623 105.268ZM300.525 101.81C302.023 101.81 303.479 100.718 303.479 99.094V99.066C303.479 97.414 302.023 96.35 300.525 96.35C299.013 96.35 297.767 97.386 297.767 99.052V99.08C297.767 100.69 299.055 101.81 300.525 101.81ZM306.743 93.998V93.06H307.597V93.998H306.743ZM306.827 103V95.86H307.513V103H306.827ZM312.596 103.126C311.476 103.126 310.594 102.524 310.594 101.166V96.49H309.558V95.86H310.594V93.578H311.28V95.86H313.786V96.49H311.28V101.096C311.28 102.118 311.868 102.482 312.708 102.482C313.058 102.482 313.352 102.412 313.758 102.23V102.874C313.38 103.042 313.044 103.126 312.596 103.126ZM317.991 103.168C316.661 103.168 315.233 102.426 315.233 100.928V100.9C315.233 99.402 316.507 98.576 318.355 98.576C319.363 98.576 320.035 98.702 320.721 98.884V98.576C320.721 97.12 319.839 96.392 318.369 96.392C317.487 96.392 316.787 96.63 316.129 96.966L315.877 96.364C316.661 95.986 317.417 95.748 318.411 95.748C319.391 95.748 320.147 96.014 320.665 96.532C321.155 97.022 321.393 97.694 321.393 98.548V103H320.721V101.81C320.231 102.482 319.349 103.168 317.991 103.168ZM318.033 102.524C319.489 102.524 320.735 101.628 320.735 100.326V99.514C320.133 99.36 319.335 99.192 318.313 99.192C316.801 99.192 315.961 99.85 315.961 100.858V100.886C315.961 101.922 316.941 102.524 318.033 102.524ZM323.958 103V92.78H324.644V103H323.958ZM337.909 103.126C336.789 103.126 335.907 102.524 335.907 101.166V96.49H334.871V95.86H335.907V93.578H336.593V95.86H339.099V96.49H336.593V101.096C336.593 102.118 337.181 102.482 338.021 102.482C338.371 102.482 338.665 102.412 339.071 102.23V102.874C338.693 103.042 338.357 103.126 337.909 103.126ZM341.135 103V95.86H341.821V97.89C342.395 96.602 343.557 95.706 344.985 95.748V96.504H344.915C343.277 96.504 341.821 97.764 341.821 100.074V103H341.135ZM348.555 103.168C347.225 103.168 345.797 102.426 345.797 100.928V100.9C345.797 99.402 347.071 98.576 348.919 98.576C349.927 98.576 350.599 98.702 351.285 98.884V98.576C351.285 97.12 350.403 96.392 348.933 96.392C348.051 96.392 347.351 96.63 346.693 96.966L346.441 96.364C347.225 95.986 347.981 95.748 348.975 95.748C349.955 95.748 350.711 96.014 351.229 96.532C351.719 97.022 351.957 97.694 351.957 98.548V103H351.285V101.81C350.795 102.482 349.913 103.168 348.555 103.168ZM348.597 102.524C350.053 102.524 351.299 101.628 351.299 100.326V99.514C350.697 99.36 349.899 99.192 348.877 99.192C347.365 99.192 346.525 99.85 346.525 100.858V100.886C346.525 101.922 347.505 102.524 348.597 102.524ZM354.424 103V95.86H355.11V97.19C355.6 96.35 356.384 95.692 357.686 95.692C359.492 95.692 360.542 96.91 360.542 98.632V103H359.856V98.758C359.856 97.288 359.044 96.322 357.588 96.322C356.188 96.322 355.11 97.372 355.11 98.87V103H354.424ZM365.32 103.14C364.27 103.14 363.164 102.72 362.394 102.104L362.8 101.558C363.584 102.16 364.452 102.496 365.362 102.496C366.328 102.496 367.084 101.978 367.084 101.138V101.11C367.084 100.27 366.188 99.976 365.194 99.682C364.018 99.346 362.744 99.01 362.744 97.722V97.694C362.744 96.546 363.71 95.72 365.096 95.72C365.95 95.72 366.916 96.014 367.63 96.504L367.266 97.078C366.608 96.644 365.838 96.364 365.068 96.364C364.074 96.364 363.444 96.896 363.444 97.61V97.638C363.444 98.436 364.41 98.716 365.432 99.024C366.58 99.36 367.784 99.766 367.784 101.026V101.054C367.784 102.328 366.706 103.14 365.32 103.14ZM369.983 93.998V93.06H370.837V93.998H369.983ZM370.067 103V95.86H370.753V103H370.067ZM375.835 103.126C374.715 103.126 373.833 102.524 373.833 101.166V96.49H372.797V95.86H373.833V93.578H374.519V95.86H377.025V96.49H374.519V101.096C374.519 102.118 375.107 102.482 375.947 102.482C376.297 102.482 376.591 102.412 376.997 102.23V102.874C376.619 103.042 376.283 103.126 375.835 103.126ZM379.075 93.998V93.06H379.929V93.998H379.075ZM379.159 103V95.86H379.845V103H379.159ZM385.711 103.168C383.597 103.168 382.057 101.46 382.057 99.458V99.43C382.057 97.428 383.611 95.692 385.739 95.692C387.853 95.692 389.393 97.4 389.393 99.402V99.43C389.393 101.432 387.839 103.168 385.711 103.168ZM385.739 102.524C387.433 102.524 388.651 101.138 388.651 99.458V99.43C388.651 97.694 387.363 96.336 385.711 96.336C384.017 96.336 382.799 97.722 382.799 99.402V99.43C382.799 101.166 384.087 102.524 385.739 102.524ZM391.502 103V95.86H392.188V97.19C392.678 96.35 393.462 95.692 394.764 95.692C396.57 95.692 397.62 96.91 397.62 98.632V103H396.934V98.758C396.934 97.288 396.122 96.322 394.666 96.322C393.266 96.322 392.188 97.372 392.188 98.87V103H391.502ZM399.696 104.498L399.528 104.148C400.13 103.826 400.354 103.546 400.312 103H399.934V101.81H400.858V102.846C400.858 103.728 400.536 104.176 399.696 104.498ZM411.497 103V92.78H412.183V97.19C412.673 96.35 413.457 95.692 414.759 95.692C416.565 95.692 417.615 96.91 417.615 98.632V103H416.929V98.758C416.929 97.288 416.117 96.322 414.661 96.322C413.261 96.322 412.183 97.372 412.183 98.87V103H411.497ZM423.093 103.168C421.217 103.168 419.593 101.684 419.593 99.444V99.416C419.593 97.358 421.049 95.692 422.981 95.692C424.983 95.692 426.257 97.316 426.257 99.43C426.257 99.556 426.257 99.598 426.243 99.71H420.321C420.433 101.488 421.735 102.524 423.121 102.524C424.241 102.524 424.969 102.034 425.571 101.404L426.047 101.824C425.319 102.608 424.451 103.168 423.093 103.168ZM420.321 99.094H425.515C425.403 97.652 424.591 96.322 422.953 96.322C421.539 96.322 420.433 97.512 420.321 99.094ZM428.357 103V92.78H429.043V103H428.357ZM431.745 105.24V95.86H432.431V97.456C433.033 96.518 433.957 95.692 435.371 95.692C437.093 95.692 438.843 97.078 438.843 99.402V99.43C438.843 101.74 437.093 103.168 435.371 103.168C433.943 103.168 433.033 102.356 432.431 101.46V105.24H431.745ZM435.301 102.51C436.869 102.51 438.101 101.362 438.101 99.458V99.43C438.101 97.554 436.813 96.35 435.301 96.35C433.803 96.35 432.389 97.596 432.389 99.416V99.444C432.389 101.278 433.803 102.51 435.301 102.51ZM441.002 93.998V93.06H441.856V93.998H441.002ZM441.086 103V95.86H441.772V103H441.086ZM444.474 103V95.86H445.16V97.19C445.65 96.35 446.434 95.692 447.736 95.692C449.542 95.692 450.592 96.91 450.592 98.632V103H449.906V98.758C449.906 97.288 449.094 96.322 447.638 96.322C446.238 96.322 445.16 97.372 445.16 98.87V103H444.474ZM456.196 105.268C454.992 105.268 453.9 104.904 452.92 104.176L453.326 103.616C454.194 104.288 455.16 104.624 456.21 104.624C457.834 104.624 459.01 103.686 459.01 101.852V100.816C458.38 101.698 457.456 102.468 456.028 102.468C454.306 102.468 452.598 101.152 452.598 99.108V99.08C452.598 97.008 454.306 95.692 456.028 95.692C457.47 95.692 458.408 96.448 459.01 97.288V95.86H459.696V101.894C459.696 102.944 459.36 103.742 458.786 104.316C458.17 104.932 457.26 105.268 456.196 105.268ZM456.098 101.81C457.596 101.81 459.052 100.718 459.052 99.094V99.066C459.052 97.414 457.596 96.35 456.098 96.35C454.586 96.35 453.34 97.386 453.34 99.052V99.08C453.34 100.69 454.628 101.81 456.098 101.81ZM33.682 123.126C32.562 123.126 31.68 122.524 31.68 121.166V116.49H30.644V115.86H31.68V113.578H32.366V115.86H34.872V116.49H32.366V121.096C32.366 122.118 32.954 122.482 33.794 122.482C34.144 122.482 34.438 122.412 34.844 122.23V122.874C34.466 123.042 34.13 123.126 33.682 123.126ZM36.9075 123V112.78H37.5935V117.19C38.0835 116.35 38.8675 115.692 40.1695 115.692C41.9755 115.692 43.0255 116.91 43.0255 118.632V123H42.3395V118.758C42.3395 117.288 41.5275 116.322 40.0715 116.322C38.6715 116.322 37.5935 117.372 37.5935 118.87V123H36.9075ZM48.5034 123.168C46.6274 123.168 45.0034 121.684 45.0034 119.444V119.416C45.0034 117.358 46.4594 115.692 48.3914 115.692C50.3934 115.692 51.6674 117.316 51.6674 119.43C51.6674 119.556 51.6674 119.598 51.6534 119.71H45.7314C45.8434 121.488 47.1454 122.524 48.5314 122.524C49.6514 122.524 50.3794 122.034 50.9814 121.404L51.4574 121.824C50.7294 122.608 49.8614 123.168 48.5034 123.168ZM45.7314 119.094H50.9254C50.8134 117.652 50.0014 116.322 48.3634 116.322C46.9494 116.322 45.8434 117.512 45.7314 119.094ZM53.6692 123V115.86H54.3552V117.134C54.8032 116.392 55.4612 115.692 56.7352 115.692C57.9952 115.692 58.7372 116.406 59.1432 117.232C59.6052 116.434 60.3892 115.692 61.7192 115.692C63.4132 115.692 64.4632 116.882 64.4632 118.674V123H63.7772V118.758C63.7772 117.204 62.9932 116.322 61.6632 116.322C60.4592 116.322 59.4092 117.232 59.4092 118.842V123H58.7232V118.716C58.7232 117.218 57.9252 116.322 56.6372 116.322C55.3492 116.322 54.3552 117.442 54.3552 118.884V123H53.6692ZM78.2496 123.168C76.4436 123.168 75.3936 121.95 75.3936 120.228V115.86H76.0796V120.102C76.0796 121.572 76.8916 122.538 78.3476 122.538C79.7476 122.538 80.8256 121.488 80.8256 119.99V115.86H81.5116V123H80.8256V121.67C80.3356 122.51 79.5516 123.168 78.2496 123.168ZM86.4295 123.14C85.3795 123.14 84.2735 122.72 83.5035 122.104L83.9095 121.558C84.6935 122.16 85.5615 122.496 86.4715 122.496C87.4375 122.496 88.1935 121.978 88.1935 121.138V121.11C88.1935 120.27 87.2975 119.976 86.3035 119.682C85.1275 119.346 83.8535 119.01 83.8535 117.722V117.694C83.8535 116.546 84.8195 115.72 86.2055 115.72C87.0595 115.72 88.0255 116.014 88.7395 116.504L88.3755 117.078C87.7175 116.644 86.9475 116.364 86.1775 116.364C85.1835 116.364 84.5535 116.896 84.5535 117.61V117.638C84.5535 118.436 85.5195 118.716 86.5415 119.024C87.6895 119.36 88.8935 119.766 88.8935 121.026V121.054C88.8935 122.328 87.8155 123.14 86.4295 123.14ZM94.0885 123.168C92.2125 123.168 90.5885 121.684 90.5885 119.444V119.416C90.5885 117.358 92.0445 115.692 93.9765 115.692C95.9785 115.692 97.2525 117.316 97.2525 119.43C97.2525 119.556 97.2525 119.598 97.2385 119.71H91.3165C91.4285 121.488 92.7305 122.524 94.1165 122.524C95.2365 122.524 95.9645 122.034 96.5665 121.404L97.0425 121.824C96.3145 122.608 95.4465 123.168 94.0885 123.168ZM91.3165 119.094H96.5105C96.3985 117.652 95.5865 116.322 93.9485 116.322C92.5345 116.322 91.4285 117.512 91.3165 119.094ZM110.237 123.126C109.117 123.126 108.235 122.524 108.235 121.166V116.49H107.199V115.86H108.235V113.578H108.921V115.86H111.427V116.49H108.921V121.096C108.921 122.118 109.509 122.482 110.349 122.482C110.699 122.482 110.993 122.412 111.399 122.23V122.874C111.021 123.042 110.685 123.126 110.237 123.126ZM116.267 123.168C114.391 123.168 112.767 121.684 112.767 119.444V119.416C112.767 117.358 114.223 115.692 116.155 115.692C118.157 115.692 119.431 117.316 119.431 119.43C119.431 119.556 119.431 119.598 119.417 119.71H113.495C113.607 121.488 114.909 122.524 116.295 122.524C117.415 122.524 118.143 122.034 118.745 121.404L119.221 121.824C118.493 122.608 117.625 123.168 116.267 123.168ZM113.495 119.094H118.689C118.577 117.652 117.765 116.322 116.127 116.322C114.713 116.322 113.607 117.512 113.495 119.094ZM124.583 123.168C122.525 123.168 120.943 121.46 120.943 119.458V119.43C120.943 117.428 122.525 115.692 124.583 115.692C125.927 115.692 126.767 116.294 127.439 117.008L126.949 117.512C126.333 116.882 125.633 116.336 124.569 116.336C122.945 116.336 121.685 117.68 121.685 119.402V119.43C121.685 121.166 123.001 122.524 124.625 122.524C125.633 122.524 126.417 122.006 127.019 121.334L127.495 121.754C126.767 122.58 125.885 123.168 124.583 123.168ZM129.431 123V112.78H130.117V117.19C130.607 116.35 131.391 115.692 132.693 115.692C134.499 115.692 135.549 116.91 135.549 118.632V123H134.863V118.758C134.863 117.288 134.051 116.322 132.595 116.322C131.195 116.322 130.117 117.372 130.117 118.87V123H129.431ZM138.017 123V115.86H138.703V117.19C139.193 116.35 139.977 115.692 141.279 115.692C143.085 115.692 144.135 116.91 144.135 118.632V123H143.449V118.758C143.449 117.288 142.637 116.322 141.181 116.322C139.781 116.322 138.703 117.372 138.703 118.87V123H138.017ZM149.767 123.168C147.653 123.168 146.113 121.46 146.113 119.458V119.43C146.113 117.428 147.667 115.692 149.795 115.692C151.909 115.692 153.449 117.4 153.449 119.402V119.43C153.449 121.432 151.895 123.168 149.767 123.168ZM149.795 122.524C151.489 122.524 152.707 121.138 152.707 119.458V119.43C152.707 117.694 151.419 116.336 149.767 116.336C148.073 116.336 146.855 117.722 146.855 119.402V119.43C146.855 121.166 148.143 122.524 149.795 122.524ZM155.656 123V112.78H156.342V123H155.656ZM162.208 123.168C160.094 123.168 158.554 121.46 158.554 119.458V119.43C158.554 117.428 160.108 115.692 162.236 115.692C164.35 115.692 165.89 117.4 165.89 119.402V119.43C165.89 121.432 164.336 123.168 162.208 123.168ZM162.236 122.524C163.93 122.524 165.148 121.138 165.148 119.458V119.43C165.148 117.694 163.86 116.336 162.208 116.336C160.514 116.336 159.296 117.722 159.296 119.402V119.43C159.296 121.166 160.584 122.524 162.236 122.524ZM171.136 125.268C169.932 125.268 168.84 124.904 167.86 124.176L168.266 123.616C169.134 124.288 170.1 124.624 171.15 124.624C172.774 124.624 173.95 123.686 173.95 121.852V120.816C173.32 121.698 172.396 122.468 170.968 122.468C169.246 122.468 167.538 121.152 167.538 119.108V119.08C167.538 117.008 169.246 115.692 170.968 115.692C172.41 115.692 173.348 116.448 173.95 117.288V115.86H174.636V121.894C174.636 122.944 174.3 123.742 173.726 124.316C173.11 124.932 172.2 125.268 171.136 125.268ZM171.038 121.81C172.536 121.81 173.992 120.718 173.992 119.094V119.066C173.992 117.414 172.536 116.35 171.038 116.35C169.526 116.35 168.28 117.386 168.28 119.052V119.08C168.28 120.69 169.568 121.81 171.038 121.81ZM180.252 122.244L182.828 115.86H183.584L180.49 123.252C179.86 124.75 179.132 125.282 178.11 125.282C177.564 125.282 177.186 125.184 176.696 124.974L176.934 124.372C177.312 124.554 177.606 124.638 178.152 124.638C178.908 124.638 179.384 124.204 179.916 122.958L176.486 115.86H177.284L180.252 122.244ZM196.455 123.126C195.335 123.126 194.453 122.524 194.453 121.166V116.49H193.417V115.86H194.453V113.578H195.139V115.86H197.645V116.49H195.139V121.096C195.139 122.118 195.727 122.482 196.567 122.482C196.917 122.482 197.211 122.412 197.617 122.23V122.874C197.239 123.042 196.903 123.126 196.455 123.126ZM202.639 123.168C200.525 123.168 198.985 121.46 198.985 119.458V119.43C198.985 117.428 200.539 115.692 202.667 115.692C204.781 115.692 206.321 117.4 206.321 119.402V119.43C206.321 121.432 204.767 123.168 202.639 123.168ZM202.667 122.524C204.361 122.524 205.579 121.138 205.579 119.458V119.43C205.579 117.694 204.291 116.336 202.639 116.336C200.945 116.336 199.727 117.722 199.727 119.402V119.43C199.727 121.166 201.015 122.524 202.667 122.524ZM217.047 113.998V113.06H217.901V113.998H217.047ZM217.131 123V115.86H217.817V123H217.131ZM220.519 123V115.86H221.205V117.134C221.653 116.392 222.311 115.692 223.585 115.692C224.845 115.692 225.587 116.406 225.993 117.232C226.455 116.434 227.239 115.692 228.569 115.692C230.263 115.692 231.313 116.882 231.313 118.674V123H230.627V118.758C230.627 117.204 229.843 116.322 228.513 116.322C227.309 116.322 226.259 117.232 226.259 118.842V123H225.573V118.716C225.573 117.218 224.775 116.322 223.487 116.322C222.199 116.322 221.205 117.442 221.205 118.884V123H220.519ZM233.781 125.24V115.86H234.467V117.456C235.069 116.518 235.993 115.692 237.407 115.692C239.129 115.692 240.879 117.078 240.879 119.402V119.43C240.879 121.74 239.129 123.168 237.407 123.168C235.979 123.168 235.069 122.356 234.467 121.46V125.24H233.781ZM237.337 122.51C238.905 122.51 240.137 121.362 240.137 119.458V119.43C240.137 117.554 238.849 116.35 237.337 116.35C235.839 116.35 234.425 117.596 234.425 119.416V119.444C234.425 121.278 235.839 122.51 237.337 122.51ZM243.023 123V115.86H243.709V117.89C244.283 116.602 245.445 115.706 246.873 115.748V116.504H246.803C245.165 116.504 243.709 117.764 243.709 120.074V123H243.023ZM251.437 123.168C249.323 123.168 247.783 121.46 247.783 119.458V119.43C247.783 117.428 249.337 115.692 251.465 115.692C253.579 115.692 255.119 117.4 255.119 119.402V119.43C255.119 121.432 253.565 123.168 251.437 123.168ZM251.465 122.524C253.159 122.524 254.377 121.138 254.377 119.458V119.43C254.377 117.694 253.089 116.336 251.437 116.336C249.743 116.336 248.525 117.722 248.525 119.402V119.43C248.525 121.166 249.813 122.524 251.465 122.524ZM259.283 123.056L256.077 115.86H256.875L259.577 122.23L262.307 115.86H263.077L259.871 123.056H259.283ZM267.539 123.168C265.663 123.168 264.039 121.684 264.039 119.444V119.416C264.039 117.358 265.495 115.692 267.427 115.692C269.429 115.692 270.703 117.316 270.703 119.43C270.703 119.556 270.703 119.598 270.689 119.71H264.767C264.879 121.488 266.181 122.524 267.567 122.524C268.687 122.524 269.415 122.034 270.017 121.404L270.493 121.824C269.765 122.608 268.897 123.168 267.539 123.168ZM264.767 119.094H269.961C269.849 117.652 269.037 116.322 267.399 116.322C265.985 116.322 264.879 117.512 264.767 119.094ZM284.472 123.168C282.358 123.168 280.818 121.46 280.818 119.458V119.43C280.818 117.428 282.372 115.692 284.5 115.692C286.614 115.692 288.154 117.4 288.154 119.402V119.43C288.154 121.432 286.6 123.168 284.472 123.168ZM284.5 122.524C286.194 122.524 287.412 121.138 287.412 119.458V119.43C287.412 117.694 286.124 116.336 284.472 116.336C282.778 116.336 281.56 117.722 281.56 119.402V119.43C281.56 121.166 282.848 122.524 284.5 122.524ZM290.263 125.24V115.86H290.949V117.456C291.551 116.518 292.475 115.692 293.889 115.692C295.611 115.692 297.361 117.078 297.361 119.402V119.43C297.361 121.74 295.611 123.168 293.889 123.168C292.461 123.168 291.551 122.356 290.949 121.46V125.24H290.263ZM293.819 122.51C295.387 122.51 296.619 121.362 296.619 119.458V119.43C296.619 117.554 295.331 116.35 293.819 116.35C292.321 116.35 290.907 117.596 290.907 119.416V119.444C290.907 121.278 292.321 122.51 293.819 122.51ZM302.515 123.168C300.639 123.168 299.015 121.684 299.015 119.444V119.416C299.015 117.358 300.471 115.692 302.403 115.692C304.405 115.692 305.679 117.316 305.679 119.43C305.679 119.556 305.679 119.598 305.665 119.71H299.743C299.855 121.488 301.157 122.524 302.543 122.524C303.663 122.524 304.391 122.034 304.993 121.404L305.469 121.824C304.741 122.608 303.873 123.168 302.515 123.168ZM299.743 119.094H304.937C304.825 117.652 304.013 116.322 302.375 116.322C300.961 116.322 299.855 117.512 299.743 119.094ZM307.681 123V115.86H308.367V117.89C308.941 116.602 310.103 115.706 311.531 115.748V116.504H311.461C309.823 116.504 308.367 117.764 308.367 120.074V123H307.681ZM315.101 123.168C313.771 123.168 312.343 122.426 312.343 120.928V120.9C312.343 119.402 313.617 118.576 315.465 118.576C316.473 118.576 317.145 118.702 317.831 118.884V118.576C317.831 117.12 316.949 116.392 315.479 116.392C314.597 116.392 313.897 116.63 313.239 116.966L312.987 116.364C313.771 115.986 314.527 115.748 315.521 115.748C316.501 115.748 317.257 116.014 317.775 116.532C318.265 117.022 318.503 117.694 318.503 118.548V123H317.831V121.81C317.341 122.482 316.459 123.168 315.101 123.168ZM315.143 122.524C316.599 122.524 317.845 121.628 317.845 120.326V119.514C317.243 119.36 316.445 119.192 315.423 119.192C313.911 119.192 313.071 119.85 313.071 120.858V120.886C313.071 121.922 314.051 122.524 315.143 122.524ZM323.281 123.126C322.161 123.126 321.279 122.524 321.279 121.166V116.49H320.243V115.86H321.279V113.578H321.965V115.86H324.471V116.49H321.965V121.096C321.965 122.118 322.553 122.482 323.393 122.482C323.743 122.482 324.037 122.412 324.443 122.23V122.874C324.065 123.042 323.729 123.126 323.281 123.126ZM326.521 113.998V113.06H327.375V113.998H326.521ZM326.605 123V115.86H327.291V123H326.605ZM333.157 123.168C331.043 123.168 329.503 121.46 329.503 119.458V119.43C329.503 117.428 331.057 115.692 333.185 115.692C335.299 115.692 336.839 117.4 336.839 119.402V119.43C336.839 121.432 335.285 123.168 333.157 123.168ZM333.185 122.524C334.879 122.524 336.097 121.138 336.097 119.458V119.43C336.097 117.694 334.809 116.336 333.157 116.336C331.463 116.336 330.245 117.722 330.245 119.402V119.43C330.245 121.166 331.533 122.524 333.185 122.524ZM338.948 123V115.86H339.634V117.19C340.124 116.35 340.908 115.692 342.21 115.692C344.016 115.692 345.066 116.91 345.066 118.632V123H344.38V118.758C344.38 117.288 343.568 116.322 342.112 116.322C340.712 116.322 339.634 117.372 339.634 118.87V123H338.948ZM349.844 123.14C348.794 123.14 347.688 122.72 346.918 122.104L347.324 121.558C348.108 122.16 348.976 122.496 349.886 122.496C350.852 122.496 351.608 121.978 351.608 121.138V121.11C351.608 120.27 350.712 119.976 349.718 119.682C348.542 119.346 347.268 119.01 347.268 117.722V117.694C347.268 116.546 348.234 115.72 349.62 115.72C350.474 115.72 351.44 116.014 352.154 116.504L351.79 117.078C351.132 116.644 350.362 116.364 349.592 116.364C348.598 116.364 347.968 116.896 347.968 117.61V117.638C347.968 118.436 348.934 118.716 349.956 119.024C351.104 119.36 352.308 119.766 352.308 121.026V121.054C352.308 122.328 351.23 123.14 349.844 123.14ZM365.266 123.168C363.936 123.168 362.508 122.426 362.508 120.928V120.9C362.508 119.402 363.782 118.576 365.63 118.576C366.638 118.576 367.31 118.702 367.996 118.884V118.576C367.996 117.12 367.114 116.392 365.644 116.392C364.762 116.392 364.062 116.63 363.404 116.966L363.152 116.364C363.936 115.986 364.692 115.748 365.686 115.748C366.666 115.748 367.422 116.014 367.94 116.532C368.43 117.022 368.668 117.694 368.668 118.548V123H367.996V121.81C367.506 122.482 366.624 123.168 365.266 123.168ZM365.308 122.524C366.764 122.524 368.01 121.628 368.01 120.326V119.514C367.408 119.36 366.61 119.192 365.588 119.192C364.076 119.192 363.236 119.85 363.236 120.858V120.886C363.236 121.922 364.216 122.524 365.308 122.524ZM371.135 123V115.86H371.821V117.19C372.311 116.35 373.095 115.692 374.397 115.692C376.203 115.692 377.253 116.91 377.253 118.632V123H376.567V118.758C376.567 117.288 375.755 116.322 374.299 116.322C372.899 116.322 371.821 117.372 371.821 118.87V123H371.135ZM382.731 123.168C381.009 123.168 379.259 121.782 379.259 119.458V119.43C379.259 117.12 381.009 115.692 382.731 115.692C384.159 115.692 385.069 116.504 385.671 117.4V112.78H386.357V123H385.671V121.404C385.041 122.342 384.159 123.168 382.731 123.168ZM382.801 122.51C384.299 122.51 385.713 121.264 385.713 119.444V119.416C385.713 117.582 384.299 116.35 382.801 116.35C381.233 116.35 380.001 117.498 380.001 119.402V119.43C380.001 121.306 381.289 122.51 382.801 122.51ZM400.716 123.168C398.658 123.168 397.076 121.46 397.076 119.458V119.43C397.076 117.428 398.658 115.692 400.716 115.692C402.06 115.692 402.9 116.294 403.572 117.008L403.082 117.512C402.466 116.882 401.766 116.336 400.702 116.336C399.078 116.336 397.818 117.68 397.818 119.402V119.43C397.818 121.166 399.134 122.524 400.758 122.524C401.766 122.524 402.55 122.006 403.152 121.334L403.628 121.754C402.9 122.58 402.018 123.168 400.716 123.168ZM408.211 123.168C406.405 123.168 405.355 121.95 405.355 120.228V115.86H406.041V120.102C406.041 121.572 406.853 122.538 408.309 122.538C409.709 122.538 410.787 121.488 410.787 119.99V115.86H411.473V123H410.787V121.67C410.297 122.51 409.513 123.168 408.211 123.168ZM416.391 123.14C415.341 123.14 414.235 122.72 413.465 122.104L413.871 121.558C414.655 122.16 415.523 122.496 416.433 122.496C417.399 122.496 418.155 121.978 418.155 121.138V121.11C418.155 120.27 417.259 119.976 416.265 119.682C415.089 119.346 413.815 119.01 413.815 117.722V117.694C413.815 116.546 414.781 115.72 416.167 115.72C417.021 115.72 417.987 116.014 418.701 116.504L418.337 117.078C417.679 116.644 416.909 116.364 416.139 116.364C415.145 116.364 414.515 116.896 414.515 117.61V117.638C414.515 118.436 415.481 118.716 416.503 119.024C417.651 119.36 418.855 119.766 418.855 121.026V121.054C418.855 122.328 417.777 123.14 416.391 123.14ZM423.284 123.126C422.164 123.126 421.282 122.524 421.282 121.166V116.49H420.246V115.86H421.282V113.578H421.968V115.86H424.474V116.49H421.968V121.096C421.968 122.118 422.556 122.482 423.396 122.482C423.746 122.482 424.04 122.412 424.446 122.23V122.874C424.068 123.042 423.732 123.126 423.284 123.126ZM429.468 123.168C427.354 123.168 425.814 121.46 425.814 119.458V119.43C425.814 117.428 427.368 115.692 429.496 115.692C431.61 115.692 433.15 117.4 433.15 119.402V119.43C433.15 121.432 431.596 123.168 429.468 123.168ZM429.496 122.524C431.19 122.524 432.408 121.138 432.408 119.458V119.43C432.408 117.694 431.12 116.336 429.468 116.336C427.774 116.336 426.556 117.722 426.556 119.402V119.43C426.556 121.166 427.844 122.524 429.496 122.524ZM435.259 123V115.86H435.945V117.134C436.393 116.392 437.051 115.692 438.325 115.692C439.585 115.692 440.327 116.406 440.733 117.232C441.195 116.434 441.979 115.692 443.309 115.692C445.003 115.692 446.053 116.882 446.053 118.674V123H445.367V118.758C445.367 117.204 444.583 116.322 443.253 116.322C442.049 116.322 440.999 117.232 440.999 118.842V123H440.313V118.716C440.313 117.218 439.515 116.322 438.227 116.322C436.939 116.322 435.945 117.442 435.945 118.884V123H435.259ZM451.531 123.168C449.655 123.168 448.031 121.684 448.031 119.444V119.416C448.031 117.358 449.487 115.692 451.419 115.692C453.421 115.692 454.695 117.316 454.695 119.43C454.695 119.556 454.695 119.598 454.681 119.71H448.759C448.871 121.488 450.173 122.524 451.559 122.524C452.679 122.524 453.407 122.034 454.009 121.404L454.485 121.824C453.757 122.608 452.889 123.168 451.531 123.168ZM448.759 119.094H453.953C453.841 117.652 453.029 116.322 451.391 116.322C449.977 116.322 448.871 117.512 448.759 119.094ZM456.697 123V115.86H457.383V117.89C457.957 116.602 459.119 115.706 460.547 115.748V116.504H460.477C458.839 116.504 457.383 117.764 457.383 120.074V123H456.697ZM34.312 143.168C32.436 143.168 30.812 141.684 30.812 139.444V139.416C30.812 137.358 32.268 135.692 34.2 135.692C36.202 135.692 37.476 137.316 37.476 139.43C37.476 139.556 37.476 139.598 37.462 139.71H31.54C31.652 141.488 32.954 142.524 34.34 142.524C35.46 142.524 36.188 142.034 36.79 141.404L37.266 141.824C36.538 142.608 35.67 143.168 34.312 143.168ZM31.54 139.094H36.734C36.622 137.652 35.81 136.322 34.172 136.322C32.758 136.322 31.652 137.512 31.54 139.094ZM39.348 135.86L41.742 138.884L44.164 135.86H44.99L42.176 139.346L45.102 143H44.248L41.728 139.822L39.208 143H38.382L41.294 139.36L38.494 135.86H39.348ZM47.0383 145.24V135.86H47.7243V137.456C48.3263 136.518 49.2503 135.692 50.6643 135.692C52.3863 135.692 54.1363 137.078 54.1363 139.402V139.43C54.1363 141.74 52.3863 143.168 50.6643 143.168C49.2363 143.168 48.3263 142.356 47.7243 141.46V145.24H47.0383ZM50.5943 142.51C52.1623 142.51 53.3943 141.362 53.3943 139.458V139.43C53.3943 137.554 52.1063 136.35 50.5943 136.35C49.0963 136.35 47.6823 137.596 47.6823 139.416V139.444C47.6823 141.278 49.0963 142.51 50.5943 142.51ZM59.2905 143.168C57.4145 143.168 55.7905 141.684 55.7905 139.444V139.416C55.7905 137.358 57.2465 135.692 59.1785 135.692C61.1805 135.692 62.4545 137.316 62.4545 139.43C62.4545 139.556 62.4545 139.598 62.4405 139.71H56.5185C56.6305 141.488 57.9325 142.524 59.3185 142.524C60.4385 142.524 61.1665 142.034 61.7685 141.404L62.2445 141.824C61.5165 142.608 60.6485 143.168 59.2905 143.168ZM56.5185 139.094H61.7125C61.6005 137.652 60.7885 136.322 59.1505 136.322C57.7365 136.322 56.6305 137.512 56.5185 139.094ZM64.4563 143V135.86H65.1423V137.89C65.7163 136.602 66.8783 135.706 68.3063 135.748V136.504H68.2363C66.5983 136.504 65.1423 137.764 65.1423 140.074V143H64.4563ZM70.0758 133.998V133.06H70.9298V133.998H70.0758ZM70.1598 143V135.86H70.8458V143H70.1598ZM76.5581 143.168C74.6821 143.168 73.0581 141.684 73.0581 139.444V139.416C73.0581 137.358 74.5141 135.692 76.4461 135.692C78.4481 135.692 79.7221 137.316 79.7221 139.43C79.7221 139.556 79.7221 139.598 79.7081 139.71H73.7861C73.8981 141.488 75.2001 142.524 76.5861 142.524C77.7061 142.524 78.4341 142.034 79.0361 141.404L79.5121 141.824C78.7841 142.608 77.9161 143.168 76.5581 143.168ZM73.7861 139.094H78.9801C78.8681 137.652 78.0561 136.322 76.4181 136.322C75.0041 136.322 73.8981 137.512 73.7861 139.094ZM81.7239 143V135.86H82.4099V137.19C82.8999 136.35 83.6839 135.692 84.9859 135.692C86.7919 135.692 87.8419 136.91 87.8419 138.632V143H87.1559V138.758C87.1559 137.288 86.3439 136.322 84.8879 136.322C83.4879 136.322 82.4099 137.372 82.4099 138.87V143H81.7239ZM93.4598 143.168C91.4018 143.168 89.8198 141.46 89.8198 139.458V139.43C89.8198 137.428 91.4018 135.692 93.4598 135.692C94.8038 135.692 95.6438 136.294 96.3158 137.008L95.8258 137.512C95.2098 136.882 94.5098 136.336 93.4458 136.336C91.8218 136.336 90.5618 137.68 90.5618 139.402V139.43C90.5618 141.166 91.8778 142.524 93.5018 142.524C94.5098 142.524 95.2938 142.006 95.8958 141.334L96.3718 141.754C95.6438 142.58 94.7618 143.168 93.4598 143.168ZM101.113 143.168C99.2368 143.168 97.6128 141.684 97.6128 139.444V139.416C97.6128 137.358 99.0688 135.692 101.001 135.692C103.003 135.692 104.277 137.316 104.277 139.43C104.277 139.556 104.277 139.598 104.263 139.71H98.3408C98.4528 141.488 99.7548 142.524 101.141 142.524C102.261 142.524 102.989 142.034 103.591 141.404L104.067 141.824C103.339 142.608 102.471 143.168 101.113 143.168ZM98.3408 139.094H103.535C103.423 137.652 102.611 136.322 100.973 136.322C99.5588 136.322 98.4528 137.512 98.3408 139.094ZM108.589 143.14C107.539 143.14 106.433 142.72 105.663 142.104L106.069 141.558C106.853 142.16 107.721 142.496 108.631 142.496C109.597 142.496 110.353 141.978 110.353 141.138V141.11C110.353 140.27 109.457 139.976 108.463 139.682C107.287 139.346 106.013 139.01 106.013 137.722V137.694C106.013 136.546 106.979 135.72 108.365 135.72C109.219 135.72 110.185 136.014 110.899 136.504L110.535 137.078C109.877 136.644 109.107 136.364 108.337 136.364C107.343 136.364 106.713 136.896 106.713 137.61V137.638C106.713 138.436 107.679 138.716 108.701 139.024C109.849 139.36 111.053 139.766 111.053 141.026V141.054C111.053 142.328 109.975 143.14 108.589 143.14ZM113.084 143V141.81H114.008V143H113.084ZM123.007 143V133.2H129.909V133.872H123.735V137.89H129.279V138.562H123.735V143H123.007ZM132.041 143V135.86H132.727V137.89C133.301 136.602 134.463 135.706 135.891 135.748V136.504H135.821C134.183 136.504 132.727 137.764 132.727 140.074V143H132.041ZM140.455 143.168C138.341 143.168 136.801 141.46 136.801 139.458V139.43C136.801 137.428 138.355 135.692 140.483 135.692C142.597 135.692 144.137 137.4 144.137 139.402V139.43C144.137 141.432 142.583 143.168 140.455 143.168ZM140.483 142.524C142.177 142.524 143.395 141.138 143.395 139.458V139.43C143.395 137.694 142.107 136.336 140.455 136.336C138.761 136.336 137.543 137.722 137.543 139.402V139.43C137.543 141.166 138.831 142.524 140.483 142.524ZM146.246 143V135.86H146.932V137.134C147.38 136.392 148.038 135.692 149.312 135.692C150.572 135.692 151.314 136.406 151.72 137.232C152.182 136.434 152.966 135.692 154.296 135.692C155.99 135.692 157.04 136.882 157.04 138.674V143H156.354V138.758C156.354 137.204 155.57 136.322 154.24 136.322C153.036 136.322 151.986 137.232 151.986 138.842V143H151.3V138.716C151.3 137.218 150.502 136.322 149.214 136.322C147.926 136.322 146.932 137.442 146.932 138.884V143H146.246ZM168.067 143.168C166.737 143.168 165.309 142.426 165.309 140.928V140.9C165.309 139.402 166.583 138.576 168.431 138.576C169.439 138.576 170.111 138.702 170.797 138.884V138.576C170.797 137.12 169.915 136.392 168.445 136.392C167.563 136.392 166.863 136.63 166.205 136.966L165.953 136.364C166.737 135.986 167.493 135.748 168.487 135.748C169.467 135.748 170.223 136.014 170.741 136.532C171.231 137.022 171.469 137.694 171.469 138.548V143H170.797V141.81C170.307 142.482 169.425 143.168 168.067 143.168ZM168.109 142.524C169.565 142.524 170.811 141.628 170.811 140.326V139.514C170.209 139.36 169.411 139.192 168.389 139.192C166.877 139.192 166.037 139.85 166.037 140.858V140.886C166.037 141.922 167.017 142.524 168.109 142.524ZM176.652 143.168C174.846 143.168 173.796 141.95 173.796 140.228V135.86H174.482V140.102C174.482 141.572 175.294 142.538 176.75 142.538C178.15 142.538 179.228 141.488 179.228 139.99V135.86H179.914V143H179.228V141.67C178.738 142.51 177.954 143.168 176.652 143.168ZM184.902 143.126C183.782 143.126 182.9 142.524 182.9 141.166V136.49H181.864V135.86H182.9V133.578H183.586V135.86H186.092V136.49H183.586V141.096C183.586 142.118 184.174 142.482 185.014 142.482C185.364 142.482 185.658 142.412 186.064 142.23V142.874C185.686 143.042 185.35 143.126 184.902 143.126ZM191.086 143.168C188.972 143.168 187.432 141.46 187.432 139.458V139.43C187.432 137.428 188.986 135.692 191.114 135.692C193.228 135.692 194.768 137.4 194.768 139.402V139.43C194.768 141.432 193.214 143.168 191.086 143.168ZM191.114 142.524C192.808 142.524 194.026 141.138 194.026 139.458V139.43C194.026 137.694 192.738 136.336 191.086 136.336C189.392 136.336 188.174 137.722 188.174 139.402V139.43C188.174 141.166 189.462 142.524 191.114 142.524ZM196.877 143V135.86H197.563V137.134C198.011 136.392 198.669 135.692 199.943 135.692C201.203 135.692 201.945 136.406 202.351 137.232C202.813 136.434 203.597 135.692 204.927 135.692C206.621 135.692 207.671 136.882 207.671 138.674V143H206.985V138.758C206.985 137.204 206.201 136.322 204.871 136.322C203.667 136.322 202.617 137.232 202.617 138.842V143H201.931V138.716C201.931 137.218 201.133 136.322 199.845 136.322C198.557 136.322 197.563 137.442 197.563 138.884V143H196.877ZM212.309 143.168C210.979 143.168 209.551 142.426 209.551 140.928V140.9C209.551 139.402 210.825 138.576 212.673 138.576C213.681 138.576 214.353 138.702 215.039 138.884V138.576C215.039 137.12 214.157 136.392 212.687 136.392C211.805 136.392 211.105 136.63 210.447 136.966L210.195 136.364C210.979 135.986 211.735 135.748 212.729 135.748C213.709 135.748 214.465 136.014 214.983 136.532C215.473 137.022 215.711 137.694 215.711 138.548V143H215.039V141.81C214.549 142.482 213.667 143.168 212.309 143.168ZM212.351 142.524C213.807 142.524 215.053 141.628 215.053 140.326V139.514C214.451 139.36 213.653 139.192 212.631 139.192C211.119 139.192 210.279 139.85 210.279 140.858V140.886C210.279 141.922 211.259 142.524 212.351 142.524ZM220.49 143.126C219.37 143.126 218.488 142.524 218.488 141.166V136.49H217.452V135.86H218.488V133.578H219.174V135.86H221.68V136.49H219.174V141.096C219.174 142.118 219.762 142.482 220.602 142.482C220.952 142.482 221.246 142.412 221.652 142.23V142.874C221.274 143.042 220.938 143.126 220.49 143.126ZM223.729 133.998V133.06H224.583V133.998H223.729ZM223.813 143V135.86H224.499V143H223.813ZM230.365 143.168C228.251 143.168 226.711 141.46 226.711 139.458V139.43C226.711 137.428 228.265 135.692 230.393 135.692C232.507 135.692 234.047 137.4 234.047 139.402V139.43C234.047 141.432 232.493 143.168 230.365 143.168ZM230.393 142.524C232.087 142.524 233.305 141.138 233.305 139.458V139.43C233.305 137.694 232.017 136.336 230.365 136.336C228.671 136.336 227.453 137.722 227.453 139.402V139.43C227.453 141.166 228.741 142.524 230.393 142.524ZM236.156 143V135.86H236.842V137.19C237.332 136.35 238.116 135.692 239.418 135.692C241.224 135.692 242.274 136.91 242.274 138.632V143H241.588V138.758C241.588 137.288 240.776 136.322 239.32 136.322C237.92 136.322 236.842 137.372 236.842 138.87V143H236.156ZM253.512 143.126C252.392 143.126 251.51 142.524 251.51 141.166V136.49H250.474V135.86H251.51V133.578H252.196V135.86H254.702V136.49H252.196V141.096C252.196 142.118 252.784 142.482 253.624 142.482C253.974 142.482 254.268 142.412 254.674 142.23V142.874C254.296 143.042 253.96 143.126 253.512 143.126ZM259.696 143.168C257.582 143.168 256.042 141.46 256.042 139.458V139.43C256.042 137.428 257.596 135.692 259.724 135.692C261.838 135.692 263.378 137.4 263.378 139.402V139.43C263.378 141.432 261.824 143.168 259.696 143.168ZM259.724 142.524C261.418 142.524 262.636 141.138 262.636 139.458V139.43C262.636 137.694 261.348 136.336 259.696 136.336C258.002 136.336 256.784 137.722 256.784 139.402V139.43C256.784 141.166 258.072 142.524 259.724 142.524ZM271.876 143V135.86H272.562V137.19C273.052 136.35 273.836 135.692 275.138 135.692C276.944 135.692 277.994 136.91 277.994 138.632V143H277.308V138.758C277.308 137.288 276.496 136.322 275.04 136.322C273.64 136.322 272.562 137.372 272.562 138.87V143H271.876ZM283.472 143.168C281.596 143.168 279.972 141.684 279.972 139.444V139.416C279.972 137.358 281.428 135.692 283.36 135.692C285.362 135.692 286.636 137.316 286.636 139.43C286.636 139.556 286.636 139.598 286.622 139.71H280.7C280.812 141.488 282.114 142.524 283.5 142.524C284.62 142.524 285.348 142.034 285.95 141.404L286.426 141.824C285.698 142.608 284.83 143.168 283.472 143.168ZM280.7 139.094H285.894C285.782 137.652 284.97 136.322 283.332 136.322C281.918 136.322 280.812 137.512 280.7 139.094ZM290.284 143.056L287.666 135.86H288.436L290.592 142.132L292.748 135.832H293.294L295.45 142.132L297.606 135.86H298.348L295.73 143.056H295.142L293.014 136.938L290.872 143.056H290.284ZM309.74 143.168C308.018 143.168 306.268 141.782 306.268 139.458V139.43C306.268 137.12 308.018 135.692 309.74 135.692C311.168 135.692 312.078 136.504 312.68 137.4V132.78H313.366V143H312.68V141.404C312.05 142.342 311.168 143.168 309.74 143.168ZM309.81 142.51C311.308 142.51 312.722 141.264 312.722 139.444V139.416C312.722 137.582 311.308 136.35 309.81 136.35C308.242 136.35 307.01 137.498 307.01 139.402V139.43C307.01 141.306 308.298 142.51 309.81 142.51ZM315.986 133.998V133.06H316.84V133.998H315.986ZM316.07 143V135.86H316.756V143H316.07ZM322.595 145.268C321.391 145.268 320.299 144.904 319.319 144.176L319.725 143.616C320.593 144.288 321.559 144.624 322.609 144.624C324.233 144.624 325.409 143.686 325.409 141.852V140.816C324.779 141.698 323.855 142.468 322.427 142.468C320.705 142.468 318.997 141.152 318.997 139.108V139.08C318.997 137.008 320.705 135.692 322.427 135.692C323.869 135.692 324.807 136.448 325.409 137.288V135.86H326.095V141.894C326.095 142.944 325.759 143.742 325.185 144.316C324.569 144.932 323.659 145.268 322.595 145.268ZM322.497 141.81C323.995 141.81 325.451 140.718 325.451 139.094V139.066C325.451 137.414 323.995 136.35 322.497 136.35C320.985 136.35 319.739 137.386 319.739 139.052V139.08C319.739 140.69 321.027 141.81 322.497 141.81ZM328.715 133.998V133.06H329.569V133.998H328.715ZM328.799 143V135.86H329.485V143H328.799ZM334.567 143.126C333.447 143.126 332.565 142.524 332.565 141.166V136.49H331.529V135.86H332.565V133.578H333.251V135.86H335.757V136.49H333.251V141.096C333.251 142.118 333.839 142.482 334.679 142.482C335.029 142.482 335.323 142.412 335.729 142.23V142.874C335.351 143.042 335.015 143.126 334.567 143.126ZM339.963 143.168C338.633 143.168 337.205 142.426 337.205 140.928V140.9C337.205 139.402 338.479 138.576 340.327 138.576C341.335 138.576 342.007 138.702 342.693 138.884V138.576C342.693 137.12 341.811 136.392 340.341 136.392C339.459 136.392 338.759 136.63 338.101 136.966L337.849 136.364C338.633 135.986 339.389 135.748 340.383 135.748C341.363 135.748 342.119 136.014 342.637 136.532C343.127 137.022 343.365 137.694 343.365 138.548V143H342.693V141.81C342.203 142.482 341.321 143.168 339.963 143.168ZM340.005 142.524C341.461 142.524 342.707 141.628 342.707 140.326V139.514C342.105 139.36 341.307 139.192 340.285 139.192C338.773 139.192 337.933 139.85 337.933 140.858V140.886C337.933 141.922 338.913 142.524 340.005 142.524ZM345.93 143V132.78H346.616V143H345.93ZM358.087 143.126C356.967 143.126 356.085 142.524 356.085 141.166V136.49H355.049V135.86H356.085V133.578H356.771V135.86H359.277V136.49H356.771V141.096C356.771 142.118 357.359 142.482 358.199 142.482C358.549 142.482 358.843 142.412 359.249 142.23V142.874C358.871 143.042 358.535 143.126 358.087 143.126ZM364.272 143.168C362.158 143.168 360.618 141.46 360.618 139.458V139.43C360.618 137.428 362.172 135.692 364.3 135.692C366.414 135.692 367.954 137.4 367.954 139.402V139.43C367.954 141.432 366.4 143.168 364.272 143.168ZM364.3 142.524C365.994 142.524 367.212 141.138 367.212 139.458V139.43C367.212 137.694 365.924 136.336 364.272 136.336C362.578 136.336 361.36 137.722 361.36 139.402V139.43C361.36 141.166 362.648 142.524 364.3 142.524ZM373.227 143.168C371.113 143.168 369.573 141.46 369.573 139.458V139.43C369.573 137.428 371.127 135.692 373.255 135.692C375.369 135.692 376.909 137.4 376.909 139.402V139.43C376.909 141.432 375.355 143.168 373.227 143.168ZM373.255 142.524C374.949 142.524 376.167 141.138 376.167 139.458V139.43C376.167 137.694 374.879 136.336 373.227 136.336C371.533 136.336 370.315 137.722 370.315 139.402V139.43C370.315 141.166 371.603 142.524 373.255 142.524ZM379.116 143V132.78H379.802V143H379.116ZM384.814 143.14C383.764 143.14 382.658 142.72 381.888 142.104L382.294 141.558C383.078 142.16 383.946 142.496 384.856 142.496C385.822 142.496 386.578 141.978 386.578 141.138V141.11C386.578 140.27 385.682 139.976 384.688 139.682C383.512 139.346 382.238 139.01 382.238 137.722V137.694C382.238 136.546 383.204 135.72 384.59 135.72C385.444 135.72 386.41 136.014 387.124 136.504L386.76 137.078C386.102 136.644 385.332 136.364 384.562 136.364C383.568 136.364 382.938 136.896 382.938 137.61V137.638C382.938 138.436 383.904 138.716 384.926 139.024C386.074 139.36 387.278 139.766 387.278 141.026V141.054C387.278 142.328 386.2 143.14 384.814 143.14ZM389.071 144.498L388.903 144.148C389.505 143.826 389.729 143.546 389.687 143H389.309V141.81H390.233V142.846C390.233 143.728 389.911 144.176 389.071 144.498ZM401.081 143.056L398.463 135.86H399.233L401.389 142.132L403.545 135.832H404.091L406.247 142.132L408.403 135.86H409.145L406.527 143.056H405.939L403.811 136.938L401.669 143.056H401.081ZM413.792 143.168C411.916 143.168 410.292 141.684 410.292 139.444V139.416C410.292 137.358 411.748 135.692 413.68 135.692C415.682 135.692 416.956 137.316 416.956 139.43C416.956 139.556 416.956 139.598 416.942 139.71H411.02C411.132 141.488 412.434 142.524 413.82 142.524C414.94 142.524 415.668 142.034 416.27 141.404L416.746 141.824C416.018 142.608 415.15 143.168 413.792 143.168ZM411.02 139.094H416.214C416.102 137.652 415.29 136.322 413.652 136.322C412.238 136.322 411.132 137.512 411.02 139.094ZM425.347 143V135.86H426.033V137.134C426.481 136.392 427.139 135.692 428.413 135.692C429.673 135.692 430.415 136.406 430.821 137.232C431.283 136.434 432.067 135.692 433.397 135.692C435.091 135.692 436.141 136.882 436.141 138.674V143H435.455V138.758C435.455 137.204 434.671 136.322 433.341 136.322C432.137 136.322 431.087 137.232 431.087 138.842V143H430.401V138.716C430.401 137.218 429.603 136.322 428.315 136.322C427.027 136.322 426.033 137.442 426.033 138.884V143H425.347ZM440.779 143.168C439.449 143.168 438.021 142.426 438.021 140.928V140.9C438.021 139.402 439.295 138.576 441.143 138.576C442.151 138.576 442.823 138.702 443.509 138.884V138.576C443.509 137.12 442.627 136.392 441.157 136.392C440.275 136.392 439.575 136.63 438.917 136.966L438.665 136.364C439.449 135.986 440.205 135.748 441.199 135.748C442.179 135.748 442.935 136.014 443.453 136.532C443.943 137.022 444.181 137.694 444.181 138.548V143H443.509V141.81C443.019 142.482 442.137 143.168 440.779 143.168ZM440.821 142.524C442.277 142.524 443.523 141.628 443.523 140.326V139.514C442.921 139.36 442.123 139.192 441.101 139.192C439.589 139.192 438.749 139.85 438.749 140.858V140.886C438.749 141.922 439.729 142.524 440.821 142.524ZM446.648 143V132.78H447.334V140.438L451.758 135.86H452.668L449.546 139.024L452.766 143H451.898L449.07 139.514L447.334 141.264V143H446.648ZM457.136 143.168C455.26 143.168 453.636 141.684 453.636 139.444V139.416C453.636 137.358 455.092 135.692 457.024 135.692C459.026 135.692 460.3 137.316 460.3 139.43C460.3 139.556 460.3 139.598 460.286 139.71H454.364C454.476 141.488 455.778 142.524 457.164 142.524C458.284 142.524 459.012 142.034 459.614 141.404L460.09 141.824C459.362 142.608 458.494 143.168 457.136 143.168ZM454.364 139.094H459.558C459.446 137.652 458.634 136.322 456.996 136.322C455.582 136.322 454.476 137.512 454.364 139.094ZM33.612 163.14C32.562 163.14 31.456 162.72 30.686 162.104L31.092 161.558C31.876 162.16 32.744 162.496 33.654 162.496C34.62 162.496 35.376 161.978 35.376 161.138V161.11C35.376 160.27 34.48 159.976 33.486 159.682C32.31 159.346 31.036 159.01 31.036 157.722V157.694C31.036 156.546 32.002 155.72 33.388 155.72C34.242 155.72 35.208 156.014 35.922 156.504L35.558 157.078C34.9 156.644 34.13 156.364 33.36 156.364C32.366 156.364 31.736 156.896 31.736 157.61V157.638C31.736 158.436 32.702 158.716 33.724 159.024C34.872 159.36 36.076 159.766 36.076 161.026V161.054C36.076 162.328 34.998 163.14 33.612 163.14ZM40.977 163.168C39.171 163.168 38.121 161.95 38.121 160.228V155.86H38.807V160.102C38.807 161.572 39.619 162.538 41.075 162.538C42.475 162.538 43.553 161.488 43.553 159.99V155.86H44.239V163H43.553V161.67C43.063 162.51 42.279 163.168 40.977 163.168ZM46.8469 163V155.86H47.5329V157.89C48.1069 156.602 49.2689 155.706 50.6969 155.748V156.504H50.6269C48.9889 156.504 47.5329 157.764 47.5329 160.074V163H46.8469ZM55.1069 163.168C53.2309 163.168 51.6069 161.684 51.6069 159.444V159.416C51.6069 157.358 53.0629 155.692 54.9949 155.692C56.9969 155.692 58.2709 157.316 58.2709 159.43C58.2709 159.556 58.2709 159.598 58.2569 159.71H52.3349C52.4469 161.488 53.7489 162.524 55.1349 162.524C56.2549 162.524 56.9829 162.034 57.5849 161.404L58.0609 161.824C57.3329 162.608 56.4649 163.168 55.1069 163.168ZM52.3349 159.094H57.5289C57.4169 157.652 56.6049 156.322 54.9669 156.322C53.5529 156.322 52.4469 157.512 52.3349 159.094ZM67.48 162.244L70.056 155.86H70.812L67.718 163.252C67.088 164.75 66.36 165.282 65.338 165.282C64.792 165.282 64.414 165.184 63.924 164.974L64.162 164.372C64.54 164.554 64.834 164.638 65.38 164.638C66.136 164.638 66.612 164.204 67.144 162.958L63.714 155.86H64.512L67.48 162.244ZM75.4406 163.168C73.3266 163.168 71.7866 161.46 71.7866 159.458V159.43C71.7866 157.428 73.3406 155.692 75.4686 155.692C77.5826 155.692 79.1226 157.4 79.1226 159.402V159.43C79.1226 161.432 77.5686 163.168 75.4406 163.168ZM75.4686 162.524C77.1626 162.524 78.3806 161.138 78.3806 159.458V159.43C78.3806 157.694 77.0926 156.336 75.4406 156.336C73.7466 156.336 72.5286 157.722 72.5286 159.402V159.43C72.5286 161.166 73.8166 162.524 75.4686 162.524ZM83.9477 163.168C82.1417 163.168 81.0917 161.95 81.0917 160.228V155.86H81.7777V160.102C81.7777 161.572 82.5897 162.538 84.0457 162.538C85.4457 162.538 86.5237 161.488 86.5237 159.99V155.86H87.2097V163H86.5237V161.67C86.0337 162.51 85.2497 163.168 83.9477 163.168ZM89.8176 163V155.86H90.5036V157.89C91.0776 156.602 92.2396 155.706 93.6676 155.748V156.504H93.5976C91.9596 156.504 90.5036 157.764 90.5036 160.074V163H89.8176ZM103.246 163.168C101.818 163.168 100.908 162.356 100.306 161.46V163H99.6204V152.78H100.306V157.456C100.908 156.518 101.832 155.692 103.246 155.692C104.968 155.692 106.718 157.078 106.718 159.402V159.43C106.718 161.74 104.968 163.168 103.246 163.168ZM103.176 162.51C104.744 162.51 105.976 161.362 105.976 159.458V159.43C105.976 157.554 104.688 156.35 103.176 156.35C101.678 156.35 100.264 157.596 100.264 159.416V159.444C100.264 161.278 101.678 162.51 103.176 162.51ZM111.579 163.168C109.773 163.168 108.723 161.95 108.723 160.228V155.86H109.409V160.102C109.409 161.572 110.221 162.538 111.677 162.538C113.077 162.538 114.155 161.488 114.155 159.99V155.86H114.841V163H114.155V161.67C113.665 162.51 112.881 163.168 111.579 163.168ZM119.758 163.14C118.708 163.14 117.602 162.72 116.832 162.104L117.238 161.558C118.022 162.16 118.89 162.496 119.8 162.496C120.766 162.496 121.522 161.978 121.522 161.138V161.11C121.522 160.27 120.626 159.976 119.632 159.682C118.456 159.346 117.182 159.01 117.182 157.722V157.694C117.182 156.546 118.148 155.72 119.534 155.72C120.388 155.72 121.354 156.014 122.068 156.504L121.704 157.078C121.046 156.644 120.276 156.364 119.506 156.364C118.512 156.364 117.882 156.896 117.882 157.61V157.638C117.882 158.436 118.848 158.716 119.87 159.024C121.018 159.36 122.222 159.766 122.222 161.026V161.054C122.222 162.328 121.144 163.14 119.758 163.14ZM124.421 153.998V153.06H125.275V153.998H124.421ZM124.505 163V155.86H125.191V163H124.505ZM127.894 163V155.86H128.58V157.19C129.07 156.35 129.854 155.692 131.156 155.692C132.962 155.692 134.012 156.91 134.012 158.632V163H133.326V158.758C133.326 157.288 132.514 156.322 131.058 156.322C129.658 156.322 128.58 157.372 128.58 158.87V163H127.894ZM139.49 163.168C137.614 163.168 135.99 161.684 135.99 159.444V159.416C135.99 157.358 137.446 155.692 139.378 155.692C141.38 155.692 142.654 157.316 142.654 159.43C142.654 159.556 142.654 159.598 142.64 159.71H136.718C136.83 161.488 138.132 162.524 139.518 162.524C140.638 162.524 141.366 162.034 141.968 161.404L142.444 161.824C141.716 162.608 140.848 163.168 139.49 163.168ZM136.718 159.094H141.912C141.8 157.652 140.988 156.322 139.35 156.322C137.936 156.322 136.83 157.512 136.718 159.094ZM146.966 163.14C145.916 163.14 144.81 162.72 144.04 162.104L144.446 161.558C145.23 162.16 146.098 162.496 147.008 162.496C147.974 162.496 148.73 161.978 148.73 161.138V161.11C148.73 160.27 147.834 159.976 146.84 159.682C145.664 159.346 144.39 159.01 144.39 157.722V157.694C144.39 156.546 145.356 155.72 146.742 155.72C147.596 155.72 148.562 156.014 149.276 156.504L148.912 157.078C148.254 156.644 147.484 156.364 146.714 156.364C145.72 156.364 145.09 156.896 145.09 157.61V157.638C145.09 158.436 146.056 158.716 147.078 159.024C148.226 159.36 149.43 159.766 149.43 161.026V161.054C149.43 162.328 148.352 163.14 146.966 163.14ZM153.788 163.14C152.738 163.14 151.632 162.72 150.862 162.104L151.268 161.558C152.052 162.16 152.92 162.496 153.83 162.496C154.796 162.496 155.552 161.978 155.552 161.138V161.11C155.552 160.27 154.656 159.976 153.662 159.682C152.486 159.346 151.212 159.01 151.212 157.722V157.694C151.212 156.546 152.178 155.72 153.564 155.72C154.418 155.72 155.384 156.014 156.098 156.504L155.734 157.078C155.076 156.644 154.306 156.364 153.536 156.364C152.542 156.364 151.912 156.896 151.912 157.61V157.638C151.912 158.436 152.878 158.716 153.9 159.024C155.048 159.36 156.252 159.766 156.252 161.026V161.054C156.252 162.328 155.174 163.14 153.788 163.14ZM164.944 163.14C163.894 163.14 162.788 162.72 162.018 162.104L162.424 161.558C163.208 162.16 164.076 162.496 164.986 162.496C165.952 162.496 166.708 161.978 166.708 161.138V161.11C166.708 160.27 165.812 159.976 164.818 159.682C163.642 159.346 162.368 159.01 162.368 157.722V157.694C162.368 156.546 163.334 155.72 164.72 155.72C165.574 155.72 166.54 156.014 167.254 156.504L166.89 157.078C166.232 156.644 165.462 156.364 164.692 156.364C163.698 156.364 163.068 156.896 163.068 157.61V157.638C163.068 158.436 164.034 158.716 165.056 159.024C166.204 159.36 167.408 159.766 167.408 161.026V161.054C167.408 162.328 166.33 163.14 164.944 163.14ZM171.836 163.126C170.716 163.126 169.834 162.524 169.834 161.166V156.49H168.798V155.86H169.834V153.578H170.52V155.86H173.026V156.49H170.52V161.096C170.52 162.118 171.108 162.482 171.948 162.482C172.298 162.482 172.592 162.412 172.998 162.23V162.874C172.62 163.042 172.284 163.126 171.836 163.126ZM177.232 163.168C175.902 163.168 174.474 162.426 174.474 160.928V160.9C174.474 159.402 175.748 158.576 177.596 158.576C178.604 158.576 179.276 158.702 179.962 158.884V158.576C179.962 157.12 179.08 156.392 177.61 156.392C176.728 156.392 176.028 156.63 175.37 156.966L175.118 156.364C175.902 155.986 176.658 155.748 177.652 155.748C178.632 155.748 179.388 156.014 179.906 156.532C180.396 157.022 180.634 157.694 180.634 158.548V163H179.962V161.81C179.472 162.482 178.59 163.168 177.232 163.168ZM177.274 162.524C178.73 162.524 179.976 161.628 179.976 160.326V159.514C179.374 159.36 178.576 159.192 177.554 159.192C176.042 159.192 175.202 159.85 175.202 160.858V160.886C175.202 161.922 176.182 162.524 177.274 162.524ZM185.837 162.244L188.413 155.86H189.169L186.075 163.252C185.445 164.75 184.717 165.282 183.695 165.282C183.149 165.282 182.771 165.184 182.281 164.974L182.519 164.372C182.897 164.554 183.191 164.638 183.737 164.638C184.493 164.638 184.969 164.204 185.501 162.958L182.071 155.86H182.869L185.837 162.244ZM193.094 163.14C192.044 163.14 190.938 162.72 190.168 162.104L190.574 161.558C191.358 162.16 192.226 162.496 193.136 162.496C194.102 162.496 194.858 161.978 194.858 161.138V161.11C194.858 160.27 193.962 159.976 192.968 159.682C191.792 159.346 190.518 159.01 190.518 157.722V157.694C190.518 156.546 191.484 155.72 192.87 155.72C193.724 155.72 194.69 156.014 195.404 156.504L195.04 157.078C194.382 156.644 193.612 156.364 192.842 156.364C191.848 156.364 191.218 156.896 191.218 157.61V157.638C191.218 158.436 192.184 158.716 193.206 159.024C194.354 159.36 195.558 159.766 195.558 161.026V161.054C195.558 162.328 194.48 163.14 193.094 163.14ZM205.091 163.168C203.033 163.168 201.451 161.46 201.451 159.458V159.43C201.451 157.428 203.033 155.692 205.091 155.692C206.435 155.692 207.275 156.294 207.947 157.008L207.457 157.512C206.841 156.882 206.141 156.336 205.077 156.336C203.453 156.336 202.193 157.68 202.193 159.402V159.43C202.193 161.166 203.509 162.524 205.133 162.524C206.141 162.524 206.925 162.006 207.527 161.334L208.003 161.754C207.275 162.58 206.393 163.168 205.091 163.168ZM212.898 163.168C210.784 163.168 209.244 161.46 209.244 159.458V159.43C209.244 157.428 210.798 155.692 212.926 155.692C215.04 155.692 216.58 157.4 216.58 159.402V159.43C216.58 161.432 215.026 163.168 212.898 163.168ZM212.926 162.524C214.62 162.524 215.838 161.138 215.838 159.458V159.43C215.838 157.694 214.55 156.336 212.898 156.336C211.204 156.336 209.986 157.722 209.986 159.402V159.43C209.986 161.166 211.274 162.524 212.926 162.524ZM218.689 163V155.86H219.375V157.134C219.823 156.392 220.481 155.692 221.755 155.692C223.015 155.692 223.757 156.406 224.163 157.232C224.625 156.434 225.409 155.692 226.739 155.692C228.433 155.692 229.483 156.882 229.483 158.674V163H228.797V158.758C228.797 157.204 228.013 156.322 226.683 156.322C225.479 156.322 224.429 157.232 224.429 158.842V163H223.743V158.716C223.743 157.218 222.945 156.322 221.657 156.322C220.369 156.322 219.375 157.442 219.375 158.884V163H218.689ZM231.95 165.24V155.86H232.636V157.456C233.238 156.518 234.162 155.692 235.576 155.692C237.298 155.692 239.048 157.078 239.048 159.402V159.43C239.048 161.74 237.298 163.168 235.576 163.168C234.148 163.168 233.238 162.356 232.636 161.46V165.24H231.95ZM235.506 162.51C237.074 162.51 238.306 161.362 238.306 159.458V159.43C238.306 157.554 237.018 156.35 235.506 156.35C234.008 156.35 232.594 157.596 232.594 159.416V159.444C232.594 161.278 234.008 162.51 235.506 162.51ZM244.203 163.168C242.327 163.168 240.703 161.684 240.703 159.444V159.416C240.703 157.358 242.159 155.692 244.091 155.692C246.093 155.692 247.367 157.316 247.367 159.43C247.367 159.556 247.367 159.598 247.353 159.71H241.431C241.543 161.488 242.845 162.524 244.231 162.524C245.351 162.524 246.079 162.034 246.681 161.404L247.157 161.824C246.429 162.608 245.561 163.168 244.203 163.168ZM241.431 159.094H246.625C246.513 157.652 245.701 156.322 244.063 156.322C242.649 156.322 241.543 157.512 241.431 159.094ZM251.748 163.126C250.628 163.126 249.746 162.524 249.746 161.166V156.49H248.71V155.86H249.746V153.578H250.432V155.86H252.938V156.49H250.432V161.096C250.432 162.118 251.02 162.482 251.86 162.482C252.21 162.482 252.504 162.412 252.91 162.23V162.874C252.532 163.042 252.196 163.126 251.748 163.126ZM254.988 153.998V153.06H255.842V153.998H254.988ZM255.072 163V155.86H255.758V163H255.072ZM260.84 163.126C259.72 163.126 258.838 162.524 258.838 161.166V156.49H257.802V155.86H258.838V153.578H259.524V155.86H262.03V156.49H259.524V161.096C259.524 162.118 260.112 162.482 260.952 162.482C261.302 162.482 261.596 162.412 262.002 162.23V162.874C261.624 163.042 261.288 163.126 260.84 163.126ZM264.08 153.998V153.06H264.934V153.998H264.08ZM264.164 163V155.86H264.85V163H264.164ZM270.03 163.056L266.824 155.86H267.622L270.324 162.23L273.054 155.86H273.824L270.618 163.056H270.03ZM278.287 163.168C276.411 163.168 274.787 161.684 274.787 159.444V159.416C274.787 157.358 276.243 155.692 278.175 155.692C280.177 155.692 281.451 157.316 281.451 159.43C281.451 159.556 281.451 159.598 281.437 159.71H275.515C275.627 161.488 276.929 162.524 278.315 162.524C279.435 162.524 280.163 162.034 280.765 161.404L281.241 161.824C280.513 162.608 279.645 163.168 278.287 163.168ZM275.515 159.094H280.709C280.597 157.652 279.785 156.322 278.147 156.322C276.733 156.322 275.627 157.512 275.515 159.094ZM287.664 153.998V153.06H288.518V153.998H287.664ZM287.748 163V155.86H288.434V163H287.748ZM291.136 163V155.86H291.822V157.19C292.312 156.35 293.096 155.692 294.398 155.692C296.204 155.692 297.254 156.91 297.254 158.632V163H296.568V158.758C296.568 157.288 295.756 156.322 294.3 156.322C292.9 156.322 291.822 157.372 291.822 158.87V163H291.136ZM306.299 163.126C305.179 163.126 304.297 162.524 304.297 161.166V156.49H303.261V155.86H304.297V153.578H304.983V155.86H307.489V156.49H304.983V161.096C304.983 162.118 305.571 162.482 306.411 162.482C306.761 162.482 307.055 162.412 307.461 162.23V162.874C307.083 163.042 306.747 163.126 306.299 163.126ZM309.525 163V152.78H310.211V157.19C310.701 156.35 311.485 155.692 312.787 155.692C314.593 155.692 315.643 156.91 315.643 158.632V163H314.957V158.758C314.957 157.288 314.145 156.322 312.689 156.322C311.289 156.322 310.211 157.372 310.211 158.87V163H309.525ZM321.121 163.168C319.245 163.168 317.621 161.684 317.621 159.444V159.416C317.621 157.358 319.077 155.692 321.009 155.692C323.011 155.692 324.285 157.316 324.285 159.43C324.285 159.556 324.285 159.598 324.271 159.71H318.349C318.461 161.488 319.763 162.524 321.149 162.524C322.269 162.524 322.997 162.034 323.599 161.404L324.075 161.824C323.347 162.608 322.479 163.168 321.121 163.168ZM318.349 159.094H323.543C323.431 157.652 322.619 156.322 320.981 156.322C319.567 156.322 318.461 157.512 318.349 159.094ZM330.484 163V155.86H331.17V157.134C331.618 156.392 332.276 155.692 333.55 155.692C334.81 155.692 335.552 156.406 335.958 157.232C336.42 156.434 337.204 155.692 338.534 155.692C340.228 155.692 341.278 156.882 341.278 158.674V163H340.592V158.758C340.592 157.204 339.808 156.322 338.478 156.322C337.274 156.322 336.224 157.232 336.224 158.842V163H335.538V158.716C335.538 157.218 334.74 156.322 333.452 156.322C332.164 156.322 331.17 157.442 331.17 158.884V163H330.484ZM346.909 163.168C344.795 163.168 343.255 161.46 343.255 159.458V159.43C343.255 157.428 344.809 155.692 346.937 155.692C349.051 155.692 350.591 157.4 350.591 159.402V159.43C350.591 161.432 349.037 163.168 346.909 163.168ZM346.937 162.524C348.631 162.524 349.849 161.138 349.849 159.458V159.43C349.849 157.694 348.561 156.336 346.909 156.336C345.215 156.336 343.997 157.722 343.997 159.402V159.43C343.997 161.166 345.285 162.524 346.937 162.524ZM355.71 163.168C353.988 163.168 352.238 161.782 352.238 159.458V159.43C352.238 157.12 353.988 155.692 355.71 155.692C357.138 155.692 358.048 156.504 358.65 157.4V152.78H359.336V163H358.65V161.404C358.02 162.342 357.138 163.168 355.71 163.168ZM355.78 162.51C357.278 162.51 358.692 161.264 358.692 159.444V159.416C358.692 157.582 357.278 156.35 355.78 156.35C354.212 156.35 352.98 157.498 352.98 159.402V159.43C352.98 161.306 354.268 162.51 355.78 162.51ZM364.953 163.168C363.077 163.168 361.453 161.684 361.453 159.444V159.416C361.453 157.358 362.909 155.692 364.841 155.692C366.843 155.692 368.117 157.316 368.117 159.43C368.117 159.556 368.117 159.598 368.103 159.71H362.181C362.293 161.488 363.595 162.524 364.981 162.524C366.101 162.524 366.829 162.034 367.431 161.404L367.907 161.824C367.179 162.608 366.311 163.168 364.953 163.168ZM362.181 159.094H367.375C367.263 157.652 366.451 156.322 364.813 156.322C363.399 156.322 362.293 157.512 362.181 159.094ZM370.118 163V155.86H370.804V157.89C371.378 156.602 372.54 155.706 373.968 155.748V156.504H373.898C372.26 156.504 370.804 157.764 370.804 160.074V163H370.118ZM375.724 163V155.86H376.41V157.19C376.9 156.35 377.684 155.692 378.986 155.692C380.792 155.692 381.842 156.91 381.842 158.632V163H381.156V158.758C381.156 157.288 380.344 156.322 378.888 156.322C377.488 156.322 376.41 157.372 376.41 158.87V163H375.724ZM390.509 163.056L387.891 155.86H388.661L390.817 162.132L392.973 155.832H393.519L395.675 162.132L397.831 155.86H398.573L395.955 163.056H395.367L393.239 156.938L391.097 163.056H390.509ZM403.374 163.168C401.26 163.168 399.72 161.46 399.72 159.458V159.43C399.72 157.428 401.274 155.692 403.402 155.692C405.516 155.692 407.056 157.4 407.056 159.402V159.43C407.056 161.432 405.502 163.168 403.374 163.168ZM403.402 162.524C405.096 162.524 406.314 161.138 406.314 159.458V159.43C406.314 157.694 405.026 156.336 403.374 156.336C401.68 156.336 400.462 157.722 400.462 159.402V159.43C400.462 161.166 401.75 162.524 403.402 162.524ZM409.165 163V155.86H409.851V157.89C410.425 156.602 411.587 155.706 413.015 155.748V156.504H412.945C411.307 156.504 409.851 157.764 409.851 160.074V163H409.165ZM414.869 163V152.78H415.555V163H414.869ZM421.267 163.168C419.545 163.168 417.795 161.782 417.795 159.458V159.43C417.795 157.12 419.545 155.692 421.267 155.692C422.695 155.692 423.605 156.504 424.207 157.4V152.78H424.893V163H424.207V161.404C423.577 162.342 422.695 163.168 421.267 163.168ZM421.337 162.51C422.835 162.51 424.249 161.264 424.249 159.444V159.416C424.249 157.582 422.835 156.35 421.337 156.35C419.769 156.35 418.537 157.498 418.537 159.402V159.43C418.537 161.306 419.825 162.51 421.337 162.51Z" fill="#F8F8F8"/>
<g clip-path="url(#clip1_455_253)">
<path d="M60.2223 58.9822C60.3035 59.0158 60.3901 59.0332 60.4777 59.0329C60.6545 59.0329 60.8242 58.9627 60.9493 58.8375L66.1354 53.6514C66.2453 53.5409 66.3134 53.3956 66.328 53.2406L66.7776 48.2938L71.3215 43.7496C73.6361 41.4353 73.4114 36.8359 73.4013 36.6411C73.3824 36.302 73.1117 36.0313 72.7726 36.0124C72.5772 36.0017 67.979 35.7783 65.6638 38.0922L61.1199 42.6361L56.1731 43.0857C56.0181 43.1 55.8728 43.1684 55.7623 43.2783L50.5762 48.4644C50.3842 48.6549 50.3262 48.9427 50.4294 49.1927C50.5328 49.4427 50.777 49.6053 51.0475 49.6047H54.8375L54.1873 51.5563C54.147 51.6797 54.1434 51.8124 54.1772 51.9376C53.4227 52.6973 52.8944 55.1483 52.7512 55.8823C52.7143 56.0777 52.7668 56.2791 52.8938 56.432C53.0207 56.5847 53.2094 56.6729 53.4081 56.6726C53.4508 56.6726 53.4938 56.6683 53.536 56.6597C54.2694 56.5166 56.7265 55.9876 57.4841 55.2304L57.488 55.2255C57.5405 55.2435 57.5952 55.2542 57.6507 55.2581C57.7225 55.2581 57.7939 55.2465 57.8619 55.2236L59.8136 54.5735V58.366C59.8133 58.6352 59.9744 58.8781 60.2223 58.9822ZM57.8287 53.8306L55.5828 51.585L56.0538 50.1706L59.2428 53.3599L57.8287 53.8306ZM58.1202 47.5216L61.8922 51.2935L60.4759 52.7086L56.7051 48.9378L58.1202 47.5216ZM65.022 52.8792L61.1425 56.7565V53.9273L65.3025 49.7668L65.022 52.8792ZM65.706 47.4782L62.839 50.3455L59.067 46.5735L66.1354 39.5063L69.9074 43.2783L65.706 47.4782ZM70.8014 42.2854L67.1268 38.6108C68.6459 37.544 70.969 37.3593 72.0751 37.338C72.055 38.4447 71.8703 40.766 70.8014 42.2866V42.2854ZM52.6572 48.2712L56.5345 44.3939L59.6469 44.111L55.4864 48.2712H52.6572ZM55.0642 52.9546L56.4603 54.3513C55.7751 54.7075 55.0441 54.9679 54.288 55.1257C54.4465 54.3693 54.7074 53.638 55.0642 52.9525V52.9546Z" fill="#F8F8F8"/>
<path d="M65.664 41.8639C65.404 42.1245 65.404 42.5464 65.664 42.8067L66.6102 43.7496C66.8718 44.0023 67.2878 43.9986 67.5451 43.7416C67.8021 43.4843 67.8058 43.0686 67.5531 42.8067L66.6102 41.8639C66.4851 41.7381 66.3148 41.667 66.1371 41.667C65.9595 41.667 65.7895 41.7381 65.664 41.8639Z" fill="#F8F8F8"/>
<path d="M64.7214 43.7492C64.4595 43.4965 64.0438 43.5001 63.7864 43.7574C63.5294 44.0147 63.5258 44.4304 63.7785 44.692L64.7214 45.6349C64.9829 45.8876 65.3987 45.8839 65.656 45.6269C65.913 45.3696 65.9166 44.9536 65.6639 44.692L64.7214 43.7492Z" fill="#F8F8F8"/>
<path d="M69.594 58.5799C72.2248 55.5875 72.8227 51.317 71.115 47.7172C71.0124 47.502 70.803 47.358 70.5655 47.339C70.3278 47.3201 70.0982 47.4294 69.963 47.6256C69.8278 47.8219 69.8077 48.0755 69.9102 48.2907C70.4627 49.4506 70.7478 50.72 70.7441 52.0047C70.7447 55.527 68.6139 58.6996 65.3529 60.031C62.0918 61.3627 58.3495 60.5883 55.8844 58.0723C55.6256 57.8156 55.2084 57.8147 54.9483 58.0699C54.688 58.3251 54.6809 58.742 54.9321 59.006C58.6403 62.7985 64.6676 63.0262 68.6512 59.524L72.9399 63.8127C73.2015 64.0654 73.6175 64.0618 73.8745 63.8045C74.1318 63.5475 74.1355 63.1315 73.8827 62.8699L69.594 58.5799Z" fill="#F8F8F8"/>
<path d="M36.072 55.339H50.7409C51.1093 55.339 51.4078 55.0405 51.4078 54.6721C51.4078 54.304 51.1093 54.0055 50.7409 54.0055H36.072C35.7036 54.0055 35.4051 53.707 35.4051 53.3385V46.6709C35.4051 46.3025 35.7036 46.004 36.072 46.004H50.7409C51.1093 46.004 51.4078 45.7054 51.4078 45.3373C51.4078 44.9689 51.1093 44.6704 50.7409 44.6704H38.0721V42.0033C38.0721 41.6352 37.7736 41.3364 37.4055 41.3364C37.0371 41.3364 36.7386 41.6352 36.7386 42.0033V44.6704H36.072C34.9671 44.6704 34.0715 45.566 34.0715 46.6709V53.3385C34.0715 54.4435 34.9671 55.339 36.072 55.339Z" fill="#F8F8F8"/>
<path d="M36.7385 48.0043V52.0049C36.7385 52.373 37.037 52.6718 37.4054 52.6718C37.7735 52.6718 38.0721 52.373 38.0721 52.0049V48.0043C38.0721 47.6359 37.7735 47.3374 37.4054 47.3374C37.037 47.3374 36.7385 47.6359 36.7385 48.0043Z" fill="#F8F8F8"/>
<path d="M52.0744 28.6676C52.4428 28.6676 52.7413 28.369 52.7413 28.0009V26.6674H56.198C56.5228 27.5858 57.462 28.1368 58.4222 27.9719C59.3825 27.8074 60.0842 26.9748 60.0842 26.0005C60.0842 25.0262 59.3825 24.1938 58.4222 24.029C57.462 23.8642 56.5228 24.4151 56.198 25.3339H50.0743C49.3377 25.3339 48.7407 25.9309 48.7407 26.6674V28.0009C48.7407 28.369 49.0392 28.6676 49.4073 28.6676C49.7757 28.6676 50.0743 28.369 50.0743 28.0009V26.6674H51.4078V28.0009C51.4078 28.369 51.7063 28.6676 52.0744 28.6676ZM58.0755 25.3339C58.4439 25.3339 58.7424 25.6324 58.7424 26.0005C58.7424 26.3689 58.4439 26.6674 58.0755 26.6674C57.7074 26.6674 57.4089 26.3689 57.4089 26.0005C57.4089 25.6324 57.7074 25.3339 58.0755 25.3339Z" fill="#F8F8F8"/>
<path d="M48.7407 33.3348C48.7407 33.7032 49.0392 34.0017 49.4073 34.0017C49.7757 34.0017 50.0743 33.7032 50.0743 33.3348V32.0013H51.4078V33.3348C51.4078 33.7032 51.7063 34.0017 52.0744 34.0017C52.4428 34.0017 52.7413 33.7032 52.7413 33.3348V32.0013H56.198C56.5228 32.9197 57.462 33.4707 58.4222 33.3061C59.3825 33.1413 60.0842 32.3087 60.0842 31.3344C60.0842 30.3604 59.3825 29.5277 58.4222 29.3629C57.462 29.1984 56.5228 29.7493 56.198 30.6678H50.0743C49.3377 30.6678 48.7407 31.2648 48.7407 32.0013V33.3348ZM58.0755 30.6678C58.4439 30.6678 58.7424 30.9663 58.7424 31.3344C58.7424 31.7028 58.4439 32.0013 58.0755 32.0013C57.7074 32.0013 57.4089 31.7028 57.4089 31.3344C57.4089 30.9663 57.7074 30.6678 58.0755 30.6678Z" fill="#F8F8F8"/>
<path d="M37.4054 37.3354C37.037 37.3354 36.7385 37.634 36.7385 38.0024V39.3359C36.7385 39.704 37.037 40.0025 37.4054 40.0025C37.7735 40.0025 38.0721 39.704 38.0721 39.3359V38.0024C38.0721 37.634 37.7735 37.3354 37.4054 37.3354Z" fill="#F8F8F8"/>
<path d="M38.0721 34.0019C38.0721 33.6335 37.7735 33.335 37.4054 33.335C37.037 33.335 36.7385 33.6335 36.7385 34.0019V35.3354C36.7385 35.7035 37.037 36.002 37.4054 36.002C37.7735 36.002 38.0721 35.7035 38.0721 35.3354V34.0019Z" fill="#F8F8F8"/>
<path d="M38.0721 30.0011C38.0721 29.633 37.7735 29.3345 37.4054 29.3345C37.037 29.3345 36.7385 29.633 36.7385 30.0011V31.3346C36.7385 31.703 37.037 32.0015 37.4054 32.0015C37.7735 32.0015 38.0721 31.703 38.0721 31.3346V30.0011Z" fill="#F8F8F8"/>
<path d="M46.7401 25.3337H45.4066C45.0385 25.3337 44.74 25.6323 44.74 26.0004C44.74 26.3688 45.0385 26.6673 45.4066 26.6673H46.7401C47.1085 26.6673 47.4071 26.3688 47.4071 26.0004C47.4071 25.6323 47.1085 25.3337 46.7401 25.3337Z" fill="#F8F8F8"/>
<path d="M42.7395 25.3337H41.4059C41.0375 25.3337 40.739 25.6323 40.739 26.0004C40.739 26.3688 41.0375 26.6673 41.4059 26.6673H42.7395C43.1076 26.6673 43.4064 26.3688 43.4064 26.0004C43.4064 25.6323 43.1076 25.3337 42.7395 25.3337Z" fill="#F8F8F8"/>
<path d="M46.7401 30.668H45.4066C45.0385 30.668 44.74 30.9665 44.74 31.3346C44.74 31.703 45.0385 32.0015 45.4066 32.0015H46.7401C47.1085 32.0015 47.4071 31.703 47.4071 31.3346C47.4071 30.9665 47.1085 30.668 46.7401 30.668Z" fill="#F8F8F8"/>
<path d="M42.7395 30.668H40.0724C39.704 30.668 39.4055 30.9665 39.4055 31.3346C39.4055 31.703 39.704 32.0015 40.0724 32.0015H42.7395C43.1076 32.0015 43.4064 31.703 43.4064 31.3346C43.4064 30.9665 43.1076 30.668 42.7395 30.668Z" fill="#F8F8F8"/>
<path d="M52.0744 39.336C52.4428 39.336 52.7413 39.0375 52.7413 38.6691V37.3356H56.198C56.5228 38.2543 57.462 38.8052 58.4222 38.6404C59.3825 38.4756 60.0842 37.6432 60.0842 36.6689C60.0842 35.6947 59.3825 34.862 58.4222 34.6975C57.462 34.5327 56.5228 35.0836 56.198 36.002H50.0743C49.3377 36.002 48.7407 36.599 48.7407 37.3356V38.6691C48.7407 39.0375 49.0392 39.336 49.4073 39.336C49.7757 39.336 50.0743 39.0375 50.0743 38.6691V37.3356H51.4078V38.6691C51.4078 39.0375 51.7063 39.336 52.0744 39.336ZM58.0755 36.002C58.4439 36.002 58.7424 36.3005 58.7424 36.6689C58.7424 37.037 58.4439 37.3356 58.0755 37.3356C57.7074 37.3356 57.4089 37.037 57.4089 36.6689C57.4089 36.3005 57.7074 36.002 58.0755 36.002Z" fill="#F8F8F8"/>
<path d="M46.7401 36.002H45.4066C45.0385 36.002 44.74 36.3005 44.74 36.6689C44.74 37.037 45.0385 37.3355 45.4066 37.3355H46.7401C47.1085 37.3355 47.4071 37.037 47.4071 36.6689C47.4071 36.3005 47.1085 36.002 46.7401 36.002Z" fill="#F8F8F8"/>
<path d="M42.7395 36.002H40.0724C39.704 36.002 39.4055 36.3005 39.4055 36.6689C39.4055 37.037 39.704 37.3355 40.0724 37.3355H42.7395C43.1076 37.3355 43.4064 37.037 43.4064 36.6689C43.4064 36.3005 43.1076 36.002 42.7395 36.002Z" fill="#F8F8F8"/>
<path d="M38.739 26.6673C39.1071 26.6673 39.4056 26.3688 39.4056 26.0004C39.4056 25.6323 39.1071 25.3337 38.739 25.3337C37.6341 25.3337 36.7385 26.2293 36.7385 27.3339C36.7385 27.5723 36.8658 27.7923 37.0718 27.9114C37.2782 28.0304 37.5324 28.0304 37.7388 27.9114C37.9451 27.7923 38.0721 27.5723 38.0721 27.3339C38.0721 26.9658 38.3706 26.6673 38.739 26.6673Z" fill="#F8F8F8"/>
</g>
</g>
<rect x="0.5" y="0.5" width="492" height="203" rx="19.5" stroke="#404040"/>
<defs>
<filter id="filter1_f_455_253" x="-56.2876" y="-89.9233" width="696.446" height="686.79" filterUnits="userSpaceOnUse" color-interpolation-filters="sRGB">
<feFlood flood-opacity="0" result="BackgroundImageFix"/>
<feBlend mode="normal" in="SourceGraphic" in2="BackgroundImageFix" result="shape"/>
<feGaussianBlur stdDeviation="125" result="effect1_foregroundBlur_455_253"/>
</filter>
<clipPath id="clip0_455_253">
<rect width="493" height="204" rx="20" fill="white"/>
</clipPath>
<clipPath id="clip1_455_253">
<rect width="40" height="40" fill="white" transform="translate(34 24)"/>
</clipPath>
</defs>
</svg>
