<svg width="379" height="383" viewBox="0 0 379 383" fill="none" xmlns="http://www.w3.org/2000/svg">
<g filter="url(#filter0_d_125_258)">
<path d="M177.203 219.99C125.892 219.99 107.824 169.07 101.031 31.1665C48.2741 59.0068 12.2837 114.976 12.2837 179.456C12.2837 188.832 13.0064 198.064 14.5963 207.152C144.682 242.926 198.162 241.484 214.784 193.593C209.002 209.027 194.404 219.99 177.203 219.99Z" fill="#E800A1"/>
<path d="M100.933 31.1665C100.502 31.3109 100.071 31.5996 99.7837 31.744V33.3322C103.376 104.799 109.985 149.411 121.048 177.853C126.939 193.013 134.41 203.986 143.606 211.06C151.22 216.98 160.129 220.3 170.617 221.167V219.867C124.209 215.825 107.399 163.56 100.933 31.1665Z" fill="url(#paint0_linear_125_258)"/>
<path d="M214.824 192.188C198.971 241.743 145.79 243.477 14.7837 207.358C24.584 266.882 65.9469 319.038 126.19 338.976C134.981 341.866 143.917 344.033 152.708 345.333C226.21 230.763 241.487 178.607 201.709 147.833C214.248 158.091 220.013 175.717 214.824 192.188Z" fill="#0652FD"/>
<path d="M14.7837 207.195C14.9278 207.634 14.9278 208.073 15.0719 208.512L16.5131 208.95C84.3912 227.82 128.202 235.281 158.178 233.379C174.175 232.355 186.713 228.406 196.08 221.677C203.862 215.972 209.771 208.365 213.95 198.272L212.653 197.833C194.351 242.156 140.308 242.302 14.7837 207.195Z" fill="url(#paint1_linear_125_258)"/>
<path d="M200.866 146.426C242.268 177.096 227.554 229.177 153.117 345.203C211.83 354.028 273.284 330.157 310.646 277.931C316.128 270.264 320.744 262.307 324.784 254.205C240.393 147.439 196.394 116.624 155.281 145.703C168.841 136.299 187.018 136.154 200.866 146.426Z" fill="#E800A1"/>
<path d="M153.117 345.189C153.549 345.189 153.982 345.333 154.414 345.333L155.279 344.033C193.614 284.054 214.079 243.876 221.574 214.248C225.465 198.35 225.897 185.198 222.438 173.925C219.7 164.675 214.368 156.582 206.297 149.5L205.576 150.512C240.886 181.874 224.312 234.192 153.117 345.189Z" fill="url(#paint2_linear_125_258)"/>
<path d="M154.018 147.095C195.47 116.49 239.666 146.806 325.025 254.5C351.456 200.509 348.134 133.669 310.87 81.4103C305.382 73.7592 299.46 66.8298 293.105 60.3335C167.306 108.983 124.699 142.042 139.142 190.692C134.665 174.957 140.153 157.345 154.018 147.095Z" fill="url(#paint3_linear_125_258)"/>
<path d="M324.208 254.5C324.352 254.067 324.64 253.635 324.784 253.202L323.92 251.904C279.879 196.234 248.79 164.072 223.316 147.774C209.786 138.977 197.553 134.65 185.895 134.506C176.396 134.361 167.184 136.957 158.117 142.582L158.837 143.592C198.848 119.218 242.602 151.38 324.208 254.5Z" fill="url(#paint4_linear_125_258)"/>
<path d="M139.008 191.68C123.132 142.239 165.276 109.086 292.284 59.9334C249.851 17.6994 186.347 0.258101 125.874 20.294C117.07 23.1769 108.699 26.7804 100.617 30.9606C107.256 167.32 125.008 218.491 175.09 219.5C159.07 218.923 144.348 208.257 139.008 191.68Z" fill="#0652FD"/>
<path d="M292.284 59.6809C291.996 59.3912 291.708 59.1014 291.276 58.6667L289.837 59.1014C224.207 84.7463 184.628 105.03 161.456 124.59C149.078 135.167 141.306 145.599 137.42 156.755C134.254 166.028 133.966 175.735 136.413 186.167L137.708 185.732C127.202 139.658 170.811 107.059 292.284 59.6809Z" fill="url(#paint5_linear_125_258)"/>
<path d="M176.867 226.167C201.95 226.167 222.284 205.273 222.284 179.5C222.284 153.727 201.95 132.833 176.867 132.833C151.784 132.833 131.45 153.727 131.45 179.5C131.45 205.273 151.784 226.167 176.867 226.167Z" fill="#E1E8E9"/>
<path d="M177.284 222.833C200.295 222.833 218.95 203.806 218.95 180.333C218.95 156.861 200.295 137.833 177.284 137.833C154.272 137.833 135.617 156.861 135.617 180.333C135.617 203.806 154.272 222.833 177.284 222.833Z" fill="url(#paint6_linear_125_258)"/>
<path d="M190.761 165.863C185.418 165.863 180.653 169.617 176.465 173.66C172.278 169.617 167.657 165.863 162.17 165.863C154.805 165.863 148.741 171.928 148.741 179.436C148.741 186.945 154.805 193.01 162.17 193.01C167.657 193.01 172.278 189.111 176.465 184.923C180.364 188.822 185.129 193.01 190.761 193.01C198.125 193.01 204.19 186.945 204.19 179.436C204.19 171.928 198.125 165.863 190.761 165.863ZM190.761 191.855C185.562 191.855 181.086 187.956 177.332 184.201C177.909 183.624 178.487 183.046 179.064 182.469C179.209 182.324 179.498 182.035 179.642 181.891C182.819 185.068 186.573 188.389 190.905 188.389C195.67 188.389 199.569 184.49 199.569 179.581C199.569 174.671 195.67 170.772 190.905 170.772C185.562 170.772 180.942 175.538 176.465 180.303C171.989 184.923 167.368 189.689 162.459 189.689C157.116 189.689 152.639 185.212 152.639 179.725C152.639 174.671 156.394 170.339 161.303 169.906C161.448 170.339 161.881 170.628 162.459 170.628C163.181 170.628 163.758 170.05 163.758 169.328C163.758 168.606 163.181 168.029 162.459 168.029C161.881 168.029 161.448 168.318 161.303 168.751C155.816 169.328 151.484 174.094 151.484 179.725C151.484 185.79 156.394 190.844 162.314 190.844C167.801 190.844 172.567 185.934 177.187 181.169C181.519 176.693 185.996 172.072 190.905 172.072C195.093 172.072 198.558 175.538 198.558 179.725C198.558 183.913 195.093 187.378 190.905 187.378C187.44 187.378 184.263 184.923 180.508 181.313C184.118 177.704 187.584 174.527 190.905 174.527C193.793 174.527 195.959 176.837 195.959 179.725C195.959 182.613 193.649 184.923 190.905 184.923C189.172 184.923 187.151 183.913 184.696 181.891C184.696 181.747 184.696 181.747 184.696 181.602C184.696 180.88 184.118 180.303 183.396 180.303C182.674 180.303 182.097 180.88 182.097 181.602C182.097 182.324 182.674 182.902 183.396 182.902C183.541 182.902 183.685 182.902 183.974 182.757C186.718 185.068 188.884 186.079 190.905 186.079C194.371 186.079 197.114 183.191 197.114 179.725C197.114 176.26 194.371 173.372 190.905 173.372C186.573 173.372 182.53 177.559 178.342 181.891C173.433 186.945 168.379 192.143 162.314 192.143C155.527 192.143 150.04 186.512 150.04 179.725C150.04 172.794 155.527 167.307 162.314 167.307C167.368 167.307 171.845 170.772 175.743 174.671C175.021 175.393 174.155 176.26 173.433 176.982C170.256 173.949 166.502 170.917 162.17 170.917C157.405 170.917 153.506 174.816 153.506 179.725C153.506 184.635 157.405 188.533 162.17 188.533C167.079 188.533 171.411 184.057 176.176 179.292C180.797 174.527 185.707 169.762 190.761 169.762C196.104 169.762 200.58 174.238 200.58 179.725C200.58 184.779 196.826 189.111 191.916 189.544C191.627 189.111 191.338 188.822 190.761 188.822C190.039 188.822 189.461 189.4 189.461 190.122C189.461 190.844 190.039 191.421 190.761 191.421C191.338 191.421 191.772 191.133 191.916 190.555C197.403 189.977 201.591 185.212 201.591 179.581C201.591 173.516 196.681 168.462 190.761 168.462C185.129 168.462 180.22 173.516 175.455 178.426C170.978 183.046 166.646 187.378 162.314 187.378C158.127 187.378 154.661 183.913 154.661 179.725C154.661 175.538 158.127 172.072 162.314 172.072C166.069 172.072 169.679 174.96 172.711 177.848C168.957 181.602 165.491 184.923 162.314 184.923C159.426 184.923 157.26 182.613 157.26 179.725C157.26 176.837 159.571 174.527 162.314 174.527C164.191 174.527 166.213 175.393 168.523 177.415C168.523 177.559 168.523 177.559 168.523 177.704C168.523 178.426 169.101 179.003 169.823 179.003C170.545 179.003 171.123 178.426 171.123 177.704C171.123 176.982 170.545 176.404 169.823 176.404C169.679 176.404 169.534 176.404 169.245 176.548C166.646 174.382 164.336 173.372 162.314 173.372C158.849 173.372 156.105 176.26 156.105 179.725C156.105 183.191 158.849 186.079 162.314 186.079C166.213 186.079 170.112 182.035 174.299 177.848C179.064 172.938 184.552 167.307 190.905 167.307C197.692 167.307 203.179 172.938 203.179 179.725C203.035 186.367 197.547 191.855 190.761 191.855ZM161.737 168.895C161.737 168.606 161.881 168.462 162.17 168.462C162.459 168.462 162.603 168.606 162.603 168.895C162.603 169.184 162.459 169.328 162.17 169.328C162.025 169.473 161.737 169.184 161.737 168.895ZM183.396 181.747C183.108 181.747 182.963 181.602 182.963 181.313C182.963 181.025 183.108 180.88 183.396 180.88C183.685 180.88 183.83 181.025 183.83 181.313C183.83 181.458 183.541 181.747 183.396 181.747ZM191.194 189.977C191.194 190.266 191.05 190.411 190.761 190.411C190.472 190.411 190.328 190.266 190.328 189.977C190.328 189.689 190.472 189.544 190.761 189.544C191.05 189.544 191.194 189.689 191.194 189.977ZM169.679 176.982C169.967 176.982 170.112 177.126 170.112 177.415C170.112 177.703 169.967 177.848 169.679 177.848C169.39 177.848 169.245 177.703 169.245 177.415C169.245 177.126 169.534 176.982 169.679 176.982Z" fill="#E800A1"/>
<path d="M191.952 54.6287V76.5773H190.508V54.6287H191.952ZM163.939 66.6138V76.5773H162.495V64.881L163.939 66.6138ZM173.18 59.827V76.5773H171.736V61.271L173.18 59.827ZM182.566 58.6718V76.5773H181.122V58.383L182.566 58.6718Z" fill="white"/>
<path fill-rule="evenodd" clip-rule="evenodd" d="M184.299 55.7839L188.197 49.286L191.085 51.0188L191.23 42.788L184.154 46.8312L187.042 48.564L183.721 54.3399L173.18 51.5964L162.783 62.1375L163.65 63.0039L173.469 53.0404L184.299 55.7839ZM184.443 57.2279L174.046 54.6287L164.227 64.5923L163.65 65.1698L163.072 64.5923L161.195 62.7151L160.617 62.1375L161.195 61.5599L172.314 50.2968L172.602 50.008L173.035 50.1524L182.855 52.6072L185.021 48.9972L182.277 47.2644L181.266 46.6868L182.421 46.1092L191.663 40.9108L192.818 40.3333V41.6328L192.674 52.3184V53.6179L191.663 53.0404L188.919 51.3075L185.598 57.0835L185.309 57.5167L184.443 57.2279Z" fill="white"/>
<path d="M74.0307 137.974C73.02 137.974 72.1535 137.541 71.576 136.964C70.9984 136.386 70.5652 135.375 70.5652 134.509C70.5652 133.498 70.9984 132.632 71.576 132.054C72.1535 131.476 73.02 131.043 74.0307 131.043C75.0415 131.043 75.9079 131.476 76.4855 132.054C77.0631 132.632 77.4963 133.642 77.4963 134.509C77.4963 135.52 77.0631 136.386 76.4855 136.964C75.9079 137.686 75.0415 137.974 74.0307 137.974ZM72.8755 135.664C73.1643 135.953 73.5976 136.097 74.0307 136.097C74.4639 136.097 74.8971 135.953 75.1859 135.664C75.4747 135.375 75.6191 134.942 75.6191 134.509C75.6191 134.076 75.4747 133.642 75.1859 133.354C74.8971 133.065 74.4639 132.92 74.0307 132.92C73.5976 132.92 73.1643 133.065 72.8755 133.354C72.5867 133.642 72.4424 134.076 72.4424 134.509C72.4424 134.942 72.5867 135.375 72.8755 135.664Z" fill="white"/>
<path d="M64.3562 138.119C63.3454 138.119 62.479 137.685 61.9014 137.108C61.3238 136.53 60.8906 135.519 60.8906 134.653C60.8906 133.642 61.3238 132.776 61.9014 132.198C62.479 131.621 63.3454 131.188 64.3562 131.188C65.367 131.188 66.2334 131.621 66.811 132.198C67.3886 132.776 67.8218 133.787 67.8218 134.653C67.8218 135.664 67.3886 136.53 66.811 137.108C66.089 137.685 65.2226 138.119 64.3562 138.119ZM63.201 135.664C63.4898 135.953 63.923 136.097 64.3562 136.097C64.7894 136.097 65.2226 135.953 65.5114 135.664C65.8002 135.375 65.9446 134.942 65.9446 134.509C65.9446 134.075 65.8002 133.642 65.5114 133.353C65.2226 133.065 64.7894 132.92 64.3562 132.92C63.923 132.92 63.4898 133.065 63.201 133.353C62.9122 133.642 62.7678 134.075 62.7678 134.509C62.6234 134.942 62.7678 135.375 63.201 135.664Z" fill="white"/>
<path d="M54.8257 138.119C53.8149 138.119 52.9485 137.685 52.3709 137.108C51.7933 136.53 51.3601 135.519 51.3601 134.653C51.3601 133.642 51.7933 132.776 52.3709 132.198C52.9485 131.621 53.8149 131.188 54.8257 131.188C55.8365 131.188 56.7029 131.621 57.2805 132.198C57.8581 132.776 58.2913 133.787 58.2913 134.653C58.2913 135.664 57.8581 136.53 57.2805 137.108C56.7029 137.685 55.8365 138.119 54.8257 138.119ZM53.6705 135.664C53.9593 135.953 54.3925 136.097 54.8257 136.097C55.2589 136.097 55.6921 135.953 55.9809 135.664C56.2697 135.375 56.4141 134.942 56.4141 134.509C56.4141 134.075 56.2697 133.642 55.9809 133.353C55.6921 133.065 55.2589 132.92 54.8257 132.92C54.3925 132.92 53.9593 133.065 53.6705 133.353C53.3817 133.642 53.2373 134.075 53.2373 134.509C53.2373 134.942 53.3817 135.375 53.6705 135.664Z" fill="white"/>
<path d="M80.2398 128.877H48.1832V139.996H80.2398V128.877ZM47.3168 127H81.1062H81.9726V127.866V140.862V141.729H81.1062H47.3168H46.4504V140.862V127.866V127H47.3168Z" fill="white"/>
<path d="M74.3194 142.884H47.3168H46.4504V143.75V156.024V156.89H47.3168H69.5543H70.8538L70.4207 155.735C70.2763 155.302 70.1318 154.724 70.1318 154.291C69.9874 153.858 69.9874 153.28 69.9874 152.847C69.9874 151.115 70.4207 149.526 71.2871 148.082C72.1534 146.638 73.453 145.483 74.897 144.617L74.3194 142.884ZM69.5543 147.216C68.5435 148.949 67.9659 150.826 67.9659 152.847C67.9659 153.425 67.9659 154.003 68.1103 154.58C68.1103 154.725 68.1103 154.869 68.2547 155.158H48.1832V144.761H71.5758C70.8538 145.483 70.1318 146.349 69.5543 147.216Z" fill="white"/>
<path d="M57.1362 147.505C56.5586 146.927 55.6922 146.494 54.6814 146.494C53.6706 146.494 52.9486 146.927 52.2266 147.505C51.649 148.082 51.2158 148.949 51.2158 149.959C51.2158 150.97 51.649 151.692 52.2266 152.414C52.8042 152.992 53.6706 153.425 54.6814 153.425C55.6922 153.425 56.4142 152.992 57.1362 152.414C57.7138 151.837 58.147 150.97 58.147 149.959C58.147 149.093 57.8582 148.227 57.1362 147.505ZM55.981 151.115C55.6922 151.403 55.259 151.548 54.8258 151.548C54.3926 151.548 53.9594 151.403 53.6706 151.115C53.3818 150.826 53.2374 150.393 53.2374 150.104C53.2374 149.671 53.3818 149.382 53.6706 149.093C53.9594 148.804 54.3926 148.66 54.8258 148.66C55.259 148.66 55.6922 148.804 55.981 149.093C56.2698 149.382 56.4142 149.815 56.4142 150.104C56.4142 150.393 56.1254 150.826 55.981 151.115Z" fill="white"/>
<path d="M66.5222 147.505C65.9446 146.927 65.0782 146.494 64.0674 146.494C63.0566 146.494 62.3346 146.927 61.6126 147.505C61.035 148.082 60.6018 148.949 60.6018 149.959C60.6018 150.97 61.035 151.692 61.6126 152.414C62.1902 152.992 63.0566 153.425 64.0674 153.425C65.0782 153.425 65.8002 152.992 66.5222 152.414C67.0998 151.837 67.533 150.97 67.533 149.959C67.533 149.093 67.0998 148.227 66.5222 147.505ZM65.2226 151.115C64.9338 151.403 64.5006 151.548 64.0674 151.548C63.6342 151.548 63.201 151.403 62.9122 151.115C62.6234 150.826 62.479 150.393 62.479 150.104C62.479 149.671 62.6234 149.382 62.9122 149.093C63.201 148.804 63.6342 148.66 64.0674 148.66C64.5006 148.66 64.9338 148.804 65.2226 149.093C65.5114 149.382 65.6558 149.815 65.6558 150.104C65.6558 150.393 65.5114 150.826 65.2226 151.115Z" fill="white"/>
<path d="M70.4207 159.778H48.1832V170.753H79.8066V164.399V163.533C79.951 163.533 80.0954 163.533 80.2398 163.533C80.3842 163.533 80.5286 163.533 80.673 163.533L81.6837 163.388V164.399V171.764V172.63H80.8173H47.3168H46.4504V171.764V158.912V158.046H47.3168H70.4207V159.778Z" fill="white"/>
<path d="M83.7051 157.179C83.4163 157.324 82.9832 157.468 82.6944 157.468C82.4056 157.612 81.9723 157.612 81.6835 157.612C80.6728 157.612 79.8064 157.324 78.94 156.746C78.0736 156.168 77.496 155.446 77.0628 154.58C76.4852 153.28 76.4852 151.836 76.9184 150.681C77.3516 149.526 78.218 148.371 79.5176 147.793C79.8064 147.649 80.2396 147.505 80.5284 147.505C80.8172 147.36 81.2503 147.36 81.5391 147.36C82.5499 147.36 83.4164 147.649 84.2828 148.227C85.1491 148.804 85.7267 149.526 86.1599 150.392C86.7375 151.692 86.7375 153.136 86.3043 154.291C85.8711 155.591 85.0047 156.602 83.7051 157.179ZM82.2611 155.735C82.5499 155.735 82.6944 155.591 82.8388 155.446C83.7052 155.013 84.2827 154.436 84.4271 153.569C84.7159 152.847 84.7159 151.836 84.2828 151.114C83.994 150.537 83.5607 150.104 83.1275 149.67C82.6943 149.382 81.9724 149.093 81.3948 149.093C81.106 149.093 80.9616 149.093 80.6728 149.237C80.384 149.237 80.2396 149.382 79.9508 149.526C79.0844 149.959 78.5068 150.537 78.3624 151.403C78.0736 152.125 78.0736 153.136 78.5068 153.858C78.7956 154.436 79.2288 154.869 79.662 155.302C80.0952 155.591 80.8172 155.88 81.3948 155.88C81.828 155.88 82.1167 155.88 82.2611 155.735Z" fill="white"/>
<path d="M89.1925 154.58L88.3261 154.291L87.6041 154.002L87.7485 153.28C87.7485 152.992 87.7485 152.703 87.7485 152.414C87.7485 152.125 87.7485 151.836 87.6041 151.548L87.4597 150.826L88.0373 150.537L88.9037 150.104C88.9037 150.104 89.0481 150.104 89.0481 149.959V149.815L88.4705 148.66C88.4705 148.66 88.4705 148.515 88.3261 148.515H88.1817L87.3153 148.948L86.7377 149.237L86.3046 148.66C86.1602 148.371 85.8714 148.226 85.727 147.938C85.4382 147.793 85.2938 147.504 85.005 147.36L84.4273 146.927L84.7162 146.205L85.005 145.338V145.194C85.005 145.194 85.005 145.05 84.8606 145.05L83.7053 144.616H83.561C83.561 144.616 83.4166 144.616 83.4166 144.761L83.1278 145.772L82.839 146.494L82.117 146.349C81.8282 146.349 81.5394 146.349 81.2506 146.349C80.9618 146.349 80.673 146.349 80.3842 146.494L79.6622 146.638L79.3734 145.916L78.9402 145.05C78.9402 145.05 78.9402 144.905 78.7958 144.905H78.6514L77.4962 145.483C77.4962 145.483 77.3518 145.483 77.3518 145.627V145.772L77.785 146.638L78.0738 147.36L77.4962 147.793C77.2074 147.938 77.063 148.226 76.7742 148.371C76.6298 148.66 76.341 148.804 76.1966 149.093L75.7634 149.67L75.0414 149.382L74.1751 149.093H74.0307C74.0307 149.093 73.8862 149.093 73.8862 149.237L73.4531 150.392L74.3194 150.681L75.0414 150.97L74.8971 151.692C74.8971 151.981 74.8971 152.27 74.8971 152.558C74.8971 152.847 74.897 153.136 75.0414 153.425L75.1858 154.147L74.6082 154.436L73.7418 154.869C73.7418 154.869 73.5974 154.869 73.5974 155.013V155.158L74.1751 156.313C74.1751 156.313 74.175 156.457 74.3194 156.457H74.4638L75.3302 156.024L75.9078 155.735L76.341 156.313C76.4854 156.602 76.7742 156.746 76.9186 157.035C77.2074 157.179 77.3518 157.468 77.6406 157.612L78.2182 158.046L77.9294 158.768L77.6406 159.634C77.6406 159.634 77.6406 159.634 77.6406 159.778C77.6406 159.778 77.6406 159.778 77.6406 159.923L78.7958 160.356C78.7958 160.356 78.7958 160.356 78.9402 160.356C78.9402 160.356 78.9402 160.356 79.0846 160.356L79.3734 159.345L79.6622 158.623L80.3842 158.768C80.673 158.768 80.9618 158.768 81.2506 158.768C81.5394 158.768 81.8282 158.768 82.117 158.623L82.839 158.479L83.1278 159.201L83.561 160.067C83.561 160.067 83.561 160.212 83.7053 160.212H83.8498L85.005 159.634C85.005 159.634 85.1493 159.634 85.1493 159.49V159.345L84.7162 158.479L84.4273 157.757L85.005 157.324C85.2938 157.179 85.4382 156.89 85.5826 156.746C85.727 156.457 86.0157 156.313 86.1601 156.024L86.5933 155.446L87.3153 155.735L88.1817 156.024C88.1817 156.024 88.1817 156.024 88.3261 156.024C88.3261 156.024 88.3261 156.024 88.4705 156.024L88.9037 154.869C89.3369 154.724 89.3369 154.724 89.1925 154.58C89.3369 154.58 89.3369 154.58 89.1925 154.58ZM89.6257 152.703L89.9145 152.847C90.4921 152.992 90.7809 153.425 91.0697 153.858C91.3585 154.291 91.3585 154.869 91.0697 155.446L90.6365 156.602C90.4921 156.89 90.3477 157.035 90.2033 157.324C90.0589 157.468 89.7701 157.612 89.6257 157.757C89.3369 157.901 89.1925 157.901 88.9037 157.901C88.6149 157.901 88.3261 157.901 88.1817 157.757L87.893 157.612C87.7486 157.757 87.7485 157.901 87.6041 157.901C87.4597 158.046 87.4597 158.046 87.3153 158.19L87.4597 158.479C87.7485 159.056 87.7485 159.49 87.4597 160.067C87.3153 160.5 86.8822 160.934 86.449 161.222L85.2937 161.8C84.7162 162.089 84.2829 162.089 83.7053 161.8C83.2722 161.656 82.839 161.222 82.5502 160.789L82.4058 160.5C82.2614 160.5 82.117 160.5 81.9726 160.5C81.8282 160.5 81.6838 160.5 81.5394 160.5L81.395 160.789C81.2506 161.078 81.1062 161.222 80.9618 161.511C80.8174 161.656 80.5286 161.8 80.3842 161.944C80.0954 162.089 79.8066 162.089 79.6622 162.089C79.3734 162.089 79.0846 162.089 78.9402 161.944L77.785 161.511C77.4962 161.367 77.3518 161.222 77.063 161.078C76.9186 160.934 76.7742 160.645 76.6298 160.356C76.4854 160.067 76.4854 159.778 76.4854 159.634C76.4854 159.345 76.4854 159.056 76.6298 158.912L76.7742 158.623C76.6298 158.479 76.4854 158.479 76.4854 158.334C76.341 158.19 76.341 158.19 76.1966 158.046L75.9078 158.19C75.3302 158.479 74.897 158.479 74.3194 158.19C73.8862 158.046 73.4531 157.612 73.1643 157.179L72.5867 156.024C72.2979 155.446 72.2979 155.013 72.5867 154.436C72.7311 154.002 73.1642 153.569 73.5974 153.28L73.8862 153.136C73.8862 152.992 73.8862 152.847 73.8862 152.703C73.8862 152.558 73.8862 152.414 73.8862 152.27L73.5974 152.125C73.3086 151.981 73.1642 151.836 72.8754 151.692C72.731 151.548 72.5867 151.259 72.4423 151.114C72.4423 150.97 72.2979 150.826 72.2979 150.681C72.2979 150.537 72.2979 150.392 72.2979 150.248C72.2979 150.104 72.2979 149.959 72.2979 149.959C72.2979 149.815 72.2979 149.67 72.4423 149.67L72.8754 148.515C73.0198 147.938 73.4531 147.649 73.8862 147.36C74.3194 147.071 74.897 147.071 75.4746 147.216L75.7634 147.36C75.9078 147.216 75.9078 147.071 76.0522 147.071C76.1966 146.927 76.1966 146.782 76.341 146.782L76.1966 146.494C75.9078 145.916 75.9078 145.483 76.1966 144.905C76.341 144.472 76.7742 144.039 77.2074 143.75L78.3626 143.172C78.7958 142.884 79.3734 142.884 79.951 143.172C80.3842 143.317 80.8174 143.75 81.1062 144.183L81.2506 144.472C81.395 144.472 81.5394 144.472 81.6838 144.472C81.8282 144.472 81.9726 144.472 82.117 144.472L82.2614 144.183C82.4058 143.606 82.839 143.317 83.2722 143.028C83.7054 142.739 84.283 142.739 84.8606 142.884L86.0157 143.317C86.5933 143.461 86.8822 143.894 87.171 144.328C87.3154 144.761 87.4598 145.338 87.171 145.916L87.0265 146.205C87.1709 146.349 87.3153 146.349 87.3153 146.494C87.4597 146.638 87.4597 146.638 87.6041 146.782L87.893 146.638C88.4705 146.349 88.9037 146.349 89.4813 146.638C89.9145 146.782 90.3477 147.216 90.6365 147.649L91.2141 148.804C91.5029 149.382 91.5029 149.815 91.2141 150.392C91.0697 150.826 90.6365 151.259 90.2033 151.548L89.9145 151.692C89.9145 151.836 89.9145 151.981 89.9145 152.125C89.6257 152.414 89.6257 152.558 89.6257 152.703Z" fill="white"/>
<path d="M127.37 301.309H95.1689C94.0137 301.309 93.0029 300.876 92.2809 300.154C91.559 299.432 91.1257 298.421 91.1257 297.266V261.31C91.1257 260.155 91.559 259.144 92.2809 258.422C93.0029 257.7 94.0137 257.267 95.1689 257.267H127.37C128.525 257.267 129.536 257.7 130.258 258.422C130.98 259.144 131.413 260.155 131.413 261.31V297.266C131.413 298.421 130.98 299.432 130.258 300.154C129.536 300.876 128.525 301.309 127.37 301.309ZM95.1689 299.576H127.37C127.947 299.576 128.669 299.287 128.958 298.854C129.391 298.421 129.68 297.843 129.68 297.121V261.166C129.68 260.444 129.391 259.866 128.958 259.433C128.525 259 127.947 258.711 127.37 258.711H95.1689C94.4469 258.711 93.8693 259 93.4361 259.433C93.0029 259.866 92.7141 260.444 92.7141 261.166V297.121C92.7141 297.843 93.0029 298.421 93.4361 298.854C93.8693 299.287 94.4469 299.576 95.1689 299.576Z" fill="white"/>
<path d="M118.272 266.364H123.471H124.337V267.231V271.707V272.573H123.471H118.272H117.406V271.707V267.231V266.364H118.272ZM122.604 268.097H119.139V270.696H122.604V268.097Z" fill="white"/>
<path d="M108.598 266.364H113.796H114.663V267.231V271.707V272.573H113.796H108.598H107.731V271.707V267.231V266.364H108.598ZM112.93 268.097H109.464V270.696H112.93V268.097Z" fill="white"/>
<path d="M99.0675 266.364H104.266H105.132V267.231V271.707V272.573H104.266H99.0675H98.2012V271.707V267.231V266.364H99.0675ZM103.399 268.097H99.9339V270.696H103.399V268.097Z" fill="white"/>
<path d="M118.272 276.039H123.471H124.337V276.905V281.382V282.248H123.471H118.272H117.406V281.382V276.905V276.039H118.272ZM122.604 277.916H119.139V280.515H122.604V277.916Z" fill="white"/>
<path d="M108.598 276.039H113.796H114.663V276.905V281.382V282.248H113.796H108.598H107.731V281.382V276.905V276.039H108.598ZM112.93 277.916H109.464V280.515H112.93V277.916Z" fill="white"/>
<path d="M99.0675 276.039H104.266H105.132V276.905V281.382V282.248H104.266H99.0675H98.2012V281.382V276.905V276.039H99.0675ZM103.399 277.916H99.9339V280.515H103.399V277.916Z" fill="white"/>
<path d="M118.272 285.858H123.471H124.337V286.725V291.201V292.067H123.471H118.272H117.406V291.201V286.725V285.858H118.272ZM122.604 287.591H119.139V290.19H122.604V287.591Z" fill="white"/>
<path d="M108.598 285.858H113.796H114.663V286.725V291.201V292.067H113.796H108.598H107.731V291.201V286.725V285.858H108.598ZM112.93 287.591H109.464V290.19H112.93V287.591Z" fill="white"/>
<path d="M99.0675 285.858H104.266H105.132V286.725V291.201V292.067H104.266H99.0675H98.2012V291.201V286.725V285.858H99.0675ZM103.399 287.591H99.9339V290.19H103.399V287.591Z" fill="white"/>
<path d="M273.338 287.567L263.519 279.481C263.375 279.77 263.23 279.914 262.942 280.203C262.653 280.492 262.364 280.925 262.075 281.214L272.039 289.3C272.183 289.3 272.183 289.445 272.327 289.445C272.472 289.445 272.616 289.445 272.616 289.445C272.761 289.445 272.905 289.445 273.049 289.3C273.194 289.3 273.338 289.156 273.483 289.011C273.627 288.723 273.771 288.434 273.627 288.145C273.771 288.001 273.627 287.712 273.338 287.567ZM263.808 277.604L274.349 286.268C274.927 286.701 275.36 287.423 275.36 288.145C275.504 288.867 275.215 289.589 274.782 290.311C274.493 290.744 274.205 290.889 273.771 291.177C273.338 291.322 272.905 291.466 272.472 291.466C272.183 291.466 271.894 291.466 271.605 291.322C271.317 291.177 271.028 291.033 270.739 290.889L260.054 282.225L259.332 281.647L260.054 280.925L260.198 280.781C260.198 280.781 260.198 280.781 260.342 280.636C260.776 280.203 261.064 279.77 261.498 279.337C261.786 278.904 262.219 278.47 262.508 277.893L263.086 277.026L263.808 277.604Z" fill="white"/>
<path d="M244.314 280.781C245.036 281.069 245.902 281.358 246.769 281.503C247.635 281.647 248.357 281.791 249.224 281.791C250.09 281.791 250.956 281.647 251.678 281.503C252.545 281.358 253.267 281.069 254.133 280.781C254.855 280.492 255.433 280.059 256.155 279.77C256.732 279.337 257.31 278.903 257.888 278.326C257.888 278.326 257.888 278.326 258.032 278.181L258.176 278.037C258.609 277.604 258.898 277.315 259.187 276.882C259.476 276.449 259.765 276.015 260.053 275.582C260.198 275.293 260.342 275.005 260.487 274.716C260.631 274.427 260.775 274.138 260.92 273.849C261.209 273.127 261.497 272.261 261.642 271.395C261.786 270.528 261.931 269.662 261.931 268.795C261.931 267.929 261.786 267.063 261.642 266.196C261.497 265.33 261.209 264.608 260.92 263.742C260.92 263.597 260.775 263.453 260.775 263.453C260.775 263.308 260.631 263.164 260.631 263.164C260.342 262.586 259.909 261.864 259.62 261.287C259.187 260.709 258.754 260.132 258.321 259.698C258.032 259.41 257.743 259.121 257.31 258.832C257.021 258.543 256.588 258.254 256.299 258.11C256.01 257.821 255.577 257.677 255.288 257.532C254.999 257.388 254.566 257.244 254.278 257.099C253.556 256.81 252.689 256.522 251.823 256.377C250.956 256.233 250.234 256.088 249.368 256.088C248.502 256.088 247.635 256.233 246.913 256.377C246.047 256.522 245.325 256.81 244.458 257.099C244.17 257.244 243.736 257.388 243.448 257.532C243.159 257.677 242.87 257.966 242.437 258.11C242.004 258.399 241.715 258.688 241.426 258.832C241.137 259.121 240.704 259.41 240.415 259.698C239.982 260.276 239.404 260.709 239.116 261.287C238.682 261.864 238.394 262.442 238.105 263.164C238.105 263.308 237.96 263.453 237.96 263.453C237.96 263.597 237.816 263.597 237.816 263.742C237.527 264.464 237.238 265.33 237.094 266.196C236.95 267.063 236.805 267.929 236.805 268.795C236.805 269.662 236.95 270.528 237.094 271.395C237.238 272.261 237.527 272.983 237.816 273.849C238.105 274.571 238.538 275.293 238.971 276.015C239.404 276.737 239.982 277.315 240.56 277.893C241.137 278.47 241.715 279.048 242.437 279.481C242.87 280.059 243.592 280.492 244.314 280.781ZM246.336 283.235C245.469 283.091 244.458 282.802 243.592 282.369C242.726 281.936 241.859 281.503 241.137 281.069C240.415 280.492 239.693 279.914 238.971 279.337C238.249 278.615 237.672 277.893 237.238 277.171C236.661 276.449 236.228 275.582 235.939 274.716C235.506 273.849 235.217 272.839 235.072 271.972C234.928 270.961 234.784 270.095 234.784 269.084C234.784 268.073 234.928 267.207 235.072 266.196C235.217 265.186 235.506 264.319 235.939 263.453C235.939 263.308 236.083 263.164 236.083 263.02C236.083 262.875 236.228 262.731 236.228 262.731C236.516 262.009 236.95 261.287 237.383 260.709C237.816 259.987 238.394 259.41 238.971 258.832C239.404 258.399 239.693 258.11 240.126 257.821C240.56 257.532 240.993 257.244 241.282 256.955C241.57 256.666 242.004 256.522 242.437 256.233C242.726 256.088 243.159 255.8 243.592 255.655C244.458 255.222 245.325 254.933 246.336 254.789C247.346 254.644 248.213 254.5 249.224 254.5C250.234 254.5 251.101 254.644 252.112 254.789C252.978 254.933 253.989 255.222 254.855 255.655C255.288 255.8 255.577 255.944 256.01 256.233C256.443 256.377 256.732 256.666 257.166 256.955C257.599 257.244 258.032 257.532 258.321 257.821C258.754 258.11 259.043 258.543 259.476 258.832C260.053 259.41 260.487 259.987 261.064 260.709C261.497 261.431 261.931 262.009 262.219 262.731C262.219 262.875 262.364 263.02 262.364 263.02C262.508 263.164 262.508 263.308 262.508 263.453C262.941 264.319 263.23 265.33 263.375 266.196C263.519 267.207 263.663 268.073 263.663 269.084C263.663 270.095 263.519 270.961 263.375 271.972C263.23 272.983 262.941 273.849 262.508 274.716C262.364 275.005 262.219 275.293 262.075 275.727C261.931 276.015 261.786 276.304 261.497 276.593C261.209 277.026 260.92 277.604 260.487 278.037C260.198 278.47 259.765 278.903 259.331 279.337L259.187 279.481C259.187 279.481 259.187 279.481 259.043 279.625C258.465 280.203 257.743 280.781 257.021 281.214C256.299 281.647 255.577 282.08 254.711 282.369C253.844 282.802 252.978 283.091 251.967 283.235C250.956 283.38 250.09 283.524 249.079 283.524C248.357 283.524 247.346 283.524 246.336 283.235Z" fill="white"/>
<path d="M249.801 269.517C248.646 269.517 247.635 269.084 246.913 268.218C246.191 267.496 245.758 266.341 245.758 265.185C245.758 264.03 246.191 263.019 246.913 262.153C247.635 261.431 248.646 260.854 249.801 260.854C250.957 260.854 251.967 261.287 252.689 262.153C253.411 262.875 253.845 264.03 253.845 265.185C253.845 266.341 253.411 267.351 252.689 268.218C251.967 269.084 250.812 269.517 249.801 269.517ZM248.069 267.063C248.502 267.496 249.079 267.785 249.801 267.785C250.523 267.785 251.101 267.496 251.534 267.063C251.967 266.629 252.256 266.052 252.256 265.33C252.256 264.608 251.967 264.03 251.534 263.597C251.101 263.164 250.523 262.875 249.801 262.875C249.079 262.875 248.502 263.164 248.069 263.597C247.635 264.03 247.347 264.608 247.347 265.33C247.347 266.052 247.635 266.629 248.069 267.063Z" fill="white"/>
<path d="M247.491 270.239C246.624 270.817 246.047 271.395 245.614 272.117C245.325 272.694 245.18 273.272 245.18 273.994H254.422C254.422 273.272 254.278 272.694 253.989 272.117C253.7 271.395 253.122 270.817 252.256 270.384H252.112L252.978 268.795H253.122C254.278 269.517 255 270.239 255.577 271.25C256.155 272.261 256.299 273.561 256.299 274.86V275.727H255.433H244.458H243.592V274.86C243.592 273.561 243.736 272.405 244.314 271.25C244.892 270.239 245.614 269.373 246.769 268.795H246.913L247.491 270.239Z" fill="white"/>
<path d="M295.375 118.964C294.365 118.964 293.354 118.531 292.776 117.809C292.054 117.087 291.621 116.221 291.621 115.066C291.621 114.055 292.054 113.044 292.776 112.322C293.498 111.6 294.365 111.167 295.375 111.167C296.386 111.167 297.397 111.6 297.975 112.322C298.697 113.044 299.13 113.91 299.13 115.066C299.13 116.076 298.697 117.087 297.975 117.809C297.397 118.531 296.386 118.964 295.375 118.964ZM293.787 116.654C294.22 117.087 294.653 117.231 295.375 117.231C295.953 117.231 296.531 116.943 296.964 116.654C297.397 116.221 297.541 115.643 297.541 115.066C297.541 114.488 297.253 113.91 296.964 113.477C296.531 113.044 295.953 112.9 295.375 112.9C294.798 112.9 294.22 113.188 293.787 113.477C293.354 113.91 293.209 114.488 293.209 115.066C293.209 115.788 293.498 116.221 293.787 116.654Z" fill="white"/>
<path d="M293.354 119.542C292.488 119.975 292.055 120.553 291.621 121.275C291.333 121.708 291.188 122.285 291.188 122.863H299.419C299.419 122.285 299.275 121.708 298.986 121.275C298.697 120.697 298.119 120.119 297.397 119.686H297.253L297.975 118.242H298.119C299.13 118.82 299.852 119.542 300.285 120.553C300.719 121.563 301.007 122.574 300.863 123.729V124.451H300.141H290.322H289.6V123.729C289.6 122.574 289.744 121.419 290.177 120.553C290.611 119.686 291.333 118.82 292.343 118.242H292.488L293.354 119.542Z" fill="white"/>
<path d="M278.626 118.964C277.615 118.964 276.604 118.531 276.027 117.809C275.305 117.087 274.871 116.221 274.871 115.066C274.871 114.055 275.305 113.044 276.027 112.322C276.749 111.6 277.615 111.167 278.626 111.167C279.637 111.167 280.647 111.6 281.225 112.322C281.947 113.044 282.38 113.91 282.38 115.066C282.38 116.076 281.947 117.087 281.225 117.809C280.647 118.531 279.637 118.964 278.626 118.964ZM277.037 116.654C277.471 117.087 277.904 117.231 278.626 117.231C279.203 117.231 279.781 116.943 280.214 116.654C280.647 116.221 280.792 115.643 280.792 115.066C280.792 114.488 280.503 113.91 280.214 113.477C279.781 113.044 279.348 112.9 278.626 112.9C278.048 112.9 277.471 113.188 277.037 113.477C276.604 113.91 276.46 114.488 276.46 115.066C276.46 115.788 276.604 116.221 277.037 116.654Z" fill="white"/>
<path d="M276.604 119.542C275.737 119.975 275.304 120.553 274.871 121.275C274.582 121.708 274.438 122.285 274.438 122.863H282.669C282.669 122.285 282.524 121.708 282.235 121.275C281.947 120.697 281.369 120.119 280.647 119.686H280.503L281.225 118.242H281.369C282.38 118.82 283.102 119.542 283.535 120.553C283.968 121.563 284.257 122.574 284.113 123.729V124.451H283.535H273.716H272.994V123.729C272.994 122.574 273.138 121.419 273.571 120.553C274.005 119.686 274.727 118.82 275.737 118.242H275.882L276.604 119.542Z" fill="white"/>
<path d="M279.348 125.751H277.759V130.516H279.348V125.751Z" fill="white"/>
<path d="M296.242 125.751H294.654V130.516H296.242V125.751Z" fill="white"/>
<path d="M273.716 136.147V133.259C273.716 132.537 274.149 131.815 274.727 131.238C275.304 130.805 276.026 130.516 276.893 130.516H298.697C299.563 130.516 300.285 130.805 300.863 131.238C301.44 131.671 301.874 132.393 301.874 133.259V136.292H300.285V133.259C300.285 132.971 300.141 132.682 299.852 132.537C299.563 132.249 299.13 132.104 298.552 132.104H276.748C276.315 132.104 275.737 132.249 275.449 132.537C275.16 132.682 275.015 132.971 275.015 133.259V136.147H273.716Z" fill="white"/>
<path d="M288.589 131.238H287V136.148H288.589V131.238Z" fill="white"/>
<path d="M300.863 145.101C299.852 145.101 298.841 144.667 298.264 143.945C297.542 143.223 297.108 142.357 297.108 141.202C297.108 140.191 297.542 139.18 298.264 138.458C298.986 137.736 299.852 137.303 300.863 137.303C301.874 137.303 302.884 137.736 303.462 138.458C304.184 139.18 304.617 140.047 304.617 141.202C304.617 142.213 304.184 143.223 303.462 143.945C302.884 144.667 301.874 145.101 300.863 145.101ZM299.274 142.935C299.708 143.368 300.141 143.512 300.863 143.512C301.44 143.512 302.018 143.223 302.451 142.935C302.884 142.501 303.029 141.924 303.029 141.346C303.029 140.769 302.74 140.191 302.451 139.758C302.018 139.325 301.44 139.18 300.863 139.18C300.285 139.18 299.708 139.469 299.274 139.758C298.841 140.191 298.697 140.769 298.697 141.346C298.697 141.924 298.986 142.501 299.274 142.935Z" fill="white"/>
<path d="M298.841 145.823C297.975 146.256 297.542 146.834 297.108 147.556C296.82 147.989 296.675 148.566 296.675 149.144H304.906C304.906 148.566 304.762 147.989 304.473 147.556C304.184 146.978 303.606 146.4 302.884 145.967H302.74L303.462 144.523H303.606C304.617 145.101 305.339 145.823 305.772 146.834C306.206 147.844 306.494 148.855 306.35 150.01V150.732H305.628H295.809H295.087V150.01C295.087 148.855 295.231 147.7 295.665 146.834C296.098 145.967 296.82 145.101 297.83 144.523H297.975L298.841 145.823Z" fill="white"/>
<path d="M287.867 145.101C286.856 145.101 285.845 144.667 285.268 143.945C284.546 143.223 284.113 142.357 284.113 141.202C284.113 140.191 284.546 139.18 285.268 138.458C285.99 137.736 286.856 137.303 287.867 137.303C288.878 137.303 289.888 137.736 290.466 138.458C291.188 139.18 291.621 140.047 291.621 141.202C291.621 142.213 291.188 143.223 290.466 143.945C289.744 144.667 288.878 145.101 287.867 145.101ZM286.279 142.935C286.712 143.368 287.145 143.512 287.867 143.512C288.445 143.512 289.022 143.223 289.455 142.935C289.889 142.501 290.033 141.924 290.033 141.346C290.033 140.769 289.744 140.191 289.455 139.758C289.022 139.325 288.445 139.18 287.867 139.18C287.289 139.18 286.712 139.469 286.279 139.758C285.845 140.191 285.701 140.769 285.701 141.346C285.557 141.924 285.845 142.501 286.279 142.935Z" fill="white"/>
<path d="M285.701 145.823C284.835 146.256 284.401 146.834 283.968 147.556C283.679 147.989 283.535 148.566 283.535 149.144H291.766C291.766 148.566 291.621 147.989 291.333 147.556C291.044 146.978 290.466 146.4 289.744 145.967H289.6L290.322 144.523H290.466C291.477 145.101 292.199 145.823 292.632 146.834C293.065 147.844 293.354 148.855 293.21 150.01V150.732H292.488H282.669H282.091V150.01C282.091 148.855 282.235 147.7 282.669 146.834C283.102 145.967 283.824 145.101 284.835 144.523H284.979L285.701 145.823Z" fill="white"/>
<path d="M274.726 145.101C273.716 145.101 272.705 144.667 272.127 143.945C271.405 143.223 270.972 142.357 270.972 141.202C270.972 140.191 271.405 139.18 272.127 138.458C272.849 137.736 273.716 137.303 274.726 137.303C275.737 137.303 276.748 137.736 277.326 138.458C278.048 139.18 278.481 140.047 278.481 141.202C278.481 142.213 278.048 143.223 277.326 143.945C276.604 144.667 275.737 145.101 274.726 145.101ZM273.138 142.935C273.571 143.368 274.004 143.512 274.726 143.512C275.304 143.512 275.882 143.223 276.315 142.935C276.748 142.501 276.892 141.924 276.892 141.346C276.892 140.769 276.603 140.191 276.315 139.758C275.882 139.325 275.448 139.18 274.726 139.18C274.149 139.18 273.571 139.469 273.138 139.758C272.705 140.191 272.56 140.769 272.56 141.346C272.56 141.924 272.705 142.501 273.138 142.935Z" fill="white"/>
<path d="M272.705 145.823C271.839 146.256 271.405 146.834 270.972 147.556C270.683 147.989 270.539 148.566 270.539 149.144H278.77C278.77 148.566 278.625 147.989 278.337 147.556C278.048 146.978 277.47 146.4 276.748 145.967H276.604L277.326 144.523H277.47C278.481 145.101 279.203 145.823 279.636 146.834C280.069 147.844 280.358 148.855 280.214 150.01V150.732H279.492H269.673H268.951V150.01C268.951 148.855 269.095 147.7 269.528 146.834C269.961 145.967 270.683 145.101 271.694 144.523H271.839L272.705 145.823Z" fill="white"/>
</g>
<defs>
<filter id="filter0_d_125_258" x="0.283691" y="0" width="378" height="383" filterUnits="userSpaceOnUse" color-interpolation-filters="sRGB">
<feFlood flood-opacity="0" result="BackgroundImageFix"/>
<feColorMatrix in="SourceAlpha" type="matrix" values="0 0 0 0 0 0 0 0 0 0 0 0 0 0 0 0 0 0 127 0" result="hardAlpha"/>
<feOffset dx="12" dy="12"/>
<feGaussianBlur stdDeviation="12"/>
<feComposite in2="hardAlpha" operator="out"/>
<feColorMatrix type="matrix" values="0 0 0 0 0 0 0 0 0 0 0 0 0 0 0 0 0 0 0.15 0"/>
<feBlend mode="normal" in2="BackgroundImageFix" result="effect1_dropShadow_125_258"/>
<feBlend mode="normal" in="SourceGraphic" in2="effect1_dropShadow_125_258" result="shape"/>
</filter>
<linearGradient id="paint0_linear_125_258" x1="102.959" y1="93.5242" x2="175.81" y2="97.9022" gradientUnits="userSpaceOnUse">
<stop stop-color="#010101"/>
<stop offset="0.0571662" stop-color="#151717"/>
<stop offset="0.2517" stop-color="#3D4647"/>
<stop offset="0.4379" stop-color="#5E7274"/>
<stop offset="0.6107" stop-color="#7C9AA0"/>
<stop offset="0.7673" stop-color="#93BBC4"/>
<stop offset="0.9022" stop-color="#A1D1DC"/>
<stop offset="1" stop-color="#A8DEE9"/>
</linearGradient>
<linearGradient id="paint1_linear_125_258" x1="23.7127" y1="209.594" x2="137.747" y2="311.766" gradientUnits="userSpaceOnUse">
<stop stop-color="#010101"/>
<stop offset="0.0571662" stop-color="#151717"/>
<stop offset="0.2517" stop-color="#3D4647"/>
<stop offset="0.4379" stop-color="#5E7274"/>
<stop offset="0.6107" stop-color="#7C9AA0"/>
<stop offset="0.7673" stop-color="#93BBC4"/>
<stop offset="0.9022" stop-color="#A1D1DC"/>
<stop offset="1" stop-color="#A8DEE9"/>
</linearGradient>
<linearGradient id="paint2_linear_125_258" x1="156.33" y1="213.772" x2="230.047" y2="218.121" gradientUnits="userSpaceOnUse">
<stop stop-color="#010101"/>
<stop offset="0.0571662" stop-color="#151717"/>
<stop offset="0.2517" stop-color="#3D4647"/>
<stop offset="0.4379" stop-color="#5E7274"/>
<stop offset="0.6107" stop-color="#7C9AA0"/>
<stop offset="0.7673" stop-color="#93BBC4"/>
<stop offset="0.9022" stop-color="#A1D1DC"/>
<stop offset="1" stop-color="#A8DEE9"/>
</linearGradient>
<linearGradient id="paint3_linear_125_258" x1="162.123" y1="124.495" x2="344.269" y2="165.38" gradientUnits="userSpaceOnUse">
<stop stop-color="#989898"/>
<stop offset="1" stop-color="#808184"/>
</linearGradient>
<linearGradient id="paint4_linear_125_258" x1="165.589" y1="173.884" x2="329.409" y2="210.561" gradientUnits="userSpaceOnUse">
<stop stop-color="#010101"/>
<stop offset="0.0571662" stop-color="#151717"/>
<stop offset="0.2517" stop-color="#3D4647"/>
<stop offset="0.4379" stop-color="#5E7274"/>
<stop offset="0.6107" stop-color="#7C9AA0"/>
<stop offset="0.7673" stop-color="#93BBC4"/>
<stop offset="0.9022" stop-color="#A1D1DC"/>
<stop offset="1" stop-color="#A8DEE9"/>
</linearGradient>
<linearGradient id="paint5_linear_125_258" x1="141.845" y1="100.512" x2="298.214" y2="131.65" gradientUnits="userSpaceOnUse">
<stop stop-color="#010101"/>
<stop offset="0.0571662" stop-color="#151717"/>
<stop offset="0.2517" stop-color="#3D4647"/>
<stop offset="0.4379" stop-color="#5E7274"/>
<stop offset="0.6107" stop-color="#7C9AA0"/>
<stop offset="0.7673" stop-color="#93BBC4"/>
<stop offset="0.9022" stop-color="#A1D1DC"/>
<stop offset="1" stop-color="#A8DEE9"/>
</linearGradient>
<linearGradient id="paint6_linear_125_258" x1="206.904" y1="210.15" x2="147.209" y2="150.818" gradientUnits="userSpaceOnUse">
<stop stop-color="#ACC0DC"/>
<stop offset="1" stop-color="white"/>
</linearGradient>
</defs>
</svg>
