<svg width="153" height="24" viewBox="0 0 153 24" fill="none" xmlns="http://www.w3.org/2000/svg">
<path d="M20.1969 16.6814C19.6088 18.077 18.776 19.2858 17.6959 20.3079C16.6183 21.3325 15.3312 22.1375 13.8398 22.7256C12.3483 23.3136 10.7079 23.6088 8.92114 23.6088H0V0.731855H8.92114C10.7079 0.731855 12.3483 1.02208 13.8398 1.59747C15.3312 2.17539 16.6183 2.97539 17.6959 4C18.7735 5.0246 19.6088 6.22839 20.1969 7.61135C20.7849 8.99432 21.0801 10.4934 21.0801 12.106V12.1716C21.0801 13.7842 20.7849 15.2883 20.1969 16.6814ZM15.8158 12.1716C15.8158 11.1697 15.6467 10.2435 15.3085 9.39306C14.9704 8.54258 14.501 7.81325 13.9028 7.20252C13.3022 6.59179 12.5804 6.11987 11.73 5.7817C10.8795 5.44353 9.94322 5.27444 8.91861 5.27444H5.02965V19.0662H8.91861C9.94322 19.0662 10.8795 18.9022 11.73 18.5767C12.5804 18.2511 13.3047 17.7817 13.9028 17.171C14.501 16.5603 14.9704 15.841 15.3085 15.0132C15.6467 14.1855 15.8158 13.2593 15.8158 12.2347V12.1691V12.1716Z" fill="#0652FD"/>
<path d="M24.1514 23.6088V0.731855H29.1836V23.6088H24.1514Z" fill="#0652FD"/>
<path d="M49.8524 22.9375C48.2297 23.6442 46.3723 24 44.2801 24C42.4934 24 40.8656 23.7047 39.3943 23.1167C37.923 22.5287 36.6587 21.711 35.6038 20.6662C34.5464 19.6215 33.7237 18.3773 33.1357 16.9413C32.5476 15.5028 32.2524 13.9356 32.2524 12.2347V12.1691C32.2524 10.5338 32.5527 9.00441 33.1508 7.57855C33.7489 6.15268 34.5842 4.89842 35.6517 3.82082C36.7193 2.74321 37.9836 1.89274 39.4423 1.27192C40.901 0.651098 42.5035 0.340688 44.2473 0.340688C45.2719 0.340688 46.2032 0.41135 47.041 0.552675C47.8789 0.694 48.6587 0.895893 49.3779 1.15835C50.0972 1.42081 50.771 1.74637 51.4044 2.13753C52.0353 2.5287 52.6461 2.97539 53.2341 3.4776L50.0644 7.30094C49.6278 6.92996 49.1937 6.60441 48.7571 6.32176C48.3205 6.03911 47.8688 5.79936 47.4019 5.60252C46.9325 5.40567 46.4253 5.25425 45.8827 5.14574C45.3376 5.03722 44.7394 4.9817 44.0858 4.9817C43.1697 4.9817 42.3167 5.1735 41.5193 5.55457C40.7243 5.93564 40.0278 6.45047 39.4271 7.094C38.829 7.73754 38.3596 8.49211 38.0215 9.3552C37.6833 10.2183 37.5142 11.1394 37.5142 12.1237V12.1893C37.5142 13.2366 37.6833 14.2032 38.0215 15.089C38.3596 15.9722 38.8391 16.742 39.4599 17.3981C40.0808 18.0543 40.8101 18.5615 41.6505 18.9224C42.4883 19.2833 43.4196 19.4625 44.4442 19.4625C46.3167 19.4625 47.8965 19.0006 49.1836 18.0795V14.7886H44.1186V10.4429H54.0543V20.3785C52.8783 21.3804 51.4776 22.236 49.8549 22.9426L49.8524 22.9375Z" fill="#0652FD"/>
<path d="M57.4839 23.6088V0.731855H62.5161V23.6088H57.4839Z" fill="#0652FD"/>
<path d="M83.9874 12.2044C83.5079 13.2063 82.8492 14.0467 82.0114 14.7205C81.1735 15.3968 80.1918 15.9041 79.0713 16.2397C77.9483 16.5779 76.7445 16.747 75.46 16.747H71.6366V23.6088H66.6044V0.731855H75.9496C77.3224 0.731855 78.5489 0.923653 79.6265 1.30473C80.7041 1.6858 81.6202 2.22586 82.3723 2.92239C83.1243 3.61892 83.6997 4.45425 84.1035 5.42334C84.5073 6.39242 84.7092 7.46498 84.7092 8.64101V8.70662C84.7092 10.0366 84.4694 11.2 83.9899 12.2044H83.9874ZM79.6089 8.73943C79.6089 7.60631 79.2429 6.74574 78.5136 6.15772C77.7842 5.56971 76.7874 5.27444 75.5231 5.27444H71.6341V12.2675H75.6215C76.8858 12.2675 77.865 11.9369 78.5615 11.2707C79.2581 10.6069 79.6063 9.78422 79.6063 8.80252V8.73691L79.6089 8.73943Z" fill="#0652FD"/>
<path d="M135.816 23.6088V0.731855H140.848V19.0662H152.252V23.6088H135.813H135.816Z" fill="#0652FD"/>
<path d="M122.786 0C118.127 0 114.074 3.147 110.435 6.62713C106.827 3.15205 102.829 0 98.072 0C91.6896 0 86.4959 5.19369 86.4959 11.576C86.4959 17.9584 91.6896 23.1521 98.072 23.1521C102.766 23.1521 106.814 19.8435 110.433 16.2978C113.845 19.6543 117.885 23.1521 122.786 23.1521C129.169 23.1521 134.362 17.9584 134.362 11.576C134.362 5.19369 129.169 0 122.786 0ZM122.786 22.2006C118.244 22.2006 114.385 18.8492 111.109 15.629C111.611 15.1293 112.104 14.6271 112.588 14.1325C112.755 13.9634 112.921 13.7943 113.085 13.6252C115.881 16.3357 119.145 19.1041 122.784 19.1041C126.935 19.1041 130.314 15.7274 130.314 11.5735C130.314 7.41956 126.935 4.0429 122.784 4.0429C118.206 4.0429 114.16 8.14637 110.249 12.1136C106.4 16.0177 102.42 20.053 98.0694 20.053C93.3931 20.053 89.5874 16.2473 89.5874 11.571C89.5874 7.2101 92.8934 3.61136 97.1306 3.14196C97.3174 3.48013 97.6732 3.7123 98.0846 3.7123C98.6877 3.7123 99.1773 3.22271 99.1773 2.61956C99.1773 2.0164 98.6877 1.52681 98.0846 1.52681C97.6328 1.52681 97.2467 1.80189 97.0802 2.19054C92.3407 2.6877 88.6335 6.70284 88.6335 11.571C88.6335 16.7722 92.8656 21.0044 98.0669 21.0044C102.816 21.0044 106.938 16.8227 110.925 12.7798C114.7 8.95142 118.602 4.9918 122.781 4.9918C126.408 4.9918 129.358 7.94196 129.358 11.571C129.358 15.2 126.408 18.1476 122.781 18.1476C119.803 18.1476 116.999 16.0782 113.754 12.9439C116.861 9.82209 119.828 7.13439 122.781 7.13439C125.227 7.13439 127.218 9.12303 127.218 11.571C127.218 14.0189 125.227 16.0076 122.781 16.0076C121.292 16.0076 119.571 15.1621 117.411 13.3704C117.433 13.282 117.449 13.1937 117.449 13.0978C117.449 12.4946 116.959 12.0051 116.356 12.0051C115.753 12.0051 115.261 12.4946 115.261 13.0978C115.261 13.701 115.753 14.1905 116.356 14.1905C116.512 14.1905 116.661 14.1552 116.795 14.0972C119.162 16.0656 121.035 16.959 122.779 16.959C125.749 16.959 128.167 14.5413 128.167 11.571C128.167 8.60063 125.749 6.18297 122.779 6.18297C119.059 6.18297 115.581 9.71861 111.902 13.4612C107.68 17.7565 103.314 22.1956 98.0644 22.1956C92.207 22.1956 87.4398 17.4309 87.4398 11.571C87.4398 5.71104 92.212 0.95142 98.072 0.95142C102.483 0.95142 106.292 3.96215 109.751 7.29085C109.078 7.94953 108.419 8.61325 107.775 9.26436C107.775 9.26436 107.773 9.26688 107.77 9.2694C105.002 6.6347 101.711 4.04795 98.072 4.04795C93.9205 4.04795 90.5414 7.42461 90.5414 11.5786C90.5414 15.7325 93.918 19.1092 98.072 19.1092C102.226 19.1092 106.1 15.2934 110.16 11.2555C114.193 7.24543 118.362 3.09653 122.786 3.09653C127.463 3.09653 131.268 6.90221 131.268 11.5786C131.268 15.9369 127.965 19.5357 123.727 20.0076C123.538 19.677 123.187 19.4498 122.779 19.4498C122.175 19.4498 121.686 19.9394 121.686 20.5426C121.686 21.1457 122.175 21.6353 122.779 21.6353C123.235 21.6353 123.627 21.3552 123.791 20.9565C128.522 20.4543 132.22 16.4391 132.22 11.5786C132.22 6.37729 127.987 2.14511 122.786 2.14511C117.968 2.14511 113.658 6.43281 109.489 10.5792C105.572 14.4757 101.873 18.1552 98.072 18.1552C94.2713 18.1552 91.4953 15.2051 91.4953 11.5786C91.4953 7.95205 94.4454 4.99937 98.072 4.99937C101.375 4.99937 104.472 7.4448 107.099 9.94574C103.907 13.1533 100.886 16.0126 98.072 16.0126C95.6265 16.0126 93.6354 14.0215 93.6354 11.576C93.6354 9.1306 95.624 7.13943 98.072 7.13943C99.6543 7.13943 101.398 7.93439 103.505 9.62524C103.485 9.71104 103.47 9.79685 103.47 9.8877C103.47 10.4909 103.96 10.9804 104.563 10.9804C105.166 10.9804 105.656 10.4909 105.656 9.8877C105.656 9.28455 105.166 8.79496 104.563 8.79496C104.401 8.79496 104.252 8.83029 104.114 8.89338C101.82 7.05363 99.8814 6.18801 98.072 6.18801C95.1016 6.18801 92.6839 8.60568 92.6839 11.576C92.6839 14.5464 95.1016 16.964 98.072 16.964C101.481 16.964 104.866 13.5495 108.452 9.93313C112.626 5.72366 117.358 0.95142 122.786 0.95142C128.644 0.95142 133.411 5.71861 133.411 11.576C133.411 17.4334 128.646 22.2006 122.786 22.2006ZM97.7085 2.62461C97.7085 2.41514 97.8776 2.24353 98.0871 2.24353C98.2966 2.24353 98.4656 2.41262 98.4656 2.62461C98.4656 2.83659 98.2966 3.00316 98.0871 3.00316C97.8776 3.00316 97.7085 2.83407 97.7085 2.62461ZM116.361 13.4839C116.151 13.4839 115.98 13.3123 115.98 13.1054C115.98 12.8984 116.149 12.7268 116.361 12.7268C116.573 12.7268 116.739 12.8959 116.739 13.1054C116.739 13.3148 116.57 13.4839 116.361 13.4839ZM123.16 20.5401C123.16 20.7495 122.991 20.9186 122.779 20.9186C122.567 20.9186 122.4 20.7495 122.4 20.5401C122.4 20.3306 122.572 20.1615 122.779 20.1615C122.986 20.1615 123.16 20.3306 123.16 20.5401ZM104.563 9.50915C104.772 9.50915 104.941 9.67824 104.941 9.8877C104.941 10.0972 104.772 10.2662 104.563 10.2662C104.353 10.2662 104.184 10.0946 104.184 9.8877C104.184 9.68076 104.353 9.50915 104.563 9.50915Z" fill="#E800A1"/>
</svg>
