<svg width="493" height="204" viewBox="0 0 493 204" fill="none" xmlns="http://www.w3.org/2000/svg">
<g clip-path="url(#clip0_455_243)">
<rect width="493" height="204" rx="20" fill="#1D1D1F" fill-opacity="0.5"/>
<g filter="url(#filter1_f_455_243)">
<ellipse cx="102.825" cy="88.2838" rx="102.825" ry="88.2838" transform="matrix(-0.816113 -0.577892 -0.577892 0.816113 426.871 240.844)" fill="#E800A1" fill-opacity="0.5"/>
</g>
<path d="M106.48 51.24C102.22 51.24 99.36 47.9 99.36 44.04V44C99.36 40.14 102.26 36.76 106.52 36.76C110.78 36.76 113.64 40.1 113.64 43.96V44C113.64 47.86 110.74 51.24 106.48 51.24ZM106.52 49.78C109.72 49.78 112 47.22 112 44.04V44C112 40.82 109.68 38.22 106.48 38.22C103.28 38.22 101 40.78 101 43.96V44C101 47.18 103.32 49.78 106.52 49.78ZM116.712 51V40.66H118.252V42.46C118.952 41.34 120.012 40.44 121.792 40.44C124.272 40.44 125.752 42.12 125.752 44.58V51H124.212V44.96C124.212 43.04 123.192 41.84 121.352 41.84C119.572 41.84 118.252 43.14 118.252 45.08V51H116.712ZM129.176 51V36.4H130.716V51H129.176ZM134.33 38.4V36.7H136.09V38.4H134.33ZM134.43 51V40.66H135.97V51H134.43ZM139.544 51V40.66H141.084V42.46C141.784 41.34 142.844 40.44 144.624 40.44C147.104 40.44 148.584 42.12 148.584 44.58V51H147.044V44.96C147.044 43.04 146.024 41.84 144.184 41.84C142.404 41.84 141.084 43.14 141.084 45.08V51H139.544ZM156.388 51.24C153.568 51.24 151.228 49.06 151.228 45.86V45.82C151.228 42.84 153.308 40.44 156.188 40.44C159.248 40.44 161.008 42.88 161.008 45.9C161.008 46.12 161.008 46.22 160.988 46.4H152.788C153.008 48.64 154.588 49.9 156.428 49.9C157.868 49.9 158.828 49.32 159.688 48.44L160.648 49.3C159.608 50.48 158.368 51.24 156.388 51.24ZM152.788 45.26H159.448C159.288 43.4 158.228 41.74 156.148 41.74C154.328 41.74 153.008 43.26 152.788 45.26ZM169.96 51V37H175.2C178.36 37 180.44 38.68 180.44 41.44V41.48C180.44 44.5 177.92 46.06 174.94 46.06H171.54V51H169.96ZM171.54 44.62H175C177.32 44.62 178.84 43.38 178.84 41.54V41.5C178.84 39.5 177.34 38.46 175.08 38.46H171.54V44.62ZM183.06 51V40.66H184.6V43.36C185.36 41.64 186.86 40.42 188.82 40.48V42.14H188.7C186.44 42.14 184.6 43.76 184.6 46.88V51H183.06ZM195.236 51.24C192.416 51.24 190.076 49.06 190.076 45.86V45.82C190.076 42.84 192.156 40.44 195.036 40.44C198.096 40.44 199.856 42.88 199.856 45.9C199.856 46.12 199.856 46.22 199.836 46.4H191.636C191.856 48.64 193.436 49.9 195.276 49.9C196.716 49.9 197.676 49.32 198.536 48.44L199.496 49.3C198.456 50.48 197.216 51.24 195.236 51.24ZM191.636 45.26H198.296C198.136 43.4 197.076 41.74 194.996 41.74C193.176 41.74 191.856 43.26 191.636 45.26ZM205.972 51.2C204.472 51.2 202.872 50.62 201.692 49.68L202.472 48.58C203.592 49.44 204.832 49.9 206.052 49.9C207.312 49.9 208.192 49.28 208.192 48.26V48.22C208.192 47.2 206.972 46.78 205.612 46.4C204.012 45.92 202.192 45.4 202.192 43.48V43.44C202.192 41.66 203.672 40.48 205.712 40.48C206.992 40.48 208.372 40.92 209.432 41.62L208.732 42.78C207.772 42.16 206.692 41.78 205.672 41.78C204.452 41.78 203.672 42.42 203.672 43.28V43.32C203.672 44.3 204.952 44.68 206.332 45.1C207.932 45.58 209.652 46.2 209.652 48.06V48.1C209.652 50.06 208.032 51.2 205.972 51.2ZM217.033 51.24C214.213 51.24 211.873 49.06 211.873 45.86V45.82C211.873 42.84 213.953 40.44 216.833 40.44C219.893 40.44 221.653 42.88 221.653 45.9C221.653 46.12 221.653 46.22 221.633 46.4H213.433C213.653 48.64 215.233 49.9 217.073 49.9C218.513 49.9 219.473 49.32 220.333 48.44L221.293 49.3C220.253 50.48 219.013 51.24 217.033 51.24ZM213.433 45.26H220.093C219.933 43.4 218.873 41.74 216.793 41.74C214.973 41.74 213.653 43.26 213.433 45.26ZM224.349 51V40.66H225.889V42.46C226.589 41.34 227.649 40.44 229.429 40.44C231.909 40.44 233.389 42.12 233.389 44.58V51H231.849V44.96C231.849 43.04 230.829 41.84 228.989 41.84C227.209 41.84 225.889 43.14 225.889 45.08V51H224.349ZM241.333 51.24C238.293 51.24 236.033 48.78 236.033 45.88V45.84C236.033 42.9 238.293 40.44 241.333 40.44C243.293 40.44 244.493 41.24 245.473 42.28L244.453 43.36C243.633 42.5 242.733 41.8 241.313 41.8C239.213 41.8 237.613 43.56 237.613 45.8V45.84C237.613 48.08 239.253 49.86 241.413 49.86C242.753 49.86 243.753 49.2 244.573 48.32L245.553 49.24C244.513 50.42 243.273 51.24 241.333 51.24ZM252.326 51.24C249.506 51.24 247.166 49.06 247.166 45.86V45.82C247.166 42.84 249.246 40.44 252.126 40.44C255.186 40.44 256.946 42.88 256.946 45.9C256.946 46.12 256.946 46.22 256.926 46.4H248.726C248.946 48.64 250.526 49.9 252.366 49.9C253.806 49.9 254.766 49.32 255.626 48.44L256.586 49.3C255.546 50.48 254.306 51.24 252.326 51.24ZM248.726 45.26H255.386C255.226 43.4 254.166 41.74 252.086 41.74C250.266 41.74 248.946 43.26 248.726 45.26ZM265.898 51V37H267.498L272.598 44.64L277.698 37H279.298V51H277.718V39.66L272.618 47.16H272.538L267.438 39.68V51H265.898ZM286.081 51.22C284.161 51.22 282.221 50.14 282.221 48V47.96C282.221 45.8 284.021 44.62 286.641 44.62C287.981 44.62 288.881 44.8 289.821 45.06V44.7C289.821 42.84 288.681 41.88 286.741 41.88C285.521 41.88 284.561 42.18 283.601 42.64L283.141 41.38C284.281 40.84 285.381 40.52 286.901 40.52C288.361 40.52 289.481 40.9 290.241 41.66C290.941 42.36 291.301 43.38 291.301 44.68V51H289.821V49.44C289.101 50.38 287.921 51.22 286.081 51.22ZM286.381 50C288.301 50 289.841 48.84 289.841 47.2V46.2C289.061 45.98 288.081 45.76 286.801 45.76C284.861 45.76 283.781 46.6 283.781 47.9V47.94C283.781 49.24 285.001 50 286.381 50ZM294.583 51V40.66H296.123V42.46C296.823 41.34 297.883 40.44 299.663 40.44C302.143 40.44 303.623 42.12 303.623 44.58V51H302.083V44.96C302.083 43.04 301.063 41.84 299.223 41.84C297.443 41.84 296.123 43.14 296.123 45.08V51H294.583ZM309.988 51.22C308.068 51.22 306.128 50.14 306.128 48V47.96C306.128 45.8 307.928 44.62 310.548 44.62C311.888 44.62 312.788 44.8 313.728 45.06V44.7C313.728 42.84 312.588 41.88 310.648 41.88C309.428 41.88 308.468 42.18 307.508 42.64L307.048 41.38C308.188 40.84 309.288 40.52 310.808 40.52C312.268 40.52 313.388 40.9 314.148 41.66C314.848 42.36 315.208 43.38 315.208 44.68V51H313.728V49.44C313.008 50.38 311.828 51.22 309.988 51.22ZM310.288 50C312.208 50 313.748 48.84 313.748 47.2V46.2C312.968 45.98 311.988 45.76 310.708 45.76C308.768 45.76 307.688 46.6 307.688 47.9V47.94C307.688 49.24 308.908 50 310.288 50ZM323.07 54.24C321.33 54.24 319.75 53.76 318.37 52.8L319.07 51.6C320.27 52.46 321.55 52.92 323.05 52.92C325.35 52.92 326.81 51.66 326.81 49.24V48.02C325.91 49.22 324.65 50.2 322.75 50.2C320.27 50.2 317.89 48.32 317.89 45.36V45.32C317.89 42.3 320.27 40.44 322.75 40.44C324.69 40.44 325.93 41.4 326.79 42.52V40.66H328.33V49.2C328.33 50.8 327.87 52 327.01 52.86C326.07 53.8 324.73 54.24 323.07 54.24ZM323.05 48.84C325.01 48.84 326.85 47.42 326.85 45.34V45.3C326.85 43.18 325.01 41.8 323.05 41.8C321.07 41.8 319.47 43.16 319.47 45.28V45.32C319.47 47.4 321.13 48.84 323.05 48.84ZM336.291 51.24C333.471 51.24 331.131 49.06 331.131 45.86V45.82C331.131 42.84 333.211 40.44 336.091 40.44C339.151 40.44 340.911 42.88 340.911 45.9C340.911 46.12 340.911 46.22 340.891 46.4H332.691C332.911 48.64 334.491 49.9 336.331 49.9C337.771 49.9 338.731 49.32 339.591 48.44L340.551 49.3C339.511 50.48 338.271 51.24 336.291 51.24ZM332.691 45.26H339.351C339.191 43.4 338.131 41.74 336.051 41.74C334.231 41.74 332.911 43.26 332.691 45.26ZM343.607 51V40.66H345.147V42.4C345.847 41.36 346.747 40.44 348.487 40.44C350.167 40.44 351.247 41.32 351.807 42.5C352.567 41.36 353.627 40.44 355.447 40.44C357.847 40.44 359.287 42.02 359.287 44.6V51H357.747V44.96C357.747 42.96 356.747 41.84 355.067 41.84C353.527 41.84 352.207 43 352.207 45.04V51H350.687V44.92C350.687 42.98 349.687 41.84 348.027 41.84C346.387 41.84 345.147 43.2 345.147 45.1V51H343.607ZM367.092 51.24C364.272 51.24 361.932 49.06 361.932 45.86V45.82C361.932 42.84 364.012 40.44 366.892 40.44C369.952 40.44 371.712 42.88 371.712 45.9C371.712 46.12 371.712 46.22 371.692 46.4H363.492C363.712 48.64 365.292 49.9 367.132 49.9C368.572 49.9 369.532 49.32 370.392 48.44L371.352 49.3C370.312 50.48 369.072 51.24 367.092 51.24ZM363.492 45.26H370.152C369.992 43.4 368.932 41.74 366.852 41.74C365.032 41.74 363.712 43.26 363.492 45.26ZM374.408 51V40.66H375.948V42.46C376.648 41.34 377.708 40.44 379.488 40.44C381.968 40.44 383.448 42.12 383.448 44.58V51H381.908V44.96C381.908 43.04 380.888 41.84 379.048 41.84C377.268 41.84 375.948 43.14 375.948 45.08V51H374.408ZM390.192 51.18C388.512 51.18 387.272 50.36 387.272 48.26V42.02H385.832V40.66H387.272V37.54H388.812V40.66H392.092V42.02H388.812V48.06C388.812 49.34 389.512 49.78 390.552 49.78C391.092 49.78 391.512 49.68 392.052 49.42V50.74C391.512 51.04 390.932 51.18 390.192 51.18Z" fill="#E800A1"/>
<path d="M34.256 103.07L30.7 93.2H31.512L34.592 101.922L37.462 93.172H38.022L40.892 101.922L43.972 93.2H44.728L41.172 103.07H40.584L37.714 94.558L34.844 103.07H34.256ZM48.8179 103.168C46.9419 103.168 45.3179 101.684 45.3179 99.444V99.416C45.3179 97.358 46.7739 95.692 48.7059 95.692C50.7079 95.692 51.9819 97.316 51.9819 99.43C51.9819 99.556 51.9819 99.598 51.9679 99.71H46.0459C46.1579 101.488 47.4599 102.524 48.8459 102.524C49.9659 102.524 50.6939 102.034 51.2959 101.404L51.7719 101.824C51.0439 102.608 50.1759 103.168 48.8179 103.168ZM46.0459 99.094H51.2399C51.1279 97.652 50.3159 96.322 48.6779 96.322C47.2639 96.322 46.1579 97.512 46.0459 99.094ZM65.4963 103V92.78H66.1823V97.19C66.6723 96.35 67.4563 95.692 68.7583 95.692C70.5643 95.692 71.6143 96.91 71.6143 98.632V103H70.9283V98.758C70.9283 97.288 70.1163 96.322 68.6603 96.322C67.2603 96.322 66.1823 97.372 66.1823 98.87V103H65.4963ZM77.0923 103.168C75.2163 103.168 73.5923 101.684 73.5923 99.444V99.416C73.5923 97.358 75.0483 95.692 76.9803 95.692C78.9823 95.692 80.2563 97.316 80.2563 99.43C80.2563 99.556 80.2563 99.598 80.2423 99.71H74.3203C74.4323 101.488 75.7343 102.524 77.1203 102.524C78.2403 102.524 78.9683 102.034 79.5703 101.404L80.0463 101.824C79.3183 102.608 78.4503 103.168 77.0923 103.168ZM74.3203 99.094H79.5143C79.4023 97.652 78.5903 96.322 76.9523 96.322C75.5383 96.322 74.4323 97.512 74.3203 99.094ZM82.3561 103V92.78H83.0421V103H82.3561ZM85.7444 105.24V95.86H86.4304V97.456C87.0324 96.518 87.9564 95.692 89.3704 95.692C91.0924 95.692 92.8424 97.078 92.8424 99.402V99.43C92.8424 101.74 91.0924 103.168 89.3704 103.168C87.9424 103.168 87.0324 102.356 86.4304 101.46V105.24H85.7444ZM89.3004 102.51C90.8684 102.51 92.1004 101.362 92.1004 99.458V99.43C92.1004 97.554 90.8124 96.35 89.3004 96.35C87.8024 96.35 86.3884 97.596 86.3884 99.416V99.444C86.3884 101.278 87.8024 102.51 89.3004 102.51ZM110.125 103.168C108.697 103.168 107.787 102.356 107.185 101.46V103H106.499V92.78H107.185V97.456C107.787 96.518 108.711 95.692 110.125 95.692C111.847 95.692 113.597 97.078 113.597 99.402V99.43C113.597 101.74 111.847 103.168 110.125 103.168ZM110.055 102.51C111.623 102.51 112.855 101.362 112.855 99.458V99.43C112.855 97.554 111.567 96.35 110.055 96.35C108.557 96.35 107.143 97.596 107.143 99.416V99.444C107.143 101.278 108.557 102.51 110.055 102.51ZM118.457 103.168C116.651 103.168 115.601 101.95 115.601 100.228V95.86H116.287V100.102C116.287 101.572 117.099 102.538 118.555 102.538C119.955 102.538 121.033 101.488 121.033 99.99V95.86H121.719V103H121.033V101.67C120.543 102.51 119.759 103.168 118.457 103.168ZM126.637 103.14C125.587 103.14 124.481 102.72 123.711 102.104L124.117 101.558C124.901 102.16 125.769 102.496 126.679 102.496C127.645 102.496 128.401 101.978 128.401 101.138V101.11C128.401 100.27 127.505 99.976 126.511 99.682C125.335 99.346 124.061 99.01 124.061 97.722V97.694C124.061 96.546 125.027 95.72 126.413 95.72C127.267 95.72 128.233 96.014 128.947 96.504L128.583 97.078C127.925 96.644 127.155 96.364 126.385 96.364C125.391 96.364 124.761 96.896 124.761 97.61V97.638C124.761 98.436 125.727 98.716 126.749 99.024C127.897 99.36 129.101 99.766 129.101 101.026V101.054C129.101 102.328 128.023 103.14 126.637 103.14ZM131.3 93.998V93.06H132.154V93.998H131.3ZM131.384 103V95.86H132.07V103H131.384ZM134.773 103V95.86H135.459V97.19C135.949 96.35 136.733 95.692 138.035 95.692C139.841 95.692 140.891 96.91 140.891 98.632V103H140.205V98.758C140.205 97.288 139.393 96.322 137.937 96.322C136.537 96.322 135.459 97.372 135.459 98.87V103H134.773ZM146.369 103.168C144.493 103.168 142.869 101.684 142.869 99.444V99.416C142.869 97.358 144.325 95.692 146.257 95.692C148.259 95.692 149.533 97.316 149.533 99.43C149.533 99.556 149.533 99.598 149.519 99.71H143.597C143.709 101.488 145.011 102.524 146.397 102.524C147.517 102.524 148.245 102.034 148.847 101.404L149.323 101.824C148.595 102.608 147.727 103.168 146.369 103.168ZM143.597 99.094H148.791C148.679 97.652 147.867 96.322 146.229 96.322C144.815 96.322 143.709 97.512 143.597 99.094ZM153.844 103.14C152.794 103.14 151.688 102.72 150.918 102.104L151.324 101.558C152.108 102.16 152.976 102.496 153.886 102.496C154.852 102.496 155.608 101.978 155.608 101.138V101.11C155.608 100.27 154.712 99.976 153.718 99.682C152.542 99.346 151.268 99.01 151.268 97.722V97.694C151.268 96.546 152.234 95.72 153.62 95.72C154.474 95.72 155.44 96.014 156.154 96.504L155.79 97.078C155.132 96.644 154.362 96.364 153.592 96.364C152.598 96.364 151.968 96.896 151.968 97.61V97.638C151.968 98.436 152.934 98.716 153.956 99.024C155.104 99.36 156.308 99.766 156.308 101.026V101.054C156.308 102.328 155.23 103.14 153.844 103.14ZM160.667 103.14C159.617 103.14 158.511 102.72 157.741 102.104L158.147 101.558C158.931 102.16 159.799 102.496 160.709 102.496C161.675 102.496 162.431 101.978 162.431 101.138V101.11C162.431 100.27 161.535 99.976 160.541 99.682C159.365 99.346 158.091 99.01 158.091 97.722V97.694C158.091 96.546 159.057 95.72 160.443 95.72C161.297 95.72 162.263 96.014 162.977 96.504L162.613 97.078C161.955 96.644 161.185 96.364 160.415 96.364C159.421 96.364 158.791 96.896 158.791 97.61V97.638C158.791 98.436 159.757 98.716 160.779 99.024C161.927 99.36 163.131 99.766 163.131 101.026V101.054C163.131 102.328 162.053 103.14 160.667 103.14ZM168.326 103.168C166.45 103.168 164.826 101.684 164.826 99.444V99.416C164.826 97.358 166.282 95.692 168.214 95.692C170.216 95.692 171.49 97.316 171.49 99.43C171.49 99.556 171.49 99.598 171.476 99.71H165.554C165.666 101.488 166.968 102.524 168.354 102.524C169.474 102.524 170.202 102.034 170.804 101.404L171.28 101.824C170.552 102.608 169.684 103.168 168.326 103.168ZM165.554 99.094H170.748C170.636 97.652 169.824 96.322 168.186 96.322C166.772 96.322 165.666 97.512 165.554 99.094ZM175.801 103.14C174.751 103.14 173.645 102.72 172.875 102.104L173.281 101.558C174.065 102.16 174.933 102.496 175.843 102.496C176.809 102.496 177.565 101.978 177.565 101.138V101.11C177.565 100.27 176.669 99.976 175.675 99.682C174.499 99.346 173.225 99.01 173.225 97.722V97.694C173.225 96.546 174.191 95.72 175.577 95.72C176.431 95.72 177.397 96.014 178.111 96.504L177.747 97.078C177.089 96.644 176.319 96.364 175.549 96.364C174.555 96.364 173.925 96.896 173.925 97.61V97.638C173.925 98.436 174.891 98.716 175.913 99.024C177.061 99.36 178.265 99.766 178.265 101.026V101.054C178.265 102.328 177.187 103.14 175.801 103.14ZM195.589 103.168C194.161 103.168 193.251 102.356 192.649 101.46V103H191.963V92.78H192.649V97.456C193.251 96.518 194.175 95.692 195.589 95.692C197.311 95.692 199.061 97.078 199.061 99.402V99.43C199.061 101.74 197.311 103.168 195.589 103.168ZM195.519 102.51C197.087 102.51 198.319 101.362 198.319 99.458V99.43C198.319 97.554 197.031 96.35 195.519 96.35C194.021 96.35 192.607 97.596 192.607 99.416V99.444C192.607 101.278 194.021 102.51 195.519 102.51ZM203.921 103.168C202.115 103.168 201.065 101.95 201.065 100.228V95.86H201.751V100.102C201.751 101.572 202.563 102.538 204.019 102.538C205.419 102.538 206.497 101.488 206.497 99.99V95.86H207.183V103H206.497V101.67C206.007 102.51 205.223 103.168 203.921 103.168ZM209.805 93.998V93.06H210.659V93.998H209.805ZM209.889 103V95.86H210.575V103H209.889ZM213.376 103V92.78H214.062V103H213.376ZM219.774 103.168C218.052 103.168 216.302 101.782 216.302 99.458V99.43C216.302 97.12 218.052 95.692 219.774 95.692C221.202 95.692 222.112 96.504 222.714 97.4V92.78H223.4V103H222.714V101.404C222.084 102.342 221.202 103.168 219.774 103.168ZM219.844 102.51C221.342 102.51 222.756 101.264 222.756 99.444V99.416C222.756 97.582 221.342 96.35 219.844 96.35C218.276 96.35 217.044 97.498 217.044 99.402V99.43C217.044 101.306 218.332 102.51 219.844 102.51ZM239.689 103.168C238.359 103.168 236.931 102.426 236.931 100.928V100.9C236.931 99.402 238.205 98.576 240.053 98.576C241.061 98.576 241.733 98.702 242.419 98.884V98.576C242.419 97.12 241.537 96.392 240.067 96.392C239.185 96.392 238.485 96.63 237.827 96.966L237.575 96.364C238.359 95.986 239.115 95.748 240.109 95.748C241.089 95.748 241.845 96.014 242.363 96.532C242.853 97.022 243.091 97.694 243.091 98.548V103H242.419V101.81C241.929 102.482 241.047 103.168 239.689 103.168ZM239.731 102.524C241.187 102.524 242.433 101.628 242.433 100.326V99.514C241.831 99.36 241.033 99.192 240.011 99.192C238.499 99.192 237.659 99.85 237.659 100.858V100.886C237.659 101.922 238.639 102.524 239.731 102.524ZM245.558 103V95.86H246.244V97.19C246.734 96.35 247.518 95.692 248.82 95.692C250.626 95.692 251.676 96.91 251.676 98.632V103H250.99V98.758C250.99 97.288 250.178 96.322 248.722 96.322C247.322 96.322 246.244 97.372 246.244 98.87V103H245.558ZM257.154 103.168C255.432 103.168 253.682 101.782 253.682 99.458V99.43C253.682 97.12 255.432 95.692 257.154 95.692C258.582 95.692 259.492 96.504 260.094 97.4V92.78H260.78V103H260.094V101.404C259.464 102.342 258.582 103.168 257.154 103.168ZM257.224 102.51C258.722 102.51 260.136 101.264 260.136 99.444V99.416C260.136 97.582 258.722 96.35 257.224 96.35C255.656 96.35 254.424 97.498 254.424 99.402V99.43C254.424 101.306 255.712 102.51 257.224 102.51ZM274.899 103V95.86H275.585V97.134C276.033 96.392 276.691 95.692 277.965 95.692C279.225 95.692 279.967 96.406 280.373 97.232C280.835 96.434 281.619 95.692 282.949 95.692C284.643 95.692 285.693 96.882 285.693 98.674V103H285.007V98.758C285.007 97.204 284.223 96.322 282.893 96.322C281.689 96.322 280.639 97.232 280.639 98.842V103H279.953V98.716C279.953 97.218 279.155 96.322 277.867 96.322C276.579 96.322 275.585 97.442 275.585 98.884V103H274.899ZM290.33 103.168C289 103.168 287.572 102.426 287.572 100.928V100.9C287.572 99.402 288.846 98.576 290.694 98.576C291.702 98.576 292.374 98.702 293.06 98.884V98.576C293.06 97.12 292.178 96.392 290.708 96.392C289.826 96.392 289.126 96.63 288.468 96.966L288.216 96.364C289 95.986 289.756 95.748 290.75 95.748C291.73 95.748 292.486 96.014 293.004 96.532C293.494 97.022 293.732 97.694 293.732 98.548V103H293.06V101.81C292.57 102.482 291.688 103.168 290.33 103.168ZM290.372 102.524C291.828 102.524 293.074 101.628 293.074 100.326V99.514C292.472 99.36 291.674 99.192 290.652 99.192C289.14 99.192 288.3 99.85 288.3 100.858V100.886C288.3 101.922 289.28 102.524 290.372 102.524ZM296.213 93.998V93.06H297.067V93.998H296.213ZM296.297 103V95.86H296.983V103H296.297ZM299.686 103V95.86H300.372V97.19C300.862 96.35 301.646 95.692 302.948 95.692C304.754 95.692 305.804 96.91 305.804 98.632V103H305.118V98.758C305.118 97.288 304.306 96.322 302.85 96.322C301.45 96.322 300.372 97.372 300.372 98.87V103H299.686ZM310.652 103.126C309.532 103.126 308.65 102.524 308.65 101.166V96.49H307.614V95.86H308.65V93.578H309.336V95.86H311.842V96.49H309.336V101.096C309.336 102.118 309.924 102.482 310.764 102.482C311.114 102.482 311.408 102.412 311.814 102.23V102.874C311.436 103.042 311.1 103.126 310.652 103.126ZM316.047 103.168C314.717 103.168 313.289 102.426 313.289 100.928V100.9C313.289 99.402 314.563 98.576 316.411 98.576C317.419 98.576 318.091 98.702 318.777 98.884V98.576C318.777 97.12 317.895 96.392 316.425 96.392C315.543 96.392 314.843 96.63 314.185 96.966L313.933 96.364C314.717 95.986 315.473 95.748 316.467 95.748C317.447 95.748 318.203 96.014 318.721 96.532C319.211 97.022 319.449 97.694 319.449 98.548V103H318.777V101.81C318.287 102.482 317.405 103.168 316.047 103.168ZM316.089 102.524C317.545 102.524 318.791 101.628 318.791 100.326V99.514C318.189 99.36 317.391 99.192 316.369 99.192C314.857 99.192 314.017 99.85 314.017 100.858V100.886C314.017 101.922 314.997 102.524 316.089 102.524ZM321.93 93.998V93.06H322.784V93.998H321.93ZM322.014 103V95.86H322.7V103H322.014ZM325.403 103V95.86H326.089V97.19C326.579 96.35 327.363 95.692 328.665 95.692C330.471 95.692 331.521 96.91 331.521 98.632V103H330.835V98.758C330.835 97.288 330.023 96.322 328.567 96.322C327.167 96.322 326.089 97.372 326.089 98.87V103H325.403ZM347.671 103.168C346.341 103.168 344.913 102.426 344.913 100.928V100.9C344.913 99.402 346.187 98.576 348.035 98.576C349.043 98.576 349.715 98.702 350.401 98.884V98.576C350.401 97.12 349.519 96.392 348.049 96.392C347.167 96.392 346.467 96.63 345.809 96.966L345.557 96.364C346.341 95.986 347.097 95.748 348.091 95.748C349.071 95.748 349.827 96.014 350.345 96.532C350.835 97.022 351.073 97.694 351.073 98.548V103H350.401V101.81C349.911 102.482 349.029 103.168 347.671 103.168ZM347.713 102.524C349.169 102.524 350.415 101.628 350.415 100.326V99.514C349.813 99.36 349.015 99.192 347.993 99.192C346.481 99.192 345.641 99.85 345.641 100.858V100.886C345.641 101.922 346.621 102.524 347.713 102.524ZM367.363 103.14C366.313 103.14 365.207 102.72 364.437 102.104L364.843 101.558C365.627 102.16 366.495 102.496 367.405 102.496C368.371 102.496 369.127 101.978 369.127 101.138V101.11C369.127 100.27 368.231 99.976 367.237 99.682C366.061 99.346 364.787 99.01 364.787 97.722V97.694C364.787 96.546 365.753 95.72 367.139 95.72C367.993 95.72 368.959 96.014 369.673 96.504L369.309 97.078C368.651 96.644 367.881 96.364 367.111 96.364C366.117 96.364 365.487 96.896 365.487 97.61V97.638C365.487 98.436 366.453 98.716 367.475 99.024C368.623 99.36 369.827 99.766 369.827 101.026V101.054C369.827 102.328 368.749 103.14 367.363 103.14ZM374.255 103.126C373.135 103.126 372.253 102.524 372.253 101.166V96.49H371.217V95.86H372.253V93.578H372.939V95.86H375.445V96.49H372.939V101.096C372.939 102.118 373.527 102.482 374.367 102.482C374.717 102.482 375.011 102.412 375.417 102.23V102.874C375.039 103.042 374.703 103.126 374.255 103.126ZM377.481 103V95.86H378.167V97.89C378.741 96.602 379.903 95.706 381.331 95.748V96.504H381.261C379.623 96.504 378.167 97.764 378.167 100.074V103H377.481ZM385.895 103.168C383.781 103.168 382.241 101.46 382.241 99.458V99.43C382.241 97.428 383.795 95.692 385.923 95.692C388.037 95.692 389.577 97.4 389.577 99.402V99.43C389.577 101.432 388.023 103.168 385.895 103.168ZM385.923 102.524C387.617 102.524 388.835 101.138 388.835 99.458V99.43C388.835 97.694 387.547 96.336 385.895 96.336C384.201 96.336 382.983 97.722 382.983 99.402V99.43C382.983 101.166 384.271 102.524 385.923 102.524ZM391.686 103V95.86H392.372V97.19C392.862 96.35 393.646 95.692 394.948 95.692C396.754 95.692 397.804 96.91 397.804 98.632V103H397.118V98.758C397.118 97.288 396.306 96.322 394.85 96.322C393.45 96.322 392.372 97.372 392.372 98.87V103H391.686ZM403.408 105.268C402.204 105.268 401.112 104.904 400.132 104.176L400.538 103.616C401.406 104.288 402.372 104.624 403.422 104.624C405.046 104.624 406.222 103.686 406.222 101.852V100.816C405.592 101.698 404.668 102.468 403.24 102.468C401.518 102.468 399.81 101.152 399.81 99.108V99.08C399.81 97.008 401.518 95.692 403.24 95.692C404.682 95.692 405.62 96.448 406.222 97.288V95.86H406.908V101.894C406.908 102.944 406.572 103.742 405.998 104.316C405.382 104.932 404.472 105.268 403.408 105.268ZM403.31 101.81C404.808 101.81 406.264 100.718 406.264 99.094V99.066C406.264 97.414 404.808 96.35 403.31 96.35C401.798 96.35 400.552 97.386 400.552 99.052V99.08C400.552 100.69 401.84 101.81 403.31 101.81ZM424.191 103.168C422.077 103.168 420.537 101.46 420.537 99.458V99.43C420.537 97.428 422.091 95.692 424.219 95.692C426.333 95.692 427.873 97.4 427.873 99.402V99.43C427.873 101.432 426.319 103.168 424.191 103.168ZM424.219 102.524C425.913 102.524 427.131 101.138 427.131 99.458V99.43C427.131 97.694 425.843 96.336 424.191 96.336C422.497 96.336 421.279 97.722 421.279 99.402V99.43C421.279 101.166 422.567 102.524 424.219 102.524ZM429.982 103V95.86H430.668V97.19C431.158 96.35 431.942 95.692 433.244 95.692C435.05 95.692 436.1 96.91 436.1 98.632V103H435.414V98.758C435.414 97.288 434.602 96.322 433.146 96.322C431.746 96.322 430.668 97.372 430.668 98.87V103H429.982ZM438.666 103V92.78H439.352V103H438.666ZM442.068 93.998V93.06H442.922V93.998H442.068ZM442.152 103V95.86H442.838V103H442.152ZM445.54 103V95.86H446.226V97.19C446.716 96.35 447.5 95.692 448.802 95.692C450.608 95.692 451.658 96.91 451.658 98.632V103H450.972V98.758C450.972 97.288 450.16 96.322 448.704 96.322C447.304 96.322 446.226 97.372 446.226 98.87V103H445.54ZM457.136 103.168C455.26 103.168 453.636 101.684 453.636 99.444V99.416C453.636 97.358 455.092 95.692 457.024 95.692C459.026 95.692 460.3 97.316 460.3 99.43C460.3 99.556 460.3 99.598 460.286 99.71H454.364C454.476 101.488 455.778 102.524 457.164 102.524C458.284 102.524 459.012 102.034 459.614 101.404L460.09 101.824C459.362 102.608 458.494 103.168 457.136 103.168ZM454.364 99.094H459.558C459.446 97.652 458.634 96.322 456.996 96.322C455.582 96.322 454.476 97.512 454.364 99.094ZM31.302 125.24V115.86H31.988V117.456C32.59 116.518 33.514 115.692 34.928 115.692C36.65 115.692 38.4 117.078 38.4 119.402V119.43C38.4 121.74 36.65 123.168 34.928 123.168C33.5 123.168 32.59 122.356 31.988 121.46V125.24H31.302ZM34.858 122.51C36.426 122.51 37.658 121.362 37.658 119.458V119.43C37.658 117.554 36.37 116.35 34.858 116.35C33.36 116.35 31.946 117.596 31.946 119.416V119.444C31.946 121.278 33.36 122.51 34.858 122.51ZM40.5442 123V115.86H41.2302V117.89C41.8042 116.602 42.9662 115.706 44.3942 115.748V116.504H44.3242C42.6862 116.504 41.2302 117.764 41.2302 120.074V123H40.5442ZM48.8042 123.168C46.9282 123.168 45.3042 121.684 45.3042 119.444V119.416C45.3042 117.358 46.7602 115.692 48.6922 115.692C50.6942 115.692 51.9682 117.316 51.9682 119.43C51.9682 119.556 51.9682 119.598 51.9542 119.71H46.0322C46.1442 121.488 47.4462 122.524 48.8322 122.524C49.9522 122.524 50.6802 122.034 51.2822 121.404L51.7582 121.824C51.0302 122.608 50.1622 123.168 48.8042 123.168ZM46.0322 119.094H51.2262C51.1142 117.652 50.3022 116.322 48.6642 116.322C47.2502 116.322 46.1442 117.512 46.0322 119.094ZM56.28 123.14C55.23 123.14 54.124 122.72 53.354 122.104L53.76 121.558C54.544 122.16 55.412 122.496 56.322 122.496C57.288 122.496 58.044 121.978 58.044 121.138V121.11C58.044 120.27 57.148 119.976 56.154 119.682C54.978 119.346 53.704 119.01 53.704 117.722V117.694C53.704 116.546 54.67 115.72 56.056 115.72C56.91 115.72 57.876 116.014 58.59 116.504L58.226 117.078C57.568 116.644 56.798 116.364 56.028 116.364C55.034 116.364 54.404 116.896 54.404 117.61V117.638C54.404 118.436 55.37 118.716 56.392 119.024C57.54 119.36 58.744 119.766 58.744 121.026V121.054C58.744 122.328 57.666 123.14 56.28 123.14ZM63.939 123.168C62.063 123.168 60.439 121.684 60.439 119.444V119.416C60.439 117.358 61.895 115.692 63.827 115.692C65.829 115.692 67.103 117.316 67.103 119.43C67.103 119.556 67.103 119.598 67.089 119.71H61.167C61.279 121.488 62.581 122.524 63.967 122.524C65.087 122.524 65.815 122.034 66.417 121.404L66.893 121.824C66.165 122.608 65.297 123.168 63.939 123.168ZM61.167 119.094H66.361C66.249 117.652 65.437 116.322 63.799 116.322C62.385 116.322 61.279 117.512 61.167 119.094ZM69.1047 123V115.86H69.7907V117.19C70.2807 116.35 71.0647 115.692 72.3667 115.692C74.1727 115.692 75.2227 116.91 75.2227 118.632V123H74.5367V118.758C74.5367 117.288 73.7247 116.322 72.2687 116.322C70.8687 116.322 69.7907 117.372 69.7907 118.87V123H69.1047ZM80.8407 123.168C78.7827 123.168 77.2007 121.46 77.2007 119.458V119.43C77.2007 117.428 78.7827 115.692 80.8407 115.692C82.1847 115.692 83.0247 116.294 83.6967 117.008L83.2067 117.512C82.5907 116.882 81.8907 116.336 80.8267 116.336C79.2027 116.336 77.9427 117.68 77.9427 119.402V119.43C77.9427 121.166 79.2587 122.524 80.8827 122.524C81.8907 122.524 82.6747 122.006 83.2767 121.334L83.7527 121.754C83.0247 122.58 82.1427 123.168 80.8407 123.168ZM88.4936 123.168C86.6176 123.168 84.9936 121.684 84.9936 119.444V119.416C84.9936 117.358 86.4496 115.692 88.3816 115.692C90.3836 115.692 91.6576 117.316 91.6576 119.43C91.6576 119.556 91.6576 119.598 91.6436 119.71H85.7216C85.8336 121.488 87.1356 122.524 88.5216 122.524C89.6416 122.524 90.3696 122.034 90.9716 121.404L91.4476 121.824C90.7196 122.608 89.8516 123.168 88.4936 123.168ZM85.7216 119.094H90.9156C90.8036 117.652 89.9916 116.322 88.3536 116.322C86.9396 116.322 85.8336 117.512 85.7216 119.094ZM102.918 123.168C101.588 123.168 100.16 122.426 100.16 120.928V120.9C100.16 119.402 101.434 118.576 103.282 118.576C104.29 118.576 104.962 118.702 105.648 118.884V118.576C105.648 117.12 104.766 116.392 103.296 116.392C102.414 116.392 101.714 116.63 101.056 116.966L100.804 116.364C101.588 115.986 102.344 115.748 103.338 115.748C104.318 115.748 105.074 116.014 105.592 116.532C106.082 117.022 106.32 117.694 106.32 118.548V123H105.648V121.81C105.158 122.482 104.276 123.168 102.918 123.168ZM102.96 122.524C104.416 122.524 105.662 121.628 105.662 120.326V119.514C105.06 119.36 104.262 119.192 103.24 119.192C101.728 119.192 100.888 119.85 100.888 120.858V120.886C100.888 121.922 101.868 122.524 102.96 122.524ZM111.937 123.168C109.879 123.168 108.297 121.46 108.297 119.458V119.43C108.297 117.428 109.879 115.692 111.937 115.692C113.281 115.692 114.121 116.294 114.793 117.008L114.303 117.512C113.687 116.882 112.987 116.336 111.923 116.336C110.299 116.336 109.039 117.68 109.039 119.402V119.43C109.039 121.166 110.355 122.524 111.979 122.524C112.987 122.524 113.771 122.006 114.373 121.334L114.849 121.754C114.121 122.58 113.239 123.168 111.937 123.168ZM116.786 123V115.86H117.472V117.89C118.046 116.602 119.208 115.706 120.636 115.748V116.504H120.566C118.928 116.504 117.472 117.764 117.472 120.074V123H116.786ZM125.2 123.168C123.086 123.168 121.546 121.46 121.546 119.458V119.43C121.546 117.428 123.1 115.692 125.228 115.692C127.342 115.692 128.882 117.4 128.882 119.402V119.43C128.882 121.432 127.328 123.168 125.2 123.168ZM125.228 122.524C126.922 122.524 128.14 121.138 128.14 119.458V119.43C128.14 117.694 126.852 116.336 125.2 116.336C123.506 116.336 122.288 117.722 122.288 119.402V119.43C122.288 121.166 123.576 122.524 125.228 122.524ZM133.301 123.14C132.251 123.14 131.145 122.72 130.375 122.104L130.781 121.558C131.565 122.16 132.433 122.496 133.343 122.496C134.309 122.496 135.065 121.978 135.065 121.138V121.11C135.065 120.27 134.169 119.976 133.175 119.682C131.999 119.346 130.725 119.01 130.725 117.722V117.694C130.725 116.546 131.691 115.72 133.077 115.72C133.931 115.72 134.897 116.014 135.611 116.504L135.247 117.078C134.589 116.644 133.819 116.364 133.049 116.364C132.055 116.364 131.425 116.896 131.425 117.61V117.638C131.425 118.436 132.391 118.716 133.413 119.024C134.561 119.36 135.765 119.766 135.765 121.026V121.054C135.765 122.328 134.687 123.14 133.301 123.14ZM140.123 123.14C139.073 123.14 137.967 122.72 137.197 122.104L137.603 121.558C138.387 122.16 139.255 122.496 140.165 122.496C141.131 122.496 141.887 121.978 141.887 121.138V121.11C141.887 120.27 140.991 119.976 139.997 119.682C138.821 119.346 137.547 119.01 137.547 117.722V117.694C137.547 116.546 138.513 115.72 139.899 115.72C140.753 115.72 141.719 116.014 142.433 116.504L142.069 117.078C141.411 116.644 140.641 116.364 139.871 116.364C138.877 116.364 138.247 116.896 138.247 117.61V117.638C138.247 118.436 139.213 118.716 140.235 119.024C141.383 119.36 142.587 119.766 142.587 121.026V121.054C142.587 122.328 141.509 123.14 140.123 123.14ZM153.863 123.056L151.245 115.86H152.015L154.171 122.132L156.327 115.832H156.873L159.029 122.132L161.185 115.86H161.927L159.309 123.056H158.721L156.593 116.938L154.451 123.056H153.863ZM166.574 123.168C164.698 123.168 163.074 121.684 163.074 119.444V119.416C163.074 117.358 164.53 115.692 166.462 115.692C168.464 115.692 169.738 117.316 169.738 119.43C169.738 119.556 169.738 119.598 169.724 119.71H163.802C163.914 121.488 165.216 122.524 166.602 122.524C167.722 122.524 168.45 122.034 169.052 121.404L169.528 121.824C168.8 122.608 167.932 123.168 166.574 123.168ZM163.802 119.094H168.996C168.884 117.652 168.072 116.322 166.434 116.322C165.02 116.322 163.914 117.512 163.802 119.094ZM175.366 123.168C173.938 123.168 173.028 122.356 172.426 121.46V123H171.74V112.78H172.426V117.456C173.028 116.518 173.952 115.692 175.366 115.692C177.088 115.692 178.838 117.078 178.838 119.402V119.43C178.838 121.74 177.088 123.168 175.366 123.168ZM175.296 122.51C176.864 122.51 178.096 121.362 178.096 119.458V119.43C178.096 117.554 176.808 116.35 175.296 116.35C173.798 116.35 172.384 117.596 172.384 119.416V119.444C172.384 121.278 173.798 122.51 175.296 122.51ZM183.292 123.14C182.242 123.14 181.136 122.72 180.366 122.104L180.772 121.558C181.556 122.16 182.424 122.496 183.334 122.496C184.3 122.496 185.056 121.978 185.056 121.138V121.11C185.056 120.27 184.16 119.976 183.166 119.682C181.99 119.346 180.716 119.01 180.716 117.722V117.694C180.716 116.546 181.682 115.72 183.068 115.72C183.922 115.72 184.888 116.014 185.602 116.504L185.238 117.078C184.58 116.644 183.81 116.364 183.04 116.364C182.046 116.364 181.416 116.896 181.416 117.61V117.638C181.416 118.436 182.382 118.716 183.404 119.024C184.552 119.36 185.756 119.766 185.756 121.026V121.054C185.756 122.328 184.678 123.14 183.292 123.14ZM187.955 113.998V113.06H188.809V113.998H187.955ZM188.039 123V115.86H188.725V123H188.039ZM193.807 123.126C192.687 123.126 191.805 122.524 191.805 121.166V116.49H190.769V115.86H191.805V113.578H192.491V115.86H194.997V116.49H192.491V121.096C192.491 122.118 193.079 122.482 193.919 122.482C194.269 122.482 194.563 122.412 194.969 122.23V122.874C194.591 123.042 194.255 123.126 193.807 123.126ZM199.838 123.168C197.962 123.168 196.338 121.684 196.338 119.444V119.416C196.338 117.358 197.794 115.692 199.726 115.692C201.728 115.692 203.002 117.316 203.002 119.43C203.002 119.556 203.002 119.598 202.988 119.71H197.066C197.178 121.488 198.48 122.524 199.866 122.524C200.986 122.524 201.714 122.034 202.316 121.404L202.792 121.824C202.064 122.608 201.196 123.168 199.838 123.168ZM197.066 119.094H202.26C202.148 117.652 201.336 116.322 199.698 116.322C198.284 116.322 197.178 117.512 197.066 119.094ZM207.313 123.14C206.263 123.14 205.157 122.72 204.387 122.104L204.793 121.558C205.577 122.16 206.445 122.496 207.355 122.496C208.321 122.496 209.077 121.978 209.077 121.138V121.11C209.077 120.27 208.181 119.976 207.187 119.682C206.011 119.346 204.737 119.01 204.737 117.722V117.694C204.737 116.546 205.703 115.72 207.089 115.72C207.943 115.72 208.909 116.014 209.623 116.504L209.259 117.078C208.601 116.644 207.831 116.364 207.061 116.364C206.067 116.364 205.437 116.896 205.437 117.61V117.638C205.437 118.436 206.403 118.716 207.425 119.024C208.573 119.36 209.777 119.766 209.777 121.026V121.054C209.777 122.328 208.699 123.14 207.313 123.14ZM211.57 124.498L211.402 124.148C212.004 123.826 212.228 123.546 212.186 123H211.808V121.81H212.732V122.846C212.732 123.728 212.41 124.176 211.57 124.498ZM224.588 123.14C223.538 123.14 222.432 122.72 221.662 122.104L222.068 121.558C222.852 122.16 223.72 122.496 224.63 122.496C225.596 122.496 226.352 121.978 226.352 121.138V121.11C226.352 120.27 225.456 119.976 224.462 119.682C223.286 119.346 222.012 119.01 222.012 117.722V117.694C222.012 116.546 222.978 115.72 224.364 115.72C225.218 115.72 226.184 116.014 226.898 116.504L226.534 117.078C225.876 116.644 225.106 116.364 224.336 116.364C223.342 116.364 222.712 116.896 222.712 117.61V117.638C222.712 118.436 223.678 118.716 224.7 119.024C225.848 119.36 227.052 119.766 227.052 121.026V121.054C227.052 122.328 225.974 123.14 224.588 123.14ZM232.401 123.168C230.287 123.168 228.747 121.46 228.747 119.458V119.43C228.747 117.428 230.301 115.692 232.429 115.692C234.543 115.692 236.083 117.4 236.083 119.402V119.43C236.083 121.432 234.529 123.168 232.401 123.168ZM232.429 122.524C234.123 122.524 235.341 121.138 235.341 119.458V119.43C235.341 117.694 234.053 116.336 232.401 116.336C230.707 116.336 229.489 117.722 229.489 119.402V119.43C229.489 121.166 230.777 122.524 232.429 122.524ZM241.342 123.168C239.284 123.168 237.702 121.46 237.702 119.458V119.43C237.702 117.428 239.284 115.692 241.342 115.692C242.686 115.692 243.526 116.294 244.198 117.008L243.708 117.512C243.092 116.882 242.392 116.336 241.328 116.336C239.704 116.336 238.444 117.68 238.444 119.402V119.43C238.444 121.166 239.76 122.524 241.384 122.524C242.392 122.524 243.176 122.006 243.778 121.334L244.254 121.754C243.526 122.58 242.644 123.168 241.342 123.168ZM246.204 113.998V113.06H247.058V113.998H246.204ZM246.288 123V115.86H246.974V123H246.288ZM251.846 123.168C250.516 123.168 249.088 122.426 249.088 120.928V120.9C249.088 119.402 250.362 118.576 252.21 118.576C253.218 118.576 253.89 118.702 254.576 118.884V118.576C254.576 117.12 253.694 116.392 252.224 116.392C251.342 116.392 250.642 116.63 249.984 116.966L249.732 116.364C250.516 115.986 251.272 115.748 252.266 115.748C253.246 115.748 254.002 116.014 254.52 116.532C255.01 117.022 255.248 117.694 255.248 118.548V123H254.576V121.81C254.086 122.482 253.204 123.168 251.846 123.168ZM251.888 122.524C253.344 122.524 254.59 121.628 254.59 120.326V119.514C253.988 119.36 253.19 119.192 252.168 119.192C250.656 119.192 249.816 119.85 249.816 120.858V120.886C249.816 121.922 250.796 122.524 251.888 122.524ZM257.813 123V112.78H258.499V123H257.813ZM268.291 123V115.86H268.977V117.134C269.425 116.392 270.083 115.692 271.357 115.692C272.617 115.692 273.359 116.406 273.765 117.232C274.227 116.434 275.011 115.692 276.341 115.692C278.035 115.692 279.085 116.882 279.085 118.674V123H278.399V118.758C278.399 117.204 277.615 116.322 276.285 116.322C275.081 116.322 274.031 117.232 274.031 118.842V123H273.345V118.716C273.345 117.218 272.547 116.322 271.259 116.322C269.971 116.322 268.977 117.442 268.977 118.884V123H268.291ZM284.563 123.168C282.687 123.168 281.063 121.684 281.063 119.444V119.416C281.063 117.358 282.519 115.692 284.451 115.692C286.453 115.692 287.727 117.316 287.727 119.43C287.727 119.556 287.727 119.598 287.713 119.71H281.791C281.903 121.488 283.205 122.524 284.591 122.524C285.711 122.524 286.439 122.034 287.041 121.404L287.517 121.824C286.789 122.608 285.921 123.168 284.563 123.168ZM281.791 119.094H286.985C286.873 117.652 286.061 116.322 284.423 116.322C283.009 116.322 281.903 117.512 281.791 119.094ZM292.738 123.168C291.016 123.168 289.266 121.782 289.266 119.458V119.43C289.266 117.12 291.016 115.692 292.738 115.692C294.166 115.692 295.076 116.504 295.678 117.4V112.78H296.364V123H295.678V121.404C295.048 122.342 294.166 123.168 292.738 123.168ZM292.808 122.51C294.306 122.51 295.72 121.264 295.72 119.444V119.416C295.72 117.582 294.306 116.35 292.808 116.35C291.24 116.35 290.008 117.498 290.008 119.402V119.43C290.008 121.306 291.296 122.51 292.808 122.51ZM298.985 113.998V113.06H299.839V113.998H298.985ZM299.069 123V115.86H299.755V123H299.069ZM304.627 123.168C303.297 123.168 301.869 122.426 301.869 120.928V120.9C301.869 119.402 303.143 118.576 304.991 118.576C305.999 118.576 306.671 118.702 307.357 118.884V118.576C307.357 117.12 306.475 116.392 305.005 116.392C304.123 116.392 303.423 116.63 302.765 116.966L302.513 116.364C303.297 115.986 304.053 115.748 305.047 115.748C306.027 115.748 306.783 116.014 307.301 116.532C307.791 117.022 308.029 117.694 308.029 118.548V123H307.357V121.81C306.867 122.482 305.985 123.168 304.627 123.168ZM304.669 122.524C306.125 122.524 307.371 121.628 307.371 120.326V119.514C306.769 119.36 305.971 119.192 304.949 119.192C303.437 119.192 302.597 119.85 302.597 120.858V120.886C302.597 121.922 303.577 122.524 304.669 122.524ZM310.104 124.498L309.936 124.148C310.538 123.826 310.762 123.546 310.72 123H310.342V121.81H311.266V122.846C311.266 123.728 310.944 124.176 310.104 124.498ZM322.981 123.168C321.651 123.168 320.223 122.426 320.223 120.928V120.9C320.223 119.402 321.497 118.576 323.345 118.576C324.353 118.576 325.025 118.702 325.711 118.884V118.576C325.711 117.12 324.829 116.392 323.359 116.392C322.477 116.392 321.777 116.63 321.119 116.966L320.867 116.364C321.651 115.986 322.407 115.748 323.401 115.748C324.381 115.748 325.137 116.014 325.655 116.532C326.145 117.022 326.383 117.694 326.383 118.548V123H325.711V121.81C325.221 122.482 324.339 123.168 322.981 123.168ZM323.023 122.524C324.479 122.524 325.725 121.628 325.725 120.326V119.514C325.123 119.36 324.325 119.192 323.303 119.192C321.791 119.192 320.951 119.85 320.951 120.858V120.886C320.951 121.922 321.931 122.524 323.023 122.524ZM328.851 123V115.86H329.537V117.19C330.027 116.35 330.811 115.692 332.113 115.692C333.919 115.692 334.969 116.91 334.969 118.632V123H334.283V118.758C334.283 117.288 333.471 116.322 332.015 116.322C330.615 116.322 329.537 117.372 329.537 118.87V123H328.851ZM340.446 123.168C338.724 123.168 336.974 121.782 336.974 119.458V119.43C336.974 117.12 338.724 115.692 340.446 115.692C341.874 115.692 342.784 116.504 343.386 117.4V112.78H344.072V123H343.386V121.404C342.756 122.342 341.874 123.168 340.446 123.168ZM340.516 122.51C342.014 122.51 343.428 121.264 343.428 119.444V119.416C343.428 117.582 342.014 116.35 340.516 116.35C338.948 116.35 337.716 117.498 337.716 119.402V119.43C337.716 121.306 339.004 122.51 340.516 122.51ZM356.078 123.14C355.028 123.14 353.922 122.72 353.152 122.104L353.558 121.558C354.342 122.16 355.21 122.496 356.12 122.496C357.086 122.496 357.842 121.978 357.842 121.138V121.11C357.842 120.27 356.946 119.976 355.952 119.682C354.776 119.346 353.502 119.01 353.502 117.722V117.694C353.502 116.546 354.468 115.72 355.854 115.72C356.708 115.72 357.674 116.014 358.388 116.504L358.024 117.078C357.366 116.644 356.596 116.364 355.826 116.364C354.832 116.364 354.202 116.896 354.202 117.61V117.638C354.202 118.436 355.168 118.716 356.19 119.024C357.338 119.36 358.542 119.766 358.542 121.026V121.054C358.542 122.328 357.464 123.14 356.078 123.14ZM363.737 123.168C361.861 123.168 360.237 121.684 360.237 119.444V119.416C360.237 117.358 361.693 115.692 363.625 115.692C365.627 115.692 366.901 117.316 366.901 119.43C366.901 119.556 366.901 119.598 366.887 119.71H360.965C361.077 121.488 362.379 122.524 363.765 122.524C364.885 122.524 365.613 122.034 366.215 121.404L366.691 121.824C365.963 122.608 365.095 123.168 363.737 123.168ZM360.965 119.094H366.159C366.047 117.652 365.235 116.322 363.597 116.322C362.183 116.322 361.077 117.512 360.965 119.094ZM371.072 123.168C369.742 123.168 368.314 122.426 368.314 120.928V120.9C368.314 119.402 369.588 118.576 371.436 118.576C372.444 118.576 373.116 118.702 373.802 118.884V118.576C373.802 117.12 372.92 116.392 371.45 116.392C370.568 116.392 369.868 116.63 369.21 116.966L368.958 116.364C369.742 115.986 370.498 115.748 371.492 115.748C372.472 115.748 373.228 116.014 373.746 116.532C374.236 117.022 374.474 117.694 374.474 118.548V123H373.802V121.81C373.312 122.482 372.43 123.168 371.072 123.168ZM371.114 122.524C372.57 122.524 373.816 121.628 373.816 120.326V119.514C373.214 119.36 372.416 119.192 371.394 119.192C369.882 119.192 369.042 119.85 369.042 120.858V120.886C369.042 121.922 370.022 122.524 371.114 122.524ZM376.941 123V115.86H377.627V117.89C378.201 116.602 379.363 115.706 380.791 115.748V116.504H380.721C379.083 116.504 377.627 117.764 377.627 120.074V123H376.941ZM385.341 123.168C383.283 123.168 381.701 121.46 381.701 119.458V119.43C381.701 117.428 383.283 115.692 385.341 115.692C386.685 115.692 387.525 116.294 388.197 117.008L387.707 117.512C387.091 116.882 386.391 116.336 385.327 116.336C383.703 116.336 382.443 117.68 382.443 119.402V119.43C382.443 121.166 383.759 122.524 385.383 122.524C386.391 122.524 387.175 122.006 387.777 121.334L388.253 121.754C387.525 122.58 386.643 123.168 385.341 123.168ZM390.19 123V112.78H390.876V117.19C391.366 116.35 392.15 115.692 393.452 115.692C395.258 115.692 396.308 116.91 396.308 118.632V123H395.622V118.758C395.622 117.288 394.81 116.322 393.354 116.322C391.954 116.322 390.876 117.372 390.876 118.87V123H390.19ZM408.875 123.168C406.999 123.168 405.375 121.684 405.375 119.444V119.416C405.375 117.358 406.831 115.692 408.763 115.692C410.765 115.692 412.039 117.316 412.039 119.43C412.039 119.556 412.039 119.598 412.025 119.71H406.103C406.215 121.488 407.517 122.524 408.903 122.524C410.023 122.524 410.751 122.034 411.353 121.404L411.829 121.824C411.101 122.608 410.233 123.168 408.875 123.168ZM406.103 119.094H411.297C411.185 117.652 410.373 116.322 408.735 116.322C407.321 116.322 406.215 117.512 406.103 119.094ZM414.04 123V115.86H414.726V117.19C415.216 116.35 416 115.692 417.302 115.692C419.108 115.692 420.158 116.91 420.158 118.632V123H419.472V118.758C419.472 117.288 418.66 116.322 417.204 116.322C415.804 116.322 414.726 117.372 414.726 118.87V123H414.04ZM425.762 125.268C424.558 125.268 423.466 124.904 422.486 124.176L422.892 123.616C423.76 124.288 424.726 124.624 425.776 124.624C427.4 124.624 428.576 123.686 428.576 121.852V120.816C427.946 121.698 427.022 122.468 425.594 122.468C423.872 122.468 422.164 121.152 422.164 119.108V119.08C422.164 117.008 423.872 115.692 425.594 115.692C427.036 115.692 427.974 116.448 428.576 117.288V115.86H429.262V121.894C429.262 122.944 428.926 123.742 428.352 124.316C427.736 124.932 426.826 125.268 425.762 125.268ZM425.664 121.81C427.162 121.81 428.618 120.718 428.618 119.094V119.066C428.618 117.414 427.162 116.35 425.664 116.35C424.152 116.35 422.906 117.386 422.906 119.052V119.08C422.906 120.69 424.194 121.81 425.664 121.81ZM431.882 113.998V113.06H432.736V113.998H431.882ZM431.966 123V115.86H432.652V123H431.966ZM435.355 123V115.86H436.041V117.19C436.531 116.35 437.315 115.692 438.617 115.692C440.423 115.692 441.473 116.91 441.473 118.632V123H440.787V118.758C440.787 117.288 439.975 116.322 438.519 116.322C437.119 116.322 436.041 117.372 436.041 118.87V123H435.355ZM446.951 123.168C445.075 123.168 443.451 121.684 443.451 119.444V119.416C443.451 117.358 444.907 115.692 446.839 115.692C448.841 115.692 450.115 117.316 450.115 119.43C450.115 119.556 450.115 119.598 450.101 119.71H444.179C444.291 121.488 445.593 122.524 446.979 122.524C448.099 122.524 448.827 122.034 449.429 121.404L449.905 121.824C449.177 122.608 448.309 123.168 446.951 123.168ZM444.179 119.094H449.373C449.261 117.652 448.449 116.322 446.811 116.322C445.397 116.322 444.291 117.512 444.179 119.094ZM454.426 123.14C453.376 123.14 452.27 122.72 451.5 122.104L451.906 121.558C452.69 122.16 453.558 122.496 454.468 122.496C455.434 122.496 456.19 121.978 456.19 121.138V121.11C456.19 120.27 455.294 119.976 454.3 119.682C453.124 119.346 451.85 119.01 451.85 117.722V117.694C451.85 116.546 452.816 115.72 454.202 115.72C455.056 115.72 456.022 116.014 456.736 116.504L456.372 117.078C455.714 116.644 454.944 116.364 454.174 116.364C453.18 116.364 452.55 116.896 452.55 117.61V117.638C452.55 118.436 453.516 118.716 454.538 119.024C455.686 119.36 456.89 119.766 456.89 121.026V121.054C456.89 122.328 455.812 123.14 454.426 123.14ZM458.921 123V121.81H459.845V123H458.921ZM31.456 143V133.2H38.358V133.872H32.184V137.89H37.728V138.562H32.184V143H31.456ZM40.4895 143V135.86H41.1755V137.89C41.7495 136.602 42.9115 135.706 44.3395 135.748V136.504H44.2695C42.6315 136.504 41.1755 137.764 41.1755 140.074V143H40.4895ZM48.9035 143.168C46.7895 143.168 45.2495 141.46 45.2495 139.458V139.43C45.2495 137.428 46.8035 135.692 48.9315 135.692C51.0455 135.692 52.5855 137.4 52.5855 139.402V139.43C52.5855 141.432 51.0315 143.168 48.9035 143.168ZM48.9315 142.524C50.6255 142.524 51.8435 141.138 51.8435 139.458V139.43C51.8435 137.694 50.5555 136.336 48.9035 136.336C47.2095 136.336 45.9915 137.722 45.9915 139.402V139.43C45.9915 141.166 47.2795 142.524 48.9315 142.524ZM54.6946 143V135.86H55.3806V137.134C55.8286 136.392 56.4866 135.692 57.7606 135.692C59.0206 135.692 59.7626 136.406 60.1686 137.232C60.6306 136.434 61.4146 135.692 62.7446 135.692C64.4386 135.692 65.4886 136.882 65.4886 138.674V143H64.8026V138.758C64.8026 137.204 64.0186 136.322 62.6886 136.322C61.4846 136.322 60.4346 137.232 60.4346 138.842V143H59.7486V138.716C59.7486 137.218 58.9506 136.322 57.6626 136.322C56.3746 136.322 55.3806 137.442 55.3806 138.884V143H54.6946ZM76.8262 143.168C74.7682 143.168 73.1862 141.46 73.1862 139.458V139.43C73.1862 137.428 74.7682 135.692 76.8262 135.692C78.1702 135.692 79.0102 136.294 79.6822 137.008L79.1922 137.512C78.5762 136.882 77.8762 136.336 76.8122 136.336C75.1882 136.336 73.9282 137.68 73.9282 139.402V139.43C73.9282 141.166 75.2442 142.524 76.8682 142.524C77.8762 142.524 78.6602 142.006 79.2622 141.334L79.7382 141.754C79.0102 142.58 78.1282 143.168 76.8262 143.168ZM84.6331 143.168C82.5191 143.168 80.9791 141.46 80.9791 139.458V139.43C80.9791 137.428 82.5331 135.692 84.6611 135.692C86.7751 135.692 88.3151 137.4 88.3151 139.402V139.43C88.3151 141.432 86.7611 143.168 84.6331 143.168ZM84.6611 142.524C86.3551 142.524 87.5731 141.138 87.5731 139.458V139.43C87.5731 137.694 86.2851 136.336 84.6331 136.336C82.9391 136.336 81.7211 137.722 81.7211 139.402V139.43C81.7211 141.166 83.0091 142.524 84.6611 142.524ZM90.4242 143V135.86H91.1102V137.19C91.6002 136.35 92.3842 135.692 93.6862 135.692C95.4922 135.692 96.5422 136.91 96.5422 138.632V143H95.8562V138.758C95.8562 137.288 95.0442 136.322 93.5882 136.322C92.1882 136.322 91.1102 137.372 91.1102 138.87V143H90.4242ZM101.39 143.126C100.27 143.126 99.3881 142.524 99.3881 141.166V136.49H98.3521V135.86H99.3881V133.578H100.074V135.86H102.58V136.49H100.074V141.096C100.074 142.118 100.662 142.482 101.502 142.482C101.852 142.482 102.146 142.412 102.552 142.23V142.874C102.174 143.042 101.838 143.126 101.39 143.126ZM107.421 143.168C105.545 143.168 103.921 141.684 103.921 139.444V139.416C103.921 137.358 105.377 135.692 107.309 135.692C109.311 135.692 110.585 137.316 110.585 139.43C110.585 139.556 110.585 139.598 110.571 139.71H104.649C104.761 141.488 106.063 142.524 107.449 142.524C108.569 142.524 109.297 142.034 109.899 141.404L110.375 141.824C109.647 142.608 108.779 143.168 107.421 143.168ZM104.649 139.094H109.843C109.731 137.652 108.919 136.322 107.281 136.322C105.867 136.322 104.761 137.512 104.649 139.094ZM112.586 143V135.86H113.272V137.19C113.762 136.35 114.546 135.692 115.848 135.692C117.654 135.692 118.704 136.91 118.704 138.632V143H118.018V138.758C118.018 137.288 117.206 136.322 115.75 136.322C114.35 136.322 113.272 137.372 113.272 138.87V143H112.586ZM123.552 143.126C122.432 143.126 121.55 142.524 121.55 141.166V136.49H120.514V135.86H121.55V133.578H122.236V135.86H124.742V136.49H122.236V141.096C122.236 142.118 122.824 142.482 123.664 142.482C124.014 142.482 124.308 142.412 124.714 142.23V142.874C124.336 143.042 124 143.126 123.552 143.126ZM135.214 143.168C133.408 143.168 132.358 141.95 132.358 140.228V135.86H133.044V140.102C133.044 141.572 133.856 142.538 135.312 142.538C136.712 142.538 137.79 141.488 137.79 139.99V135.86H138.476V143H137.79V141.67C137.3 142.51 136.516 143.168 135.214 143.168ZM141.084 145.24V135.86H141.77V137.456C142.372 136.518 143.296 135.692 144.71 135.692C146.432 135.692 148.182 137.078 148.182 139.402V139.43C148.182 141.74 146.432 143.168 144.71 143.168C143.282 143.168 142.372 142.356 141.77 141.46V145.24H141.084ZM144.64 142.51C146.208 142.51 147.44 141.362 147.44 139.458V139.43C147.44 137.554 146.152 136.35 144.64 136.35C143.142 136.35 141.728 137.596 141.728 139.416V139.444C141.728 141.278 143.142 142.51 144.64 142.51ZM153.336 143.168C151.614 143.168 149.864 141.782 149.864 139.458V139.43C149.864 137.12 151.614 135.692 153.336 135.692C154.764 135.692 155.674 136.504 156.276 137.4V132.78H156.962V143H156.276V141.404C155.646 142.342 154.764 143.168 153.336 143.168ZM153.406 142.51C154.904 142.51 156.318 141.264 156.318 139.444V139.416C156.318 137.582 154.904 136.35 153.406 136.35C151.838 136.35 150.606 137.498 150.606 139.402V139.43C150.606 141.306 151.894 142.51 153.406 142.51ZM161.738 143.168C160.408 143.168 158.98 142.426 158.98 140.928V140.9C158.98 139.402 160.254 138.576 162.102 138.576C163.11 138.576 163.782 138.702 164.468 138.884V138.576C164.468 137.12 163.586 136.392 162.116 136.392C161.234 136.392 160.534 136.63 159.876 136.966L159.624 136.364C160.408 135.986 161.164 135.748 162.158 135.748C163.138 135.748 163.894 136.014 164.412 136.532C164.902 137.022 165.14 137.694 165.14 138.548V143H164.468V141.81C163.978 142.482 163.096 143.168 161.738 143.168ZM161.78 142.524C163.236 142.524 164.482 141.628 164.482 140.326V139.514C163.88 139.36 163.082 139.192 162.06 139.192C160.548 139.192 159.708 139.85 159.708 140.858V140.886C159.708 141.922 160.688 142.524 161.78 142.524ZM169.919 143.126C168.799 143.126 167.917 142.524 167.917 141.166V136.49H166.881V135.86H167.917V133.578H168.603V135.86H171.109V136.49H168.603V141.096C168.603 142.118 169.191 142.482 170.031 142.482C170.381 142.482 170.675 142.412 171.081 142.23V142.874C170.703 143.042 170.367 143.126 169.919 143.126ZM175.949 143.168C174.073 143.168 172.449 141.684 172.449 139.444V139.416C172.449 137.358 173.905 135.692 175.837 135.692C177.839 135.692 179.113 137.316 179.113 139.43C179.113 139.556 179.113 139.598 179.099 139.71H173.177C173.289 141.488 174.591 142.524 175.977 142.524C177.097 142.524 177.825 142.034 178.427 141.404L178.903 141.824C178.175 142.608 177.307 143.168 175.949 143.168ZM173.177 139.094H178.371C178.259 137.652 177.447 136.322 175.809 136.322C174.395 136.322 173.289 137.512 173.177 139.094ZM183.425 143.14C182.375 143.14 181.269 142.72 180.499 142.104L180.905 141.558C181.689 142.16 182.557 142.496 183.467 142.496C184.433 142.496 185.189 141.978 185.189 141.138V141.11C185.189 140.27 184.293 139.976 183.299 139.682C182.123 139.346 180.849 139.01 180.849 137.722V137.694C180.849 136.546 181.815 135.72 183.201 135.72C184.055 135.72 185.021 136.014 185.735 136.504L185.371 137.078C184.713 136.644 183.943 136.364 183.173 136.364C182.179 136.364 181.549 136.896 181.549 137.61V137.638C181.549 138.436 182.515 138.716 183.537 139.024C184.685 139.36 185.889 139.766 185.889 141.026V141.054C185.889 142.328 184.811 143.14 183.425 143.14ZM196.174 143.126C195.054 143.126 194.172 142.524 194.172 141.166V136.49H193.136V135.86H194.172V133.578H194.858V135.86H197.364V136.49H194.858V141.096C194.858 142.118 195.446 142.482 196.286 142.482C196.636 142.482 196.93 142.412 197.336 142.23V142.874C196.958 143.042 196.622 143.126 196.174 143.126ZM202.358 143.168C200.244 143.168 198.704 141.46 198.704 139.458V139.43C198.704 137.428 200.258 135.692 202.386 135.692C204.5 135.692 206.04 137.4 206.04 139.402V139.43C206.04 141.432 204.486 143.168 202.358 143.168ZM202.386 142.524C204.08 142.524 205.298 141.138 205.298 139.458V139.43C205.298 137.694 204.01 136.336 202.358 136.336C200.664 136.336 199.446 137.722 199.446 139.402V139.43C199.446 141.166 200.734 142.524 202.386 142.524ZM213.869 143V135.86H214.555V137.89C215.129 136.602 216.291 135.706 217.719 135.748V136.504H217.649C216.011 136.504 214.555 137.764 214.555 140.074V143H213.869ZM222.129 143.168C220.253 143.168 218.629 141.684 218.629 139.444V139.416C218.629 137.358 220.085 135.692 222.017 135.692C224.019 135.692 225.293 137.316 225.293 139.43C225.293 139.556 225.293 139.598 225.279 139.71H219.357C219.469 141.488 220.771 142.524 222.157 142.524C223.277 142.524 224.005 142.034 224.607 141.404L225.083 141.824C224.355 142.608 223.487 143.168 222.129 143.168ZM219.357 139.094H224.551C224.439 137.652 223.627 136.322 221.989 136.322C220.575 136.322 219.469 137.512 219.357 139.094ZM227.295 145.24V135.86H227.981V137.456C228.583 136.518 229.507 135.692 230.921 135.692C232.643 135.692 234.393 137.078 234.393 139.402V139.43C234.393 141.74 232.643 143.168 230.921 143.168C229.493 143.168 228.583 142.356 227.981 141.46V145.24H227.295ZM230.851 142.51C232.419 142.51 233.651 141.362 233.651 139.458V139.43C233.651 137.554 232.363 136.35 230.851 136.35C229.353 136.35 227.939 137.596 227.939 139.416V139.444C227.939 141.278 229.353 142.51 230.851 142.51ZM239.253 143.168C237.447 143.168 236.397 141.95 236.397 140.228V135.86H237.083V140.102C237.083 141.572 237.895 142.538 239.351 142.538C240.751 142.538 241.829 141.488 241.829 139.99V135.86H242.515V143H241.829V141.67C241.339 142.51 240.555 143.168 239.253 143.168ZM247.503 143.126C246.383 143.126 245.501 142.524 245.501 141.166V136.49H244.465V135.86H245.501V133.578H246.187V135.86H248.693V136.49H246.187V141.096C246.187 142.118 246.775 142.482 247.615 142.482C247.965 142.482 248.259 142.412 248.665 142.23V142.874C248.287 143.042 247.951 143.126 247.503 143.126ZM252.898 143.168C251.568 143.168 250.14 142.426 250.14 140.928V140.9C250.14 139.402 251.414 138.576 253.262 138.576C254.27 138.576 254.942 138.702 255.628 138.884V138.576C255.628 137.12 254.746 136.392 253.276 136.392C252.394 136.392 251.694 136.63 251.036 136.966L250.784 136.364C251.568 135.986 252.324 135.748 253.318 135.748C254.298 135.748 255.054 136.014 255.572 136.532C256.062 137.022 256.3 137.694 256.3 138.548V143H255.628V141.81C255.138 142.482 254.256 143.168 252.898 143.168ZM252.94 142.524C254.396 142.524 255.642 141.628 255.642 140.326V139.514C255.04 139.36 254.242 139.192 253.22 139.192C251.708 139.192 250.868 139.85 250.868 140.858V140.886C250.868 141.922 251.848 142.524 252.94 142.524ZM261.079 143.126C259.959 143.126 259.077 142.524 259.077 141.166V136.49H258.041V135.86H259.077V133.578H259.763V135.86H262.269V136.49H259.763V141.096C259.763 142.118 260.351 142.482 261.191 142.482C261.541 142.482 261.835 142.412 262.241 142.23V142.874C261.863 143.042 261.527 143.126 261.079 143.126ZM264.319 133.998V133.06H265.173V133.998H264.319ZM264.403 143V135.86H265.089V143H264.403ZM270.955 143.168C268.841 143.168 267.301 141.46 267.301 139.458V139.43C267.301 137.428 268.855 135.692 270.983 135.692C273.097 135.692 274.637 137.4 274.637 139.402V139.43C274.637 141.432 273.083 143.168 270.955 143.168ZM270.983 142.524C272.677 142.524 273.895 141.138 273.895 139.458V139.43C273.895 137.694 272.607 136.336 270.955 136.336C269.261 136.336 268.043 137.722 268.043 139.402V139.43C268.043 141.166 269.331 142.524 270.983 142.524ZM276.746 143V135.86H277.432V137.19C277.922 136.35 278.706 135.692 280.008 135.692C281.814 135.692 282.864 136.91 282.864 138.632V143H282.178V138.758C282.178 137.288 281.366 136.322 279.91 136.322C278.51 136.322 277.432 137.372 277.432 138.87V143H276.746ZM291.052 143V135.86H291.738V137.134C292.186 136.392 292.844 135.692 294.118 135.692C295.378 135.692 296.12 136.406 296.526 137.232C296.988 136.434 297.772 135.692 299.102 135.692C300.796 135.692 301.846 136.882 301.846 138.674V143H301.16V138.758C301.16 137.204 300.376 136.322 299.046 136.322C297.842 136.322 296.792 137.232 296.792 138.842V143H296.106V138.716C296.106 137.218 295.308 136.322 294.02 136.322C292.732 136.322 291.738 137.442 291.738 138.884V143H291.052ZM306.483 143.168C305.153 143.168 303.725 142.426 303.725 140.928V140.9C303.725 139.402 304.999 138.576 306.847 138.576C307.855 138.576 308.527 138.702 309.213 138.884V138.576C309.213 137.12 308.331 136.392 306.861 136.392C305.979 136.392 305.279 136.63 304.621 136.966L304.369 136.364C305.153 135.986 305.909 135.748 306.903 135.748C307.883 135.748 308.639 136.014 309.157 136.532C309.647 137.022 309.885 137.694 309.885 138.548V143H309.213V141.81C308.723 142.482 307.841 143.168 306.483 143.168ZM306.525 142.524C307.981 142.524 309.227 141.628 309.227 140.326V139.514C308.625 139.36 307.827 139.192 306.805 139.192C305.293 139.192 304.453 139.85 304.453 140.858V140.886C304.453 141.922 305.433 142.524 306.525 142.524ZM312.353 143V135.86H313.039V137.19C313.529 136.35 314.313 135.692 315.615 135.692C317.421 135.692 318.471 136.91 318.471 138.632V143H317.785V138.758C317.785 137.288 316.973 136.322 315.517 136.322C314.117 136.322 313.039 137.372 313.039 138.87V143H312.353ZM323.108 143.168C321.778 143.168 320.35 142.426 320.35 140.928V140.9C320.35 139.402 321.624 138.576 323.472 138.576C324.48 138.576 325.152 138.702 325.838 138.884V138.576C325.838 137.12 324.956 136.392 323.486 136.392C322.604 136.392 321.904 136.63 321.246 136.966L320.994 136.364C321.778 135.986 322.534 135.748 323.528 135.748C324.508 135.748 325.264 136.014 325.782 136.532C326.272 137.022 326.51 137.694 326.51 138.548V143H325.838V141.81C325.348 142.482 324.466 143.168 323.108 143.168ZM323.15 142.524C324.606 142.524 325.852 141.628 325.852 140.326V139.514C325.25 139.36 324.452 139.192 323.43 139.192C321.918 139.192 321.078 139.85 321.078 140.858V140.886C321.078 141.922 322.058 142.524 323.15 142.524ZM332.114 145.268C330.91 145.268 329.818 144.904 328.838 144.176L329.244 143.616C330.112 144.288 331.078 144.624 332.128 144.624C333.752 144.624 334.928 143.686 334.928 141.852V140.816C334.298 141.698 333.374 142.468 331.946 142.468C330.224 142.468 328.516 141.152 328.516 139.108V139.08C328.516 137.008 330.224 135.692 331.946 135.692C333.388 135.692 334.326 136.448 334.928 137.288V135.86H335.614V141.894C335.614 142.944 335.278 143.742 334.704 144.316C334.088 144.932 333.178 145.268 332.114 145.268ZM332.016 141.81C333.514 141.81 334.97 140.718 334.97 139.094V139.066C334.97 137.414 333.514 136.35 332.016 136.35C330.504 136.35 329.258 137.386 329.258 139.052V139.08C329.258 140.69 330.546 141.81 332.016 141.81ZM341.23 143.168C339.354 143.168 337.73 141.684 337.73 139.444V139.416C337.73 137.358 339.186 135.692 341.118 135.692C343.12 135.692 344.394 137.316 344.394 139.43C344.394 139.556 344.394 139.598 344.38 139.71H338.458C338.57 141.488 339.872 142.524 341.258 142.524C342.378 142.524 343.106 142.034 343.708 141.404L344.184 141.824C343.456 142.608 342.588 143.168 341.23 143.168ZM338.458 139.094H343.652C343.54 137.652 342.728 136.322 341.09 136.322C339.676 136.322 338.57 137.512 338.458 139.094ZM346.395 143V135.86H347.081V137.134C347.529 136.392 348.187 135.692 349.461 135.692C350.721 135.692 351.463 136.406 351.869 137.232C352.331 136.434 353.115 135.692 354.445 135.692C356.139 135.692 357.189 136.882 357.189 138.674V143H356.503V138.758C356.503 137.204 355.719 136.322 354.389 136.322C353.185 136.322 352.135 137.232 352.135 138.842V143H351.449V138.716C351.449 137.218 350.651 136.322 349.363 136.322C348.075 136.322 347.081 137.442 347.081 138.884V143H346.395ZM362.667 143.168C360.791 143.168 359.167 141.684 359.167 139.444V139.416C359.167 137.358 360.623 135.692 362.555 135.692C364.557 135.692 365.831 137.316 365.831 139.43C365.831 139.556 365.831 139.598 365.817 139.71H359.895C360.007 141.488 361.309 142.524 362.695 142.524C363.815 142.524 364.543 142.034 365.145 141.404L365.621 141.824C364.893 142.608 364.025 143.168 362.667 143.168ZM359.895 139.094H365.089C364.977 137.652 364.165 136.322 362.527 136.322C361.113 136.322 360.007 137.512 359.895 139.094ZM367.833 143V135.86H368.519V137.19C369.009 136.35 369.793 135.692 371.095 135.692C372.901 135.692 373.951 136.91 373.951 138.632V143H373.265V138.758C373.265 137.288 372.453 136.322 370.997 136.322C369.597 136.322 368.519 137.372 368.519 138.87V143H367.833ZM378.799 143.126C377.679 143.126 376.797 142.524 376.797 141.166V136.49H375.761V135.86H376.797V133.578H377.483V135.86H379.989V136.49H377.483V141.096C377.483 142.118 378.071 142.482 378.911 142.482C379.261 142.482 379.555 142.412 379.961 142.23V142.874C379.583 143.042 379.247 143.126 378.799 143.126ZM381.632 144.498L381.464 144.148C382.066 143.826 382.29 143.546 382.248 143H381.87V141.81H382.794V142.846C382.794 143.728 382.472 144.176 381.632 144.498ZM392.973 143.056L390.355 135.86H391.125L393.281 142.132L395.437 135.832H395.983L398.139 142.132L400.295 135.86H401.037L398.419 143.056H397.831L395.703 136.938L393.561 143.056H392.973ZM405.684 143.168C403.808 143.168 402.184 141.684 402.184 139.444V139.416C402.184 137.358 403.64 135.692 405.572 135.692C407.574 135.692 408.848 137.316 408.848 139.43C408.848 139.556 408.848 139.598 408.834 139.71H402.912C403.024 141.488 404.326 142.524 405.712 142.524C406.832 142.524 407.56 142.034 408.162 141.404L408.638 141.824C407.91 142.608 407.042 143.168 405.684 143.168ZM402.912 139.094H408.106C407.994 137.652 407.182 136.322 405.544 136.322C404.13 136.322 403.024 137.512 402.912 139.094ZM419.58 143.168C417.704 143.168 416.08 141.684 416.08 139.444V139.416C416.08 137.358 417.536 135.692 419.468 135.692C421.47 135.692 422.744 137.316 422.744 139.43C422.744 139.556 422.744 139.598 422.73 139.71H416.808C416.92 141.488 418.222 142.524 419.608 142.524C420.728 142.524 421.456 142.034 422.058 141.404L422.534 141.824C421.806 142.608 420.938 143.168 419.58 143.168ZM416.808 139.094H422.002C421.89 137.652 421.078 136.322 419.44 136.322C418.026 136.322 416.92 137.512 416.808 139.094ZM424.745 143V135.86H425.431V137.19C425.921 136.35 426.705 135.692 428.007 135.692C429.813 135.692 430.863 136.91 430.863 138.632V143H430.177V138.758C430.177 137.288 429.365 136.322 427.909 136.322C426.509 136.322 425.431 137.372 425.431 138.87V143H424.745ZM435.641 143.14C434.591 143.14 433.485 142.72 432.715 142.104L433.121 141.558C433.905 142.16 434.773 142.496 435.683 142.496C436.649 142.496 437.405 141.978 437.405 141.138V141.11C437.405 140.27 436.509 139.976 435.515 139.682C434.339 139.346 433.065 139.01 433.065 137.722V137.694C433.065 136.546 434.031 135.72 435.417 135.72C436.271 135.72 437.237 136.014 437.951 136.504L437.587 137.078C436.929 136.644 436.159 136.364 435.389 136.364C434.395 136.364 433.765 136.896 433.765 137.61V137.638C433.765 138.436 434.731 138.716 435.753 139.024C436.901 139.36 438.105 139.766 438.105 141.026V141.054C438.105 142.328 437.027 143.14 435.641 143.14ZM443.006 143.168C441.2 143.168 440.15 141.95 440.15 140.228V135.86H440.836V140.102C440.836 141.572 441.648 142.538 443.104 142.538C444.504 142.538 445.582 141.488 445.582 139.99V135.86H446.268V143H445.582V141.67C445.092 142.51 444.308 143.168 443.006 143.168ZM448.876 143V135.86H449.562V137.89C450.136 136.602 451.298 135.706 452.726 135.748V136.504H452.656C451.018 136.504 449.562 137.764 449.562 140.074V143H448.876ZM457.136 143.168C455.26 143.168 453.636 141.684 453.636 139.444V139.416C453.636 137.358 455.092 135.692 457.024 135.692C459.026 135.692 460.3 137.316 460.3 139.43C460.3 139.556 460.3 139.598 460.286 139.71H454.364C454.476 141.488 455.778 142.524 457.164 142.524C458.284 142.524 459.012 142.034 459.614 141.404L460.09 141.824C459.362 142.608 458.494 143.168 457.136 143.168ZM454.364 139.094H459.558C459.446 137.652 458.634 136.322 456.996 136.322C455.582 136.322 454.476 137.512 454.364 139.094ZM34.312 162.244L36.888 155.86H37.644L34.55 163.252C33.92 164.75 33.192 165.282 32.17 165.282C31.624 165.282 31.246 165.184 30.756 164.974L30.994 164.372C31.372 164.554 31.666 164.638 32.212 164.638C32.968 164.638 33.444 164.204 33.976 162.958L30.546 155.86H31.344L34.312 162.244ZM42.2726 163.168C40.1586 163.168 38.6186 161.46 38.6186 159.458V159.43C38.6186 157.428 40.1726 155.692 42.3006 155.692C44.4146 155.692 45.9546 157.4 45.9546 159.402V159.43C45.9546 161.432 44.4006 163.168 42.2726 163.168ZM42.3006 162.524C43.9946 162.524 45.2126 161.138 45.2126 159.458V159.43C45.2126 157.694 43.9246 156.336 42.2726 156.336C40.5786 156.336 39.3606 157.722 39.3606 159.402V159.43C39.3606 161.166 40.6486 162.524 42.3006 162.524ZM50.7797 163.168C48.9737 163.168 47.9237 161.95 47.9237 160.228V155.86H48.6097V160.102C48.6097 161.572 49.4217 162.538 50.8777 162.538C52.2777 162.538 53.3557 161.488 53.3557 159.99V155.86H54.0417V163H53.3557V161.67C52.8657 162.51 52.0817 163.168 50.7797 163.168ZM56.6497 163V155.86H57.3357V157.89C57.9097 156.602 59.0717 155.706 60.4997 155.748V156.504H60.4297C58.7917 156.504 57.3357 157.764 57.3357 160.074V163H56.6497ZM70.0784 163.168C68.6504 163.168 67.7404 162.356 67.1384 161.46V163H66.4524V152.78H67.1384V157.456C67.7404 156.518 68.6644 155.692 70.0784 155.692C71.8004 155.692 73.5504 157.078 73.5504 159.402V159.43C73.5504 161.74 71.8004 163.168 70.0784 163.168ZM70.0084 162.51C71.5764 162.51 72.8084 161.362 72.8084 159.458V159.43C72.8084 157.554 71.5204 156.35 70.0084 156.35C68.5104 156.35 67.0964 157.596 67.0964 159.416V159.444C67.0964 161.278 68.5104 162.51 70.0084 162.51ZM75.6946 163V155.86H76.3806V157.89C76.9546 156.602 78.1166 155.706 79.5446 155.748V156.504H79.4746C77.8366 156.504 76.3806 157.764 76.3806 160.074V163H75.6946ZM83.1146 163.168C81.7846 163.168 80.3566 162.426 80.3566 160.928V160.9C80.3566 159.402 81.6306 158.576 83.4786 158.576C84.4866 158.576 85.1586 158.702 85.8446 158.884V158.576C85.8446 157.12 84.9626 156.392 83.4926 156.392C82.6106 156.392 81.9106 156.63 81.2526 156.966L81.0006 156.364C81.7846 155.986 82.5406 155.748 83.5346 155.748C84.5146 155.748 85.2706 156.014 85.7886 156.532C86.2786 157.022 86.5166 157.694 86.5166 158.548V163H85.8446V161.81C85.3546 162.482 84.4726 163.168 83.1146 163.168ZM83.1566 162.524C84.6126 162.524 85.8586 161.628 85.8586 160.326V159.514C85.2566 159.36 84.4586 159.192 83.4366 159.192C81.9246 159.192 81.0846 159.85 81.0846 160.858V160.886C81.0846 161.922 82.0646 162.524 83.1566 162.524ZM88.9836 163V155.86H89.6696V157.19C90.1596 156.35 90.9436 155.692 92.2456 155.692C94.0516 155.692 95.1016 156.91 95.1016 158.632V163H94.4156V158.758C94.4156 157.288 93.6036 156.322 92.1476 156.322C90.7476 156.322 89.6696 157.372 89.6696 158.87V163H88.9836ZM100.58 163.168C98.8576 163.168 97.1076 161.782 97.1076 159.458V159.43C97.1076 157.12 98.8576 155.692 100.58 155.692C102.008 155.692 102.918 156.504 103.52 157.4V152.78H104.206V163H103.52V161.404C102.89 162.342 102.008 163.168 100.58 163.168ZM100.65 162.51C102.148 162.51 103.562 161.264 103.562 159.444V159.416C103.562 157.582 102.148 156.35 100.65 156.35C99.0816 156.35 97.8496 157.498 97.8496 159.402V159.43C97.8496 161.306 99.1376 162.51 100.65 162.51ZM113.319 163.14C112.269 163.14 111.163 162.72 110.393 162.104L110.799 161.558C111.583 162.16 112.451 162.496 113.361 162.496C114.327 162.496 115.083 161.978 115.083 161.138V161.11C115.083 160.27 114.187 159.976 113.193 159.682C112.017 159.346 110.743 159.01 110.743 157.722V157.694C110.743 156.546 111.709 155.72 113.095 155.72C113.949 155.72 114.915 156.014 115.629 156.504L115.265 157.078C114.607 156.644 113.837 156.364 113.067 156.364C112.073 156.364 111.443 156.896 111.443 157.61V157.638C111.443 158.436 112.409 158.716 113.431 159.024C114.579 159.36 115.783 159.766 115.783 161.026V161.054C115.783 162.328 114.705 163.14 113.319 163.14ZM120.211 163.126C119.091 163.126 118.209 162.524 118.209 161.166V156.49H117.173V155.86H118.209V153.578H118.895V155.86H121.401V156.49H118.895V161.096C118.895 162.118 119.483 162.482 120.323 162.482C120.673 162.482 120.967 162.412 121.373 162.23V162.874C120.995 163.042 120.659 163.126 120.211 163.126ZM125.607 163.168C124.277 163.168 122.849 162.426 122.849 160.928V160.9C122.849 159.402 124.123 158.576 125.971 158.576C126.979 158.576 127.651 158.702 128.337 158.884V158.576C128.337 157.12 127.455 156.392 125.985 156.392C125.103 156.392 124.403 156.63 123.745 156.966L123.493 156.364C124.277 155.986 125.033 155.748 126.027 155.748C127.007 155.748 127.763 156.014 128.281 156.532C128.771 157.022 129.009 157.694 129.009 158.548V163H128.337V161.81C127.847 162.482 126.965 163.168 125.607 163.168ZM125.649 162.524C127.105 162.524 128.351 161.628 128.351 160.326V159.514C127.749 159.36 126.951 159.192 125.929 159.192C124.417 159.192 123.577 159.85 123.577 160.858V160.886C123.577 161.922 124.557 162.524 125.649 162.524ZM134.212 162.244L136.788 155.86H137.544L134.45 163.252C133.82 164.75 133.092 165.282 132.07 165.282C131.524 165.282 131.146 165.184 130.656 164.974L130.894 164.372C131.272 164.554 131.566 164.638 132.112 164.638C132.868 164.638 133.344 164.204 133.876 162.958L130.446 155.86H131.244L134.212 162.244ZM141.469 163.14C140.419 163.14 139.313 162.72 138.543 162.104L138.949 161.558C139.733 162.16 140.601 162.496 141.511 162.496C142.477 162.496 143.233 161.978 143.233 161.138V161.11C143.233 160.27 142.337 159.976 141.343 159.682C140.167 159.346 138.893 159.01 138.893 157.722V157.694C138.893 156.546 139.859 155.72 141.245 155.72C142.099 155.72 143.065 156.014 143.779 156.504L143.415 157.078C142.757 156.644 141.987 156.364 141.217 156.364C140.223 156.364 139.593 156.896 139.593 157.61V157.638C139.593 158.436 140.559 158.716 141.581 159.024C142.729 159.36 143.933 159.766 143.933 161.026V161.054C143.933 162.328 142.855 163.14 141.469 163.14ZM152.794 163.056L149.588 155.86H150.386L153.088 162.23L155.818 155.86H156.588L153.382 163.056H152.794ZM158.478 153.998V153.06H159.332V153.998H158.478ZM158.562 163V155.86H159.248V163H158.562ZM164.26 163.14C163.21 163.14 162.104 162.72 161.334 162.104L161.74 161.558C162.524 162.16 163.392 162.496 164.302 162.496C165.268 162.496 166.024 161.978 166.024 161.138V161.11C166.024 160.27 165.128 159.976 164.134 159.682C162.958 159.346 161.684 159.01 161.684 157.722V157.694C161.684 156.546 162.65 155.72 164.036 155.72C164.89 155.72 165.856 156.014 166.57 156.504L166.206 157.078C165.548 156.644 164.778 156.364 164.008 156.364C163.014 156.364 162.384 156.896 162.384 157.61V157.638C162.384 158.436 163.35 158.716 164.372 159.024C165.52 159.36 166.724 159.766 166.724 161.026V161.054C166.724 162.328 165.646 163.14 164.26 163.14ZM168.923 153.998V153.06H169.777V153.998H168.923ZM169.007 163V155.86H169.693V163H169.007ZM176.022 163.168C174.594 163.168 173.684 162.356 173.082 161.46V163H172.396V152.78H173.082V157.456C173.684 156.518 174.608 155.692 176.022 155.692C177.744 155.692 179.494 157.078 179.494 159.402V159.43C179.494 161.74 177.744 163.168 176.022 163.168ZM175.952 162.51C177.52 162.51 178.752 161.362 178.752 159.458V159.43C178.752 157.554 177.464 156.35 175.952 156.35C174.454 156.35 173.04 157.596 173.04 159.416V159.444C173.04 161.278 174.454 162.51 175.952 162.51ZM181.736 163V152.78H182.422V163H181.736ZM188.134 163.168C186.258 163.168 184.634 161.684 184.634 159.444V159.416C184.634 157.358 186.09 155.692 188.022 155.692C190.024 155.692 191.298 157.316 191.298 159.43C191.298 159.556 191.298 159.598 191.284 159.71H185.362C185.474 161.488 186.776 162.524 188.162 162.524C189.282 162.524 190.01 162.034 190.612 161.404L191.088 161.824C190.36 162.608 189.492 163.168 188.134 163.168ZM185.362 159.094H190.556C190.444 157.652 189.632 156.322 187.994 156.322C186.58 156.322 185.474 157.512 185.362 159.094ZM199.667 163.168C198.337 163.168 196.909 162.426 196.909 160.928V160.9C196.909 159.402 198.183 158.576 200.031 158.576C201.039 158.576 201.711 158.702 202.397 158.884V158.576C202.397 157.12 201.515 156.392 200.045 156.392C199.163 156.392 198.463 156.63 197.805 156.966L197.553 156.364C198.337 155.986 199.093 155.748 200.087 155.748C201.067 155.748 201.823 156.014 202.341 156.532C202.831 157.022 203.069 157.694 203.069 158.548V163H202.397V161.81C201.907 162.482 201.025 163.168 199.667 163.168ZM199.709 162.524C201.165 162.524 202.411 161.628 202.411 160.326V159.514C201.809 159.36 201.011 159.192 199.989 159.192C198.477 159.192 197.637 159.85 197.637 160.858V160.886C197.637 161.922 198.617 162.524 199.709 162.524ZM205.536 163V155.86H206.222V157.19C206.712 156.35 207.496 155.692 208.798 155.692C210.604 155.692 211.654 156.91 211.654 158.632V163H210.968V158.758C210.968 157.288 210.156 156.322 208.7 156.322C207.3 156.322 206.222 157.372 206.222 158.87V163H205.536ZM217.132 163.168C215.41 163.168 213.66 161.782 213.66 159.458V159.43C213.66 157.12 215.41 155.692 217.132 155.692C218.56 155.692 219.47 156.504 220.072 157.4V152.78H220.758V163H220.072V161.404C219.442 162.342 218.56 163.168 217.132 163.168ZM217.202 162.51C218.7 162.51 220.114 161.264 220.114 159.444V159.416C220.114 157.582 218.7 156.35 217.202 156.35C215.634 156.35 214.402 157.498 214.402 159.402V159.43C214.402 161.306 215.69 162.51 217.202 162.51ZM227.562 163V155.86H228.248V157.89C228.822 156.602 229.984 155.706 231.412 155.748V156.504H231.342C229.704 156.504 228.248 157.764 228.248 160.074V163H227.562ZM235.822 163.168C233.946 163.168 232.322 161.684 232.322 159.444V159.416C232.322 157.358 233.778 155.692 235.71 155.692C237.712 155.692 238.986 157.316 238.986 159.43C238.986 159.556 238.986 159.598 238.972 159.71H233.05C233.162 161.488 234.464 162.524 235.85 162.524C236.97 162.524 237.698 162.034 238.3 161.404L238.776 161.824C238.048 162.608 237.18 163.168 235.822 163.168ZM233.05 159.094H238.244C238.132 157.652 237.32 156.322 235.682 156.322C234.268 156.322 233.162 157.512 233.05 159.094ZM241.086 163V152.78H241.772V163H241.086ZM247.484 163.168C245.608 163.168 243.984 161.684 243.984 159.444V159.416C243.984 157.358 245.44 155.692 247.372 155.692C249.374 155.692 250.648 157.316 250.648 159.43C250.648 159.556 250.648 159.598 250.634 159.71H244.712C244.824 161.488 246.126 162.524 247.512 162.524C248.632 162.524 249.36 162.034 249.962 161.404L250.438 161.824C249.71 162.608 248.842 163.168 247.484 163.168ZM244.712 159.094H249.906C249.794 157.652 248.982 156.322 247.344 156.322C245.93 156.322 244.824 157.512 244.712 159.094ZM254.772 163.056L251.566 155.86H252.364L255.066 162.23L257.796 155.86H258.566L255.36 163.056H254.772ZM262.257 163.168C260.927 163.168 259.499 162.426 259.499 160.928V160.9C259.499 159.402 260.773 158.576 262.621 158.576C263.629 158.576 264.301 158.702 264.987 158.884V158.576C264.987 157.12 264.105 156.392 262.635 156.392C261.753 156.392 261.053 156.63 260.395 156.966L260.143 156.364C260.927 155.986 261.683 155.748 262.677 155.748C263.657 155.748 264.413 156.014 264.931 156.532C265.421 157.022 265.659 157.694 265.659 158.548V163H264.987V161.81C264.497 162.482 263.615 163.168 262.257 163.168ZM262.299 162.524C263.755 162.524 265.001 161.628 265.001 160.326V159.514C264.399 159.36 263.601 159.192 262.579 159.192C261.067 159.192 260.227 159.85 260.227 160.858V160.886C260.227 161.922 261.207 162.524 262.299 162.524ZM268.126 163V155.86H268.812V157.19C269.302 156.35 270.086 155.692 271.388 155.692C273.194 155.692 274.244 156.91 274.244 158.632V163H273.558V158.758C273.558 157.288 272.746 156.322 271.29 156.322C269.89 156.322 268.812 157.372 268.812 158.87V163H268.126ZM279.092 163.126C277.972 163.126 277.09 162.524 277.09 161.166V156.49H276.054V155.86H277.09V153.578H277.776V155.86H280.282V156.49H277.776V161.096C277.776 162.118 278.364 162.482 279.204 162.482C279.554 162.482 279.848 162.412 280.254 162.23V162.874C279.876 163.042 279.54 163.126 279.092 163.126ZM282.164 163V161.81H283.088V163H282.164Z" fill="#F8F8F8"/>
<path d="M46.5 40.25C46.8452 40.25 47.125 39.9702 47.125 39.625C47.125 39.2798 46.8452 39 46.5 39C46.1548 39 45.875 39.2798 45.875 39.625C45.875 39.9702 46.1548 40.25 46.5 40.25Z" fill="#F8F8F8"/>
<path d="M49 40.25C49.3452 40.25 49.625 39.9702 49.625 39.625C49.625 39.2798 49.3452 39 49 39C48.6548 39 48.375 39.2798 48.375 39.625C48.375 39.9702 48.6548 40.25 49 40.25Z" fill="#F8F8F8"/>
<path d="M70.2787 49H62.75C62.6251 49 62.503 49.0374 62.3996 49.1075C62.2962 49.1775 62.2161 49.2769 62.1697 49.3929L61.6289 50.745L54.2903 43.4064C53.5007 42.613 52.4353 42.155 51.3162 42.1279C51.4382 41.7215 51.5001 41.2994 51.5 40.875V39.8142L52.6425 38.1005L52.6441 38.0981L52.645 38.0967C52.7137 37.9941 52.7502 37.8734 52.75 37.75V35.875C52.7485 34.5494 52.2212 33.2785 51.2839 32.3411C50.3465 31.4038 49.0756 30.8765 47.75 30.875H46.0226C45.5506 30.8734 45.0856 30.9884 44.6688 31.2096C44.2519 31.4308 43.8961 31.7515 43.6329 32.1432C42.7068 32.2354 41.848 32.6683 41.2229 33.3578C40.5979 34.0473 40.2512 34.9444 40.25 35.875V37.125C40.2521 37.9979 40.4563 38.8585 40.8467 39.6392C41.237 40.4199 41.8029 41.0996 42.5 41.6251L42.75 41.8126V42.125H41.1783C39.6065 42.1268 38.0997 42.7519 36.9883 43.8633C35.8769 44.9747 35.2518 46.4816 35.25 48.0533V62.75H36.5V51.6931C36.6507 51.8869 36.8131 52.0713 36.9863 52.2453L43.5266 58.7856C43.9898 59.2513 44.5408 59.6206 45.1477 59.8719C45.7546 60.1233 46.4053 60.2518 47.0622 60.25H47.1879C47.3329 60.9553 47.7166 61.5891 48.2744 62.0445C48.8322 62.4999 49.5299 62.7491 50.25 62.75H65.8555C66.3556 62.7516 66.8445 62.6026 67.2585 62.3223C67.6725 62.0419 67.9925 61.6434 68.1767 61.1785L72.0196 51.5714C72.1334 51.2869 72.1757 50.9788 72.1429 50.6742C72.1101 50.3695 72.0031 50.0776 71.8313 49.8238C71.6596 49.5701 71.4282 49.3623 71.1575 49.2187C70.8868 49.0751 70.5851 49 70.2787 49ZM59.3963 56.3263L59.3933 56.3079C59.2857 55.6516 58.9932 55.0396 58.5501 54.5436C58.1069 54.0476 57.5316 53.6882 56.8915 53.5076L54.5714 51.1875L57.4375 48.3214L61.1238 52.0077L59.3963 56.3263ZM55.0937 53.4777C54.8404 53.5395 54.5948 53.6293 54.3613 53.7456L52.6024 54.625H51.5V49.8839L55.0937 53.4777ZM44 43.9327C44.5379 44.4837 45.2118 44.8828 45.9535 45.0895C46.6952 45.2963 47.4784 45.3034 48.2238 45.1101C48.038 45.5848 47.6922 45.9796 47.2463 46.2265C46.8003 46.4733 46.2822 46.5566 45.7813 46.462C45.2804 46.3675 44.8283 46.1009 44.5031 45.7084C44.1779 45.316 43.9999 44.8222 44 44.3125V43.9327ZM47.125 44C46.2965 43.9991 45.5022 43.6695 44.9163 43.0837C44.3305 42.4978 44.0009 41.7035 44 40.875V37.8615C44.5521 37.5321 45.0073 37.0626 45.3194 36.5006C45.8011 37.0888 46.4079 37.5623 47.0957 37.8866C47.7834 38.2108 48.5348 38.3777 49.2951 38.375H50.25V40.875C50.2491 41.7035 49.9195 42.4978 49.3337 43.0837C48.7478 43.6695 47.9535 43.9991 47.125 44ZM46.0226 32.125H47.75C48.7442 32.1261 49.6974 32.5216 50.4004 33.2246C51.1034 33.9276 51.4989 34.8808 51.5 35.875V37.125H49.2951C48.5708 37.1275 47.8602 36.9269 47.2441 36.5461C46.6279 36.1653 46.1307 35.6195 45.809 34.9705L44.7138 32.78C44.8655 32.5761 45.063 32.4106 45.2903 32.2969C45.5176 32.1831 45.7684 32.1242 46.0226 32.125ZM41.5 37.125V35.875C41.5008 35.2767 41.7157 34.6984 42.106 34.2449C42.4963 33.7914 43.036 33.4927 43.6275 33.4027L44.5512 35.25L44.2795 35.7935C44.0807 36.1945 43.7734 36.5319 43.3926 36.7672C43.0118 37.0026 42.5727 37.1265 42.125 37.125V38.375C42.3345 38.3744 42.5436 38.3561 42.75 38.3202V40.1834C41.9517 39.3652 41.5034 38.2682 41.5 37.125ZM36.5 48.0533C36.5014 46.813 36.9947 45.6239 37.8718 44.7468C38.7488 43.8698 39.9379 43.3764 41.1783 43.375H42.75V44.3125C42.7499 45.211 43.1017 46.0737 43.7298 46.7161C44.358 47.3584 45.2128 47.7292 46.111 47.7492C47.0092 47.7691 47.8795 47.4366 48.5356 46.8227C49.1917 46.2089 49.5813 45.3626 49.6211 44.465C50.046 44.1686 50.4154 43.7996 50.7122 43.375H51.1967C51.6073 43.3739 52.0139 43.4542 52.3932 43.6113C52.7725 43.7684 53.1169 43.9992 53.4064 44.2903L56.5536 47.4375L53.6875 50.3036L51.317 47.9331C51.2296 47.8457 51.1182 47.7861 50.997 47.762C50.8757 47.7379 50.75 47.7503 50.6358 47.7976C50.5216 47.8449 50.424 47.925 50.3553 48.0278C50.2867 48.1306 50.25 48.2514 50.25 48.375V54.625H48.0089L41.317 47.9331L40.433 48.8169L42.8036 51.1875L40.25 53.7411L37.8702 51.3614C37.4344 50.928 37.089 50.4124 36.8537 49.8446C36.6185 49.2768 36.4983 48.6679 36.5 48.0533ZM44.4105 57.9017L41.1339 54.625L43.6875 52.0714L47.308 55.692C47.4252 55.8092 47.5842 55.875 47.75 55.875H52.75C52.847 55.875 52.9427 55.8524 53.0295 55.809L54.9204 54.8636C55.2367 54.7054 55.5857 54.6237 55.9394 54.625C56.293 54.6263 56.6415 54.7106 56.9566 54.8711C57.2717 55.0316 57.5448 55.2638 57.7539 55.5491C57.9629 55.8343 58.1021 56.1646 58.1602 56.5135L58.3306 57.5355L57.125 58.7412L55.692 57.3081C55.5992 57.2153 55.4796 57.1541 55.3501 57.1331C55.2206 57.1121 55.0878 57.1323 54.9705 57.191L51.3524 59H47.0622C46.5696 59.0014 46.0815 58.905 45.6264 58.7165C45.1712 58.5279 44.7579 58.251 44.4105 57.9017ZM55.6161 59H54.1475L55.1266 58.5105L55.6161 59ZM48.4821 60.25H57.8269L57.3269 61.5H50.25C49.8624 61.4996 49.4843 61.3792 49.1678 61.1554C48.8513 60.9316 48.6118 60.6153 48.4821 60.25ZM58.6732 61.5L63.1731 50.25H63.4037C63.5058 50.25 63.6064 50.2751 63.6966 50.3229C63.7868 50.3708 63.8639 50.4401 63.9212 50.5246C63.9785 50.6092 64.0141 50.7065 64.0251 50.8081C64.036 50.9096 64.0219 51.0123 63.984 51.1071L60.1411 60.7143C60.049 60.9467 59.889 61.146 59.682 61.2861C59.475 61.4263 59.2306 61.5008 58.9805 61.5H58.6732ZM70.859 51.1071L67.0161 60.7143C66.924 60.9467 66.764 61.146 66.557 61.2861C66.35 61.4263 66.1056 61.5008 65.8555 61.5H61.1453C61.2049 61.3967 61.2572 61.2892 61.3017 61.1785L65.1446 51.5714C65.3138 51.1488 65.3232 50.6791 65.1712 50.25H70.2787C70.3808 50.25 70.4814 50.2751 70.5716 50.3229C70.6618 50.3708 70.7389 50.4401 70.7962 50.5246C70.8535 50.6092 70.8891 50.7065 70.9001 50.8081C70.911 50.9096 70.8969 51.0123 70.859 51.1071Z" fill="#F8F8F8"/>
<path d="M70.875 25.25H55.875C55.3779 25.2506 54.9013 25.4483 54.5498 25.7998C54.1983 26.1513 54.0006 26.6279 54 27.125V41.5H55.25V30.25H71.5V43.375C71.4998 43.5407 71.4339 43.6996 71.3167 43.8167C71.1996 43.9339 71.0407 43.9998 70.875 44H69.625C69.4592 44 69.3003 44.0659 69.1831 44.1831C69.0659 44.3003 69 44.4592 69 44.625V46.5355L65.6132 44.1164C65.5073 44.0407 65.3803 44 65.25 44H57.125V45.25H65.0497L69.2618 48.2586C69.3552 48.3253 69.4652 48.365 69.5798 48.3734C69.6943 48.3817 69.8089 48.3583 69.911 48.3057C70.0131 48.2532 70.0988 48.1735 70.1586 48.0755C70.2184 47.9774 70.25 47.8648 70.25 47.75V45.25H70.875C71.3721 45.2494 71.8487 45.0517 72.2002 44.7002C72.5517 44.3487 72.7494 43.8721 72.75 43.375V27.125C72.7494 26.6279 72.5517 26.1513 72.2002 25.7998C71.8487 25.4483 71.3721 25.2506 70.875 25.25ZM55.25 29V27.125C55.2502 26.9593 55.3161 26.8004 55.4333 26.6833C55.5504 26.5661 55.7093 26.5002 55.875 26.5H70.875C71.0407 26.5002 71.1996 26.5661 71.3167 26.6833C71.4339 26.8004 71.4998 26.9593 71.5 27.125V29H55.25Z" fill="#F8F8F8"/>
<path d="M57.125 28.375C57.4702 28.375 57.75 28.0952 57.75 27.75C57.75 27.4048 57.4702 27.125 57.125 27.125C56.7798 27.125 56.5 27.4048 56.5 27.75C56.5 28.0952 56.7798 28.375 57.125 28.375Z" fill="#F8F8F8"/>
<path d="M59 28.375C59.3452 28.375 59.625 28.0952 59.625 27.75C59.625 27.4048 59.3452 27.125 59 27.125C58.6548 27.125 58.375 27.4048 58.375 27.75C58.375 28.0952 58.6548 28.375 59 28.375Z" fill="#F8F8F8"/>
<path d="M60.875 28.375C61.2202 28.375 61.5 28.0952 61.5 27.75C61.5 27.4048 61.2202 27.125 60.875 27.125C60.5298 27.125 60.25 27.4048 60.25 27.75C60.25 28.0952 60.5298 28.375 60.875 28.375Z" fill="#F8F8F8"/>
<path d="M57.125 36.5H60.875C61.0408 36.5 61.1997 36.4342 61.3169 36.317C61.4341 36.1998 61.5 36.0408 61.5 35.875V32.3839L62.567 31.317L61.683 30.4331L60.6161 31.5H57.125C56.9592 31.5 56.8003 31.5659 56.6831 31.6831C56.5659 31.8003 56.5 31.9593 56.5 32.125V35.875C56.5 36.0408 56.5659 36.1998 56.6831 36.317C56.8003 36.4342 56.9592 36.5 57.125 36.5ZM57.75 32.75H59.3661L58.558 33.5581L59.442 34.442L60.25 33.6339V35.25H57.75V32.75Z" fill="#F8F8F8"/>
<path d="M64.625 32.125H63.375V33.375H64.625V32.125Z" fill="#F8F8F8"/>
<path d="M70.25 32.125H65.875V33.375H70.25V32.125Z" fill="#F8F8F8"/>
<path d="M67.125 34.625H63.375V35.875H67.125V34.625Z" fill="#F8F8F8"/>
<path d="M56.5 42.125C56.5 42.2908 56.5659 42.4498 56.6831 42.567C56.8003 42.6842 56.9592 42.75 57.125 42.75H60.875C61.0408 42.75 61.1997 42.6842 61.3169 42.567C61.4341 42.4498 61.5 42.2908 61.5 42.125V38.6339L62.567 37.567L61.683 36.6831L60.6161 37.75H57.125C56.9592 37.75 56.8003 37.8159 56.6831 37.9331C56.5659 38.0503 56.5 38.2093 56.5 38.375V42.125ZM57.75 39H59.3661L58.558 39.8081L59.442 40.692L60.25 39.8839V41.5H57.75V39Z" fill="#F8F8F8"/>
<path d="M65.875 38.375H63.375V39.625H65.875V38.375Z" fill="#F8F8F8"/>
<path d="M70.25 38.375H67.125V39.625H70.25V38.375Z" fill="#F8F8F8"/>
<path d="M68.375 40.875H63.375V42.125H68.375V40.875Z" fill="#F8F8F8"/>
</g>
<rect x="0.5" y="0.5" width="492" height="203" rx="19.5" stroke="#404040"/>
<defs>
<filter id="filter1_f_455_243" x="-56.2876" y="-89.9233" width="696.446" height="686.79" filterUnits="userSpaceOnUse" color-interpolation-filters="sRGB">
<feFlood flood-opacity="0" result="BackgroundImageFix"/>
<feBlend mode="normal" in="SourceGraphic" in2="BackgroundImageFix" result="shape"/>
<feGaussianBlur stdDeviation="125" result="effect1_foregroundBlur_455_243"/>
</filter>
<clipPath id="clip0_455_243">
<rect width="493" height="204" rx="20" fill="white"/>
</clipPath>
</defs>
</svg>
