<svg width="493" height="204" viewBox="0 0 493 204" fill="none" xmlns="http://www.w3.org/2000/svg">
<g clip-path="url(#clip0_72_165)">
<rect width="493" height="204" rx="20" fill="#1D1D1F" fill-opacity="0.5"/>
<g filter="url(#filter1_f_72_165)">
<ellipse cx="102.825" cy="88.2838" rx="102.825" ry="88.2838" transform="matrix(-0.816113 -0.577892 -0.577892 0.816113 426.871 240.844)" fill="#E800A1" fill-opacity="0.5"/>
</g>
<path d="M99.98 39V25H105.22C108.38 25 110.46 26.68 110.46 29.44V29.48C110.46 32.5 107.94 34.06 104.96 34.06H101.56V39H99.98ZM101.56 32.62H105.02C107.34 32.62 108.86 31.38 108.86 29.54V29.5C108.86 27.5 107.36 26.46 105.1 26.46H101.56V32.62ZM117.502 39.24C114.682 39.24 112.342 37.06 112.342 33.86V33.82C112.342 30.84 114.422 28.44 117.302 28.44C120.362 28.44 122.122 30.88 122.122 33.9C122.122 34.12 122.122 34.22 122.102 34.4H113.902C114.122 36.64 115.702 37.9 117.542 37.9C118.982 37.9 119.942 37.32 120.802 36.44L121.762 37.3C120.722 38.48 119.482 39.24 117.502 39.24ZM113.902 33.26H120.562C120.402 31.4 119.342 29.74 117.262 29.74C115.442 29.74 114.122 31.26 113.902 33.26ZM124.818 39V28.66H126.358V31.36C127.118 29.64 128.618 28.42 130.578 28.48V30.14H130.458C128.198 30.14 126.358 31.76 126.358 34.88V39H124.818ZM133.503 39V30.02H132.083V28.68H133.503V27.78C133.503 26.6 133.803 25.72 134.403 25.12C134.943 24.58 135.683 24.32 136.623 24.32C137.343 24.32 137.823 24.4 138.323 24.58V25.92C137.763 25.76 137.363 25.66 136.823 25.66C135.623 25.66 135.023 26.4 135.023 27.86V28.7H138.303V30.02H135.043V39H133.503ZM144.792 39.24C141.692 39.24 139.432 36.8 139.432 33.88V33.84C139.432 30.9 141.692 28.44 144.832 28.44C147.952 28.44 150.212 30.88 150.212 33.8V33.84C150.212 36.78 147.912 39.24 144.792 39.24ZM144.832 37.86C147.072 37.86 148.632 36.04 148.632 33.88V33.84C148.632 31.62 146.972 29.8 144.792 29.8C142.552 29.8 141.012 31.62 141.012 33.8V33.84C141.012 36.06 142.652 37.86 144.832 37.86ZM153.001 39V28.66H154.541V31.36C155.301 29.64 156.801 28.42 158.761 28.48V30.14H158.641C156.381 30.14 154.541 31.76 154.541 34.88V39H153.001ZM161.107 39V28.66H162.647V30.4C163.347 29.36 164.247 28.44 165.987 28.44C167.667 28.44 168.747 29.32 169.307 30.5C170.067 29.36 171.127 28.44 172.947 28.44C175.347 28.44 176.787 30.02 176.787 32.6V39H175.247V32.96C175.247 30.96 174.247 29.84 172.567 29.84C171.027 29.84 169.707 31 169.707 33.04V39H168.187V32.92C168.187 30.98 167.187 29.84 165.527 29.84C163.887 29.84 162.647 31.2 162.647 33.1V39H161.107ZM183.152 39.22C181.232 39.22 179.292 38.14 179.292 36V35.96C179.292 33.8 181.092 32.62 183.712 32.62C185.052 32.62 185.952 32.8 186.892 33.06V32.7C186.892 30.84 185.752 29.88 183.812 29.88C182.592 29.88 181.632 30.18 180.672 30.64L180.212 29.38C181.352 28.84 182.452 28.52 183.972 28.52C185.432 28.52 186.552 28.9 187.312 29.66C188.012 30.36 188.372 31.38 188.372 32.68V39H186.892V37.44C186.172 38.38 184.992 39.22 183.152 39.22ZM183.452 38C185.372 38 186.912 36.84 186.912 35.2V34.2C186.132 33.98 185.152 33.76 183.872 33.76C181.932 33.76 180.852 34.6 180.852 35.9V35.94C180.852 37.24 182.072 38 183.452 38ZM191.654 39V28.66H193.194V30.46C193.894 29.34 194.954 28.44 196.734 28.44C199.214 28.44 200.694 30.12 200.694 32.58V39H199.154V32.96C199.154 31.04 198.134 29.84 196.294 29.84C194.514 29.84 193.194 31.14 193.194 33.08V39H191.654ZM208.638 39.24C205.598 39.24 203.338 36.78 203.338 33.88V33.84C203.338 30.9 205.598 28.44 208.638 28.44C210.598 28.44 211.798 29.24 212.778 30.28L211.758 31.36C210.938 30.5 210.038 29.8 208.618 29.8C206.518 29.8 204.918 31.56 204.918 33.8V33.84C204.918 36.08 206.558 37.86 208.718 37.86C210.058 37.86 211.058 37.2 211.878 36.32L212.858 37.24C211.818 38.42 210.578 39.24 208.638 39.24ZM219.631 39.24C216.811 39.24 214.471 37.06 214.471 33.86V33.82C214.471 30.84 216.551 28.44 219.431 28.44C222.491 28.44 224.251 30.88 224.251 33.9C224.251 34.12 224.251 34.22 224.231 34.4H216.031C216.251 36.64 217.831 37.9 219.671 37.9C221.111 37.9 222.071 37.32 222.931 36.44L223.891 37.3C222.851 38.48 221.611 39.24 219.631 39.24ZM216.031 33.26H222.691C222.531 31.4 221.471 29.74 219.391 29.74C217.571 29.74 216.251 31.26 216.031 33.26ZM233.203 39V25H234.803L239.903 32.64L245.003 25H246.603V39H245.023V27.66L239.923 35.16H239.843L234.743 27.68V39H233.203ZM253.386 39.22C251.466 39.22 249.526 38.14 249.526 36V35.96C249.526 33.8 251.326 32.62 253.946 32.62C255.286 32.62 256.186 32.8 257.126 33.06V32.7C257.126 30.84 255.986 29.88 254.046 29.88C252.826 29.88 251.866 30.18 250.906 30.64L250.446 29.38C251.586 28.84 252.686 28.52 254.206 28.52C255.666 28.52 256.786 28.9 257.546 29.66C258.246 30.36 258.606 31.38 258.606 32.68V39H257.126V37.44C256.406 38.38 255.226 39.22 253.386 39.22ZM253.686 38C255.606 38 257.146 36.84 257.146 35.2V34.2C256.366 33.98 255.386 33.76 254.106 33.76C252.166 33.76 251.086 34.6 251.086 35.9V35.94C251.086 37.24 252.306 38 253.686 38ZM261.888 39V28.66H263.428V31.36C264.188 29.64 265.688 28.42 267.648 28.48V30.14H267.528C265.268 30.14 263.428 31.76 263.428 34.88V39H261.888ZM269.993 39V24.4H271.533V34.48L277.113 28.66H279.033L274.693 33.1L279.173 39H277.333L273.633 34.18L271.533 36.3V39H269.993ZM285.392 39.24C282.572 39.24 280.232 37.06 280.232 33.86V33.82C280.232 30.84 282.312 28.44 285.192 28.44C288.252 28.44 290.012 30.88 290.012 33.9C290.012 34.12 290.012 34.22 289.992 34.4H281.792C282.012 36.64 283.592 37.9 285.432 37.9C286.872 37.9 287.832 37.32 288.692 36.44L289.652 37.3C288.612 38.48 287.372 39.24 285.392 39.24ZM281.792 33.26H288.452C288.292 31.4 287.232 29.74 285.152 29.74C283.332 29.74 282.012 31.26 281.792 33.26ZM296.168 39.18C294.488 39.18 293.248 38.36 293.248 36.26V30.02H291.808V28.66H293.248V25.54H294.788V28.66H298.068V30.02H294.788V36.06C294.788 37.34 295.488 37.78 296.528 37.78C297.068 37.78 297.488 37.68 298.028 37.42V38.74C297.488 39.04 296.908 39.18 296.168 39.18ZM300.834 26.4V24.7H302.594V26.4H300.834ZM300.934 39V28.66H302.474V39H300.934ZM306.048 39V28.66H307.588V30.46C308.288 29.34 309.348 28.44 311.128 28.44C313.608 28.44 315.088 30.12 315.088 32.58V39H313.548V32.96C313.548 31.04 312.528 29.84 310.688 29.84C308.908 29.84 307.588 31.14 307.588 33.08V39H306.048ZM322.952 42.24C321.212 42.24 319.632 41.76 318.252 40.8L318.952 39.6C320.152 40.46 321.432 40.92 322.932 40.92C325.232 40.92 326.692 39.66 326.692 37.24V36.02C325.792 37.22 324.532 38.2 322.632 38.2C320.152 38.2 317.772 36.32 317.772 33.36V33.32C317.772 30.3 320.152 28.44 322.632 28.44C324.572 28.44 325.812 29.4 326.672 30.52V28.66H328.212V37.2C328.212 38.8 327.752 40 326.892 40.86C325.952 41.8 324.612 42.24 322.952 42.24ZM322.932 36.84C324.892 36.84 326.732 35.42 326.732 33.34V33.3C326.732 31.18 324.892 29.8 322.932 29.8C320.952 29.8 319.352 31.16 319.352 33.28V33.32C319.352 35.4 321.012 36.84 322.932 36.84ZM331.094 41.44L330.854 40.74C331.874 40.36 332.274 39.86 332.194 39H331.474V36.9H333.314V38.7C333.314 40.32 332.614 41.1 331.094 41.44ZM341.612 39L347.992 24.9H349.472L355.852 39H354.152L352.512 35.3H344.892L343.232 39H341.612ZM345.512 33.88H351.892L348.712 26.74L345.512 33.88ZM362.185 39.22C359.705 39.22 357.245 37.26 357.245 33.86V33.82C357.245 30.46 359.705 28.44 362.185 28.44C364.105 28.44 365.345 29.46 366.145 30.64V24.4H367.685V39H366.145V36.92C365.285 38.16 364.105 39.22 362.185 39.22ZM362.465 37.84C364.385 37.84 366.205 36.22 366.205 33.84V33.8C366.205 31.42 364.385 29.82 362.465 29.82C360.465 29.82 358.825 31.3 358.825 33.8V33.84C358.825 36.3 360.485 37.84 362.465 37.84ZM374.586 39.08L370.106 28.66H371.806L375.286 37.24L378.786 28.66H380.446L375.946 39.08H374.586ZM386.779 39.24C383.959 39.24 381.619 37.06 381.619 33.86V33.82C381.619 30.84 383.699 28.44 386.579 28.44C389.639 28.44 391.399 30.88 391.399 33.9C391.399 34.12 391.399 34.22 391.379 34.4H383.179C383.399 36.64 384.979 37.9 386.819 37.9C388.259 37.9 389.219 37.32 390.079 36.44L391.039 37.3C389.999 38.48 388.759 39.24 386.779 39.24ZM383.179 33.26H389.839C389.679 31.4 388.619 29.74 386.539 29.74C384.719 29.74 383.399 31.26 383.179 33.26ZM394.095 39V28.66H395.635V31.36C396.395 29.64 397.895 28.42 399.855 28.48V30.14H399.735C397.475 30.14 395.635 31.76 395.635 34.88V39H394.095ZM405.66 39.18C403.98 39.18 402.74 38.36 402.74 36.26V30.02H401.3V28.66H402.74V25.54H404.28V28.66H407.56V30.02H404.28V36.06C404.28 37.34 404.98 37.78 406.02 37.78C406.56 37.78 406.98 37.68 407.52 37.42V38.74C406.98 39.04 406.4 39.18 405.66 39.18ZM410.326 26.4V24.7H412.086V26.4H410.326ZM410.426 39V28.66H411.966V39H410.426ZM418.96 39.2C417.46 39.2 415.86 38.62 414.68 37.68L415.46 36.58C416.58 37.44 417.82 37.9 419.04 37.9C420.3 37.9 421.18 37.28 421.18 36.26V36.22C421.18 35.2 419.96 34.78 418.6 34.4C417 33.92 415.18 33.4 415.18 31.48V31.44C415.18 29.66 416.66 28.48 418.7 28.48C419.98 28.48 421.36 28.92 422.42 29.62L421.72 30.78C420.76 30.16 419.68 29.78 418.66 29.78C417.44 29.78 416.66 30.42 416.66 31.28V31.32C416.66 32.3 417.94 32.68 419.32 33.1C420.92 33.58 422.64 34.2 422.64 36.06V36.1C422.64 38.06 421.02 39.2 418.96 39.2ZM425.541 26.4V24.7H427.301V26.4H425.541ZM425.641 39V28.66H427.181V39H425.641ZM430.755 39V28.66H432.295V30.46C432.995 29.34 434.055 28.44 435.835 28.44C438.315 28.44 439.795 30.12 439.795 32.58V39H438.255V32.96C438.255 31.04 437.235 29.84 435.395 29.84C433.615 29.84 432.295 31.14 432.295 33.08V39H430.755ZM447.659 42.24C445.919 42.24 444.339 41.76 442.959 40.8L443.659 39.6C444.859 40.46 446.139 40.92 447.639 40.92C449.939 40.92 451.399 39.66 451.399 37.24V36.02C450.499 37.22 449.239 38.2 447.339 38.2C444.859 38.2 442.479 36.32 442.479 33.36V33.32C442.479 30.3 444.859 28.44 447.339 28.44C449.279 28.44 450.519 29.4 451.379 30.52V28.66H452.919V37.2C452.919 38.8 452.459 40 451.599 40.86C450.659 41.8 449.319 42.24 447.659 42.24ZM447.639 36.84C449.599 36.84 451.439 35.42 451.439 33.34V33.3C451.439 31.18 449.599 29.8 447.639 29.8C445.659 29.8 444.059 31.16 444.059 33.28V33.32C444.059 35.4 445.719 36.84 447.639 36.84ZM110.08 63.28L107.88 61.02C106.6 62.4 105.14 63.2 103.3 63.2C100.78 63.2 98.9 61.62 98.9 59.28V59.24C98.9 57.38 100.12 56.06 102.28 55.2C101.32 54.08 100.88 53.24 100.88 52.12V52.08C100.88 50.24 102.36 48.76 104.58 48.76C106.54 48.76 107.98 50.18 107.98 51.92V51.96C107.98 53.74 106.74 54.88 104.68 55.6L107.88 58.86C108.5 57.96 109.06 56.92 109.56 55.74L110.86 56.34C110.24 57.68 109.62 58.84 108.84 59.86L111.28 62.36L110.08 63.28ZM103.8 54.7C105.58 54.08 106.5 53.24 106.5 52.04V52C106.5 50.88 105.66 50.06 104.52 50.06C103.24 50.06 102.4 50.94 102.4 52.08V52.12C102.4 52.94 102.74 53.58 103.8 54.7ZM103.42 61.86C104.76 61.86 105.9 61.16 106.92 60.04L103.18 56.18C101.32 56.88 100.5 57.98 100.5 59.18V59.22C100.5 60.72 101.7 61.86 103.42 61.86ZM126.302 63.24C122.262 63.24 119.282 60.06 119.282 56.04V56C119.282 52.04 122.262 48.76 126.362 48.76C128.902 48.76 130.442 49.64 131.822 50.98L130.742 52.14C129.542 51.02 128.262 50.22 126.342 50.22C123.242 50.22 120.922 52.74 120.922 55.96V56C120.922 59.24 123.242 61.78 126.342 61.78C128.262 61.78 129.522 61.04 130.862 59.76L131.902 60.78C130.462 62.26 128.822 63.24 126.302 63.24ZM137.566 63.22C135.646 63.22 133.706 62.14 133.706 60V59.96C133.706 57.8 135.506 56.62 138.126 56.62C139.466 56.62 140.366 56.8 141.306 57.06V56.7C141.306 54.84 140.166 53.88 138.226 53.88C137.006 53.88 136.046 54.18 135.086 54.64L134.626 53.38C135.766 52.84 136.866 52.52 138.386 52.52C139.846 52.52 140.966 52.9 141.726 53.66C142.426 54.36 142.786 55.38 142.786 56.68V63H141.306V61.44C140.586 62.38 139.406 63.22 137.566 63.22ZM137.866 62C139.786 62 141.326 60.84 141.326 59.2V58.2C140.546 57.98 139.566 57.76 138.286 57.76C136.346 57.76 135.266 58.6 135.266 59.9V59.94C135.266 61.24 136.486 62 137.866 62ZM146.068 63V52.66H147.608V54.4C148.308 53.36 149.208 52.44 150.948 52.44C152.628 52.44 153.708 53.32 154.268 54.5C155.028 53.36 156.088 52.44 157.908 52.44C160.308 52.44 161.748 54.02 161.748 56.6V63H160.208V56.96C160.208 54.96 159.208 53.84 157.528 53.84C155.988 53.84 154.668 55 154.668 57.04V63H153.148V56.92C153.148 54.98 152.148 53.84 150.488 53.84C148.848 53.84 147.608 55.2 147.608 57.1V63H146.068ZM165.033 66.2V52.66H166.573V54.74C167.433 53.52 168.613 52.44 170.533 52.44C173.013 52.44 175.473 54.4 175.473 57.8V57.84C175.473 61.2 173.033 63.22 170.533 63.22C168.613 63.22 167.373 62.2 166.573 61.02V66.2H165.033ZM170.253 61.84C172.253 61.84 173.893 60.36 173.893 57.86V57.82C173.893 55.36 172.233 53.82 170.253 53.82C168.333 53.82 166.513 55.46 166.513 57.8V57.84C166.513 60.24 168.333 61.84 170.253 61.84ZM181.394 63.22C179.474 63.22 177.534 62.14 177.534 60V59.96C177.534 57.8 179.334 56.62 181.954 56.62C183.294 56.62 184.194 56.8 185.134 57.06V56.7C185.134 54.84 183.994 53.88 182.054 53.88C180.834 53.88 179.874 54.18 178.914 54.64L178.454 53.38C179.594 52.84 180.694 52.52 182.214 52.52C183.674 52.52 184.794 52.9 185.554 53.66C186.254 54.36 186.614 55.38 186.614 56.68V63H185.134V61.44C184.414 62.38 183.234 63.22 181.394 63.22ZM181.694 62C183.614 62 185.154 60.84 185.154 59.2V58.2C184.374 57.98 183.394 57.76 182.114 57.76C180.174 57.76 179.094 58.6 179.094 59.9V59.94C179.094 61.24 180.314 62 181.694 62ZM189.936 50.4V48.7H191.696V50.4H189.936ZM190.036 63V52.66H191.576V63H190.036ZM199.73 66.24C197.99 66.24 196.41 65.76 195.03 64.8L195.73 63.6C196.93 64.46 198.21 64.92 199.71 64.92C202.01 64.92 203.47 63.66 203.47 61.24V60.02C202.57 61.22 201.31 62.2 199.41 62.2C196.93 62.2 194.55 60.32 194.55 57.36V57.32C194.55 54.3 196.93 52.44 199.41 52.44C201.35 52.44 202.59 53.4 203.45 54.52V52.66H204.99V61.2C204.99 62.8 204.53 64 203.67 64.86C202.73 65.8 201.39 66.24 199.73 66.24ZM199.71 60.84C201.67 60.84 203.51 59.42 203.51 57.34V57.3C203.51 55.18 201.67 53.8 199.71 53.8C197.73 53.8 196.13 55.16 196.13 57.28V57.32C196.13 59.4 197.79 60.84 199.71 60.84ZM208.431 63V52.66H209.971V54.46C210.671 53.34 211.731 52.44 213.511 52.44C215.991 52.44 217.471 54.12 217.471 56.58V63H215.931V56.96C215.931 55.04 214.911 53.84 213.071 53.84C211.291 53.84 209.971 55.14 209.971 57.08V63H208.431ZM227.011 63V49H228.611L233.711 56.64L238.811 49H240.411V63H238.831V51.66L233.731 59.16H233.651L228.551 51.68V63H227.011ZM247.195 63.22C245.275 63.22 243.335 62.14 243.335 60V59.96C243.335 57.8 245.135 56.62 247.755 56.62C249.095 56.62 249.995 56.8 250.935 57.06V56.7C250.935 54.84 249.795 53.88 247.855 53.88C246.635 53.88 245.675 54.18 244.715 54.64L244.255 53.38C245.395 52.84 246.495 52.52 248.015 52.52C249.475 52.52 250.595 52.9 251.355 53.66C252.055 54.36 252.415 55.38 252.415 56.68V63H250.935V61.44C250.215 62.38 249.035 63.22 247.195 63.22ZM247.495 62C249.415 62 250.955 60.84 250.955 59.2V58.2C250.175 57.98 249.195 57.76 247.915 57.76C245.975 57.76 244.895 58.6 244.895 59.9V59.94C244.895 61.24 246.115 62 247.495 62ZM255.697 63V52.66H257.237V54.46C257.937 53.34 258.997 52.44 260.777 52.44C263.257 52.44 264.737 54.12 264.737 56.58V63H263.197V56.96C263.197 55.04 262.177 53.84 260.337 53.84C258.557 53.84 257.237 55.14 257.237 57.08V63H255.697ZM271.101 63.22C269.181 63.22 267.241 62.14 267.241 60V59.96C267.241 57.8 269.041 56.62 271.661 56.62C273.001 56.62 273.901 56.8 274.841 57.06V56.7C274.841 54.84 273.701 53.88 271.761 53.88C270.541 53.88 269.581 54.18 268.621 54.64L268.161 53.38C269.301 52.84 270.401 52.52 271.921 52.52C273.381 52.52 274.501 52.9 275.261 53.66C275.961 54.36 276.321 55.38 276.321 56.68V63H274.841V61.44C274.121 62.38 272.941 63.22 271.101 63.22ZM271.401 62C273.321 62 274.861 60.84 274.861 59.2V58.2C274.081 57.98 273.101 57.76 271.821 57.76C269.881 57.76 268.801 58.6 268.801 59.9V59.94C268.801 61.24 270.021 62 271.401 62ZM284.183 66.24C282.443 66.24 280.863 65.76 279.483 64.8L280.183 63.6C281.383 64.46 282.663 64.92 284.163 64.92C286.463 64.92 287.923 63.66 287.923 61.24V60.02C287.023 61.22 285.763 62.2 283.863 62.2C281.383 62.2 279.003 60.32 279.003 57.36V57.32C279.003 54.3 281.383 52.44 283.863 52.44C285.803 52.44 287.043 53.4 287.903 54.52V52.66H289.443V61.2C289.443 62.8 288.983 64 288.123 64.86C287.183 65.8 285.843 66.24 284.183 66.24ZM284.163 60.84C286.123 60.84 287.963 59.42 287.963 57.34V57.3C287.963 55.18 286.123 53.8 284.163 53.8C282.183 53.8 280.583 55.16 280.583 57.28V57.32C280.583 59.4 282.243 60.84 284.163 60.84ZM297.404 63.24C294.584 63.24 292.244 61.06 292.244 57.86V57.82C292.244 54.84 294.324 52.44 297.204 52.44C300.264 52.44 302.024 54.88 302.024 57.9C302.024 58.12 302.024 58.22 302.004 58.4H293.804C294.024 60.64 295.604 61.9 297.444 61.9C298.884 61.9 299.844 61.32 300.704 60.44L301.664 61.3C300.624 62.48 299.384 63.24 297.404 63.24ZM293.804 57.26H300.464C300.304 55.4 299.244 53.74 297.164 53.74C295.344 53.74 294.024 55.26 293.804 57.26ZM304.72 63V52.66H306.26V54.4C306.96 53.36 307.86 52.44 309.6 52.44C311.28 52.44 312.36 53.32 312.92 54.5C313.68 53.36 314.74 52.44 316.56 52.44C318.96 52.44 320.4 54.02 320.4 56.6V63H318.86V56.96C318.86 54.96 317.86 53.84 316.18 53.84C314.64 53.84 313.32 55 313.32 57.04V63H311.8V56.92C311.8 54.98 310.8 53.84 309.14 53.84C307.5 53.84 306.26 55.2 306.26 57.1V63H304.72ZM328.205 63.24C325.385 63.24 323.045 61.06 323.045 57.86V57.82C323.045 54.84 325.125 52.44 328.005 52.44C331.065 52.44 332.825 54.88 332.825 57.9C332.825 58.12 332.825 58.22 332.805 58.4H324.605C324.825 60.64 326.405 61.9 328.245 61.9C329.685 61.9 330.645 61.32 331.505 60.44L332.465 61.3C331.425 62.48 330.185 63.24 328.205 63.24ZM324.605 57.26H331.265C331.105 55.4 330.045 53.74 327.965 53.74C326.145 53.74 324.825 55.26 324.605 57.26ZM335.521 63V52.66H337.061V54.46C337.761 53.34 338.821 52.44 340.601 52.44C343.081 52.44 344.561 54.12 344.561 56.58V63H343.021V56.96C343.021 55.04 342.001 53.84 340.161 53.84C338.381 53.84 337.061 55.14 337.061 57.08V63H335.521ZM351.305 63.18C349.625 63.18 348.385 62.36 348.385 60.26V54.02H346.945V52.66H348.385V49.54H349.925V52.66H353.205V54.02H349.925V60.06C349.925 61.34 350.625 61.78 351.665 61.78C352.205 61.78 352.625 61.68 353.165 61.42V62.74C352.625 63.04 352.045 63.18 351.305 63.18Z" fill="#E800A1"/>
<path d="M34.256 103.07L30.7 93.2H31.512L34.592 101.922L37.462 93.172H38.022L40.892 101.922L43.972 93.2H44.728L41.172 103.07H40.584L37.714 94.558L34.844 103.07H34.256ZM48.8179 103.168C46.9419 103.168 45.3179 101.684 45.3179 99.444V99.416C45.3179 97.358 46.7739 95.692 48.7059 95.692C50.7079 95.692 51.9819 97.316 51.9819 99.43C51.9819 99.556 51.9819 99.598 51.9679 99.71H46.0459C46.1579 101.488 47.4599 102.524 48.8459 102.524C49.9659 102.524 50.6939 102.034 51.2959 101.404L51.7719 101.824C51.0439 102.608 50.1759 103.168 48.8179 103.168ZM46.0459 99.094H51.2399C51.1279 97.652 50.3159 96.322 48.6779 96.322C47.2639 96.322 46.1579 97.512 46.0459 99.094ZM61.4821 103.168C59.4241 103.168 57.8421 101.46 57.8421 99.458V99.43C57.8421 97.428 59.4241 95.692 61.4821 95.692C62.8261 95.692 63.6661 96.294 64.3381 97.008L63.8481 97.512C63.2321 96.882 62.5321 96.336 61.4681 96.336C59.8441 96.336 58.5841 97.68 58.5841 99.402V99.43C58.5841 101.166 59.9001 102.524 61.5241 102.524C62.5321 102.524 63.3161 102.006 63.9181 101.334L64.3941 101.754C63.6661 102.58 62.7841 103.168 61.4821 103.168ZM66.3301 103V95.86H67.0161V97.89C67.5901 96.602 68.7521 95.706 70.1801 95.748V96.504H70.1101C68.4721 96.504 67.0161 97.764 67.0161 100.074V103H66.3301ZM74.5901 103.168C72.7141 103.168 71.0901 101.684 71.0901 99.444V99.416C71.0901 97.358 72.5461 95.692 74.4781 95.692C76.4801 95.692 77.7541 97.316 77.7541 99.43C77.7541 99.556 77.7541 99.598 77.7401 99.71H71.8181C71.9301 101.488 73.2321 102.524 74.6181 102.524C75.7381 102.524 76.4661 102.034 77.0681 101.404L77.5441 101.824C76.8161 102.608 75.9481 103.168 74.5901 103.168ZM71.8181 99.094H77.0121C76.9001 97.652 76.0881 96.322 74.4501 96.322C73.0361 96.322 71.9301 97.512 71.8181 99.094ZM81.9259 103.168C80.5959 103.168 79.1679 102.426 79.1679 100.928V100.9C79.1679 99.402 80.4419 98.576 82.2899 98.576C83.2979 98.576 83.9699 98.702 84.6559 98.884V98.576C84.6559 97.12 83.7739 96.392 82.3039 96.392C81.4219 96.392 80.7219 96.63 80.0639 96.966L79.8119 96.364C80.5959 95.986 81.3519 95.748 82.3459 95.748C83.3259 95.748 84.0819 96.014 84.5999 96.532C85.0899 97.022 85.3279 97.694 85.3279 98.548V103H84.6559V101.81C84.1659 102.482 83.2839 103.168 81.9259 103.168ZM81.9679 102.524C83.4239 102.524 84.6699 101.628 84.6699 100.326V99.514C84.0679 99.36 83.2699 99.192 82.2479 99.192C80.7359 99.192 79.8959 99.85 79.8959 100.858V100.886C79.8959 101.922 80.8759 102.524 81.9679 102.524ZM90.1066 103.126C88.9866 103.126 88.1046 102.524 88.1046 101.166V96.49H87.0686V95.86H88.1046V93.578H88.7906V95.86H91.2966V96.49H88.7906V101.096C88.7906 102.118 89.3786 102.482 90.2186 102.482C90.5686 102.482 90.8626 102.412 91.2686 102.23V102.874C90.8906 103.042 90.5546 103.126 90.1066 103.126ZM96.137 103.168C94.261 103.168 92.637 101.684 92.637 99.444V99.416C92.637 97.358 94.093 95.692 96.025 95.692C98.027 95.692 99.301 97.316 99.301 99.43C99.301 99.556 99.301 99.598 99.287 99.71H93.365C93.477 101.488 94.779 102.524 96.165 102.524C97.285 102.524 98.013 102.034 98.615 101.404L99.091 101.824C98.363 102.608 97.495 103.168 96.137 103.168ZM93.365 99.094H98.559C98.447 97.652 97.635 96.322 95.997 96.322C94.583 96.322 93.477 97.512 93.365 99.094ZM107.821 103.168C106.491 103.168 105.063 102.426 105.063 100.928V100.9C105.063 99.402 106.337 98.576 108.185 98.576C109.193 98.576 109.865 98.702 110.551 98.884V98.576C110.551 97.12 109.669 96.392 108.199 96.392C107.317 96.392 106.617 96.63 105.959 96.966L105.707 96.364C106.491 95.986 107.247 95.748 108.241 95.748C109.221 95.748 109.977 96.014 110.495 96.532C110.985 97.022 111.223 97.694 111.223 98.548V103H110.551V101.81C110.061 102.482 109.179 103.168 107.821 103.168ZM107.863 102.524C109.319 102.524 110.565 101.628 110.565 100.326V99.514C109.963 99.36 109.165 99.192 108.143 99.192C106.631 99.192 105.791 99.85 105.791 100.858V100.886C105.791 101.922 106.771 102.524 107.863 102.524ZM113.69 103V95.86H114.376V97.19C114.866 96.35 115.65 95.692 116.952 95.692C118.758 95.692 119.808 96.91 119.808 98.632V103H119.122V98.758C119.122 97.288 118.31 96.322 116.854 96.322C115.454 96.322 114.376 97.372 114.376 98.87V103H113.69ZM125.286 103.168C123.564 103.168 121.814 101.782 121.814 99.458V99.43C121.814 97.12 123.564 95.692 125.286 95.692C126.714 95.692 127.624 96.504 128.226 97.4V92.78H128.912V103H128.226V101.404C127.596 102.342 126.714 103.168 125.286 103.168ZM125.356 102.51C126.854 102.51 128.268 101.264 128.268 99.444V99.416C128.268 97.582 126.854 96.35 125.356 96.35C123.788 96.35 122.556 97.498 122.556 99.402V99.43C122.556 101.306 123.844 102.51 125.356 102.51ZM135.867 103V95.86H136.553V97.134C137.001 96.392 137.659 95.692 138.933 95.692C140.193 95.692 140.935 96.406 141.341 97.232C141.803 96.434 142.587 95.692 143.917 95.692C145.611 95.692 146.661 96.882 146.661 98.674V103H145.975V98.758C145.975 97.204 145.191 96.322 143.861 96.322C142.657 96.322 141.607 97.232 141.607 98.842V103H140.921V98.716C140.921 97.218 140.123 96.322 138.835 96.322C137.547 96.322 136.553 97.442 136.553 98.884V103H135.867ZM151.299 103.168C149.969 103.168 148.541 102.426 148.541 100.928V100.9C148.541 99.402 149.815 98.576 151.663 98.576C152.671 98.576 153.343 98.702 154.029 98.884V98.576C154.029 97.12 153.147 96.392 151.677 96.392C150.795 96.392 150.095 96.63 149.437 96.966L149.185 96.364C149.969 95.986 150.725 95.748 151.719 95.748C152.699 95.748 153.455 96.014 153.973 96.532C154.463 97.022 154.701 97.694 154.701 98.548V103H154.029V101.81C153.539 102.482 152.657 103.168 151.299 103.168ZM151.341 102.524C152.797 102.524 154.043 101.628 154.043 100.326V99.514C153.441 99.36 152.643 99.192 151.621 99.192C150.109 99.192 149.269 99.85 149.269 100.858V100.886C149.269 101.922 150.249 102.524 151.341 102.524ZM157.168 103V95.86H157.854V97.19C158.344 96.35 159.128 95.692 160.43 95.692C162.236 95.692 163.286 96.91 163.286 98.632V103H162.6V98.758C162.6 97.288 161.788 96.322 160.332 96.322C158.932 96.322 157.854 97.372 157.854 98.87V103H157.168ZM167.924 103.168C166.594 103.168 165.166 102.426 165.166 100.928V100.9C165.166 99.402 166.44 98.576 168.288 98.576C169.296 98.576 169.968 98.702 170.654 98.884V98.576C170.654 97.12 169.772 96.392 168.302 96.392C167.42 96.392 166.72 96.63 166.062 96.966L165.81 96.364C166.594 95.986 167.35 95.748 168.344 95.748C169.324 95.748 170.08 96.014 170.598 96.532C171.088 97.022 171.326 97.694 171.326 98.548V103H170.654V101.81C170.164 102.482 169.282 103.168 167.924 103.168ZM167.966 102.524C169.422 102.524 170.668 101.628 170.668 100.326V99.514C170.066 99.36 169.268 99.192 168.246 99.192C166.734 99.192 165.894 99.85 165.894 100.858V100.886C165.894 101.922 166.874 102.524 167.966 102.524ZM176.929 105.268C175.725 105.268 174.633 104.904 173.653 104.176L174.059 103.616C174.927 104.288 175.893 104.624 176.943 104.624C178.567 104.624 179.743 103.686 179.743 101.852V100.816C179.113 101.698 178.189 102.468 176.761 102.468C175.039 102.468 173.331 101.152 173.331 99.108V99.08C173.331 97.008 175.039 95.692 176.761 95.692C178.203 95.692 179.141 96.448 179.743 97.288V95.86H180.429V101.894C180.429 102.944 180.093 103.742 179.519 104.316C178.903 104.932 177.993 105.268 176.929 105.268ZM176.831 101.81C178.329 101.81 179.785 100.718 179.785 99.094V99.066C179.785 97.414 178.329 96.35 176.831 96.35C175.319 96.35 174.073 97.386 174.073 99.052V99.08C174.073 100.69 175.361 101.81 176.831 101.81ZM186.045 103.168C184.169 103.168 182.545 101.684 182.545 99.444V99.416C182.545 97.358 184.001 95.692 185.933 95.692C187.935 95.692 189.209 97.316 189.209 99.43C189.209 99.556 189.209 99.598 189.195 99.71H183.273C183.385 101.488 184.687 102.524 186.073 102.524C187.193 102.524 187.921 102.034 188.523 101.404L188.999 101.824C188.271 102.608 187.403 103.168 186.045 103.168ZM183.273 99.094H188.467C188.355 97.652 187.543 96.322 185.905 96.322C184.491 96.322 183.385 97.512 183.273 99.094ZM198.723 103.168C196.609 103.168 195.069 101.46 195.069 99.458V99.43C195.069 97.428 196.623 95.692 198.751 95.692C200.865 95.692 202.405 97.4 202.405 99.402V99.43C202.405 101.432 200.851 103.168 198.723 103.168ZM198.751 102.524C200.445 102.524 201.663 101.138 201.663 99.458V99.43C201.663 97.694 200.375 96.336 198.723 96.336C197.029 96.336 195.811 97.722 195.811 99.402V99.43C195.811 101.166 197.099 102.524 198.751 102.524ZM204.514 103V95.86H205.2V97.19C205.69 96.35 206.474 95.692 207.776 95.692C209.582 95.692 210.632 96.91 210.632 98.632V103H209.946V98.758C209.946 97.288 209.134 96.322 207.678 96.322C206.278 96.322 205.2 97.372 205.2 98.87V103H204.514ZM213.198 103V92.78H213.884V103H213.198ZM216.6 93.998V93.06H217.454V93.998H216.6ZM216.684 103V95.86H217.37V103H216.684ZM220.073 103V95.86H220.759V97.19C221.249 96.35 222.033 95.692 223.335 95.692C225.141 95.692 226.191 96.91 226.191 98.632V103H225.505V98.758C225.505 97.288 224.693 96.322 223.237 96.322C221.837 96.322 220.759 97.372 220.759 98.87V103H220.073ZM231.669 103.168C229.793 103.168 228.169 101.684 228.169 99.444V99.416C228.169 97.358 229.625 95.692 231.557 95.692C233.559 95.692 234.833 97.316 234.833 99.43C234.833 99.556 234.833 99.598 234.819 99.71H228.897C229.009 101.488 230.311 102.524 231.697 102.524C232.817 102.524 233.545 102.034 234.147 101.404L234.623 101.824C233.895 102.608 233.027 103.168 231.669 103.168ZM228.897 99.094H234.091C233.979 97.652 233.167 96.322 231.529 96.322C230.115 96.322 229.009 97.512 228.897 99.094ZM243.353 103.168C242.023 103.168 240.595 102.426 240.595 100.928V100.9C240.595 99.402 241.869 98.576 243.717 98.576C244.725 98.576 245.397 98.702 246.083 98.884V98.576C246.083 97.12 245.201 96.392 243.731 96.392C242.849 96.392 242.149 96.63 241.491 96.966L241.239 96.364C242.023 95.986 242.779 95.748 243.773 95.748C244.753 95.748 245.509 96.014 246.027 96.532C246.517 97.022 246.755 97.694 246.755 98.548V103H246.083V101.81C245.593 102.482 244.711 103.168 243.353 103.168ZM243.395 102.524C244.851 102.524 246.097 101.628 246.097 100.326V99.514C245.495 99.36 244.697 99.192 243.675 99.192C242.163 99.192 241.323 99.85 241.323 100.858V100.886C241.323 101.922 242.303 102.524 243.395 102.524ZM252.232 103.168C250.51 103.168 248.76 101.782 248.76 99.458V99.43C248.76 97.12 250.51 95.692 252.232 95.692C253.66 95.692 254.57 96.504 255.172 97.4V92.78H255.858V103H255.172V101.404C254.542 102.342 253.66 103.168 252.232 103.168ZM252.302 102.51C253.8 102.51 255.214 101.264 255.214 99.444V99.416C255.214 97.582 253.8 96.35 252.302 96.35C250.734 96.35 249.502 97.498 249.502 99.402V99.43C249.502 101.306 250.79 102.51 252.302 102.51ZM265.963 103.168C263.905 103.168 262.323 101.46 262.323 99.458V99.43C262.323 97.428 263.905 95.692 265.963 95.692C267.307 95.692 268.147 96.294 268.819 97.008L268.329 97.512C267.713 96.882 267.013 96.336 265.949 96.336C264.325 96.336 263.065 97.68 263.065 99.402V99.43C263.065 101.166 264.381 102.524 266.005 102.524C267.013 102.524 267.797 102.006 268.399 101.334L268.875 101.754C268.147 102.58 267.265 103.168 265.963 103.168ZM272.981 103.168C271.651 103.168 270.223 102.426 270.223 100.928V100.9C270.223 99.402 271.497 98.576 273.345 98.576C274.353 98.576 275.025 98.702 275.711 98.884V98.576C275.711 97.12 274.829 96.392 273.359 96.392C272.477 96.392 271.777 96.63 271.119 96.966L270.867 96.364C271.651 95.986 272.407 95.748 273.401 95.748C274.381 95.748 275.137 96.014 275.655 96.532C276.145 97.022 276.383 97.694 276.383 98.548V103H275.711V101.81C275.221 102.482 274.339 103.168 272.981 103.168ZM273.023 102.524C274.479 102.524 275.725 101.628 275.725 100.326V99.514C275.123 99.36 274.325 99.192 273.303 99.192C271.791 99.192 270.951 99.85 270.951 100.858V100.886C270.951 101.922 271.931 102.524 273.023 102.524ZM278.85 103V95.86H279.536V97.134C279.984 96.392 280.642 95.692 281.916 95.692C283.176 95.692 283.918 96.406 284.324 97.232C284.786 96.434 285.57 95.692 286.9 95.692C288.594 95.692 289.644 96.882 289.644 98.674V103H288.958V98.758C288.958 97.204 288.174 96.322 286.844 96.322C285.64 96.322 284.59 97.232 284.59 98.842V103H283.904V98.716C283.904 97.218 283.106 96.322 281.818 96.322C280.53 96.322 279.536 97.442 279.536 98.884V103H278.85ZM292.111 105.24V95.86H292.797V97.456C293.399 96.518 294.323 95.692 295.737 95.692C297.459 95.692 299.209 97.078 299.209 99.402V99.43C299.209 101.74 297.459 103.168 295.737 103.168C294.309 103.168 293.399 102.356 292.797 101.46V105.24H292.111ZM295.667 102.51C297.235 102.51 298.467 101.362 298.467 99.458V99.43C298.467 97.554 297.179 96.35 295.667 96.35C294.169 96.35 292.755 97.596 292.755 99.416V99.444C292.755 101.278 294.169 102.51 295.667 102.51ZM303.524 103.168C302.194 103.168 300.766 102.426 300.766 100.928V100.9C300.766 99.402 302.04 98.576 303.888 98.576C304.896 98.576 305.568 98.702 306.254 98.884V98.576C306.254 97.12 305.372 96.392 303.902 96.392C303.02 96.392 302.32 96.63 301.662 96.966L301.41 96.364C302.194 95.986 302.95 95.748 303.944 95.748C304.924 95.748 305.68 96.014 306.198 96.532C306.688 97.022 306.926 97.694 306.926 98.548V103H306.254V101.81C305.764 102.482 304.882 103.168 303.524 103.168ZM303.566 102.524C305.022 102.524 306.268 101.628 306.268 100.326V99.514C305.666 99.36 304.868 99.192 303.846 99.192C302.334 99.192 301.494 99.85 301.494 100.858V100.886C301.494 101.922 302.474 102.524 303.566 102.524ZM309.407 93.998V93.06H310.261V93.998H309.407ZM309.491 103V95.86H310.177V103H309.491ZM316.015 105.268C314.811 105.268 313.719 104.904 312.739 104.176L313.145 103.616C314.013 104.288 314.979 104.624 316.029 104.624C317.653 104.624 318.829 103.686 318.829 101.852V100.816C318.199 101.698 317.275 102.468 315.847 102.468C314.125 102.468 312.417 101.152 312.417 99.108V99.08C312.417 97.008 314.125 95.692 315.847 95.692C317.289 95.692 318.227 96.448 318.829 97.288V95.86H319.515V101.894C319.515 102.944 319.179 103.742 318.605 104.316C317.989 104.932 317.079 105.268 316.015 105.268ZM315.917 101.81C317.415 101.81 318.871 100.718 318.871 99.094V99.066C318.871 97.414 317.415 96.35 315.917 96.35C314.405 96.35 313.159 97.386 313.159 99.052V99.08C313.159 100.69 314.447 101.81 315.917 101.81ZM322.121 103V95.86H322.807V97.19C323.297 96.35 324.081 95.692 325.383 95.692C327.189 95.692 328.239 96.91 328.239 98.632V103H327.553V98.758C327.553 97.288 326.741 96.322 325.285 96.322C323.885 96.322 322.807 97.372 322.807 98.87V103H322.121ZM333.017 103.14C331.967 103.14 330.861 102.72 330.091 102.104L330.497 101.558C331.281 102.16 332.149 102.496 333.059 102.496C334.025 102.496 334.781 101.978 334.781 101.138V101.11C334.781 100.27 333.885 99.976 332.891 99.682C331.715 99.346 330.441 99.01 330.441 97.722V97.694C330.441 96.546 331.407 95.72 332.793 95.72C333.647 95.72 334.613 96.014 335.327 96.504L334.963 97.078C334.305 96.644 333.535 96.364 332.765 96.364C331.771 96.364 331.141 96.896 331.141 97.61V97.638C331.141 98.436 332.107 98.716 333.129 99.024C334.277 99.36 335.481 99.766 335.481 101.026V101.054C335.481 102.328 334.403 103.14 333.017 103.14ZM344.394 103.126C343.274 103.126 342.392 102.524 342.392 101.166V96.49H341.356V95.86H342.392V93.578H343.078V95.86H345.584V96.49H343.078V101.096C343.078 102.118 343.666 102.482 344.506 102.482C344.856 102.482 345.15 102.412 345.556 102.23V102.874C345.178 103.042 344.842 103.126 344.394 103.126ZM350.579 103.168C348.465 103.168 346.925 101.46 346.925 99.458V99.43C346.925 97.428 348.479 95.692 350.607 95.692C352.721 95.692 354.261 97.4 354.261 99.402V99.43C354.261 101.432 352.707 103.168 350.579 103.168ZM350.607 102.524C352.301 102.524 353.519 101.138 353.519 99.458V99.43C353.519 97.694 352.231 96.336 350.579 96.336C348.885 96.336 347.667 97.722 347.667 99.402V99.43C347.667 101.166 348.955 102.524 350.607 102.524ZM360.718 103V92.78H361.404V97.19C361.894 96.35 362.678 95.692 363.98 95.692C365.786 95.692 366.836 96.91 366.836 98.632V103H366.15V98.758C366.15 97.288 365.338 96.322 363.882 96.322C362.482 96.322 361.404 97.372 361.404 98.87V103H360.718ZM372.314 103.168C370.438 103.168 368.814 101.684 368.814 99.444V99.416C368.814 97.358 370.27 95.692 372.202 95.692C374.204 95.692 375.478 97.316 375.478 99.43C375.478 99.556 375.478 99.598 375.464 99.71H369.542C369.654 101.488 370.956 102.524 372.342 102.524C373.462 102.524 374.19 102.034 374.792 101.404L375.268 101.824C374.54 102.608 373.672 103.168 372.314 103.168ZM369.542 99.094H374.736C374.624 97.652 373.812 96.322 372.174 96.322C370.76 96.322 369.654 97.512 369.542 99.094ZM377.578 103V92.78H378.264V103H377.578ZM380.966 105.24V95.86H381.652V97.456C382.254 96.518 383.178 95.692 384.592 95.692C386.314 95.692 388.064 97.078 388.064 99.402V99.43C388.064 101.74 386.314 103.168 384.592 103.168C383.164 103.168 382.254 102.356 381.652 101.46V105.24H380.966ZM384.522 102.51C386.09 102.51 387.322 101.362 387.322 99.458V99.43C387.322 97.554 386.034 96.35 384.522 96.35C383.024 96.35 381.61 97.596 381.61 99.416V99.444C381.61 101.278 383.024 102.51 384.522 102.51ZM397.567 102.244L400.143 95.86H400.899L397.805 103.252C397.175 104.75 396.447 105.282 395.425 105.282C394.879 105.282 394.501 105.184 394.011 104.974L394.249 104.372C394.627 104.554 394.921 104.638 395.467 104.638C396.223 104.638 396.699 104.204 397.231 102.958L393.801 95.86H394.599L397.567 102.244ZM405.528 103.168C403.414 103.168 401.874 101.46 401.874 99.458V99.43C401.874 97.428 403.428 95.692 405.556 95.692C407.67 95.692 409.21 97.4 409.21 99.402V99.43C409.21 101.432 407.656 103.168 405.528 103.168ZM405.556 102.524C407.25 102.524 408.468 101.138 408.468 99.458V99.43C408.468 97.694 407.18 96.336 405.528 96.336C403.834 96.336 402.616 97.722 402.616 99.402V99.43C402.616 101.166 403.904 102.524 405.556 102.524ZM414.035 103.168C412.229 103.168 411.179 101.95 411.179 100.228V95.86H411.865V100.102C411.865 101.572 412.677 102.538 414.133 102.538C415.533 102.538 416.611 101.488 416.611 99.99V95.86H417.297V103H416.611V101.67C416.121 102.51 415.337 103.168 414.035 103.168ZM424.253 103V95.86H424.939V97.89C425.513 96.602 426.675 95.706 428.103 95.748V96.504H428.033C426.395 96.504 424.939 97.764 424.939 100.074V103H424.253ZM432.513 103.168C430.637 103.168 429.013 101.684 429.013 99.444V99.416C429.013 97.358 430.469 95.692 432.401 95.692C434.403 95.692 435.677 97.316 435.677 99.43C435.677 99.556 435.677 99.598 435.663 99.71H429.741C429.853 101.488 431.155 102.524 432.541 102.524C433.661 102.524 434.389 102.034 434.991 101.404L435.467 101.824C434.739 102.608 433.871 103.168 432.513 103.168ZM429.741 99.094H434.935C434.823 97.652 434.011 96.322 432.373 96.322C430.959 96.322 429.853 97.512 429.741 99.094ZM439.849 103.168C438.519 103.168 437.091 102.426 437.091 100.928V100.9C437.091 99.402 438.365 98.576 440.213 98.576C441.221 98.576 441.893 98.702 442.579 98.884V98.576C442.579 97.12 441.697 96.392 440.227 96.392C439.345 96.392 438.645 96.63 437.987 96.966L437.735 96.364C438.519 95.986 439.275 95.748 440.269 95.748C441.249 95.748 442.005 96.014 442.523 96.532C443.013 97.022 443.251 97.694 443.251 98.548V103H442.579V101.81C442.089 102.482 441.207 103.168 439.849 103.168ZM439.891 102.524C441.347 102.524 442.593 101.628 442.593 100.326V99.514C441.991 99.36 441.193 99.192 440.171 99.192C438.659 99.192 437.819 99.85 437.819 100.858V100.886C437.819 101.922 438.799 102.524 439.891 102.524ZM448.868 103.168C446.81 103.168 445.228 101.46 445.228 99.458V99.43C445.228 97.428 446.81 95.692 448.868 95.692C450.212 95.692 451.052 96.294 451.724 97.008L451.234 97.512C450.618 96.882 449.918 96.336 448.854 96.336C447.23 96.336 445.97 97.68 445.97 99.402V99.43C445.97 101.166 447.286 102.524 448.91 102.524C449.918 102.524 450.702 102.006 451.304 101.334L451.78 101.754C451.052 102.58 450.17 103.168 448.868 103.168ZM453.716 103V92.78H454.402V97.19C454.892 96.35 455.676 95.692 456.978 95.692C458.784 95.692 459.834 96.91 459.834 98.632V103H459.148V98.758C459.148 97.288 458.336 96.322 456.88 96.322C455.48 96.322 454.402 97.372 454.402 98.87V103H453.716ZM33.682 123.126C32.562 123.126 31.68 122.524 31.68 121.166V116.49H30.644V115.86H31.68V113.578H32.366V115.86H34.872V116.49H32.366V121.096C32.366 122.118 32.954 122.482 33.794 122.482C34.144 122.482 34.438 122.412 34.844 122.23V122.874C34.466 123.042 34.13 123.126 33.682 123.126ZM36.9075 123V112.78H37.5935V117.19C38.0835 116.35 38.8675 115.692 40.1695 115.692C41.9755 115.692 43.0255 116.91 43.0255 118.632V123H42.3395V118.758C42.3395 117.288 41.5275 116.322 40.0715 116.322C38.6715 116.322 37.5935 117.372 37.5935 118.87V123H36.9075ZM48.5034 123.168C46.6274 123.168 45.0034 121.684 45.0034 119.444V119.416C45.0034 117.358 46.4594 115.692 48.3914 115.692C50.3934 115.692 51.6674 117.316 51.6674 119.43C51.6674 119.556 51.6674 119.598 51.6534 119.71H45.7314C45.8434 121.488 47.1454 122.524 48.5314 122.524C49.6514 122.524 50.3794 122.034 50.9814 121.404L51.4574 121.824C50.7294 122.608 49.8614 123.168 48.5034 123.168ZM45.7314 119.094H50.9254C50.8134 117.652 50.0014 116.322 48.3634 116.322C46.9494 116.322 45.8434 117.512 45.7314 119.094ZM64.5746 123V115.86H65.2606V117.89C65.8346 116.602 66.9966 115.706 68.4246 115.748V116.504H68.3546C66.7166 116.504 65.2606 117.764 65.2606 120.074V123H64.5746ZM70.1941 113.998V113.06H71.0481V113.998H70.1941ZM70.2781 123V115.86H70.9641V123H70.2781ZM76.8024 125.268C75.5984 125.268 74.5064 124.904 73.5264 124.176L73.9324 123.616C74.8004 124.288 75.7664 124.624 76.8164 124.624C78.4404 124.624 79.6164 123.686 79.6164 121.852V120.816C78.9864 121.698 78.0624 122.468 76.6344 122.468C74.9124 122.468 73.2044 121.152 73.2044 119.108V119.08C73.2044 117.008 74.9124 115.692 76.6344 115.692C78.0764 115.692 79.0144 116.448 79.6164 117.288V115.86H80.3024V121.894C80.3024 122.944 79.9664 123.742 79.3924 124.316C78.7764 124.932 77.8664 125.268 76.8024 125.268ZM76.7044 121.81C78.2024 121.81 79.6584 120.718 79.6584 119.094V119.066C79.6584 117.414 78.2024 116.35 76.7044 116.35C75.1924 116.35 73.9464 117.386 73.9464 119.052V119.08C73.9464 120.69 75.2344 121.81 76.7044 121.81ZM82.9086 123V112.78H83.5946V117.19C84.0846 116.35 84.8686 115.692 86.1706 115.692C87.9766 115.692 89.0266 116.91 89.0266 118.632V123H88.3406V118.758C88.3406 117.288 87.5286 116.322 86.0726 116.322C84.6726 116.322 83.5946 117.372 83.5946 118.87V123H82.9086ZM93.8745 123.126C92.7545 123.126 91.8725 122.524 91.8725 121.166V116.49H90.8365V115.86H91.8725V113.578H92.5585V115.86H95.0645V116.49H92.5585V121.096C92.5585 122.118 93.1465 122.482 93.9865 122.482C94.3365 122.482 94.6305 122.412 95.0365 122.23V122.874C94.6585 123.042 94.3225 123.126 93.8745 123.126ZM110.175 123.168C108.845 123.168 107.417 122.426 107.417 120.928V120.9C107.417 119.402 108.691 118.576 110.539 118.576C111.547 118.576 112.219 118.702 112.905 118.884V118.576C112.905 117.12 112.023 116.392 110.553 116.392C109.671 116.392 108.971 116.63 108.313 116.966L108.061 116.364C108.845 115.986 109.601 115.748 110.595 115.748C111.575 115.748 112.331 116.014 112.849 116.532C113.339 117.022 113.577 117.694 113.577 118.548V123H112.905V121.81C112.415 122.482 111.533 123.168 110.175 123.168ZM110.217 122.524C111.673 122.524 112.919 121.628 112.919 120.326V119.514C112.317 119.36 111.519 119.192 110.497 119.192C108.985 119.192 108.145 119.85 108.145 120.858V120.886C108.145 121.922 109.125 122.524 110.217 122.524ZM118.76 123.168C116.954 123.168 115.904 121.95 115.904 120.228V115.86H116.59V120.102C116.59 121.572 117.402 122.538 118.858 122.538C120.258 122.538 121.336 121.488 121.336 119.99V115.86H122.022V123H121.336V121.67C120.846 122.51 120.062 123.168 118.76 123.168ZM127.64 123.168C125.918 123.168 124.168 121.782 124.168 119.458V119.43C124.168 117.12 125.918 115.692 127.64 115.692C129.068 115.692 129.978 116.504 130.58 117.4V112.78H131.266V123H130.58V121.404C129.95 122.342 129.068 123.168 127.64 123.168ZM127.71 122.51C129.208 122.51 130.622 121.264 130.622 119.444V119.416C130.622 117.582 129.208 116.35 127.71 116.35C126.142 116.35 124.91 117.498 124.91 119.402V119.43C124.91 121.306 126.198 122.51 127.71 122.51ZM133.887 113.998V113.06H134.741V113.998H133.887ZM133.971 123V115.86H134.657V123H133.971ZM140.369 123.168C138.493 123.168 136.869 121.684 136.869 119.444V119.416C136.869 117.358 138.325 115.692 140.257 115.692C142.259 115.692 143.533 117.316 143.533 119.43C143.533 119.556 143.533 119.598 143.519 119.71H137.597C137.709 121.488 139.011 122.524 140.397 122.524C141.517 122.524 142.245 122.034 142.847 121.404L143.323 121.824C142.595 122.608 141.727 123.168 140.369 123.168ZM137.597 119.094H142.791C142.679 117.652 141.867 116.322 140.229 116.322C138.815 116.322 137.709 117.512 137.597 119.094ZM145.535 123V115.86H146.221V117.19C146.711 116.35 147.495 115.692 148.797 115.692C150.603 115.692 151.653 116.91 151.653 118.632V123H150.967V118.758C150.967 117.288 150.155 116.322 148.699 116.322C147.299 116.322 146.221 117.372 146.221 118.87V123H145.535ZM157.271 123.168C155.213 123.168 153.631 121.46 153.631 119.458V119.43C153.631 117.428 155.213 115.692 157.271 115.692C158.615 115.692 159.455 116.294 160.127 117.008L159.637 117.512C159.021 116.882 158.321 116.336 157.257 116.336C155.633 116.336 154.373 117.68 154.373 119.402V119.43C154.373 121.166 155.689 122.524 157.313 122.524C158.321 122.524 159.105 122.006 159.707 121.334L160.183 121.754C159.455 122.58 158.573 123.168 157.271 123.168ZM164.924 123.168C163.048 123.168 161.424 121.684 161.424 119.444V119.416C161.424 117.358 162.88 115.692 164.812 115.692C166.814 115.692 168.088 117.316 168.088 119.43C168.088 119.556 168.088 119.598 168.074 119.71H162.152C162.264 121.488 163.566 122.524 164.952 122.524C166.072 122.524 166.8 122.034 167.402 121.404L167.878 121.824C167.15 122.608 166.282 123.168 164.924 123.168ZM162.152 119.094H167.346C167.234 117.652 166.422 116.322 164.784 116.322C163.37 116.322 162.264 117.512 162.152 119.094ZM183.165 123.168C181.835 123.168 180.407 122.426 180.407 120.928V120.9C180.407 119.402 181.681 118.576 183.529 118.576C184.537 118.576 185.209 118.702 185.895 118.884V118.576C185.895 117.12 185.013 116.392 183.543 116.392C182.661 116.392 181.961 116.63 181.303 116.966L181.051 116.364C181.835 115.986 182.591 115.748 183.585 115.748C184.565 115.748 185.321 116.014 185.839 116.532C186.329 117.022 186.567 117.694 186.567 118.548V123H185.895V121.81C185.405 122.482 184.523 123.168 183.165 123.168ZM183.207 122.524C184.663 122.524 185.909 121.628 185.909 120.326V119.514C185.307 119.36 184.509 119.192 183.487 119.192C181.975 119.192 181.135 119.85 181.135 120.858V120.886C181.135 121.922 182.115 122.524 183.207 122.524ZM189.034 123V115.86H189.72V117.19C190.21 116.35 190.994 115.692 192.296 115.692C194.102 115.692 195.152 116.91 195.152 118.632V123H194.466V118.758C194.466 117.288 193.654 116.322 192.198 116.322C190.798 116.322 189.72 117.372 189.72 118.87V123H189.034ZM200.63 123.168C198.908 123.168 197.158 121.782 197.158 119.458V119.43C197.158 117.12 198.908 115.692 200.63 115.692C202.058 115.692 202.968 116.504 203.57 117.4V112.78H204.256V123H203.57V121.404C202.94 122.342 202.058 123.168 200.63 123.168ZM200.7 122.51C202.198 122.51 203.612 121.264 203.612 119.444V119.416C203.612 117.582 202.198 116.35 200.7 116.35C199.132 116.35 197.9 117.498 197.9 119.402V119.43C197.9 121.306 199.188 122.51 200.7 122.51ZM217.781 113.998V113.06H218.635V113.998H217.781ZM217.865 123V115.86H218.551V123H217.865ZM221.254 123V115.86H221.94V117.19C222.43 116.35 223.214 115.692 224.516 115.692C226.322 115.692 227.372 116.91 227.372 118.632V123H226.686V118.758C226.686 117.288 225.874 116.322 224.418 116.322C223.018 116.322 221.94 117.372 221.94 118.87V123H221.254ZM232.99 123.168C230.932 123.168 229.35 121.46 229.35 119.458V119.43C229.35 117.428 230.932 115.692 232.99 115.692C234.334 115.692 235.174 116.294 235.846 117.008L235.356 117.512C234.74 116.882 234.04 116.336 232.976 116.336C231.352 116.336 230.092 117.68 230.092 119.402V119.43C230.092 121.166 231.408 122.524 233.032 122.524C234.04 122.524 234.824 122.006 235.426 121.334L235.902 121.754C235.174 122.58 234.292 123.168 232.99 123.168ZM237.838 123V115.86H238.524V117.89C239.098 116.602 240.26 115.706 241.688 115.748V116.504H241.618C239.98 116.504 238.524 117.764 238.524 120.074V123H237.838ZM246.098 123.168C244.222 123.168 242.598 121.684 242.598 119.444V119.416C242.598 117.358 244.054 115.692 245.986 115.692C247.988 115.692 249.262 117.316 249.262 119.43C249.262 119.556 249.262 119.598 249.248 119.71H243.326C243.438 121.488 244.74 122.524 246.126 122.524C247.246 122.524 247.974 122.034 248.576 121.404L249.052 121.824C248.324 122.608 247.456 123.168 246.098 123.168ZM243.326 119.094H248.52C248.408 117.652 247.596 116.322 245.958 116.322C244.544 116.322 243.438 117.512 243.326 119.094ZM253.434 123.168C252.104 123.168 250.676 122.426 250.676 120.928V120.9C250.676 119.402 251.95 118.576 253.798 118.576C254.806 118.576 255.478 118.702 256.164 118.884V118.576C256.164 117.12 255.282 116.392 253.812 116.392C252.93 116.392 252.23 116.63 251.572 116.966L251.32 116.364C252.104 115.986 252.86 115.748 253.854 115.748C254.834 115.748 255.59 116.014 256.108 116.532C256.598 117.022 256.836 117.694 256.836 118.548V123H256.164V121.81C255.674 122.482 254.792 123.168 253.434 123.168ZM253.476 122.524C254.932 122.524 256.178 121.628 256.178 120.326V119.514C255.576 119.36 254.778 119.192 253.756 119.192C252.244 119.192 251.404 119.85 251.404 120.858V120.886C251.404 121.922 252.384 122.524 253.476 122.524ZM261.613 123.14C260.563 123.14 259.457 122.72 258.687 122.104L259.093 121.558C259.877 122.16 260.745 122.496 261.655 122.496C262.621 122.496 263.377 121.978 263.377 121.138V121.11C263.377 120.27 262.481 119.976 261.487 119.682C260.311 119.346 259.037 119.01 259.037 117.722V117.694C259.037 116.546 260.003 115.72 261.389 115.72C262.243 115.72 263.209 116.014 263.923 116.504L263.559 117.078C262.901 116.644 262.131 116.364 261.361 116.364C260.367 116.364 259.737 116.896 259.737 117.61V117.638C259.737 118.436 260.703 118.716 261.725 119.024C262.873 119.36 264.077 119.766 264.077 121.026V121.054C264.077 122.328 262.999 123.14 261.613 123.14ZM269.272 123.168C267.396 123.168 265.772 121.684 265.772 119.444V119.416C265.772 117.358 267.228 115.692 269.16 115.692C271.162 115.692 272.436 117.316 272.436 119.43C272.436 119.556 272.436 119.598 272.422 119.71H266.5C266.612 121.488 267.914 122.524 269.3 122.524C270.42 122.524 271.148 122.034 271.75 121.404L272.226 121.824C271.498 122.608 270.63 123.168 269.272 123.168ZM266.5 119.094H271.694C271.582 117.652 270.77 116.322 269.132 116.322C267.718 116.322 266.612 117.512 266.5 119.094ZM287.653 123.14C286.603 123.14 285.497 122.72 284.727 122.104L285.133 121.558C285.917 122.16 286.785 122.496 287.695 122.496C288.661 122.496 289.417 121.978 289.417 121.138V121.11C289.417 120.27 288.521 119.976 287.527 119.682C286.351 119.346 285.077 119.01 285.077 117.722V117.694C285.077 116.546 286.043 115.72 287.429 115.72C288.283 115.72 289.249 116.014 289.963 116.504L289.599 117.078C288.941 116.644 288.171 116.364 287.401 116.364C286.407 116.364 285.777 116.896 285.777 117.61V117.638C285.777 118.436 286.743 118.716 287.765 119.024C288.913 119.36 290.117 119.766 290.117 121.026V121.054C290.117 122.328 289.039 123.14 287.653 123.14ZM294.472 123.168C293.142 123.168 291.714 122.426 291.714 120.928V120.9C291.714 119.402 292.988 118.576 294.836 118.576C295.844 118.576 296.516 118.702 297.202 118.884V118.576C297.202 117.12 296.32 116.392 294.85 116.392C293.968 116.392 293.268 116.63 292.61 116.966L292.358 116.364C293.142 115.986 293.898 115.748 294.892 115.748C295.872 115.748 296.628 116.014 297.146 116.532C297.636 117.022 297.874 117.694 297.874 118.548V123H297.202V121.81C296.712 122.482 295.83 123.168 294.472 123.168ZM294.514 122.524C295.97 122.524 297.216 121.628 297.216 120.326V119.514C296.614 119.36 295.816 119.192 294.794 119.192C293.282 119.192 292.442 119.85 292.442 120.858V120.886C292.442 121.922 293.422 122.524 294.514 122.524ZM300.439 123V112.78H301.125V123H300.439ZM306.837 123.168C304.961 123.168 303.337 121.684 303.337 119.444V119.416C303.337 117.358 304.793 115.692 306.725 115.692C308.727 115.692 310.001 117.316 310.001 119.43C310.001 119.556 310.001 119.598 309.987 119.71H304.065C304.177 121.488 305.479 122.524 306.865 122.524C307.985 122.524 308.713 122.034 309.315 121.404L309.791 121.824C309.063 122.608 308.195 123.168 306.837 123.168ZM304.065 119.094H309.259C309.147 117.652 308.335 116.322 306.697 116.322C305.283 116.322 304.177 117.512 304.065 119.094ZM314.313 123.14C313.263 123.14 312.157 122.72 311.387 122.104L311.793 121.558C312.577 122.16 313.445 122.496 314.355 122.496C315.321 122.496 316.077 121.978 316.077 121.138V121.11C316.077 120.27 315.181 119.976 314.187 119.682C313.011 119.346 311.737 119.01 311.737 117.722V117.694C311.737 116.546 312.703 115.72 314.089 115.72C314.943 115.72 315.909 116.014 316.623 116.504L316.259 117.078C315.601 116.644 314.831 116.364 314.061 116.364C313.067 116.364 312.437 116.896 312.437 117.61V117.638C312.437 118.436 313.403 118.716 314.425 119.024C315.573 119.36 316.777 119.766 316.777 121.026V121.054C316.777 122.328 315.699 123.14 314.313 123.14ZM318.808 123V121.81H319.732V123H318.808ZM337.112 123.154C334.76 123.154 333.094 121.67 333.094 118.926V113.2H333.822V118.856C333.822 121.194 335.054 122.496 337.14 122.496C339.114 122.496 340.402 121.292 340.402 118.926V113.2H341.13V118.842C341.13 121.642 339.492 123.154 337.112 123.154ZM346.041 123.14C344.991 123.14 343.885 122.72 343.115 122.104L343.521 121.558C344.305 122.16 345.173 122.496 346.083 122.496C347.049 122.496 347.805 121.978 347.805 121.138V121.11C347.805 120.27 346.909 119.976 345.915 119.682C344.739 119.346 343.465 119.01 343.465 117.722V117.694C343.465 116.546 344.431 115.72 345.817 115.72C346.671 115.72 347.637 116.014 348.351 116.504L347.987 117.078C347.329 116.644 346.559 116.364 345.789 116.364C344.795 116.364 344.165 116.896 344.165 117.61V117.638C344.165 118.436 345.131 118.716 346.153 119.024C347.301 119.36 348.505 119.766 348.505 121.026V121.054C348.505 122.328 347.427 123.14 346.041 123.14ZM350.704 113.998V113.06H351.558V113.998H350.704ZM350.788 123V115.86H351.474V123H350.788ZM354.176 123V115.86H354.862V117.19C355.352 116.35 356.136 115.692 357.438 115.692C359.244 115.692 360.294 116.91 360.294 118.632V123H359.608V118.758C359.608 117.288 358.796 116.322 357.34 116.322C355.94 116.322 354.862 117.372 354.862 118.87V123H354.176ZM365.898 125.268C364.694 125.268 363.602 124.904 362.622 124.176L363.028 123.616C363.896 124.288 364.862 124.624 365.912 124.624C367.536 124.624 368.712 123.686 368.712 121.852V120.816C368.082 121.698 367.158 122.468 365.73 122.468C364.008 122.468 362.3 121.152 362.3 119.108V119.08C362.3 117.008 364.008 115.692 365.73 115.692C367.172 115.692 368.11 116.448 368.712 117.288V115.86H369.398V121.894C369.398 122.944 369.062 123.742 368.488 124.316C367.872 124.932 366.962 125.268 365.898 125.268ZM365.8 121.81C367.298 121.81 368.754 120.718 368.754 119.094V119.066C368.754 117.414 367.298 116.35 365.8 116.35C364.288 116.35 363.042 117.386 363.042 119.052V119.08C363.042 120.69 364.33 121.81 365.8 121.81ZM385.919 123.168C384.197 123.168 382.447 121.782 382.447 119.458V119.43C382.447 117.12 384.197 115.692 385.919 115.692C387.347 115.692 388.257 116.504 388.859 117.4V112.78H389.545V123H388.859V121.404C388.229 122.342 387.347 123.168 385.919 123.168ZM385.989 122.51C387.487 122.51 388.901 121.264 388.901 119.444V119.416C388.901 117.582 387.487 116.35 385.989 116.35C384.421 116.35 383.189 117.498 383.189 119.402V119.43C383.189 121.306 384.477 122.51 385.989 122.51ZM394.322 123.168C392.992 123.168 391.564 122.426 391.564 120.928V120.9C391.564 119.402 392.838 118.576 394.686 118.576C395.694 118.576 396.366 118.702 397.052 118.884V118.576C397.052 117.12 396.17 116.392 394.7 116.392C393.818 116.392 393.118 116.63 392.46 116.966L392.208 116.364C392.992 115.986 393.748 115.748 394.742 115.748C395.722 115.748 396.478 116.014 396.996 116.532C397.486 117.022 397.724 117.694 397.724 118.548V123H397.052V121.81C396.562 122.482 395.68 123.168 394.322 123.168ZM394.364 122.524C395.82 122.524 397.066 121.628 397.066 120.326V119.514C396.464 119.36 395.666 119.192 394.644 119.192C393.132 119.192 392.292 119.85 392.292 120.858V120.886C392.292 121.922 393.272 122.524 394.364 122.524ZM402.502 123.126C401.382 123.126 400.5 122.524 400.5 121.166V116.49H399.464V115.86H400.5V113.578H401.186V115.86H403.692V116.49H401.186V121.096C401.186 122.118 401.774 122.482 402.614 122.482C402.964 122.482 403.258 122.412 403.664 122.23V122.874C403.286 123.042 402.95 123.126 402.502 123.126ZM407.898 123.168C406.568 123.168 405.14 122.426 405.14 120.928V120.9C405.14 119.402 406.414 118.576 408.262 118.576C409.27 118.576 409.942 118.702 410.628 118.884V118.576C410.628 117.12 409.746 116.392 408.276 116.392C407.394 116.392 406.694 116.63 406.036 116.966L405.784 116.364C406.568 115.986 407.324 115.748 408.318 115.748C409.298 115.748 410.054 116.014 410.572 116.532C411.062 117.022 411.3 117.694 411.3 118.548V123H410.628V121.81C410.138 122.482 409.256 123.168 407.898 123.168ZM407.94 122.524C409.396 122.524 410.642 121.628 410.642 120.326V119.514C410.04 119.36 409.242 119.192 408.22 119.192C406.708 119.192 405.868 119.85 405.868 120.858V120.886C405.868 121.922 406.848 122.524 407.94 122.524ZM413.445 119.234V118.45H417.197V119.234H413.445ZM422.492 123.168C420.77 123.168 419.02 121.782 419.02 119.458V119.43C419.02 117.12 420.77 115.692 422.492 115.692C423.92 115.692 424.83 116.504 425.432 117.4V112.78H426.118V123H425.432V121.404C424.802 122.342 423.92 123.168 422.492 123.168ZM422.562 122.51C424.06 122.51 425.474 121.264 425.474 119.444V119.416C425.474 117.582 424.06 116.35 422.562 116.35C420.994 116.35 419.762 117.498 419.762 119.402V119.43C419.762 121.306 421.05 122.51 422.562 122.51ZM428.724 123V115.86H429.41V117.89C429.984 116.602 431.146 115.706 432.574 115.748V116.504H432.504C430.866 116.504 429.41 117.764 429.41 120.074V123H428.724ZM434.343 113.998V113.06H435.197V113.998H434.343ZM434.427 123V115.86H435.113V123H434.427ZM440.294 123.056L437.088 115.86H437.886L440.588 122.23L443.318 115.86H444.088L440.882 123.056H440.294ZM448.55 123.168C446.674 123.168 445.05 121.684 445.05 119.444V119.416C445.05 117.358 446.506 115.692 448.438 115.692C450.44 115.692 451.714 117.316 451.714 119.43C451.714 119.556 451.714 119.598 451.7 119.71H445.778C445.89 121.488 447.192 122.524 448.578 122.524C449.698 122.524 450.426 122.034 451.028 121.404L451.504 121.824C450.776 122.608 449.908 123.168 448.55 123.168ZM445.778 119.094H450.972C450.86 117.652 450.048 116.322 448.41 116.322C446.996 116.322 445.89 117.512 445.778 119.094ZM453.716 123V115.86H454.402V117.19C454.892 116.35 455.676 115.692 456.978 115.692C458.784 115.692 459.834 116.91 459.834 118.632V123H459.148V118.758C459.148 117.288 458.336 116.322 456.88 116.322C455.48 116.322 454.402 117.372 454.402 118.87V123H453.716ZM33.612 143.14C32.562 143.14 31.456 142.72 30.686 142.104L31.092 141.558C31.876 142.16 32.744 142.496 33.654 142.496C34.62 142.496 35.376 141.978 35.376 141.138V141.11C35.376 140.27 34.48 139.976 33.486 139.682C32.31 139.346 31.036 139.01 31.036 137.722V137.694C31.036 136.546 32.002 135.72 33.388 135.72C34.242 135.72 35.208 136.014 35.922 136.504L35.558 137.078C34.9 136.644 34.13 136.364 33.36 136.364C32.366 136.364 31.736 136.896 31.736 137.61V137.638C31.736 138.436 32.702 138.716 33.724 139.024C34.872 139.36 36.076 139.766 36.076 141.026V141.054C36.076 142.328 34.998 143.14 33.612 143.14ZM40.5043 143.126C39.3843 143.126 38.5023 142.524 38.5023 141.166V136.49H37.4663V135.86H38.5023V133.578H39.1883V135.86H41.6943V136.49H39.1883V141.096C39.1883 142.118 39.7763 142.482 40.6163 142.482C40.9663 142.482 41.2603 142.412 41.6663 142.23V142.874C41.2883 143.042 40.9523 143.126 40.5043 143.126ZM43.7297 143V135.86H44.4157V137.89C44.9897 136.602 46.1517 135.706 47.5797 135.748V136.504H47.5097C45.8717 136.504 44.4157 137.764 44.4157 140.074V143H43.7297ZM51.1497 143.168C49.8197 143.168 48.3917 142.426 48.3917 140.928V140.9C48.3917 139.402 49.6657 138.576 51.5137 138.576C52.5217 138.576 53.1937 138.702 53.8797 138.884V138.576C53.8797 137.12 52.9977 136.392 51.5277 136.392C50.6457 136.392 49.9457 136.63 49.2877 136.966L49.0357 136.364C49.8197 135.986 50.5757 135.748 51.5697 135.748C52.5497 135.748 53.3057 136.014 53.8237 136.532C54.3137 137.022 54.5517 137.694 54.5517 138.548V143H53.8797V141.81C53.3897 142.482 52.5077 143.168 51.1497 143.168ZM51.1917 142.524C52.6477 142.524 53.8937 141.628 53.8937 140.326V139.514C53.2917 139.36 52.4937 139.192 51.4717 139.192C49.9597 139.192 49.1197 139.85 49.1197 140.858V140.886C49.1197 141.922 50.0997 142.524 51.1917 142.524ZM59.3304 143.126C58.2104 143.126 57.3284 142.524 57.3284 141.166V136.49H56.2924V135.86H57.3284V133.578H58.0144V135.86H60.5204V136.49H58.0144V141.096C58.0144 142.118 58.6024 142.482 59.4424 142.482C59.7924 142.482 60.0864 142.412 60.4924 142.23V142.874C60.1144 143.042 59.7784 143.126 59.3304 143.126ZM65.3608 143.168C63.4848 143.168 61.8608 141.684 61.8608 139.444V139.416C61.8608 137.358 63.3168 135.692 65.2488 135.692C67.2508 135.692 68.5248 137.316 68.5248 139.43C68.5248 139.556 68.5248 139.598 68.5108 139.71H62.5888C62.7008 141.488 64.0028 142.524 65.3888 142.524C66.5088 142.524 67.2368 142.034 67.8388 141.404L68.3148 141.824C67.5868 142.608 66.7188 143.168 65.3608 143.168ZM62.5888 139.094H67.7828C67.6708 137.652 66.8588 136.322 65.2208 136.322C63.8068 136.322 62.7008 137.512 62.5888 139.094ZM73.6626 145.268C72.4586 145.268 71.3666 144.904 70.3866 144.176L70.7926 143.616C71.6606 144.288 72.6266 144.624 73.6766 144.624C75.3006 144.624 76.4766 143.686 76.4766 141.852V140.816C75.8466 141.698 74.9226 142.468 73.4946 142.468C71.7726 142.468 70.0646 141.152 70.0646 139.108V139.08C70.0646 137.008 71.7726 135.692 73.4946 135.692C74.9366 135.692 75.8746 136.448 76.4766 137.288V135.86H77.1626V141.894C77.1626 142.944 76.8266 143.742 76.2526 144.316C75.6366 144.932 74.7266 145.268 73.6626 145.268ZM73.5646 141.81C75.0626 141.81 76.5186 140.718 76.5186 139.094V139.066C76.5186 137.414 75.0626 136.35 73.5646 136.35C72.0526 136.35 70.8066 137.386 70.8066 139.052V139.08C70.8066 140.69 72.0946 141.81 73.5646 141.81ZM79.7828 133.998V133.06H80.6368V133.998H79.7828ZM79.8668 143V135.86H80.5528V143H79.8668ZM86.2651 143.168C84.3891 143.168 82.7651 141.684 82.7651 139.444V139.416C82.7651 137.358 84.2211 135.692 86.1531 135.692C88.1551 135.692 89.4291 137.316 89.4291 139.43C89.4291 139.556 89.4291 139.598 89.4151 139.71H83.4931C83.6051 141.488 84.9071 142.524 86.2931 142.524C87.4131 142.524 88.1411 142.034 88.7431 141.404L89.2191 141.824C88.4911 142.608 87.6231 143.168 86.2651 143.168ZM83.4931 139.094H88.6871C88.5751 137.652 87.7631 136.322 86.1251 136.322C84.7111 136.322 83.6051 137.512 83.4931 139.094ZM93.7409 143.14C92.6909 143.14 91.5849 142.72 90.8149 142.104L91.2209 141.558C92.0049 142.16 92.8729 142.496 93.7829 142.496C94.7489 142.496 95.5049 141.978 95.5049 141.138V141.11C95.5049 140.27 94.6089 139.976 93.6149 139.682C92.4389 139.346 91.1649 139.01 91.1649 137.722V137.694C91.1649 136.546 92.1309 135.72 93.5169 135.72C94.3709 135.72 95.3369 136.014 96.0509 136.504L95.6869 137.078C95.0289 136.644 94.2589 136.364 93.4889 136.364C92.4949 136.364 91.8649 136.896 91.8649 137.61V137.638C91.8649 138.436 92.8309 138.716 93.8529 139.024C95.0009 139.36 96.2049 139.766 96.2049 141.026V141.054C96.2049 142.328 95.1269 143.14 93.7409 143.14ZM97.9979 144.498L97.8299 144.148C98.4319 143.826 98.6559 143.546 98.6139 143H98.2359V141.81H99.1599V142.846C99.1599 143.728 98.8379 144.176 97.9979 144.498ZM107.911 143.056L105.293 135.86H106.063L108.219 142.132L110.375 135.832H110.921L113.077 142.132L115.233 135.86H115.975L113.357 143.056H112.769L110.641 136.938L108.499 143.056H107.911ZM120.622 143.168C118.746 143.168 117.122 141.684 117.122 139.444V139.416C117.122 137.358 118.578 135.692 120.51 135.692C122.512 135.692 123.786 137.316 123.786 139.43C123.786 139.556 123.786 139.598 123.772 139.71H117.85C117.962 141.488 119.264 142.524 120.65 142.524C121.77 142.524 122.498 142.034 123.1 141.404L123.576 141.824C122.848 142.608 121.98 143.168 120.622 143.168ZM117.85 139.094H123.044C122.932 137.652 122.12 136.322 120.482 136.322C119.068 136.322 117.962 137.512 117.85 139.094ZM130.08 143V135.86H130.766V137.134C131.214 136.392 131.872 135.692 133.146 135.692C134.406 135.692 135.148 136.406 135.554 137.232C136.016 136.434 136.8 135.692 138.13 135.692C139.824 135.692 140.874 136.882 140.874 138.674V143H140.188V138.758C140.188 137.204 139.404 136.322 138.074 136.322C136.87 136.322 135.82 137.232 135.82 138.842V143H135.134V138.716C135.134 137.218 134.336 136.322 133.048 136.322C131.76 136.322 130.766 137.442 130.766 138.884V143H130.08ZM145.512 143.168C144.182 143.168 142.754 142.426 142.754 140.928V140.9C142.754 139.402 144.028 138.576 145.876 138.576C146.884 138.576 147.556 138.702 148.242 138.884V138.576C148.242 137.12 147.36 136.392 145.89 136.392C145.008 136.392 144.308 136.63 143.65 136.966L143.398 136.364C144.182 135.986 144.938 135.748 145.932 135.748C146.912 135.748 147.668 136.014 148.186 136.532C148.676 137.022 148.914 137.694 148.914 138.548V143H148.242V141.81C147.752 142.482 146.87 143.168 145.512 143.168ZM145.554 142.524C147.01 142.524 148.256 141.628 148.256 140.326V139.514C147.654 139.36 146.856 139.192 145.834 139.192C144.322 139.192 143.482 139.85 143.482 140.858V140.886C143.482 141.922 144.462 142.524 145.554 142.524ZM151.381 143V132.78H152.067V140.438L156.491 135.86H157.401L154.279 139.024L157.499 143H156.631L153.803 139.514L152.067 141.264V143H151.381ZM161.869 143.168C159.993 143.168 158.369 141.684 158.369 139.444V139.416C158.369 137.358 159.825 135.692 161.757 135.692C163.759 135.692 165.033 137.316 165.033 139.43C165.033 139.556 165.033 139.598 165.019 139.71H159.097C159.209 141.488 160.511 142.524 161.897 142.524C163.017 142.524 163.745 142.034 164.347 141.404L164.823 141.824C164.095 142.608 163.227 143.168 161.869 143.168ZM159.097 139.094H164.291C164.179 137.652 163.367 136.322 161.729 136.322C160.315 136.322 159.209 137.512 159.097 139.094ZM173.638 143.14C172.588 143.14 171.482 142.72 170.712 142.104L171.118 141.558C171.902 142.16 172.77 142.496 173.68 142.496C174.646 142.496 175.402 141.978 175.402 141.138V141.11C175.402 140.27 174.506 139.976 173.512 139.682C172.336 139.346 171.062 139.01 171.062 137.722V137.694C171.062 136.546 172.028 135.72 173.414 135.72C174.268 135.72 175.234 136.014 175.948 136.504L175.584 137.078C174.926 136.644 174.156 136.364 173.386 136.364C172.392 136.364 171.762 136.896 171.762 137.61V137.638C171.762 138.436 172.728 138.716 173.75 139.024C174.898 139.36 176.102 139.766 176.102 141.026V141.054C176.102 142.328 175.024 143.14 173.638 143.14ZM181.003 143.168C179.197 143.168 178.147 141.95 178.147 140.228V135.86H178.833V140.102C178.833 141.572 179.645 142.538 181.101 142.538C182.501 142.538 183.579 141.488 183.579 139.99V135.86H184.265V143H183.579V141.67C183.089 142.51 182.305 143.168 181.003 143.168ZM186.873 143V135.86H187.559V137.89C188.133 136.602 189.295 135.706 190.723 135.748V136.504H190.653C189.015 136.504 187.559 137.764 187.559 140.074V143H186.873ZM195.133 143.168C193.257 143.168 191.633 141.684 191.633 139.444V139.416C191.633 137.358 193.089 135.692 195.021 135.692C197.023 135.692 198.297 137.316 198.297 139.43C198.297 139.556 198.297 139.598 198.283 139.71H192.361C192.473 141.488 193.775 142.524 195.161 142.524C196.281 142.524 197.009 142.034 197.611 141.404L198.087 141.824C197.359 142.608 196.491 143.168 195.133 143.168ZM192.361 139.094H197.555C197.443 137.652 196.631 136.322 194.993 136.322C193.579 136.322 192.473 137.512 192.361 139.094ZM207.601 142.244L210.177 135.86H210.933L207.839 143.252C207.209 144.75 206.481 145.282 205.459 145.282C204.913 145.282 204.535 145.184 204.045 144.974L204.283 144.372C204.661 144.554 204.955 144.638 205.501 144.638C206.257 144.638 206.733 144.204 207.265 142.958L203.835 135.86H204.633L207.601 142.244ZM215.561 143.168C213.447 143.168 211.907 141.46 211.907 139.458V139.43C211.907 137.428 213.461 135.692 215.589 135.692C217.703 135.692 219.243 137.4 219.243 139.402V139.43C219.243 141.432 217.689 143.168 215.561 143.168ZM215.589 142.524C217.283 142.524 218.501 141.138 218.501 139.458V139.43C218.501 137.694 217.213 136.336 215.561 136.336C213.867 136.336 212.649 137.722 212.649 139.402V139.43C212.649 141.166 213.937 142.524 215.589 142.524ZM224.068 143.168C222.262 143.168 221.212 141.95 221.212 140.228V135.86H221.898V140.102C221.898 141.572 222.71 142.538 224.166 142.538C225.566 142.538 226.644 141.488 226.644 139.99V135.86H227.33V143H226.644V141.67C226.154 142.51 225.37 143.168 224.068 143.168ZM229.938 143V135.86H230.624V137.89C231.198 136.602 232.36 135.706 233.788 135.748V136.504H233.718C232.08 136.504 230.624 137.764 230.624 140.074V143H229.938ZM242.006 143.168C240.676 143.168 239.248 142.426 239.248 140.928V140.9C239.248 139.402 240.522 138.576 242.37 138.576C243.378 138.576 244.05 138.702 244.736 138.884V138.576C244.736 137.12 243.854 136.392 242.384 136.392C241.502 136.392 240.802 136.63 240.144 136.966L239.892 136.364C240.676 135.986 241.432 135.748 242.426 135.748C243.406 135.748 244.162 136.014 244.68 136.532C245.17 137.022 245.408 137.694 245.408 138.548V143H244.736V141.81C244.246 142.482 243.364 143.168 242.006 143.168ZM242.048 142.524C243.504 142.524 244.75 141.628 244.75 140.326V139.514C244.148 139.36 243.35 139.192 242.328 139.192C240.816 139.192 239.976 139.85 239.976 140.858V140.886C239.976 141.922 240.956 142.524 242.048 142.524ZM250.885 143.168C249.163 143.168 247.413 141.782 247.413 139.458V139.43C247.413 137.12 249.163 135.692 250.885 135.692C252.313 135.692 253.223 136.504 253.825 137.4V132.78H254.511V143H253.825V141.404C253.195 142.342 252.313 143.168 250.885 143.168ZM250.955 142.51C252.453 142.51 253.867 141.264 253.867 139.444V139.416C253.867 137.582 252.453 136.35 250.955 136.35C249.387 136.35 248.155 137.498 248.155 139.402V139.43C248.155 141.306 249.443 142.51 250.955 142.51ZM259.427 143.14C258.377 143.14 257.271 142.72 256.501 142.104L256.907 141.558C257.691 142.16 258.559 142.496 259.469 142.496C260.435 142.496 261.191 141.978 261.191 141.138V141.11C261.191 140.27 260.295 139.976 259.301 139.682C258.125 139.346 256.851 139.01 256.851 137.722V137.694C256.851 136.546 257.817 135.72 259.203 135.72C260.057 135.72 261.023 136.014 261.737 136.504L261.373 137.078C260.715 136.644 259.945 136.364 259.175 136.364C258.181 136.364 257.551 136.896 257.551 137.61V137.638C257.551 138.436 258.517 138.716 259.539 139.024C260.687 139.36 261.891 139.766 261.891 141.026V141.054C261.891 142.328 260.813 143.14 259.427 143.14ZM268.369 145.24V135.86H269.055V137.456C269.657 136.518 270.581 135.692 271.995 135.692C273.717 135.692 275.467 137.078 275.467 139.402V139.43C275.467 141.74 273.717 143.168 271.995 143.168C270.567 143.168 269.657 142.356 269.055 141.46V145.24H268.369ZM271.925 142.51C273.493 142.51 274.725 141.362 274.725 139.458V139.43C274.725 137.554 273.437 136.35 271.925 136.35C270.427 136.35 269.013 137.596 269.013 139.416V139.444C269.013 141.278 270.427 142.51 271.925 142.51ZM280.621 143.168C278.745 143.168 277.121 141.684 277.121 139.444V139.416C277.121 137.358 278.577 135.692 280.509 135.692C282.511 135.692 283.785 137.316 283.785 139.43C283.785 139.556 283.785 139.598 283.771 139.71H277.849C277.961 141.488 279.263 142.524 280.649 142.524C281.769 142.524 282.497 142.034 283.099 141.404L283.575 141.824C282.847 142.608 281.979 143.168 280.621 143.168ZM277.849 139.094H283.043C282.931 137.652 282.119 136.322 280.481 136.322C279.067 136.322 277.961 137.512 277.849 139.094ZM285.787 143V135.86H286.473V137.89C287.047 136.602 288.209 135.706 289.637 135.748V136.504H289.567C287.929 136.504 286.473 137.764 286.473 140.074V143H285.787ZM291.812 143V136.49H290.776V135.86H291.812V135.16C291.812 134.334 292.022 133.718 292.442 133.298C292.82 132.92 293.31 132.738 293.94 132.738C294.374 132.738 294.682 132.794 295.004 132.906V133.55C294.598 133.424 294.318 133.368 293.94 133.368C292.974 133.368 292.498 133.97 292.498 135.174V135.86H294.99V136.49H292.498V143H291.812ZM299.492 143.168C297.378 143.168 295.838 141.46 295.838 139.458V139.43C295.838 137.428 297.392 135.692 299.52 135.692C301.634 135.692 303.174 137.4 303.174 139.402V139.43C303.174 141.432 301.62 143.168 299.492 143.168ZM299.52 142.524C301.214 142.524 302.432 141.138 302.432 139.458V139.43C302.432 137.694 301.144 136.336 299.492 136.336C297.798 136.336 296.58 137.722 296.58 139.402V139.43C296.58 141.166 297.868 142.524 299.52 142.524ZM305.283 143V135.86H305.969V137.89C306.543 136.602 307.705 135.706 309.133 135.748V136.504H309.063C307.425 136.504 305.969 137.764 305.969 140.074V143H305.283ZM310.888 143V135.86H311.574V137.134C312.022 136.392 312.68 135.692 313.954 135.692C315.214 135.692 315.956 136.406 316.362 137.232C316.824 136.434 317.608 135.692 318.938 135.692C320.632 135.692 321.682 136.882 321.682 138.674V143H320.996V138.758C320.996 137.204 320.212 136.322 318.882 136.322C317.678 136.322 316.628 137.232 316.628 138.842V143H315.942V138.716C315.942 137.218 315.144 136.322 313.856 136.322C312.568 136.322 311.574 137.442 311.574 138.884V143H310.888ZM330.444 143.056L327.826 135.86H328.596L330.752 142.132L332.908 135.832H333.454L335.61 142.132L337.766 135.86H338.508L335.89 143.056H335.302L333.174 136.938L331.032 143.056H330.444ZM343.156 143.168C341.28 143.168 339.656 141.684 339.656 139.444V139.416C339.656 137.358 341.112 135.692 343.044 135.692C345.046 135.692 346.32 137.316 346.32 139.43C346.32 139.556 346.32 139.598 346.306 139.71H340.384C340.496 141.488 341.798 142.524 343.184 142.524C344.304 142.524 345.032 142.034 345.634 141.404L346.11 141.824C345.382 142.608 344.514 143.168 343.156 143.168ZM340.384 139.094H345.578C345.466 137.652 344.654 136.322 343.016 136.322C341.602 136.322 340.496 137.512 340.384 139.094ZM348.419 143V132.78H349.105V143H348.419ZM351.906 143V132.78H352.592V143H351.906ZM361.756 143.168C360.426 143.168 358.998 142.426 358.998 140.928V140.9C358.998 139.402 360.272 138.576 362.12 138.576C363.128 138.576 363.8 138.702 364.486 138.884V138.576C364.486 137.12 363.604 136.392 362.134 136.392C361.252 136.392 360.552 136.63 359.894 136.966L359.642 136.364C360.426 135.986 361.182 135.748 362.176 135.748C363.156 135.748 363.912 136.014 364.43 136.532C364.92 137.022 365.158 137.694 365.158 138.548V143H364.486V141.81C363.996 142.482 363.114 143.168 361.756 143.168ZM361.798 142.524C363.254 142.524 364.5 141.628 364.5 140.326V139.514C363.898 139.36 363.1 139.192 362.078 139.192C360.566 139.192 359.726 139.85 359.726 140.858V140.886C359.726 141.922 360.706 142.524 361.798 142.524ZM367.625 143V135.86H368.311V137.19C368.801 136.35 369.585 135.692 370.887 135.692C372.693 135.692 373.743 136.91 373.743 138.632V143H373.057V138.758C373.057 137.288 372.245 136.322 370.789 136.322C369.389 136.322 368.311 137.372 368.311 138.87V143H367.625ZM379.221 143.168C377.499 143.168 375.749 141.782 375.749 139.458V139.43C375.749 137.12 377.499 135.692 379.221 135.692C380.649 135.692 381.559 136.504 382.161 137.4V132.78H382.847V143H382.161V141.404C381.531 142.342 380.649 143.168 379.221 143.168ZM379.291 142.51C380.789 142.51 382.203 141.264 382.203 139.444V139.416C382.203 137.582 380.789 136.35 379.291 136.35C377.723 136.35 376.491 137.498 376.491 139.402V139.43C376.491 141.306 377.779 142.51 379.291 142.51ZM392.756 143.168C391.034 143.168 389.284 141.782 389.284 139.458V139.43C389.284 137.12 391.034 135.692 392.756 135.692C394.184 135.692 395.094 136.504 395.696 137.4V132.78H396.382V143H395.696V141.404C395.066 142.342 394.184 143.168 392.756 143.168ZM392.826 142.51C394.324 142.51 395.738 141.264 395.738 139.444V139.416C395.738 137.582 394.324 136.35 392.826 136.35C391.258 136.35 390.026 137.498 390.026 139.402V139.43C390.026 141.306 391.314 142.51 392.826 142.51ZM401.998 143.168C400.122 143.168 398.498 141.684 398.498 139.444V139.416C398.498 137.358 399.954 135.692 401.886 135.692C403.888 135.692 405.162 137.316 405.162 139.43C405.162 139.556 405.162 139.598 405.148 139.71H399.226C399.338 141.488 400.64 142.524 402.026 142.524C403.146 142.524 403.874 142.034 404.476 141.404L404.952 141.824C404.224 142.608 403.356 143.168 401.998 143.168ZM399.226 139.094H404.42C404.308 137.652 403.496 136.322 401.858 136.322C400.444 136.322 399.338 137.512 399.226 139.094ZM407.262 143V132.78H407.948V143H407.262ZM410.664 133.998V133.06H411.518V133.998H410.664ZM410.748 143V135.86H411.434V143H410.748ZM416.615 143.056L413.409 135.86H414.207L416.909 142.23L419.639 135.86H420.409L417.203 143.056H416.615ZM424.871 143.168C422.995 143.168 421.371 141.684 421.371 139.444V139.416C421.371 137.358 422.827 135.692 424.759 135.692C426.761 135.692 428.035 137.316 428.035 139.43C428.035 139.556 428.035 139.598 428.021 139.71H422.099C422.211 141.488 423.513 142.524 424.899 142.524C426.019 142.524 426.747 142.034 427.349 141.404L427.825 141.824C427.097 142.608 426.229 143.168 424.871 143.168ZM422.099 139.094H427.293C427.181 137.652 426.369 136.322 424.731 136.322C423.317 136.322 422.211 137.512 422.099 139.094ZM430.037 143V135.86H430.723V137.89C431.297 136.602 432.459 135.706 433.887 135.748V136.504H433.817C432.179 136.504 430.723 137.764 430.723 140.074V143H430.037ZM442.315 143.126C441.195 143.126 440.313 142.524 440.313 141.166V136.49H439.277V135.86H440.313V133.578H440.999V135.86H443.505V136.49H440.999V141.096C440.999 142.118 441.587 142.482 442.427 142.482C442.777 142.482 443.071 142.412 443.477 142.23V142.874C443.099 143.042 442.763 143.126 442.315 143.126ZM445.54 143V132.78H446.226V137.19C446.716 136.35 447.5 135.692 448.802 135.692C450.608 135.692 451.658 136.91 451.658 138.632V143H450.972V138.758C450.972 137.288 450.16 136.322 448.704 136.322C447.304 136.322 446.226 137.372 446.226 138.87V143H445.54ZM457.136 143.168C455.26 143.168 453.636 141.684 453.636 139.444V139.416C453.636 137.358 455.092 135.692 457.024 135.692C459.026 135.692 460.3 137.316 460.3 139.43C460.3 139.556 460.3 139.598 460.286 139.71H454.364C454.476 141.488 455.778 142.524 457.164 142.524C458.284 142.524 459.012 142.034 459.614 141.404L460.09 141.824C459.362 142.608 458.494 143.168 457.136 143.168ZM454.364 139.094H459.558C459.446 137.652 458.634 136.322 456.996 136.322C455.582 136.322 454.476 137.512 454.364 139.094ZM34.928 163.168C33.5 163.168 32.59 162.356 31.988 161.46V163H31.302V152.78H31.988V157.456C32.59 156.518 33.514 155.692 34.928 155.692C36.65 155.692 38.4 157.078 38.4 159.402V159.43C38.4 161.74 36.65 163.168 34.928 163.168ZM34.858 162.51C36.426 162.51 37.658 161.362 37.658 159.458V159.43C37.658 157.554 36.37 156.35 34.858 156.35C33.36 156.35 31.946 157.596 31.946 159.416V159.444C31.946 161.278 33.36 162.51 34.858 162.51ZM43.5542 163.168C41.6782 163.168 40.0542 161.684 40.0542 159.444V159.416C40.0542 157.358 41.5102 155.692 43.4422 155.692C45.4442 155.692 46.7182 157.316 46.7182 159.43C46.7182 159.556 46.7182 159.598 46.7042 159.71H40.7822C40.8942 161.488 42.1962 162.524 43.5822 162.524C44.7022 162.524 45.4302 162.034 46.0322 161.404L46.5082 161.824C45.7802 162.608 44.9122 163.168 43.5542 163.168ZM40.7822 159.094H45.9762C45.8642 157.652 45.0522 156.322 43.4142 156.322C42.0002 156.322 40.8942 157.512 40.7822 159.094ZM51.03 163.14C49.98 163.14 48.874 162.72 48.104 162.104L48.51 161.558C49.294 162.16 50.162 162.496 51.072 162.496C52.038 162.496 52.794 161.978 52.794 161.138V161.11C52.794 160.27 51.898 159.976 50.904 159.682C49.728 159.346 48.454 159.01 48.454 157.722V157.694C48.454 156.546 49.42 155.72 50.806 155.72C51.66 155.72 52.626 156.014 53.34 156.504L52.976 157.078C52.318 156.644 51.548 156.364 50.778 156.364C49.784 156.364 49.154 156.896 49.154 157.61V157.638C49.154 158.436 50.12 158.716 51.142 159.024C52.29 159.36 53.494 159.766 53.494 161.026V161.054C53.494 162.328 52.416 163.14 51.03 163.14ZM57.9222 163.126C56.8022 163.126 55.9202 162.524 55.9202 161.166V156.49H54.8842V155.86H55.9202V153.578H56.6062V155.86H59.1122V156.49H56.6062V161.096C56.6062 162.118 57.1942 162.482 58.0342 162.482C58.3842 162.482 58.6782 162.412 59.0842 162.23V162.874C58.7062 163.042 58.3702 163.126 57.9222 163.126ZM65.345 163V155.86H66.031V157.89C66.605 156.602 67.767 155.706 69.195 155.748V156.504H69.125C67.487 156.504 66.031 157.764 66.031 160.074V163H65.345ZM73.605 163.168C71.729 163.168 70.105 161.684 70.105 159.444V159.416C70.105 157.358 71.561 155.692 73.493 155.692C75.495 155.692 76.769 157.316 76.769 159.43C76.769 159.556 76.769 159.598 76.755 159.71H70.833C70.945 161.488 72.247 162.524 73.633 162.524C74.753 162.524 75.481 162.034 76.083 161.404L76.559 161.824C75.831 162.608 74.963 163.168 73.605 163.168ZM70.833 159.094H76.027C75.915 157.652 75.103 156.322 73.465 156.322C72.051 156.322 70.945 157.512 70.833 159.094ZM81.0808 163.14C80.0308 163.14 78.9248 162.72 78.1548 162.104L78.5608 161.558C79.3448 162.16 80.2128 162.496 81.1228 162.496C82.0888 162.496 82.8448 161.978 82.8448 161.138V161.11C82.8448 160.27 81.9488 159.976 80.9548 159.682C79.7788 159.346 78.5048 159.01 78.5048 157.722V157.694C78.5048 156.546 79.4708 155.72 80.8568 155.72C81.7108 155.72 82.6768 156.014 83.3908 156.504L83.0268 157.078C82.3688 156.644 81.5988 156.364 80.8288 156.364C79.8348 156.364 79.2048 156.896 79.2048 157.61V157.638C79.2048 158.436 80.1708 158.716 81.1928 159.024C82.3408 159.36 83.5448 159.766 83.5448 161.026V161.054C83.5448 162.328 82.4668 163.14 81.0808 163.14ZM88.4457 163.168C86.6397 163.168 85.5897 161.95 85.5897 160.228V155.86H86.2757V160.102C86.2757 161.572 87.0877 162.538 88.5437 162.538C89.9437 162.538 91.0217 161.488 91.0217 159.99V155.86H91.7077V163H91.0217V161.67C90.5317 162.51 89.7477 163.168 88.4457 163.168ZM94.4137 163V152.78H95.0997V163H94.4137ZM100.182 163.126C99.062 163.126 98.18 162.524 98.18 161.166V156.49H97.144V155.86H98.18V153.578H98.866V155.86H101.372V156.49H98.866V161.096C98.866 162.118 99.454 162.482 100.294 162.482C100.644 162.482 100.938 162.412 101.344 162.23V162.874C100.966 163.042 100.63 163.126 100.182 163.126ZM105.717 163.14C104.667 163.14 103.561 162.72 102.791 162.104L103.197 161.558C103.981 162.16 104.849 162.496 105.759 162.496C106.725 162.496 107.481 161.978 107.481 161.138V161.11C107.481 160.27 106.585 159.976 105.591 159.682C104.415 159.346 103.141 159.01 103.141 157.722V157.694C103.141 156.546 104.107 155.72 105.493 155.72C106.347 155.72 107.313 156.014 108.027 156.504L107.663 157.078C107.005 156.644 106.235 156.364 105.465 156.364C104.471 156.364 103.841 156.896 103.841 157.61V157.638C103.841 158.436 104.807 158.716 105.829 159.024C106.977 159.36 108.181 159.766 108.181 161.026V161.054C108.181 162.328 107.103 163.14 105.717 163.14ZM114.984 163V156.49H113.948V155.86H114.984V155.16C114.984 154.334 115.194 153.718 115.614 153.298C115.992 152.92 116.482 152.738 117.112 152.738C117.546 152.738 117.854 152.794 118.176 152.906V153.55C117.77 153.424 117.49 153.368 117.112 153.368C116.146 153.368 115.67 153.97 115.67 155.174V155.86H118.162V156.49H115.67V163H114.984ZM122.663 163.168C120.549 163.168 119.009 161.46 119.009 159.458V159.43C119.009 157.428 120.563 155.692 122.691 155.692C124.805 155.692 126.345 157.4 126.345 159.402V159.43C126.345 161.432 124.791 163.168 122.663 163.168ZM122.691 162.524C124.385 162.524 125.603 161.138 125.603 159.458V159.43C125.603 157.694 124.315 156.336 122.663 156.336C120.969 156.336 119.751 157.722 119.751 159.402V159.43C119.751 161.166 121.039 162.524 122.691 162.524ZM128.454 163V155.86H129.14V157.89C129.714 156.602 130.876 155.706 132.304 155.748V156.504H132.234C130.596 156.504 129.14 157.764 129.14 160.074V163H128.454ZM141.267 162.244L143.843 155.86H144.599L141.505 163.252C140.875 164.75 140.147 165.282 139.125 165.282C138.579 165.282 138.201 165.184 137.711 164.974L137.949 164.372C138.327 164.554 138.621 164.638 139.167 164.638C139.923 164.638 140.399 164.204 140.931 162.958L137.501 155.86H138.299L141.267 162.244ZM149.228 163.168C147.114 163.168 145.574 161.46 145.574 159.458V159.43C145.574 157.428 147.128 155.692 149.256 155.692C151.37 155.692 152.91 157.4 152.91 159.402V159.43C152.91 161.432 151.356 163.168 149.228 163.168ZM149.256 162.524C150.95 162.524 152.168 161.138 152.168 159.458V159.43C152.168 157.694 150.88 156.336 149.228 156.336C147.534 156.336 146.316 157.722 146.316 159.402V159.43C146.316 161.166 147.604 162.524 149.256 162.524ZM157.735 163.168C155.929 163.168 154.879 161.95 154.879 160.228V155.86H155.565V160.102C155.565 161.572 156.377 162.538 157.833 162.538C159.233 162.538 160.311 161.488 160.311 159.99V155.86H160.997V163H160.311V161.67C159.821 162.51 159.037 163.168 157.735 163.168ZM163.605 163V155.86H164.291V157.89C164.865 156.602 166.027 155.706 167.455 155.748V156.504H167.385C165.747 156.504 164.291 157.764 164.291 160.074V163H163.605ZM177.033 163.168C175.605 163.168 174.695 162.356 174.093 161.46V163H173.407V152.78H174.093V157.456C174.695 156.518 175.619 155.692 177.033 155.692C178.755 155.692 180.505 157.078 180.505 159.402V159.43C180.505 161.74 178.755 163.168 177.033 163.168ZM176.963 162.51C178.531 162.51 179.763 161.362 179.763 159.458V159.43C179.763 157.554 178.475 156.35 176.963 156.35C175.465 156.35 174.051 157.596 174.051 159.416V159.444C174.051 161.278 175.465 162.51 176.963 162.51ZM185.366 163.168C183.56 163.168 182.51 161.95 182.51 160.228V155.86H183.196V160.102C183.196 161.572 184.008 162.538 185.464 162.538C186.864 162.538 187.942 161.488 187.942 159.99V155.86H188.628V163H187.942V161.67C187.452 162.51 186.668 163.168 185.366 163.168ZM194.246 163.168C192.524 163.168 190.774 161.782 190.774 159.458V159.43C190.774 157.12 192.524 155.692 194.246 155.692C195.674 155.692 196.584 156.504 197.186 157.4V152.78H197.872V163H197.186V161.404C196.556 162.342 195.674 163.168 194.246 163.168ZM194.316 162.51C195.814 162.51 197.228 161.264 197.228 159.444V159.416C197.228 157.582 195.814 156.35 194.316 156.35C192.748 156.35 191.516 157.498 191.516 159.402V159.43C191.516 161.306 192.804 162.51 194.316 162.51ZM203.614 165.268C202.41 165.268 201.318 164.904 200.338 164.176L200.744 163.616C201.612 164.288 202.578 164.624 203.628 164.624C205.252 164.624 206.428 163.686 206.428 161.852V160.816C205.798 161.698 204.874 162.468 203.446 162.468C201.724 162.468 200.016 161.152 200.016 159.108V159.08C200.016 157.008 201.724 155.692 203.446 155.692C204.888 155.692 205.826 156.448 206.428 157.288V155.86H207.114V161.894C207.114 162.944 206.778 163.742 206.204 164.316C205.588 164.932 204.678 165.268 203.614 165.268ZM203.516 161.81C205.014 161.81 206.47 160.718 206.47 159.094V159.066C206.47 157.414 205.014 156.35 203.516 156.35C202.004 156.35 200.758 157.386 200.758 159.052V159.08C200.758 160.69 202.046 161.81 203.516 161.81ZM212.73 163.168C210.854 163.168 209.23 161.684 209.23 159.444V159.416C209.23 157.358 210.686 155.692 212.618 155.692C214.62 155.692 215.894 157.316 215.894 159.43C215.894 159.556 215.894 159.598 215.88 159.71H209.958C210.07 161.488 211.372 162.524 212.758 162.524C213.878 162.524 214.606 162.034 215.208 161.404L215.684 161.824C214.956 162.608 214.088 163.168 212.73 163.168ZM209.958 159.094H215.152C215.04 157.652 214.228 156.322 212.59 156.322C211.176 156.322 210.07 157.512 209.958 159.094ZM220.276 163.126C219.156 163.126 218.274 162.524 218.274 161.166V156.49H217.238V155.86H218.274V153.578H218.96V155.86H221.466V156.49H218.96V161.096C218.96 162.118 219.548 162.482 220.388 162.482C220.738 162.482 221.032 162.412 221.438 162.23V162.874C221.06 163.042 220.724 163.126 220.276 163.126ZM223.347 163V161.81H224.271V163H223.347Z" fill="#F8F8F8"/>
<path d="M53.125 57.75H51.875V51.625C51.875 51.4592 51.8092 51.3003 51.6919 51.1831C51.5747 51.0658 51.4158 51 51.25 51C51.0842 51 50.9253 51.0658 50.8081 51.1831C50.6908 51.3003 50.625 51.4592 50.625 51.625V57.75H34.375V45.25H39.575C39.7408 45.25 39.8997 45.1842 40.0169 45.0669C40.1342 44.9497 40.2 44.7908 40.2 44.625C40.2 44.4592 40.1342 44.3003 40.0169 44.1831C39.8997 44.0658 39.7408 44 39.575 44H33.75C33.5842 44 33.4253 44.0658 33.3081 44.1831C33.1908 44.3003 33.125 44.4592 33.125 44.625V57.75H31.875C31.7092 57.75 31.5503 57.8158 31.4331 57.9331C31.3158 58.0503 31.25 58.2092 31.25 58.375V59.625C31.25 60.4538 31.5792 61.2487 32.1653 61.8347C32.7513 62.4208 33.5462 62.75 34.375 62.75H50.625C51.4538 62.75 52.2487 62.4208 52.8347 61.8347C53.4208 61.2487 53.75 60.4538 53.75 59.625V58.375C53.75 58.2092 53.6842 58.0503 53.5669 57.9331C53.4497 57.8158 53.2908 57.75 53.125 57.75ZM52.5 59.625C52.5 60.1223 52.3025 60.5992 51.9508 60.9508C51.5992 61.3025 51.1223 61.5 50.625 61.5H49.375V60.875C49.375 60.7092 49.3092 60.5503 49.1919 60.4331C49.0747 60.3158 48.9158 60.25 48.75 60.25C48.5842 60.25 48.4253 60.3158 48.3081 60.4331C48.1908 60.5503 48.125 60.7092 48.125 60.875V61.5H36.875V60.875C36.875 60.7092 36.8092 60.5503 36.6919 60.4331C36.5747 60.3158 36.4158 60.25 36.25 60.25C36.0842 60.25 35.9253 60.3158 35.8081 60.4331C35.6908 60.5503 35.625 60.7092 35.625 60.875V61.5H34.375C33.8777 61.5 33.4008 61.3025 33.0492 60.9508C32.6975 60.5992 32.5 60.1223 32.5 59.625V59H52.5V59.625Z" fill="white"/>
<path d="M63.75 29H65C65.1658 29 65.3247 28.9342 65.4419 28.8169C65.5592 28.6997 65.625 28.5408 65.625 28.375C65.625 28.2092 65.5592 28.0503 65.4419 27.9331C65.3247 27.8158 65.1658 27.75 65 27.75H63.75C63.2527 27.75 62.7758 27.9475 62.4242 28.2992C62.0725 28.6508 61.875 29.1277 61.875 29.625V30.25H61.25C61.0842 30.25 60.9253 30.3158 60.8081 30.4331C60.6908 30.5503 60.625 30.7092 60.625 30.875C60.625 31.0408 60.6908 31.1997 60.8081 31.3169C60.9253 31.4342 61.0842 31.5 61.25 31.5H61.875V33.375C61.875 33.5408 61.9408 33.6997 62.0581 33.8169C62.1753 33.9342 62.3342 34 62.5 34C62.6658 34 62.8247 33.9342 62.9419 33.8169C63.0592 33.6997 63.125 33.5408 63.125 33.375V31.5H63.75C63.9158 31.5 64.0747 31.4342 64.1919 31.3169C64.3092 31.1997 64.375 31.0408 64.375 30.875C64.375 30.7092 64.3092 30.5503 64.1919 30.4331C64.0747 30.3158 63.9158 30.25 63.75 30.25H63.125V29.625C63.125 29.4592 63.1908 29.3003 63.3081 29.1831C63.4253 29.0658 63.5842 29 63.75 29Z" fill="white"/>
<path d="M66.875 25.25H59.375C58.8777 25.25 58.4008 25.4475 58.0492 25.7992C57.6975 26.1508 57.5 26.6277 57.5 27.125V28.375C57.5 28.5408 57.5658 28.6997 57.6831 28.8169C57.8003 28.9342 57.9592 29 58.125 29C58.2908 29 58.4497 28.9342 58.5669 28.8169C58.6842 28.6997 58.75 28.5408 58.75 28.375V27.125C58.75 26.9592 58.8158 26.8003 58.9331 26.6831C59.0503 26.5658 59.2092 26.5 59.375 26.5H66.875C67.0408 26.5 67.1997 26.5658 67.3169 26.6831C67.4342 26.8003 67.5 26.9592 67.5 27.125V34.625C67.5 34.7908 67.4342 34.9497 67.3169 35.0669C67.1997 35.1842 67.0408 35.25 66.875 35.25H59.375C59.2092 35.25 59.0503 35.1842 58.9331 35.0669C58.8158 34.9497 58.75 34.7908 58.75 34.625V30.875C58.75 30.7092 58.6842 30.5503 58.5669 30.4331C58.4497 30.3158 58.2908 30.25 58.125 30.25C57.9592 30.25 57.8003 30.3158 57.6831 30.4331C57.5658 30.5503 57.5 30.7092 57.5 30.875V34.625C57.5 35.1223 57.6975 35.5992 58.0492 35.9508C58.4008 36.3025 58.8777 36.5 59.375 36.5H66.875C67.3723 36.5 67.8492 36.3025 68.2008 35.9508C68.5525 35.5992 68.75 35.1223 68.75 34.625V27.125C68.75 26.6277 68.5525 26.1508 68.2008 25.7992C67.8492 25.4475 67.3723 25.25 66.875 25.25Z" fill="white"/>
<path d="M60.625 50.25C60.625 50.7445 60.7716 51.2278 61.0463 51.6389C61.321 52.05 61.7115 52.3705 62.1683 52.5597C62.6251 52.7489 63.1278 52.7984 63.6127 52.702C64.0977 52.6055 64.5431 52.3674 64.8928 52.0178C65.2424 51.6681 65.4805 51.2227 65.577 50.7377C65.6734 50.2528 65.6239 49.7501 65.4347 49.2933C65.2455 48.8365 64.925 48.446 64.5139 48.1713C64.1028 47.8966 63.6195 47.75 63.125 47.75C62.462 47.75 61.8261 48.0134 61.3572 48.4822C60.8884 48.9511 60.625 49.587 60.625 50.25ZM64.375 50.25C64.375 50.4972 64.3017 50.7389 64.1643 50.9445C64.027 51.15 63.8318 51.3102 63.6034 51.4048C63.3749 51.4995 63.1236 51.5242 62.8811 51.476C62.6387 51.4278 62.4159 51.3087 62.2411 51.1339C62.0663 50.9591 61.9472 50.7363 61.899 50.4939C61.8508 50.2514 61.8755 50.0001 61.9702 49.7716C62.0648 49.5432 62.225 49.348 62.4305 49.2107C62.6361 49.0733 62.8778 49 63.125 49C63.4565 49 63.7745 49.1317 64.0089 49.3661C64.2433 49.6005 64.375 49.9185 64.375 50.25Z" fill="white"/>
<path d="M66.875 44.625H59.375C58.8777 44.625 58.4008 44.8225 58.0492 45.1742C57.6975 45.5258 57.5 46.0027 57.5 46.5V54C57.5 54.4973 57.6975 54.9742 58.0492 55.3258C58.4008 55.6775 58.8777 55.875 59.375 55.875H66.875C67.3723 55.875 67.8492 55.6775 68.2008 55.3258C68.5525 54.9742 68.75 54.4973 68.75 54V52.75C68.75 52.5842 68.6842 52.4253 68.5669 52.3081C68.4497 52.1908 68.2908 52.125 68.125 52.125C67.9592 52.125 67.8003 52.1908 67.6831 52.3081C67.5658 52.4253 67.5 52.5842 67.5 52.75V54C67.5 54.1658 67.4342 54.3247 67.3169 54.4419C67.1997 54.5592 67.0408 54.625 66.875 54.625H59.375C59.2092 54.625 59.0503 54.5592 58.9331 54.4419C58.8158 54.3247 58.75 54.1658 58.75 54V46.5C58.75 46.3342 58.8158 46.1753 58.9331 46.0581C59.0503 45.9408 59.2092 45.875 59.375 45.875H66.875C67.0408 45.875 67.1997 45.9408 67.3169 46.0581C67.4342 46.1753 67.5 46.3342 67.5 46.5V50.25C67.5 50.4158 67.5658 50.5747 67.6831 50.6919C67.8003 50.8092 67.9592 50.875 68.125 50.875C68.2908 50.875 68.4497 50.8092 68.5669 50.6919C68.6842 50.5747 68.75 50.4158 68.75 50.25V46.5C68.75 46.0027 68.5525 45.5258 68.2008 45.1742C67.8492 44.8225 67.3723 44.625 66.875 44.625Z" fill="white"/>
<path d="M45.2938 32.6563C45.3932 32.718 45.508 32.7504 45.625 32.7501C45.7228 32.7495 45.8192 32.7259 45.9063 32.6813L49.6563 30.8063C49.7586 30.7539 49.8445 30.6742 49.9045 30.576C49.9645 30.4779 49.9963 30.3651 49.9963 30.2501C49.9963 30.135 49.9645 30.0222 49.9045 29.9241C49.8445 29.8259 49.7586 29.7463 49.6563 29.6938L45.9063 27.8188C45.8111 27.7709 45.7053 27.748 45.5988 27.7525C45.4924 27.757 45.3889 27.7886 45.2981 27.8443C45.2073 27.9 45.1322 27.978 45.08 28.0709C45.0279 28.1638 45.0003 28.2685 45 28.3751V32.1251C44.9998 32.2313 45.0266 32.3358 45.078 32.4287C45.1294 32.5217 45.2037 32.6 45.2938 32.6563ZM46.25 29.3876L47.975 30.2501L46.25 31.1126V29.3876Z" fill="white"/>
<path d="M46.875 35.875C47.9875 35.875 49.0751 35.5451 50.0001 34.927C50.9251 34.3089 51.6461 33.4304 52.0718 32.4026C52.4976 31.3748 52.609 30.2438 52.3919 29.1526C52.1749 28.0615 51.6391 27.0592 50.8525 26.2725C50.0658 25.4859 49.0635 24.9501 47.9724 24.7331C46.8812 24.516 45.7502 24.6274 44.7224 25.0532C43.6946 25.4789 42.8161 26.1999 42.198 27.1249C41.5799 28.0499 41.25 29.1375 41.25 30.25C41.25 31.7418 41.8426 33.1726 42.8975 34.2275C43.9524 35.2824 45.3832 35.875 46.875 35.875ZM46.875 25.875C47.7403 25.875 48.5862 26.1316 49.3056 26.6123C50.0251 27.0931 50.5858 27.7763 50.917 28.5758C51.2481 29.3752 51.3347 30.2549 51.1659 31.1035C50.9971 31.9522 50.5804 32.7317 49.9686 33.3436C49.3567 33.9554 48.5772 34.3721 47.7285 34.5409C46.8799 34.7097 46.0002 34.6231 45.2008 34.292C44.4013 33.9608 43.7181 33.4001 43.2373 32.6806C42.7566 31.9612 42.5 31.1153 42.5 30.25C42.5 29.0897 42.9609 27.9769 43.7814 27.1564C44.6019 26.3359 45.7147 25.875 46.875 25.875Z" fill="white"/>
<path d="M53.125 38.375C53.222 38.375 53.3177 38.3524 53.4045 38.309C53.4913 38.2656 53.5668 38.2026 53.625 38.125L55.5 35.625C55.5995 35.4924 55.6422 35.3257 55.6187 35.1616C55.5953 34.9975 55.5076 34.8495 55.375 34.75C55.2424 34.6505 55.0757 34.6078 54.9116 34.6313C54.7475 34.6547 54.5995 34.7424 54.5 34.875L52.625 37.375C52.5255 37.5076 52.4828 37.6743 52.5063 37.8384C52.5297 38.0025 52.6174 38.1505 52.75 38.25C52.8582 38.3311 52.9898 38.375 53.125 38.375Z" fill="white"/>
<path d="M54.5 40.625C54.5582 40.7026 54.6337 40.7656 54.7205 40.809C54.8073 40.8524 54.903 40.875 55 40.875C55.1352 40.875 55.2668 40.8311 55.375 40.75L57.875 38.875C58.0076 38.7755 58.0953 38.6275 58.1187 38.4634C58.1422 38.2993 58.0995 38.1326 58 38C57.9005 37.8674 57.7525 37.7797 57.5884 37.7563C57.4243 37.7328 57.2576 37.7755 57.125 37.875L54.625 39.75C54.4924 39.8495 54.4047 39.9975 54.3813 40.1616C54.3578 40.3257 54.4005 40.4924 54.5 40.625Z" fill="white"/>
<path d="M60.6249 42.0001C60.6101 41.9172 60.5786 41.8382 60.5325 41.7678C60.4864 41.6974 60.4265 41.637 60.3564 41.5903C60.2864 41.5436 60.2076 41.5116 60.1249 41.4961C60.0422 41.4805 59.9571 41.4819 59.8749 41.5001L56.7499 42.1251C56.6679 42.1333 56.5882 42.1576 56.5155 42.1966C56.4428 42.2355 56.3785 42.2885 56.3263 42.3523C56.2208 42.4812 56.1709 42.6468 56.1874 42.8126C56.204 42.9783 56.2858 43.1307 56.4147 43.2362C56.5436 43.3417 56.7092 43.3916 56.8749 43.3751H56.9999L60.1249 42.7501C60.2078 42.7352 60.2868 42.7038 60.3572 42.6576C60.4276 42.6115 60.488 42.5516 60.5347 42.4816C60.5814 42.4115 60.6134 42.3328 60.629 42.25C60.6445 42.1673 60.6431 42.0823 60.6249 42.0001Z" fill="white"/>
<path d="M31.875 42.125H39.375C39.5408 42.125 39.6997 42.0592 39.8169 41.9419C39.9342 41.8247 40 41.6658 40 41.5V31.5C40 31.3342 39.9342 31.1753 39.8169 31.0581C39.6997 30.9408 39.5408 30.875 39.375 30.875H31.875C31.7092 30.875 31.5503 30.9408 31.4331 31.0581C31.3158 31.1753 31.25 31.3342 31.25 31.5V41.5C31.25 41.6658 31.3158 41.8247 31.4331 41.9419C31.5503 42.0592 31.7092 42.125 31.875 42.125ZM32.5 32.125H38.75V40.875H32.5V32.125Z" fill="white"/>
<path d="M36.875 33.375H35.625C35.4592 33.375 35.3003 33.4408 35.1831 33.5581C35.0658 33.6753 35 33.8342 35 34C35 34.1658 35.0658 34.3247 35.1831 34.4419C35.3003 34.5592 35.4592 34.625 35.625 34.625H36.875C37.0408 34.625 37.1997 34.5592 37.3169 34.4419C37.4342 34.3247 37.5 34.1658 37.5 34C37.5 33.8342 37.4342 33.6753 37.3169 33.5581C37.1997 33.4408 37.0408 33.375 36.875 33.375Z" fill="white"/>
<path d="M36.875 35.875H34.375C34.2092 35.875 34.0503 35.9408 33.9331 36.0581C33.8158 36.1753 33.75 36.3342 33.75 36.5C33.75 36.6658 33.8158 36.8247 33.9331 36.9419C34.0503 37.0592 34.2092 37.125 34.375 37.125H36.875C37.0408 37.125 37.1997 37.0592 37.3169 36.9419C37.4342 36.8247 37.5 36.6658 37.5 36.5C37.5 36.3342 37.4342 36.1753 37.3169 36.0581C37.1997 35.9408 37.0408 35.875 36.875 35.875Z" fill="white"/>
<path d="M36.875 38.375H34.375C34.2092 38.375 34.0503 38.4408 33.9331 38.5581C33.8158 38.6753 33.75 38.8342 33.75 39C33.75 39.1658 33.8158 39.3247 33.9331 39.4419C34.0503 39.5592 34.2092 39.625 34.375 39.625H36.875C37.0408 39.625 37.1997 39.5592 37.3169 39.4419C37.4342 39.3247 37.5 39.1658 37.5 39C37.5 38.8342 37.4342 38.6753 37.3169 38.5581C37.1997 38.4408 37.0408 38.375 36.875 38.375Z" fill="white"/>
<path d="M52.575 41.9375C52.534 41.8661 52.4793 41.8035 52.414 41.7532C52.3488 41.703 52.2743 41.666 52.1948 41.6446C52.1153 41.6231 52.0323 41.6175 51.9506 41.6281C51.869 41.6387 51.7902 41.6652 51.7188 41.7063C51.6474 41.7473 51.5847 41.802 51.5345 41.8673C51.4842 41.9325 51.4473 42.007 51.4258 42.0865C51.4043 42.166 51.3987 42.249 51.4093 42.3307C51.4199 42.4123 51.4465 42.4911 51.4875 42.5625L54.2438 47.3313L44.2438 51.0813C44.2438 51.0813 44.2438 51.0813 44.2 51.0813H44.15L42.525 52.0188L41.4438 52.6438C41.3014 52.7261 41.1442 52.7795 40.9812 52.8009C40.8182 52.8224 40.6526 52.8114 40.4938 52.7688C40.1748 52.6826 39.9029 52.4736 39.7375 52.1875L38.4875 50.025C38.3405 49.7421 38.3071 49.4137 38.3942 49.1069C38.4814 48.8002 38.6824 48.5384 38.9563 48.375L41.1188 47.125L42.6813 49.8313C42.7363 49.9267 42.8156 50.0058 42.9111 50.0607C43.0066 50.1155 43.1149 50.1442 43.225 50.1438C43.3349 50.1442 43.443 50.1157 43.5384 50.061C43.6337 50.0063 43.713 49.9274 43.7681 49.8324C43.8233 49.7373 43.8524 49.6293 43.8525 49.5194C43.8526 49.4095 43.8237 49.3015 43.7688 49.2063L42.1563 46.4188L50 39.95L50.2563 40.3938C50.2973 40.4652 50.352 40.5278 50.4172 40.5781C50.4825 40.6283 50.557 40.6653 50.6365 40.6867C50.716 40.7082 50.799 40.7138 50.8806 40.7032C50.9623 40.6926 51.0411 40.6661 51.1125 40.625C51.1839 40.584 51.2465 40.5293 51.2968 40.464C51.3471 40.3988 51.384 40.3243 51.4055 40.2448C51.427 40.1653 51.4326 40.0823 51.422 40.0006C51.4114 39.919 51.3848 39.8402 51.3438 39.7688L50.7188 38.6875C50.673 38.6092 50.6107 38.5418 50.5362 38.49C50.4617 38.4382 50.3769 38.4032 50.2875 38.3875C50.1977 38.3706 50.1052 38.3736 50.0167 38.3962C49.9281 38.4189 49.8456 38.4607 49.775 38.5188L41.025 45.7313L38.3625 47.2688C37.8847 47.5471 37.5127 47.9759 37.3046 48.4882C37.0965 49.0005 37.0641 49.5674 37.2125 50.1L36.5875 50.4563C36.2655 50.6412 36.0056 50.9176 35.8409 51.2504C35.6761 51.5832 35.6139 51.9574 35.6621 52.3256C35.7103 52.6938 35.8668 53.0394 36.1116 53.3186C36.3565 53.5978 36.6787 53.798 37.0375 53.8938C37.1966 53.9359 37.3605 53.9569 37.525 53.9563C37.8538 53.9549 38.1767 53.8688 38.4625 53.7063L39.0875 53.35C39.3878 53.6602 39.7653 53.8846 40.1813 54C40.3948 54.0598 40.6157 54.0892 40.8375 54.0875C41.2768 54.0885 41.7084 53.972 42.0875 53.75L42.6313 53.4375L43.8813 55.6063C44.1297 56.0358 44.5382 56.3493 45.0174 56.4782C45.4965 56.607 46.0072 56.5407 46.4375 56.2938C46.651 56.1708 46.8382 56.0069 46.9883 55.8115C47.1384 55.6161 47.2485 55.393 47.3124 55.155C47.3762 54.917 47.3926 54.6688 47.3604 54.4245C47.3283 54.1802 47.2483 53.9446 47.125 53.7313L45.9875 51.75L55.3625 48.2313C55.4475 48.1993 55.5246 48.1492 55.5883 48.0844C55.6519 48.0197 55.7007 47.9418 55.7313 47.8563C55.7617 47.7717 55.7735 47.6816 55.766 47.5921C55.7584 47.5026 55.7317 47.4158 55.6875 47.3375L52.575 41.9375ZM37.8125 52.6188C37.7413 52.6599 37.6628 52.6866 37.5812 52.6973C37.4997 52.7081 37.4169 52.7026 37.3375 52.6813C37.1774 52.6397 37.0403 52.5363 36.9563 52.3938C36.9151 52.3226 36.8884 52.244 36.8777 52.1625C36.867 52.081 36.8724 51.9982 36.8938 51.9188C36.9151 51.839 36.9521 51.7642 37.0025 51.6987C37.0529 51.6333 37.1158 51.5785 37.1875 51.5375L37.7313 51.225L38.3563 52.3063L37.8125 52.6188ZM46.0375 54.3688C46.0787 54.4399 46.1054 54.5185 46.1161 54.6C46.1268 54.6816 46.1214 54.7644 46.1 54.8438C46.0554 55.0026 45.9498 55.1375 45.8063 55.2188C45.6635 55.3008 45.4942 55.3231 45.335 55.281C45.1759 55.2389 45.0398 55.1357 44.9563 54.9938L43.7063 52.825L44.7438 52.2313H44.7938L46.0375 54.3688Z" fill="white"/>
</g>
<rect x="0.5" y="0.5" width="492" height="203" rx="19.5" stroke="#404040"/>
<defs>
<filter id="filter1_f_72_165" x="-56.2876" y="-89.9233" width="696.446" height="686.79" filterUnits="userSpaceOnUse" color-interpolation-filters="sRGB">
<feFlood flood-opacity="0" result="BackgroundImageFix"/>
<feBlend mode="normal" in="SourceGraphic" in2="BackgroundImageFix" result="shape"/>
<feGaussianBlur stdDeviation="125" result="effect1_foregroundBlur_72_165"/>
</filter>
<clipPath id="clip0_72_165">
<rect width="493" height="204" rx="20" fill="white"/>
</clipPath>
</defs>
</svg>
