<svg width="47" height="23" viewBox="0 0 47 23" fill="none" xmlns="http://www.w3.org/2000/svg">
<path d="M35.2307 0C30.7081 0 26.7734 3.05513 23.2405 6.43365C19.737 3.06003 15.8563 0 11.2381 0C5.04206 0 0 5.04206 0 11.2381C0 17.4341 5.04206 22.4761 11.2381 22.4761C15.795 22.4761 19.7248 19.2642 23.2381 15.822C26.5504 19.0804 30.4729 22.4761 35.2307 22.4761C41.4267 22.4761 46.4688 17.4341 46.4688 11.2381C46.4688 5.04206 41.4267 0 35.2307 0ZM35.2307 21.5525C30.8208 21.5525 27.0747 18.2989 23.8947 15.1727C24.3822 14.6876 24.86 14.2001 25.3304 13.7199C25.4921 13.5557 25.6537 13.3916 25.813 13.2274C28.5276 15.8587 31.6954 18.5464 35.2283 18.5464C39.2585 18.5464 42.539 15.2683 42.539 11.2356C42.539 7.20294 39.2585 3.92487 35.2283 3.92487C30.784 3.92487 26.8567 7.90854 23.0592 11.7599C19.323 15.55 15.4594 19.4675 11.2356 19.4675C6.6958 19.4675 3.00122 15.773 3.00122 11.2332C3.00122 6.99959 6.2107 3.50592 10.3242 3.05023C10.5055 3.37852 10.851 3.60392 11.2503 3.60392C11.8359 3.60392 12.3111 3.12862 12.3111 2.54308C12.3111 1.95753 11.8359 1.48224 11.2503 1.48224C10.8118 1.48224 10.4369 1.74929 10.2752 2.12658C5.67415 2.60923 2.07513 6.50715 2.07513 11.2332C2.07513 16.2826 6.18375 20.3912 11.2332 20.3912C15.844 20.3912 19.8448 16.3316 23.7158 12.4067C27.381 8.69008 31.1686 4.84606 35.2258 4.84606C38.7464 4.84606 41.6105 7.71009 41.6105 11.2332C41.6105 14.7562 38.7464 17.6178 35.2258 17.6178C32.3348 17.6178 29.6129 15.6088 26.4622 12.5659C29.4782 9.53532 32.3593 6.92609 35.2258 6.92609C37.5998 6.92609 39.5329 8.85668 39.5329 11.2332C39.5329 13.6096 37.5998 15.5402 35.2258 15.5402C33.7803 15.5402 32.1094 14.7195 30.0123 12.98C30.0343 12.8942 30.049 12.8085 30.049 12.7154C30.049 12.1299 29.5737 11.6546 28.9882 11.6546C28.4026 11.6546 27.9249 12.1299 27.9249 12.7154C27.9249 13.3009 28.4026 13.7762 28.9882 13.7762C29.1401 13.7762 29.2846 13.7419 29.4145 13.6856C31.7125 15.5966 33.5304 16.4639 35.2234 16.4639C38.107 16.4639 40.4541 14.1168 40.4541 11.2332C40.4541 8.34953 38.107 6.00245 35.2234 6.00245C31.6121 6.00245 28.236 9.43487 24.664 13.0682C20.5651 17.2381 16.3267 21.5476 11.2307 21.5476C5.5443 21.5476 0.916298 16.922 0.916298 11.2332C0.916298 5.54431 5.54921 0.923643 11.2381 0.923643C15.5206 0.923643 19.2177 3.84647 22.5766 7.07799C21.9224 7.71744 21.283 8.36178 20.6582 8.99388C20.6582 8.99388 20.6558 8.99633 20.6533 8.99878C17.9657 6.441 14.7709 3.92977 11.2381 3.92977C7.20784 3.92977 3.92731 7.20784 3.92731 11.2405C3.92731 15.2732 7.20539 18.5513 11.2381 18.5513C15.2707 18.5513 19.0315 14.8469 22.9735 10.9269C26.8885 7.03389 30.9359 3.00613 35.2307 3.00613C39.7705 3.00613 43.4651 6.7007 43.4651 11.2405C43.4651 15.4716 40.2581 18.9653 36.1446 19.4234C35.9608 19.1025 35.6203 18.882 35.2234 18.882C34.6378 18.882 34.1625 19.3573 34.1625 19.9428C34.1625 20.5284 34.6378 21.0037 35.2234 21.0037C35.6668 21.0037 36.0466 20.7317 36.2058 20.3446C40.7995 19.8571 44.3887 15.9592 44.3887 11.2405C44.3887 6.1911 40.2801 2.08248 35.2307 2.08248C30.5537 2.08248 26.3691 6.245 22.3218 10.2703C18.5194 14.0531 14.9277 17.6252 11.2381 17.6252C7.54839 17.6252 4.85341 14.7611 4.85341 11.2405C4.85341 7.71989 7.71744 4.85341 11.2381 4.85341C14.4451 4.85341 17.4512 7.22744 20.0016 9.65537C16.9024 12.7693 13.9698 15.5451 11.2381 15.5451C8.86403 15.5451 6.93099 13.6121 6.93099 11.2381C6.93099 8.86403 8.86158 6.93099 11.2381 6.93099C12.7742 6.93099 14.4671 7.70274 16.5129 9.34422C16.4933 9.42752 16.4786 9.51082 16.4786 9.59902C16.4786 10.1846 16.9539 10.6599 17.5394 10.6599C18.125 10.6599 18.6003 10.1846 18.6003 9.59902C18.6003 9.01348 18.125 8.53818 17.5394 8.53818C17.3826 8.53818 17.2381 8.57248 17.1033 8.63373C14.8763 6.8477 12.9947 6.00735 11.2381 6.00735C8.35443 6.00735 6.00735 8.35443 6.00735 11.2381C6.00735 14.1217 8.35443 16.4688 11.2381 16.4688C14.548 16.4688 17.8334 13.1539 21.3148 9.64312C25.3671 5.55656 29.9608 0.923643 35.2307 0.923643C40.9171 0.923643 45.5451 5.55166 45.5451 11.2381C45.5451 16.9245 40.9196 21.5525 35.2307 21.5525ZM10.8853 2.54798C10.8853 2.34463 11.0494 2.17803 11.2528 2.17803C11.4561 2.17803 11.6203 2.34218 11.6203 2.54798C11.6203 2.75378 11.4561 2.91548 11.2528 2.91548C11.0494 2.91548 10.8853 2.75133 10.8853 2.54798ZM28.9931 13.0902C28.7897 13.0902 28.6231 12.9236 28.6231 12.7227C28.6231 12.5218 28.7873 12.3553 28.9931 12.3553C29.1989 12.3553 29.3606 12.5194 29.3606 12.7227C29.3606 12.9261 29.1964 13.0902 28.9931 13.0902ZM35.5933 19.9404C35.5933 20.1437 35.4292 20.3079 35.2234 20.3079C35.0176 20.3079 34.8559 20.1437 34.8559 19.9404C34.8559 19.737 35.0225 19.5729 35.2234 19.5729C35.4243 19.5729 35.5933 19.737 35.5933 19.9404ZM17.5394 9.23153C17.7428 9.23153 17.9069 9.39567 17.9069 9.59902C17.9069 9.80237 17.7428 9.96652 17.5394 9.96652C17.3361 9.96652 17.1719 9.79992 17.1719 9.59902C17.1719 9.39812 17.3361 9.23153 17.5394 9.23153Z" fill="#E800A1"/>
</svg>
